<svg width="117" height="117" viewBox="0 0 117 117" fill="none" xmlns="http://www.w3.org/2000/svg">
<path d="M53.3892 3.03891C56.539 1.16601 60.461 1.16601 63.6108 3.03892L69.599 6.59951C71.1827 7.5412 72.9958 8.02703 74.8382 8.00336L81.8045 7.91388C85.4687 7.86682 88.8653 9.8278 90.6566 13.0247L94.0623 19.1024C94.963 20.7097 96.2903 22.037 97.8977 22.9377L103.975 26.3434C107.172 28.1347 109.133 31.5313 109.086 35.1956L108.997 42.1618C108.973 44.0042 109.459 45.8173 110.4 47.401L113.961 53.3892C115.834 56.539 115.834 60.461 113.961 63.6108L110.4 69.599C109.459 71.1827 108.973 72.9958 108.997 74.8382L109.086 81.8044C109.133 85.4687 107.172 88.8653 103.975 90.6566L97.8977 94.0622C96.2903 94.963 94.963 96.2903 94.0622 97.8977L90.6566 103.975C88.8653 107.172 85.4687 109.133 81.8044 109.086L74.8382 108.997C72.9958 108.973 71.1827 109.459 69.599 110.4L63.6108 113.961C60.461 115.834 56.539 115.834 53.3892 113.961L47.401 110.4C45.8173 109.459 44.0042 108.973 42.1618 108.997L35.1956 109.086C31.5313 109.133 28.1347 107.172 26.3434 103.975L22.9377 97.8977C22.037 96.2903 20.7097 94.963 19.1023 94.0622L13.0247 90.6566C9.8278 88.8653 7.86682 85.4687 7.91388 81.8044L8.00336 74.8382C8.02703 72.9958 7.5412 71.1827 6.59951 69.599L3.03891 63.6108C1.16601 60.461 1.16601 56.539 3.03892 53.3892L6.59951 47.401C7.5412 45.8173 8.02703 44.0042 8.00336 42.1618L7.91388 35.1956C7.86682 31.5313 9.8278 28.1347 13.0247 26.3434L19.1024 22.9377C20.7097 22.037 22.037 20.7097 22.9377 19.1023L26.3434 13.0247C28.1347 9.8278 31.5313 7.86682 35.1956 7.91388L42.1618 8.00336C44.0042 8.02703 45.8173 7.5412 47.401 6.59951L53.3892 3.03891Z" fill="#2567EF"/>
<path d="M49.0201 78.9397L30.8201 60.7397C29.7266 59.6463 29.7266 57.8734 30.8201 56.7799L34.7798 52.8201C35.8732 51.7265 37.6462 51.7265 38.7396 52.8201L50.2929 64.3732C50.6834 64.7638 51.3166 64.7638 51.7071 64.3732L77.2604 38.8201C78.3538 37.7266 80.1268 37.7266 81.2202 38.8201L85.1799 42.7799C86.2733 43.8733 86.2733 45.6462 85.1799 46.7397L52.9799 78.9398C51.8864 80.0332 50.1135 80.0332 49.0201 78.9397Z" fill="#EBEEF3"/>
</svg>
