<svg width="310" height="408" viewBox="0 0 310 408" fill="none" xmlns="http://www.w3.org/2000/svg">
<g clip-path="url(#clip0_165_4134)">
<rect y="49" width="149.521" height="77.1778" rx="7.43305" fill="#10132E"/>
<path d="M46.0904 93.2974V82.4857H50.1448C50.9754 82.4857 51.6723 82.63 52.2354 82.9185C52.802 83.2071 53.2296 83.6119 53.5182 84.1328C53.8103 84.6501 53.9564 85.2537 53.9564 85.9435C53.9564 86.6368 53.8086 87.2387 53.5129 87.749C53.2208 88.2558 52.7897 88.6482 52.2195 88.9262C51.6494 89.2007 50.949 89.338 50.1184 89.338H47.2307V87.712H49.8545C50.3402 87.712 50.7379 87.6451 51.0476 87.5114C51.3573 87.3742 51.586 87.1753 51.7339 86.9149C51.8852 86.6509 51.9609 86.3271 51.9609 85.9435C51.9609 85.5599 51.8852 85.2326 51.7339 84.9616C51.5825 84.6871 51.352 84.4794 51.0423 84.3386C50.7326 84.1943 50.3331 84.1222 49.8439 84.1222H48.049V93.2974H46.0904ZM51.6758 88.3983L54.3523 93.2974H52.1667L49.5377 88.3983H51.6758ZM59.1484 93.4557C58.3354 93.4557 57.6333 93.2868 57.042 92.9489C56.4543 92.6076 56.0021 92.1254 55.6853 91.5025C55.3686 90.876 55.2102 90.1387 55.2102 89.2905C55.2102 88.4564 55.3686 87.7243 55.6853 87.0944C56.0056 86.4609 56.4525 85.9681 57.0262 85.6162C57.5999 85.2607 58.2738 85.083 59.0481 85.083C59.5479 85.083 60.0195 85.1639 60.4629 85.3258C60.9099 85.4842 61.3041 85.7306 61.6455 86.0649C61.9904 86.3993 62.2614 86.8251 62.4585 87.3425C62.6555 87.8563 62.7541 88.4687 62.7541 89.1796V89.7656H56.1076V88.4775H60.9222C60.9187 88.1115 60.8395 87.7859 60.6847 87.5009C60.5298 87.2123 60.3134 86.9853 60.0353 86.8198C59.7608 86.6544 59.4405 86.5717 59.0745 86.5717C58.6839 86.5717 58.3407 86.6667 58.0451 86.8568C57.7495 87.0433 57.5189 87.2897 57.3535 87.5959C57.1916 87.8985 57.1089 88.2311 57.1054 88.5936V89.7181C57.1054 90.1897 57.1916 90.5944 57.3641 90.9323C57.5365 91.2666 57.7776 91.5236 58.0873 91.7031C58.397 91.879 58.7595 91.967 59.1748 91.967C59.4529 91.967 59.7045 91.9283 59.9297 91.8509C60.155 91.7699 60.3503 91.652 60.5157 91.4972C60.6811 91.3423 60.8061 91.1505 60.8905 90.9217L62.6749 91.1224C62.5623 91.594 62.3476 92.0057 62.0308 92.3577C61.7176 92.7061 61.3164 92.9771 60.8272 93.1707C60.338 93.3607 59.7784 93.4557 59.1484 93.4557ZM66.7042 93.461C66.1904 93.461 65.7276 93.3695 65.3158 93.1865C64.9075 93 64.5838 92.7255 64.3444 92.363C64.1086 92.0005 63.9907 91.5535 63.9907 91.022C63.9907 90.5645 64.0752 90.1862 64.2441 89.887C64.4131 89.5879 64.6436 89.3486 64.9357 89.1691C65.2278 88.9896 65.5569 88.8541 65.9229 88.7626C66.2924 88.6675 66.6743 88.5989 67.0685 88.5567C67.5436 88.5074 67.929 88.4634 68.2246 88.4247C68.5202 88.3825 68.7349 88.3191 68.8687 88.2347C69.0059 88.1467 69.0746 88.0112 69.0746 87.8282V87.7965C69.0746 87.3988 68.9567 87.0908 68.7208 86.8726C68.485 86.6544 68.1454 86.5453 67.702 86.5453C67.2339 86.5453 66.8626 86.6474 66.5881 86.8515C66.3171 87.0556 66.1341 87.2967 66.039 87.5748L64.2547 87.3214C64.3955 86.8286 64.6277 86.4169 64.9515 86.086C65.2753 85.7517 65.6713 85.5018 66.1393 85.3364C66.6074 85.1675 67.1248 85.083 67.6914 85.083C68.0821 85.083 68.471 85.1288 68.8581 85.2203C69.2452 85.3118 69.5989 85.4631 69.9192 85.6743C70.2395 85.8819 70.4964 86.1652 70.69 86.5242C70.8871 86.8832 70.9856 87.3319 70.9856 87.8704V93.2974H69.1485V92.1835H69.0851C68.969 92.4087 68.8053 92.6199 68.5941 92.817C68.3865 93.0105 68.1243 93.1671 67.8076 93.2868C67.4943 93.4029 67.1265 93.461 66.7042 93.461ZM67.2005 92.0568C67.5841 92.0568 67.9167 91.9811 68.1982 91.8298C68.4798 91.6749 68.6962 91.4708 68.8475 91.2174C69.0024 90.964 69.0798 90.6877 69.0798 90.3885V89.433C69.02 89.4823 68.9179 89.528 68.7736 89.5703C68.6329 89.6125 68.4745 89.6495 68.2985 89.6811C68.1225 89.7128 67.9483 89.741 67.7759 89.7656C67.6034 89.7902 67.4539 89.8114 67.3272 89.829C67.0421 89.8677 66.7869 89.931 66.5617 90.019C66.3364 90.107 66.1587 90.2302 66.0285 90.3885C65.8983 90.5434 65.8332 90.744 65.8332 90.9904C65.8332 91.3423 65.9616 91.608 66.2185 91.7875C66.4754 91.967 66.8028 92.0568 67.2005 92.0568ZM76.4443 93.4557C75.6348 93.4557 74.9397 93.278 74.359 92.9225C73.7818 92.5671 73.3366 92.0761 73.0234 91.4497C72.7137 90.8197 72.5588 90.0947 72.5588 89.2746C72.5588 88.4511 72.7172 87.7243 73.0339 87.0944C73.3507 86.4609 73.7976 85.9681 74.3748 85.6162C74.9555 85.2607 75.6418 85.083 76.4337 85.083C77.0918 85.083 77.6743 85.2044 78.1811 85.4473C78.6914 85.6866 79.0979 86.0262 79.4006 86.4661C79.7032 86.9025 79.8757 87.4129 79.9179 87.9971H78.0913C78.0174 87.6064 77.8415 87.2809 77.5634 87.0204C77.2889 86.7565 76.9211 86.6245 76.4601 86.6245C76.0694 86.6245 75.7263 86.7301 75.4307 86.9413C75.135 87.1489 74.9045 87.4481 74.7391 87.8387C74.5772 88.2294 74.4962 88.6975 74.4962 89.243C74.4962 89.7955 74.5772 90.2706 74.7391 90.6683C74.901 91.0625 75.128 91.367 75.4201 91.5816C75.7157 91.7928 76.0624 91.8984 76.4601 91.8984C76.7416 91.8984 76.9933 91.8456 77.215 91.74C77.4403 91.6309 77.6285 91.4743 77.7799 91.2702C77.9312 91.066 78.035 90.8179 78.0913 90.5258H79.9179C79.8722 91.0995 79.7032 91.608 79.4111 92.0515C79.119 92.4914 78.7213 92.8363 78.218 93.0862C77.7148 93.3326 77.1235 93.4557 76.4443 93.4557ZM85.5363 85.1886V86.6667H80.8748V85.1886H85.5363ZM82.0256 83.2459H83.9367V90.8584C83.9367 91.1153 83.9754 91.3124 84.0528 91.4497C84.1338 91.5834 84.2394 91.6749 84.3696 91.7242C84.4998 91.7734 84.6441 91.7981 84.8025 91.7981C84.9221 91.7981 85.0312 91.7893 85.1298 91.7717C85.2318 91.7541 85.3093 91.7383 85.3621 91.7242L85.6841 93.2182C85.582 93.2534 85.436 93.2921 85.2459 93.3343C85.0594 93.3766 84.8306 93.4012 84.5596 93.4082C84.081 93.4223 83.6499 93.3502 83.2662 93.1918C82.8826 93.0299 82.5782 92.78 82.3529 92.4421C82.1312 92.1043 82.0221 91.6819 82.0256 91.1751V83.2459ZM91.4846 82.4857H93.4273V90.0876C93.4238 90.7845 93.276 91.3846 92.9838 91.8878C92.6917 92.3876 92.2835 92.773 91.7591 93.044C91.2382 93.3114 90.6311 93.4452 89.9378 93.4452C89.3043 93.4452 88.7341 93.3326 88.2273 93.1073C87.724 92.8786 87.3246 92.5407 87.029 92.0937C86.7333 91.6467 86.5855 91.0907 86.5855 90.4255H88.5335C88.537 90.7176 88.6004 90.9693 88.7236 91.1804C88.8503 91.3916 89.0245 91.5535 89.2462 91.6661C89.4679 91.7787 89.7231 91.835 90.0117 91.835C90.3249 91.835 90.5906 91.7699 90.8088 91.6397C91.027 91.506 91.1924 91.3089 91.3051 91.0484C91.4212 90.788 91.481 90.4677 91.4846 90.0876V82.4857ZM101.428 85.4578C101.379 84.9968 101.171 84.6378 100.805 84.3809C100.442 84.124 99.9708 83.9955 99.3901 83.9955C98.9818 83.9955 98.6317 84.0571 98.3395 84.1803C98.0474 84.3034 97.8239 84.4706 97.6691 84.6818C97.5142 84.893 97.435 85.134 97.4315 85.405C97.4315 85.6303 97.4826 85.8256 97.5846 85.991C97.6902 86.1564 97.8327 86.2972 98.0122 86.4133C98.1917 86.526 98.3906 86.621 98.6088 86.6984C98.827 86.7758 99.0469 86.841 99.2687 86.8938L100.282 87.1471C100.691 87.2422 101.083 87.3706 101.46 87.5325C101.84 87.6944 102.179 87.8985 102.478 88.1449C102.781 88.3913 103.02 88.6887 103.196 89.0371C103.372 89.3855 103.46 89.7938 103.46 90.2619C103.46 90.8953 103.298 91.4532 102.975 91.9353C102.651 92.414 102.183 92.7888 101.57 93.0598C100.962 93.3273 100.224 93.461 99.3584 93.461C98.5173 93.461 97.787 93.3308 97.1676 93.0704C96.5517 92.8099 96.0695 92.4298 95.7211 91.9301C95.3762 91.4303 95.1896 90.8214 95.1615 90.1035H97.0884C97.1165 90.4801 97.2327 90.7933 97.4368 91.0432C97.6409 91.293 97.9067 91.4796 98.234 91.6028C98.5648 91.7259 98.9343 91.7875 99.3426 91.7875C99.7684 91.7875 100.141 91.7242 100.462 91.5975C100.786 91.4673 101.039 91.2878 101.222 91.059C101.405 90.8267 101.498 90.5557 101.502 90.246C101.498 89.9645 101.416 89.7322 101.254 89.5492C101.092 89.3626 100.865 89.2078 100.573 89.0846C100.284 88.9579 99.9462 88.8453 99.559 88.7467L98.329 88.43C97.4386 88.2012 96.7347 87.8546 96.2173 87.39C95.7035 86.9219 95.4466 86.3007 95.4466 85.5264C95.4466 84.8894 95.619 84.3316 95.9639 83.853C96.3123 83.3743 96.7857 83.003 97.384 82.7391C97.9823 82.4716 98.6598 82.3378 99.4165 82.3378C100.184 82.3378 100.856 82.4716 101.433 82.7391C102.014 83.003 102.47 83.3708 102.8 83.8424C103.131 84.3105 103.302 84.849 103.313 85.4578H101.428Z" fill="white"/>
<rect y="139.186" width="149.521" height="77.1778" rx="7.43305" fill="#10132E"/>
<path d="M47.4381 183.483V172.671H54.4699V174.313H49.3966V177.248H54.1056V178.89H49.3966V181.841H54.5121V183.483H47.4381ZM57.9462 175.374L59.5828 178.367L61.2457 175.374H63.2676L60.8234 179.429L63.3098 183.483H61.2985L59.5828 180.564L57.8829 183.483H55.8557L58.3263 179.429L55.919 175.374H57.9462ZM64.7458 186.524V175.374H66.6251V176.715H66.736C66.8346 176.518 66.9736 176.309 67.1531 176.087C67.3326 175.862 67.5754 175.67 67.8816 175.511C68.1878 175.349 68.5784 175.269 69.0536 175.269C69.68 175.269 70.2449 175.429 70.7482 175.749C71.255 176.066 71.6562 176.536 71.9518 177.158C72.251 177.778 72.4005 178.538 72.4005 179.439C72.4005 180.329 72.2545 181.086 71.9624 181.709C71.6703 182.332 71.2726 182.807 70.7693 183.134C70.266 183.462 69.6959 183.625 69.0588 183.625C68.5943 183.625 68.2089 183.548 67.9027 183.393C67.5965 183.238 67.3502 183.052 67.1636 182.834C66.9806 182.612 66.8381 182.402 66.736 182.205H66.6568V186.524H64.7458ZM66.6199 179.429C66.6199 179.953 66.6938 180.412 66.8416 180.806C66.9929 181.201 67.2094 181.509 67.4909 181.73C67.776 181.948 68.1209 182.058 68.5256 182.058C68.948 182.058 69.3017 181.945 69.5868 181.72C69.8718 181.491 70.0865 181.179 70.2308 180.785C70.3786 180.388 70.4525 179.935 70.4525 179.429C70.4525 178.925 70.3804 178.478 70.2361 178.088C70.0918 177.697 69.8771 177.391 69.592 177.169C69.307 176.947 68.9515 176.836 68.5256 176.836C68.1174 176.836 67.7707 176.944 67.4856 177.158C67.2006 177.373 66.9841 177.674 66.8363 178.061C66.692 178.448 66.6199 178.904 66.6199 179.429ZM74.0371 183.483V175.374H75.8901V176.726H75.9745C76.1223 176.258 76.3757 175.897 76.7347 175.643C77.0972 175.386 77.5108 175.258 77.9753 175.258C78.0809 175.258 78.1988 175.263 78.329 175.274C78.4628 175.281 78.5736 175.293 78.6616 175.311V177.069C78.5807 177.041 78.4522 177.016 78.2762 176.995C78.1038 176.97 77.9366 176.958 77.7747 176.958C77.4263 176.958 77.1131 177.034 76.835 177.185C76.5605 177.333 76.3441 177.539 76.1857 177.803C76.0273 178.066 75.9481 178.371 75.9481 178.716V183.483H74.0371ZM83.1872 183.641C82.3742 183.641 81.6721 183.472 81.0808 183.134C80.493 182.793 80.0408 182.311 79.724 181.688C79.4073 181.062 79.2489 180.324 79.2489 179.476C79.2489 178.642 79.4073 177.91 79.724 177.28C80.0443 176.646 80.4913 176.154 81.065 175.802C81.6386 175.446 82.3126 175.269 83.0869 175.269C83.5866 175.269 84.0582 175.349 84.5017 175.511C84.9486 175.67 85.3428 175.916 85.6842 176.25C86.0291 176.585 86.3001 177.011 86.4972 177.528C86.6943 178.042 86.7928 178.654 86.7928 179.365V179.951H80.1464V178.663H84.961C84.9574 178.297 84.8783 177.971 84.7234 177.686C84.5686 177.398 84.3521 177.171 84.0741 177.005C83.7996 176.84 83.4793 176.757 83.1133 176.757C82.7226 176.757 82.3795 176.852 82.0838 177.042C81.7882 177.229 81.5577 177.475 81.3923 177.781C81.2304 178.084 81.1477 178.417 81.1441 178.779V179.904C81.1441 180.375 81.2304 180.78 81.4028 181.118C81.5753 181.452 81.8164 181.709 82.1261 181.889C82.4358 182.065 82.7983 182.153 83.2136 182.153C83.4916 182.153 83.7432 182.114 83.9685 182.036C84.1937 181.955 84.3891 181.838 84.5545 181.683C84.7199 181.528 84.8448 181.336 84.9293 181.107L86.7136 181.308C86.601 181.78 86.3863 182.191 86.0696 182.543C85.7564 182.892 85.3551 183.163 84.8659 183.356C84.3767 183.546 83.8172 183.641 83.1872 183.641ZM94.8185 177.517L93.0763 177.708C93.0271 177.532 92.9408 177.366 92.8177 177.211C92.698 177.056 92.5361 176.931 92.332 176.836C92.1279 176.741 91.878 176.694 91.5823 176.694C91.1846 176.694 90.8503 176.78 90.5793 176.953C90.3118 177.125 90.1798 177.349 90.1834 177.623C90.1798 177.859 90.2661 178.051 90.442 178.198C90.6215 178.346 90.9172 178.468 91.3289 178.563L92.7121 178.858C93.4793 179.024 94.0495 179.286 94.4225 179.645C94.7991 180.004 94.9892 180.474 94.9927 181.054C94.9892 181.565 94.8396 182.015 94.5439 182.406C94.2518 182.793 93.8453 183.096 93.3245 183.314C92.8036 183.532 92.2053 183.641 91.5296 183.641C90.5371 183.641 89.7382 183.434 89.1328 183.018C88.5275 182.6 88.1667 182.017 88.0506 181.271L89.9141 181.091C89.9986 181.457 90.1781 181.734 90.4526 181.92C90.7271 182.107 91.0843 182.2 91.5243 182.2C91.9783 182.2 92.3425 182.107 92.6171 181.92C92.8951 181.734 93.0341 181.503 93.0341 181.229C93.0341 180.996 92.9444 180.805 92.7649 180.653C92.5889 180.502 92.3144 180.386 91.9413 180.305L90.5582 180.015C89.7804 179.853 89.205 179.58 88.8319 179.196C88.4588 178.809 88.2741 178.32 88.2776 177.729C88.2741 177.229 88.4096 176.796 88.6841 176.43C88.9621 176.06 89.3475 175.775 89.8402 175.575C90.3365 175.371 90.9084 175.269 91.5559 175.269C92.5062 175.269 93.2541 175.471 93.7996 175.876C94.3486 176.28 94.6882 176.828 94.8185 177.517ZM102.977 177.517L101.235 177.708C101.186 177.532 101.1 177.366 100.977 177.211C100.857 177.056 100.695 176.931 100.491 176.836C100.287 176.741 100.037 176.694 99.7413 176.694C99.3436 176.694 99.0092 176.78 98.7382 176.953C98.4708 177.125 98.3388 177.349 98.3423 177.623C98.3388 177.859 98.425 178.051 98.601 178.198C98.7805 178.346 99.0761 178.468 99.4879 178.563L100.871 178.858C101.638 179.024 102.208 179.286 102.581 179.645C102.958 180.004 103.148 180.474 103.152 181.054C103.148 181.565 102.999 182.015 102.703 182.406C102.411 182.793 102.004 183.096 101.483 183.314C100.963 183.532 100.364 183.641 99.6885 183.641C98.696 183.641 97.8971 183.434 97.2917 183.018C96.6864 182.6 96.3257 182.017 96.2095 181.271L98.0731 181.091C98.1575 181.457 98.337 181.734 98.6115 181.92C98.886 182.107 99.2433 182.2 99.6832 182.2C100.137 182.2 100.501 182.107 100.776 181.92C101.054 181.734 101.193 181.503 101.193 181.229C101.193 180.996 101.103 180.805 100.924 180.653C100.748 180.502 100.473 180.386 100.1 180.305L98.7171 180.015C97.9393 179.853 97.3639 179.58 96.9908 179.196C96.6178 178.809 96.433 178.32 96.4365 177.729C96.433 177.229 96.5685 176.796 96.843 176.43C97.1211 176.06 97.5064 175.775 97.9992 175.575C98.4954 175.371 99.0673 175.269 99.7149 175.269C100.665 175.269 101.413 175.471 101.959 175.876C102.508 176.28 102.847 176.828 102.977 177.517Z" fill="white"/>
<rect y="229.371" width="149.521" height="77.1778" rx="7.43305" fill="#10132E"/>
<path d="M37.6549 264.499V262.857H46.281V264.499H42.9393V273.669H40.9966V264.499H37.6549ZM48.1181 276.709C47.8577 276.709 47.6166 276.688 47.3949 276.646C47.1767 276.607 47.0025 276.562 46.8723 276.509L47.3157 275.02C47.5937 275.101 47.8419 275.14 48.0601 275.136C48.2783 275.133 48.4701 275.064 48.6355 274.93C48.8044 274.8 48.947 274.582 49.0631 274.276L49.2268 273.838L46.2863 265.56H48.3135L50.1823 271.684H50.2667L52.1408 265.56H54.1733L50.9266 274.651C50.7753 275.08 50.5747 275.448 50.3248 275.754C50.0749 276.064 49.7687 276.299 49.4062 276.461C49.0473 276.627 48.6179 276.709 48.1181 276.709ZM55.4958 276.709V265.56H57.3751V266.901H57.486C57.5845 266.704 57.7236 266.494 57.903 266.272C58.0825 266.047 58.3254 265.855 58.6316 265.697C58.9378 265.535 59.3284 265.454 59.8035 265.454C60.43 265.454 60.9949 265.614 61.4981 265.935C62.0049 266.251 62.4062 266.721 62.7018 267.344C63.0009 267.964 63.1505 268.724 63.1505 269.625C63.1505 270.515 63.0045 271.272 62.7124 271.895C62.4202 272.518 62.0225 272.993 61.5193 273.32C61.016 273.647 60.4458 273.811 59.8088 273.811C59.3443 273.811 58.9589 273.734 58.6527 273.579C58.3465 273.424 58.1001 273.237 57.9136 273.019C57.7306 272.798 57.5881 272.588 57.486 272.391H57.4068V276.709H55.4958ZM57.3699 269.614C57.3699 270.139 57.4438 270.598 57.5916 270.992C57.7429 271.386 57.9594 271.694 58.2409 271.916C58.526 272.134 58.8709 272.243 59.2756 272.243C59.698 272.243 60.0517 272.131 60.3367 271.905C60.6218 271.677 60.8365 271.365 60.9808 270.971C61.1286 270.573 61.2025 270.121 61.2025 269.614C61.2025 269.111 61.1304 268.664 60.9861 268.273C60.8418 267.883 60.6271 267.576 60.342 267.355C60.0569 267.133 59.7015 267.022 59.2756 267.022C58.8674 267.022 58.5207 267.129 58.2356 267.344C57.9506 267.559 57.7341 267.86 57.5863 268.247C57.442 268.634 57.3699 269.09 57.3699 269.614ZM68.3769 273.827C67.5639 273.827 66.8618 273.658 66.2705 273.32C65.6828 272.979 65.2305 272.497 64.9138 271.874C64.597 271.247 64.4386 270.51 64.4386 269.662C64.4386 268.828 64.597 268.096 64.9138 267.466C65.234 266.832 65.681 266.339 66.2547 265.987C66.8283 265.632 67.5023 265.454 68.2766 265.454C68.7763 265.454 69.2479 265.535 69.6914 265.697C70.1384 265.855 70.5325 266.102 70.8739 266.436C71.2188 266.77 71.4898 267.196 71.6869 267.714C71.884 268.228 71.9825 268.84 71.9825 269.551V270.137H65.3361V268.849H70.1507C70.1472 268.483 70.068 268.157 69.9131 267.872C69.7583 267.583 69.5418 267.356 69.2638 267.191C68.9893 267.026 68.669 266.943 68.303 266.943C67.9123 266.943 67.5692 267.038 67.2735 267.228C66.9779 267.415 66.7474 267.661 66.582 267.967C66.4201 268.27 66.3374 268.602 66.3339 268.965V270.089C66.3339 270.561 66.4201 270.966 66.5925 271.304C66.765 271.638 67.0061 271.895 67.3158 272.074C67.6255 272.25 67.988 272.338 68.4033 272.338C68.6813 272.338 68.933 272.3 69.1582 272.222C69.3834 272.141 69.5788 272.023 69.7442 271.868C69.9096 271.714 70.0345 271.522 70.119 271.293L71.9034 271.494C71.7907 271.965 71.5761 272.377 71.2593 272.729C70.9461 273.077 70.5449 273.348 70.0557 273.542C69.5665 273.732 69.0069 273.827 68.3769 273.827ZM80.0082 267.703L78.2661 267.893C78.2168 267.717 78.1306 267.552 78.0074 267.397C77.8877 267.242 77.7258 267.117 77.5217 267.022C77.3176 266.927 77.0677 266.88 76.7721 266.88C76.3744 266.88 76.04 266.966 75.769 267.138C75.5015 267.311 75.3696 267.534 75.3731 267.809C75.3696 268.045 75.4558 268.236 75.6318 268.384C75.8113 268.532 76.1069 268.653 76.5187 268.748L77.9018 269.044C78.669 269.209 79.2392 269.472 79.6122 269.831C79.9888 270.19 80.1789 270.659 80.1824 271.24C80.1789 271.75 80.0293 272.201 79.7337 272.592C79.4415 272.979 79.0351 273.281 78.5142 273.5C77.9933 273.718 77.395 273.827 76.7193 273.827C75.7268 273.827 74.9279 273.619 74.3225 273.204C73.7172 272.785 73.3564 272.203 73.2403 271.457L75.1038 271.277C75.1883 271.643 75.3678 271.919 75.6423 272.106C75.9168 272.292 76.2741 272.386 76.714 272.386C77.168 272.386 77.5323 272.292 77.8068 272.106C78.0848 271.919 78.2238 271.689 78.2238 271.414C78.2238 271.182 78.1341 270.99 77.9546 270.839C77.7786 270.688 77.5041 270.571 77.131 270.491L75.7479 270.2C74.9701 270.038 74.3947 269.766 74.0216 269.382C73.6486 268.995 73.4638 268.506 73.4673 267.914C73.4638 267.415 73.5993 266.982 73.8738 266.616C74.1518 266.246 74.5372 265.961 75.0299 265.76C75.5262 265.556 76.0981 265.454 76.7457 265.454C77.6959 265.454 78.4438 265.657 78.9893 266.061C79.5383 266.466 79.878 267.013 80.0082 267.703ZM85.2953 273.827C84.4858 273.827 83.7907 273.649 83.21 273.294C82.6328 272.938 82.1876 272.447 81.8744 271.821C81.5646 271.191 81.4098 270.466 81.4098 269.646C81.4098 268.822 81.5682 268.096 81.8849 267.466C82.2017 266.832 82.6486 266.339 83.2258 265.987C83.8065 265.632 84.4928 265.454 85.2847 265.454C85.9428 265.454 86.5253 265.576 87.0321 265.818C87.5424 266.058 87.9489 266.397 88.2516 266.837C88.5542 267.274 88.7267 267.784 88.7689 268.368H86.9423C86.8684 267.978 86.6925 267.652 86.4144 267.392C86.1399 267.128 85.7721 266.996 85.3111 266.996C84.9204 266.996 84.5773 267.101 84.2817 267.312C83.986 267.52 83.7555 267.819 83.5901 268.21C83.4282 268.601 83.3472 269.069 83.3472 269.614C83.3472 270.167 83.4282 270.642 83.5901 271.04C83.752 271.434 83.979 271.738 84.2711 271.953C84.5667 272.164 84.9134 272.27 85.3111 272.27C85.5926 272.27 85.8443 272.217 86.066 272.111C86.2913 272.002 86.4795 271.846 86.6309 271.641C86.7822 271.437 86.886 271.189 86.9423 270.897H88.7689C88.7232 271.471 88.5542 271.979 88.2621 272.423C87.97 272.863 87.5723 273.208 87.069 273.457C86.5658 273.704 85.9745 273.827 85.2953 273.827ZM90.3382 273.669V265.56H92.1911V266.911H92.2756C92.4234 266.443 92.6768 266.082 93.0358 265.829C93.3983 265.572 93.8118 265.444 94.2764 265.444C94.382 265.444 94.4999 265.449 94.6301 265.459C94.7639 265.467 94.8747 265.479 94.9627 265.496V267.254C94.8818 267.226 94.7533 267.202 94.5773 267.18C94.4049 267.156 94.2377 267.144 94.0758 267.144C93.7274 267.144 93.4141 267.219 93.1361 267.371C92.8616 267.518 92.6452 267.724 92.4868 267.988C92.3284 268.252 92.2492 268.557 92.2492 268.902V273.669H90.3382ZM96.2323 273.669V265.56H98.1434V273.669H96.2323ZM97.1931 264.409C96.8905 264.409 96.63 264.309 96.4118 264.108C96.1936 263.904 96.0845 263.659 96.0845 263.374C96.0845 263.086 96.1936 262.841 96.4118 262.64C96.63 262.436 96.8905 262.334 97.1931 262.334C97.4993 262.334 97.7598 262.436 97.9745 262.64C98.1927 262.841 98.3018 263.086 98.3018 263.374C98.3018 263.659 98.1927 263.904 97.9745 264.108C97.7598 264.309 97.4993 264.409 97.1931 264.409ZM100.109 276.709V265.56H101.988V266.901H102.099C102.197 266.704 102.336 266.494 102.516 266.272C102.695 266.047 102.938 265.855 103.244 265.697C103.551 265.535 103.941 265.454 104.416 265.454C105.043 265.454 105.608 265.614 106.111 265.935C106.618 266.251 107.019 266.721 107.315 267.344C107.614 267.964 107.763 268.724 107.763 269.625C107.763 270.515 107.617 271.272 107.325 271.895C107.033 272.518 106.635 272.993 106.132 273.32C105.629 273.647 105.059 273.811 104.422 273.811C103.957 273.811 103.572 273.734 103.265 273.579C102.959 273.424 102.713 273.237 102.526 273.019C102.343 272.798 102.201 272.588 102.099 272.391H102.02V276.709H100.109ZM101.983 269.614C101.983 270.139 102.057 270.598 102.204 270.992C102.356 271.386 102.572 271.694 102.854 271.916C103.139 272.134 103.484 272.243 103.888 272.243C104.311 272.243 104.664 272.131 104.95 271.905C105.235 271.677 105.449 271.365 105.594 270.971C105.741 270.573 105.815 270.121 105.815 269.614C105.815 269.111 105.743 268.664 105.599 268.273C105.455 267.883 105.24 267.576 104.955 267.355C104.67 267.133 104.314 267.022 103.888 267.022C103.48 267.022 103.134 267.129 102.848 267.344C102.563 267.559 102.347 267.86 102.199 268.247C102.055 268.634 101.983 269.09 101.983 269.614ZM113.449 265.56V267.038H108.787V265.56H113.449ZM109.938 263.617H111.849V271.23C111.849 271.487 111.888 271.684 111.966 271.821C112.046 271.955 112.152 272.046 112.282 272.095C112.412 272.145 112.557 272.169 112.715 272.169C112.835 272.169 112.944 272.161 113.042 272.143C113.145 272.125 113.222 272.109 113.275 272.095L113.597 273.589C113.495 273.625 113.349 273.663 113.159 273.706C112.972 273.748 112.743 273.772 112.472 273.779C111.994 273.794 111.563 273.721 111.179 273.563C110.795 273.401 110.491 273.151 110.266 272.813C110.044 272.475 109.935 272.053 109.938 271.546V263.617Z" fill="white"/>
<rect y="319.557" width="149.521" height="77.1778" rx="7.43305" fill="#10132E"/>
<path d="M59.4895 353.043V363.854H57.7474L52.653 356.49H52.5633V363.854H50.6047V353.043H52.3574L57.4465 360.412H57.5415V353.043H59.4895ZM65.129 364.013C64.316 364.013 63.6138 363.844 63.0226 363.506C62.4348 363.164 61.9826 362.682 61.6658 362.059C61.3491 361.433 61.1907 360.696 61.1907 359.847C61.1907 359.013 61.3491 358.281 61.6658 357.651C61.9861 357.018 62.4331 356.525 63.0067 356.173C63.5804 355.818 64.2544 355.64 65.0287 355.64C65.5284 355.64 66 355.721 66.4435 355.883C66.8904 356.041 67.2846 356.287 67.626 356.622C67.9709 356.956 68.2419 357.382 68.439 357.899C68.6361 358.413 68.7346 359.026 68.7346 359.737V360.322H62.0882V359.034H66.9028C66.8992 358.668 66.82 358.343 66.6652 358.058C66.5103 357.769 66.2939 357.542 66.0159 357.377C65.7413 357.211 65.4211 357.129 65.055 357.129C64.6644 357.129 64.3212 357.224 64.0256 357.414C63.73 357.6 63.4995 357.847 63.334 358.153C63.1722 358.455 63.0894 358.788 63.0859 359.151V360.275C63.0859 360.747 63.1722 361.151 63.3446 361.489C63.5171 361.824 63.7581 362.08 64.0678 362.26C64.3776 362.436 64.7401 362.524 65.1554 362.524C65.4334 362.524 65.685 362.485 65.9103 362.408C66.1355 362.327 66.3308 362.209 66.4963 362.054C66.6617 361.899 66.7866 361.707 66.8711 361.479L68.6554 361.679C68.5428 362.151 68.3281 362.563 68.0114 362.915C67.6981 363.263 67.2969 363.534 66.8077 363.728C66.3185 363.918 65.7589 364.013 65.129 364.013ZM71.7398 355.745L73.3763 358.739L75.0392 355.745H77.0612L74.6169 359.8L77.1034 363.854H75.092L73.3763 360.935L71.6764 363.854H69.6492L72.1199 359.8L69.7126 355.745H71.7398ZM82.5884 355.745V357.224H77.9269V355.745H82.5884ZM79.0778 353.803H80.9889V361.415C80.9889 361.672 81.0276 361.869 81.105 362.007C81.1859 362.14 81.2915 362.232 81.4217 362.281C81.552 362.33 81.6963 362.355 81.8546 362.355C81.9743 362.355 82.0834 362.346 82.1819 362.329C82.284 362.311 82.3614 362.295 82.4142 362.281L82.7363 363.775C82.6342 363.81 82.4881 363.849 82.2981 363.891C82.1116 363.933 81.8828 363.958 81.6118 363.965C81.1332 363.979 80.702 363.907 80.3184 363.749C79.9348 363.587 79.6304 363.337 79.4051 362.999C79.1834 362.661 79.0743 362.239 79.0778 361.732V353.803ZM88.5367 353.043H90.4795V360.645C90.4759 361.341 90.3281 361.941 90.036 362.445C89.7439 362.944 89.3356 363.33 88.8112 363.601C88.2904 363.868 87.6833 364.002 86.9899 364.002C86.3564 364.002 85.7863 363.889 85.2795 363.664C84.7762 363.435 84.3768 363.098 84.0811 362.651C83.7855 362.204 83.6377 361.648 83.6377 360.982H85.5857C85.5892 361.275 85.6525 361.526 85.7757 361.737C85.9024 361.948 86.0766 362.11 86.2984 362.223C86.5201 362.336 86.7752 362.392 87.0638 362.392C87.3771 362.392 87.6428 362.327 87.861 362.197C88.0792 362.063 88.2446 361.866 88.3572 361.605C88.4734 361.345 88.5332 361.025 88.5367 360.645V353.043ZM98.48 356.015C98.4307 355.554 98.2231 355.195 97.8571 354.938C97.4946 354.681 97.023 354.552 96.4423 354.552C96.034 354.552 95.6838 354.614 95.3917 354.737C95.0996 354.86 94.8761 355.028 94.7212 355.239C94.5664 355.45 94.4872 355.691 94.4837 355.962C94.4837 356.187 94.5347 356.382 94.6368 356.548C94.7424 356.713 94.8849 356.854 95.0644 356.97C95.2439 357.083 95.4427 357.178 95.6609 357.255C95.8791 357.333 96.0991 357.398 96.3208 357.451L97.3344 357.704C97.7427 357.799 98.1351 357.928 98.5117 358.089C98.8918 358.251 99.2314 358.455 99.5306 358.702C99.8332 358.948 100.073 359.246 100.249 359.594C100.424 359.942 100.512 360.351 100.512 360.819C100.512 361.452 100.351 362.01 100.027 362.492C99.703 362.971 99.2349 363.346 98.6225 363.617C98.0137 363.884 97.2764 364.018 96.4106 364.018C95.5694 364.018 94.8391 363.888 94.2197 363.627C93.6038 363.367 93.1217 362.987 92.7732 362.487C92.4283 361.987 92.2418 361.378 92.2136 360.66H94.1405C94.1687 361.037 94.2848 361.35 94.489 361.6C94.6931 361.85 94.9588 362.036 95.2861 362.16C95.6169 362.283 95.9865 362.344 96.3947 362.344C96.8206 362.344 97.1937 362.281 97.5139 362.154C97.8377 362.024 98.0911 361.845 98.2741 361.616C98.4571 361.384 98.5504 361.113 98.5539 360.803C98.5504 360.521 98.4677 360.289 98.3058 360.106C98.1439 359.92 97.9169 359.765 97.6248 359.641C97.3362 359.515 96.9983 359.402 96.6112 359.304L95.3811 358.987C94.4907 358.758 93.7868 358.411 93.2695 357.947C92.7556 357.479 92.4987 356.858 92.4987 356.083C92.4987 355.446 92.6712 354.888 93.0161 354.41C93.3645 353.931 93.8379 353.56 94.4362 353.296C95.0345 353.028 95.712 352.895 96.4686 352.895C97.2359 352.895 97.9081 353.028 98.4853 353.296C99.066 353.56 99.5218 353.928 99.8526 354.399C100.183 354.867 100.354 355.406 100.365 356.015H98.48Z" fill="white"/>
</g>
<g clip-path="url(#clip1_165_4134)">
<rect x="159.812" y="10.5959" width="149.521" height="77.1778" rx="7.43305" fill="#10132E"/>
<path d="M205.903 54.8933V44.0816H209.957C210.788 44.0816 211.485 44.2259 212.048 44.5145C212.615 44.8031 213.042 45.2078 213.331 45.7287C213.623 46.2461 213.769 46.8496 213.769 47.5394C213.769 48.2328 213.621 48.8346 213.325 49.3449C213.033 49.8517 212.602 50.2441 212.032 50.5222C211.462 50.7967 210.762 50.9339 209.931 50.9339H207.043V49.308H209.667C210.153 49.308 210.55 49.2411 210.86 49.1074C211.17 48.9701 211.399 48.7713 211.546 48.5108C211.698 48.2469 211.773 47.9231 211.773 47.5394C211.773 47.1558 211.698 46.8285 211.546 46.5575C211.395 46.283 211.164 46.0754 210.855 45.9346C210.545 45.7903 210.146 45.7181 209.656 45.7181H207.862V54.8933H205.903ZM211.488 49.9943L214.165 54.8933H211.979L209.35 49.9943H211.488ZM218.961 55.0517C218.148 55.0517 217.446 54.8828 216.855 54.5449C216.267 54.2035 215.815 53.7213 215.498 53.0984C215.181 52.4719 215.023 51.7346 215.023 50.8864C215.023 50.0523 215.181 49.3203 215.498 48.6903C215.818 48.0568 216.265 47.5641 216.839 47.2121C217.412 46.8567 218.086 46.6789 218.861 46.6789C219.36 46.6789 219.832 46.7599 220.275 46.9218C220.722 47.0802 221.117 47.3265 221.458 47.6609C221.803 47.9952 222.074 48.4211 222.271 48.9384C222.468 49.4523 222.567 50.0646 222.567 50.7756V51.3616H215.92V50.0734H220.735C220.731 49.7074 220.652 49.3819 220.497 49.0968C220.342 48.8082 220.126 48.5812 219.848 48.4158C219.573 48.2504 219.253 48.1677 218.887 48.1677C218.496 48.1677 218.153 48.2627 217.858 48.4527C217.562 48.6393 217.331 48.8856 217.166 49.1918C217.004 49.4945 216.921 49.8271 216.918 50.1896V51.314C216.918 51.7856 217.004 52.1904 217.177 52.5282C217.349 52.8626 217.59 53.1195 217.9 53.299C218.21 53.475 218.572 53.563 218.987 53.563C219.265 53.563 219.517 53.5243 219.742 53.4468C219.967 53.3659 220.163 53.248 220.328 53.0931C220.494 52.9383 220.619 52.7465 220.703 52.5177L222.487 52.7183C222.375 53.1899 222.16 53.6017 221.843 53.9536C221.53 54.302 221.129 54.573 220.64 54.7666C220.15 54.9567 219.591 55.0517 218.961 55.0517ZM226.517 55.057C226.003 55.057 225.54 54.9655 225.128 54.7824C224.72 54.5959 224.396 54.3214 224.157 53.9589C223.921 53.5964 223.803 53.1494 223.803 52.618C223.803 52.1605 223.888 51.7821 224.057 51.483C224.226 51.1838 224.456 50.9445 224.748 50.765C225.04 50.5855 225.369 50.45 225.735 50.3585C226.105 50.2635 226.487 50.1949 226.881 50.1526C227.356 50.1034 227.741 50.0594 228.037 50.0207C228.333 49.9784 228.547 49.9151 228.681 49.8306C228.818 49.7426 228.887 49.6071 228.887 49.4241V49.3924C228.887 48.9947 228.769 48.6868 228.533 48.4686C228.298 48.2504 227.958 48.1413 227.514 48.1413C227.046 48.1413 226.675 48.2433 226.401 48.4475C226.13 48.6516 225.947 48.8927 225.852 49.1707L224.067 48.9173C224.208 48.4246 224.44 48.0128 224.764 47.682C225.088 47.3476 225.484 47.0978 225.952 46.9323C226.42 46.7634 226.937 46.6789 227.504 46.6789C227.895 46.6789 228.283 46.7247 228.671 46.8162C229.058 46.9077 229.411 47.059 229.732 47.2702C230.052 47.4779 230.309 47.7612 230.502 48.1202C230.7 48.4791 230.798 48.9279 230.798 49.4663V54.8933H228.961V53.7794H228.898C228.781 54.0047 228.618 54.2158 228.407 54.4129C228.199 54.6065 227.937 54.7631 227.62 54.8828C227.307 54.9989 226.939 55.057 226.517 55.057ZM227.013 53.6527C227.397 53.6527 227.729 53.577 228.011 53.4257C228.292 53.2709 228.509 53.0667 228.66 52.8133C228.815 52.5599 228.892 52.2836 228.892 51.9845V51.029C228.833 51.0782 228.73 51.124 228.586 51.1662C228.445 51.2085 228.287 51.2454 228.111 51.2771C227.935 51.3088 227.761 51.3369 227.588 51.3616C227.416 51.3862 227.266 51.4073 227.14 51.4249C226.855 51.4636 226.599 51.527 226.374 51.615C226.149 51.7029 225.971 51.8261 225.841 51.9845C225.711 52.1394 225.646 52.34 225.646 52.5863C225.646 52.9383 225.774 53.204 226.031 53.3835C226.288 53.563 226.615 53.6527 227.013 53.6527ZM236.257 55.0517C235.447 55.0517 234.752 54.874 234.171 54.5185C233.594 54.163 233.149 53.6721 232.836 53.0456C232.526 52.4156 232.371 51.6906 232.371 50.8706C232.371 50.047 232.53 49.3203 232.846 48.6903C233.163 48.0568 233.61 47.5641 234.187 47.2121C234.768 46.8567 235.454 46.6789 236.246 46.6789C236.904 46.6789 237.487 46.8004 237.994 47.0432C238.504 47.2825 238.91 47.6222 239.213 48.0621C239.516 48.4985 239.688 49.0088 239.73 49.593H237.904C237.83 49.2024 237.654 48.8768 237.376 48.6164C237.101 48.3524 236.734 48.2205 236.273 48.2205C235.882 48.2205 235.539 48.326 235.243 48.5372C234.948 48.7449 234.717 49.044 234.552 49.4347C234.39 49.8253 234.309 50.2934 234.309 50.8389C234.309 51.3915 234.39 51.8666 234.552 52.2643C234.713 52.6585 234.94 52.9629 235.233 53.1776C235.528 53.3888 235.875 53.4943 236.273 53.4943C236.554 53.4943 236.806 53.4415 237.028 53.336C237.253 53.2269 237.441 53.0702 237.592 52.8661C237.744 52.662 237.848 52.4139 237.904 52.1218H239.73C239.685 52.6954 239.516 53.204 239.224 53.6474C238.932 54.0874 238.534 54.4323 238.031 54.6821C237.527 54.9285 236.936 55.0517 236.257 55.0517ZM245.349 46.7845V48.2627H240.687V46.7845H245.349ZM241.838 44.8418H243.749V52.4543C243.749 52.7113 243.788 52.9083 243.865 53.0456C243.946 53.1793 244.052 53.2709 244.182 53.3201C244.312 53.3694 244.457 53.394 244.615 53.394C244.735 53.394 244.844 53.3852 244.942 53.3676C245.044 53.35 245.122 53.3342 245.175 53.3201L245.497 54.8141C245.395 54.8493 245.248 54.888 245.058 54.9303C244.872 54.9725 244.643 54.9971 244.372 55.0042C243.893 55.0183 243.462 54.9461 243.079 54.7877C242.695 54.6258 242.391 54.376 242.165 54.0381C241.944 53.7002 241.835 53.2779 241.838 52.7711V44.8418ZM251.297 44.0816H253.24V51.6836C253.236 52.3804 253.088 52.9805 252.796 53.4838C252.504 53.9835 252.096 54.3689 251.572 54.6399C251.051 54.9074 250.444 55.0411 249.75 55.0411C249.117 55.0411 248.547 54.9285 248.04 54.7033C247.537 54.4745 247.137 54.1366 246.841 53.6897C246.546 53.2427 246.398 52.6866 246.398 52.0215H248.346C248.35 52.3136 248.413 52.5652 248.536 52.7764C248.663 52.9875 248.837 53.1494 249.059 53.2621C249.28 53.3747 249.536 53.431 249.824 53.431C250.137 53.431 250.403 53.3659 250.621 53.2357C250.84 53.1019 251.005 52.9048 251.118 52.6444C251.234 52.384 251.294 52.0637 251.297 51.6836V44.0816ZM261.24 47.0538C261.191 46.5927 260.983 46.2337 260.617 45.9768C260.255 45.7199 259.783 45.5914 259.203 45.5914C258.794 45.5914 258.444 45.653 258.152 45.7762C257.86 45.8994 257.636 46.0666 257.482 46.2777C257.327 46.4889 257.248 46.73 257.244 47.001C257.244 47.2262 257.295 47.4215 257.397 47.587C257.503 47.7524 257.645 47.8932 257.825 48.0093C258.004 48.1219 258.203 48.2169 258.421 48.2944C258.639 48.3718 258.859 48.4369 259.081 48.4897L260.095 48.7431C260.503 48.8381 260.895 48.9666 261.272 49.1285C261.652 49.2904 261.992 49.4945 262.291 49.7409C262.594 49.9872 262.833 50.2846 263.009 50.633C263.185 50.9815 263.273 51.3897 263.273 51.8578C263.273 52.4913 263.111 53.0491 262.787 53.5313C262.463 54.0099 261.995 54.3848 261.383 54.6557C260.774 54.9232 260.037 55.057 259.171 55.057C258.33 55.057 257.599 54.9267 256.98 54.6663C256.364 54.4059 255.882 54.0258 255.534 53.526C255.189 53.0262 255.002 52.4174 254.974 51.6994H256.901C256.929 52.076 257.045 52.3892 257.249 52.6391C257.453 52.889 257.719 53.0755 258.046 53.1987C258.377 53.3219 258.747 53.3835 259.155 53.3835C259.581 53.3835 259.954 53.3201 260.274 53.1934C260.598 53.0632 260.851 52.8837 261.034 52.6549C261.217 52.4227 261.311 52.1517 261.314 51.842C261.311 51.5604 261.228 51.3281 261.066 51.1451C260.904 50.9586 260.677 50.8037 260.385 50.6805C260.097 50.5538 259.759 50.4412 259.372 50.3427L258.141 50.0259C257.251 49.7972 256.547 49.4505 256.03 48.9859C255.516 48.5179 255.259 47.8967 255.259 47.1224C255.259 46.4854 255.432 45.9275 255.776 45.4489C256.125 44.9703 256.598 44.599 257.197 44.335C257.795 44.0675 258.472 43.9338 259.229 43.9338C259.996 43.9338 260.668 44.0675 261.246 44.335C261.826 44.599 262.282 44.9667 262.613 45.4383C262.944 45.9064 263.114 46.4449 263.125 47.0538H261.24Z" fill="white"/>
<rect x="159.812" y="100.782" width="149.521" height="77.1778" rx="7.43305" fill="#10132E"/>
<path d="M213.917 134.267L216.731 142.777H216.842L219.65 134.267H221.804L217.993 145.079H215.575L211.768 134.267H213.917ZM228.312 141.669V136.97H230.223V145.079H228.37V143.638H228.286C228.103 144.092 227.802 144.463 227.383 144.752C226.968 145.04 226.456 145.185 225.847 145.185C225.315 145.185 224.845 145.067 224.437 144.831C224.032 144.592 223.716 144.245 223.487 143.791C223.258 143.333 223.144 142.781 223.144 142.133V136.97H225.055V141.838C225.055 142.351 225.196 142.76 225.477 143.062C225.759 143.365 226.128 143.516 226.586 143.516C226.867 143.516 227.14 143.448 227.404 143.31C227.668 143.173 227.884 142.969 228.053 142.698C228.226 142.424 228.312 142.08 228.312 141.669ZM235.778 145.237C234.965 145.237 234.263 145.068 233.672 144.731C233.084 144.389 232.632 143.907 232.315 143.284C231.998 142.658 231.84 141.92 231.84 141.072C231.84 140.238 231.998 139.506 232.315 138.876C232.635 138.242 233.082 137.75 233.656 137.398C234.23 137.042 234.903 136.865 235.678 136.865C236.178 136.865 236.649 136.946 237.093 137.107C237.54 137.266 237.934 137.512 238.275 137.847C238.62 138.181 238.891 138.607 239.088 139.124C239.285 139.638 239.384 140.25 239.384 140.961V141.547H232.737V140.259H237.552C237.548 139.893 237.469 139.568 237.314 139.282C237.159 138.994 236.943 138.767 236.665 138.601C236.39 138.436 236.07 138.353 235.704 138.353C235.314 138.353 234.97 138.448 234.675 138.638C234.379 138.825 234.149 139.071 233.983 139.377C233.821 139.68 233.739 140.013 233.735 140.375V141.5C233.735 141.971 233.821 142.376 233.994 142.714C234.166 143.048 234.407 143.305 234.717 143.485C235.027 143.661 235.389 143.749 235.804 143.749C236.082 143.749 236.334 143.71 236.559 143.632C236.785 143.552 236.98 143.434 237.145 143.279C237.311 143.124 237.436 142.932 237.52 142.703L239.305 142.904C239.192 143.376 238.977 143.787 238.66 144.139C238.347 144.488 237.946 144.759 237.457 144.952C236.968 145.142 236.408 145.237 235.778 145.237ZM245.35 134.267H247.293V141.869C247.29 142.566 247.142 143.166 246.85 143.669C246.558 144.169 246.149 144.555 245.625 144.826C245.104 145.093 244.497 145.227 243.804 145.227C243.17 145.227 242.6 145.114 242.093 144.889C241.59 144.66 241.191 144.322 240.895 143.875C240.599 143.428 240.451 142.872 240.451 142.207H242.399C242.403 142.499 242.466 142.751 242.589 142.962C242.716 143.173 242.89 143.335 243.112 143.448C243.334 143.56 243.589 143.617 243.878 143.617C244.191 143.617 244.457 143.552 244.675 143.421C244.893 143.288 245.058 143.09 245.171 142.83C245.287 142.57 245.347 142.249 245.35 141.869V134.267ZM255.294 137.239C255.245 136.778 255.037 136.419 254.671 136.162C254.308 135.906 253.837 135.777 253.256 135.777C252.848 135.777 252.498 135.839 252.205 135.962C251.913 136.085 251.69 136.252 251.535 136.463C251.38 136.675 251.301 136.916 251.297 137.187C251.297 137.412 251.348 137.607 251.451 137.773C251.556 137.938 251.699 138.079 251.878 138.195C252.058 138.308 252.257 138.403 252.475 138.48C252.693 138.557 252.913 138.623 253.135 138.675L254.148 138.929C254.556 139.024 254.949 139.152 255.325 139.314C255.706 139.476 256.045 139.68 256.344 139.927C256.647 140.173 256.886 140.47 257.062 140.819C257.238 141.167 257.326 141.575 257.326 142.043C257.326 142.677 257.164 143.235 256.841 143.717C256.517 144.196 256.049 144.57 255.436 144.841C254.827 145.109 254.09 145.243 253.224 145.243C252.383 145.243 251.653 145.112 251.033 144.852C250.418 144.592 249.935 144.211 249.587 143.712C249.242 143.212 249.056 142.603 249.027 141.885H250.954C250.982 142.262 251.099 142.575 251.303 142.825C251.507 143.075 251.773 143.261 252.1 143.384C252.431 143.508 252.8 143.569 253.209 143.569C253.634 143.569 254.007 143.506 254.328 143.379C254.651 143.249 254.905 143.069 255.088 142.841C255.271 142.608 255.364 142.337 255.368 142.028C255.364 141.746 255.281 141.514 255.12 141.331C254.958 141.144 254.731 140.989 254.439 140.866C254.15 140.74 253.812 140.627 253.425 140.528L252.195 140.212C251.304 139.983 250.601 139.636 250.083 139.172C249.569 138.704 249.312 138.082 249.312 137.308C249.312 136.671 249.485 136.113 249.83 135.635C250.178 135.156 250.652 134.785 251.25 134.521C251.848 134.253 252.526 134.119 253.282 134.119C254.05 134.119 254.722 134.253 255.299 134.521C255.88 134.785 256.336 135.152 256.666 135.624C256.997 136.092 257.168 136.631 257.178 137.239H255.294Z" fill="white"/>
<rect x="159.812" y="190.967" width="149.521" height="77.1778" rx="7.43305" fill="#10132E"/>
<path d="M219.597 224.453V235.265H217.855L212.76 227.9H212.671V235.265H210.712V224.453H212.465L217.554 231.823H217.649V224.453H219.597ZM226.815 231.854V227.156H228.726V235.265H226.873V233.823H226.788C226.605 234.277 226.304 234.649 225.886 234.937C225.47 235.226 224.958 235.37 224.349 235.37C223.818 235.37 223.348 235.252 222.94 235.017C222.535 234.777 222.218 234.431 221.99 233.977C221.761 233.519 221.646 232.966 221.646 232.319V227.156H223.557V232.023C223.557 232.537 223.698 232.945 223.98 233.248C224.261 233.551 224.631 233.702 225.088 233.702C225.37 233.702 225.643 233.633 225.907 233.496C226.171 233.359 226.387 233.155 226.556 232.884C226.728 232.609 226.815 232.266 226.815 231.854ZM232.254 227.156L233.89 230.149L235.553 227.156H237.575L235.131 231.21L237.617 235.265H235.606L233.89 232.345L232.19 235.265H230.163L232.634 231.21L230.226 227.156H232.254ZM243.102 227.156V228.634H238.441V227.156H243.102ZM239.592 225.213H241.503V232.826C241.503 233.083 241.541 233.28 241.619 233.417C241.7 233.551 241.805 233.642 241.936 233.691C242.066 233.741 242.21 233.765 242.368 233.765C242.488 233.765 242.597 233.757 242.696 233.739C242.798 233.721 242.875 233.706 242.928 233.691L243.25 235.185C243.148 235.221 243.002 235.259 242.812 235.302C242.625 235.344 242.397 235.368 242.126 235.376C241.647 235.39 241.216 235.317 240.832 235.159C240.449 234.997 240.144 234.747 239.919 234.409C239.697 234.072 239.588 233.649 239.592 233.142V225.213ZM249.051 224.453H250.993V232.055C250.99 232.752 250.842 233.352 250.55 233.855C250.258 234.355 249.849 234.74 249.325 235.011C248.804 235.279 248.197 235.412 247.504 235.412C246.87 235.412 246.3 235.3 245.793 235.075C245.29 234.846 244.891 234.508 244.595 234.061C244.299 233.614 244.151 233.058 244.151 232.393H246.099C246.103 232.685 246.166 232.937 246.29 233.148C246.416 233.359 246.59 233.521 246.812 233.633C247.034 233.746 247.289 233.802 247.578 233.802C247.891 233.802 248.157 233.737 248.375 233.607C248.593 233.473 248.758 233.276 248.871 233.016C248.987 232.755 249.047 232.435 249.051 232.055V224.453ZM258.994 227.425C258.945 226.964 258.737 226.605 258.371 226.348C258.008 226.091 257.537 225.963 256.956 225.963C256.548 225.963 256.198 226.024 255.905 226.148C255.613 226.271 255.39 226.438 255.235 226.649C255.08 226.86 255.001 227.101 254.997 227.372C254.997 227.598 255.049 227.793 255.151 227.958C255.256 228.124 255.399 228.264 255.578 228.381C255.758 228.493 255.957 228.588 256.175 228.666C256.393 228.743 256.613 228.808 256.835 228.861L257.848 229.114C258.256 229.209 258.649 229.338 259.025 229.5C259.406 229.662 259.745 229.866 260.044 230.112C260.347 230.359 260.586 230.656 260.762 231.004C260.938 231.353 261.026 231.761 261.026 232.229C261.026 232.863 260.864 233.42 260.541 233.903C260.217 234.381 259.749 234.756 259.136 235.027C258.527 235.295 257.79 235.428 256.924 235.428C256.083 235.428 255.353 235.298 254.734 235.038C254.118 234.777 253.635 234.397 253.287 233.897C252.942 233.398 252.756 232.789 252.727 232.071H254.654C254.682 232.447 254.799 232.761 255.003 233.01C255.207 233.26 255.473 233.447 255.8 233.57C256.131 233.693 256.5 233.755 256.909 233.755C257.334 233.755 257.707 233.691 258.028 233.565C258.352 233.435 258.605 233.255 258.788 233.026C258.971 232.794 259.064 232.523 259.068 232.213C259.064 231.932 258.981 231.699 258.82 231.516C258.658 231.33 258.431 231.175 258.139 231.052C257.85 230.925 257.512 230.813 257.125 230.714L255.895 230.397C255.005 230.169 254.301 229.822 253.783 229.357C253.269 228.889 253.013 228.268 253.013 227.494C253.013 226.857 253.185 226.299 253.53 225.82C253.878 225.342 254.352 224.97 254.95 224.706C255.548 224.439 256.226 224.305 256.982 224.305C257.75 224.305 258.422 224.439 258.999 224.706C259.58 224.97 260.036 225.338 260.366 225.81C260.697 226.278 260.868 226.816 260.878 227.425H258.994Z" fill="white"/>
<rect x="159.812" y="281.153" width="149.521" height="77.1778" rx="7.43305" fill="#10132E"/>
<path d="M211.155 318.091C211.067 317.806 210.946 317.551 210.791 317.326C210.64 317.097 210.457 316.902 210.242 316.74C210.031 316.578 209.788 316.456 209.513 316.375C209.239 316.291 208.94 316.249 208.616 316.249C208.035 316.249 207.518 316.395 207.064 316.687C206.61 316.979 206.253 317.408 205.992 317.975C205.735 318.538 205.607 319.224 205.607 320.034C205.607 320.85 205.735 321.542 205.992 322.109C206.249 322.675 206.606 323.106 207.064 323.402C207.521 323.694 208.053 323.84 208.658 323.84C209.207 323.84 209.682 323.735 210.083 323.523C210.488 323.312 210.8 323.013 211.018 322.626C211.236 322.235 211.345 321.778 211.345 321.253L211.789 321.322H208.853V319.791H213.24V321.09C213.24 322.015 213.043 322.816 212.649 323.492C212.255 324.167 211.713 324.688 211.023 325.054C210.333 325.417 209.541 325.598 208.648 325.598C207.652 325.598 206.777 325.375 206.024 324.928C205.274 324.477 204.688 323.838 204.266 323.011C203.847 322.181 203.638 321.195 203.638 320.055C203.638 319.182 203.761 318.403 204.007 317.716C204.257 317.03 204.605 316.448 205.052 315.969C205.499 315.487 206.024 315.121 206.626 314.871C207.227 314.617 207.882 314.491 208.589 314.491C209.188 314.491 209.746 314.579 210.263 314.755C210.78 314.927 211.24 315.174 211.641 315.494C212.046 315.814 212.378 316.194 212.639 316.634C212.899 317.074 213.07 317.56 213.151 318.091H211.155ZM215.05 325.45V317.342H216.903V318.693H216.987C217.135 318.225 217.388 317.864 217.747 317.611C218.11 317.354 218.523 317.225 218.988 317.225C219.094 317.225 219.212 317.231 219.342 317.241C219.475 317.248 219.586 317.261 219.674 317.278V319.036C219.593 319.008 219.465 318.983 219.289 318.962C219.117 318.938 218.949 318.925 218.787 318.925C218.439 318.925 218.126 319.001 217.848 319.152C217.573 319.3 217.357 319.506 217.198 319.77C217.04 320.034 216.961 320.338 216.961 320.683V325.45H215.05ZM223.132 325.614C222.618 325.614 222.156 325.522 221.744 325.339C221.336 325.153 221.012 324.878 220.772 324.516C220.537 324.153 220.419 323.706 220.419 323.175C220.419 322.717 220.503 322.339 220.672 322.04C220.841 321.741 221.072 321.502 221.364 321.322C221.656 321.143 221.985 321.007 222.351 320.916C222.72 320.82 223.102 320.752 223.496 320.71C223.972 320.66 224.357 320.616 224.653 320.578C224.948 320.535 225.163 320.472 225.297 320.388C225.434 320.3 225.503 320.164 225.503 319.981V319.949C225.503 319.552 225.385 319.244 225.149 319.026C224.913 318.807 224.573 318.698 224.13 318.698C223.662 318.698 223.291 318.8 223.016 319.004C222.745 319.209 222.562 319.45 222.467 319.728L220.683 319.474C220.823 318.982 221.056 318.57 221.38 318.239C221.703 317.905 222.099 317.655 222.567 317.489C223.035 317.32 223.553 317.236 224.119 317.236C224.51 317.236 224.899 317.282 225.286 317.373C225.673 317.465 226.027 317.616 226.347 317.827C226.667 318.035 226.924 318.318 227.118 318.677C227.315 319.036 227.414 319.485 227.414 320.023V325.45H225.576V324.336H225.513C225.397 324.562 225.233 324.773 225.022 324.97C224.814 325.163 224.552 325.32 224.236 325.44C223.922 325.556 223.555 325.614 223.132 325.614ZM223.628 324.21C224.012 324.21 224.345 324.134 224.626 323.983C224.908 323.828 225.124 323.624 225.276 323.37C225.43 323.117 225.508 322.841 225.508 322.542V321.586C225.448 321.635 225.346 321.681 225.202 321.723C225.061 321.765 224.902 321.802 224.726 321.834C224.551 321.866 224.376 321.894 224.204 321.919C224.031 321.943 223.882 321.964 223.755 321.982C223.47 322.021 223.215 322.084 222.99 322.172C222.764 322.26 222.587 322.383 222.456 322.542C222.326 322.696 222.261 322.897 222.261 323.143C222.261 323.495 222.39 323.761 222.647 323.94C222.903 324.12 223.231 324.21 223.628 324.21ZM229.335 328.491V317.342H231.215V318.682H231.325C231.424 318.485 231.563 318.276 231.742 318.054C231.922 317.829 232.165 317.637 232.471 317.479C232.777 317.317 233.168 317.236 233.643 317.236C234.269 317.236 234.834 317.396 235.338 317.716C235.844 318.033 236.246 318.503 236.541 319.126C236.84 319.745 236.99 320.506 236.99 321.406C236.99 322.297 236.844 323.054 236.552 323.677C236.26 324.299 235.862 324.775 235.359 325.102C234.855 325.429 234.285 325.593 233.648 325.593C233.184 325.593 232.798 325.515 232.492 325.361C232.186 325.206 231.94 325.019 231.753 324.801C231.57 324.579 231.428 324.37 231.325 324.173H231.246V328.491H229.335ZM231.209 321.396C231.209 321.92 231.283 322.38 231.431 322.774C231.582 323.168 231.799 323.476 232.08 323.698C232.365 323.916 232.71 324.025 233.115 324.025C233.537 324.025 233.891 323.912 234.176 323.687C234.461 323.458 234.676 323.147 234.82 322.753C234.968 322.355 235.042 321.903 235.042 321.396C235.042 320.893 234.97 320.446 234.826 320.055C234.681 319.664 234.467 319.358 234.181 319.136C233.896 318.915 233.541 318.804 233.115 318.804C232.707 318.804 232.36 318.911 232.075 319.126C231.79 319.341 231.574 319.641 231.426 320.029C231.281 320.416 231.209 320.872 231.209 321.396ZM240.538 320.699V325.45H238.627V314.639H240.495V318.719H240.59C240.78 318.262 241.074 317.901 241.472 317.637C241.873 317.37 242.384 317.236 243.003 317.236C243.566 317.236 244.057 317.354 244.476 317.59C244.895 317.825 245.218 318.17 245.447 318.624C245.679 319.078 245.796 319.633 245.796 320.287V325.45H243.885V320.583C243.885 320.037 243.744 319.613 243.462 319.311C243.184 319.004 242.794 318.851 242.29 318.851C241.952 318.851 241.65 318.925 241.382 319.073C241.118 319.217 240.911 319.427 240.759 319.701C240.611 319.976 240.538 320.308 240.538 320.699ZM251.856 321.818H253.63L254.68 323.18L255.43 324.067L257.23 326.379H255.33L254.105 324.827L253.582 324.088L251.856 321.818ZM257.489 320.044C257.489 321.209 257.271 322.207 256.834 323.038C256.401 323.865 255.81 324.498 255.061 324.938C254.314 325.378 253.468 325.598 252.521 325.598C251.575 325.598 250.726 325.378 249.977 324.938C249.231 324.495 248.639 323.86 248.203 323.032C247.77 322.202 247.554 321.206 247.554 320.044C247.554 318.88 247.77 317.884 248.203 317.056C248.639 316.226 249.231 315.591 249.977 315.151C250.726 314.711 251.575 314.491 252.521 314.491C253.468 314.491 254.314 314.711 255.061 315.151C255.81 315.591 256.401 316.226 256.834 317.056C257.271 317.884 257.489 318.88 257.489 320.044ZM255.52 320.044C255.52 319.224 255.391 318.533 255.134 317.97C254.881 317.403 254.529 316.976 254.079 316.687C253.628 316.395 253.109 316.249 252.521 316.249C251.933 316.249 251.414 316.395 250.964 316.687C250.513 316.976 250.16 317.403 249.903 317.97C249.649 318.533 249.523 319.224 249.523 320.044C249.523 320.864 249.649 321.558 249.903 322.124C250.16 322.688 250.513 323.115 250.964 323.407C251.414 323.696 251.933 323.84 252.521 323.84C253.109 323.84 253.628 323.696 254.079 323.407C254.529 323.115 254.881 322.688 255.134 322.124C255.391 321.558 255.52 320.864 255.52 320.044ZM259.355 325.45V314.639H261.314V323.809H266.075V325.45H259.355Z" fill="white"/>
</g>
<defs>
<clipPath id="clip0_165_4134">
<rect width="149.52" height="408" fill="white"/>
</clipPath>
<clipPath id="clip1_165_4134">
<rect width="149.52" height="408" fill="white" transform="translate(159.812)"/>
</clipPath>
</defs>
</svg>
