<svg width="189" height="88" viewBox="0 0 189 88" fill="none" xmlns="http://www.w3.org/2000/svg">
<g clipPath="url(#clip0_1070_5233)">
<path d="M178.621 0.0332031H10.3072C4.81423 0.0332031 0.361328 6.50889 0.361328 14.4971V126.87C0.361328 134.858 4.81423 141.334 10.3072 141.334H178.621C184.114 141.334 188.567 134.858 188.567 126.87V14.4971C188.567 6.50889 184.114 0.0332031 178.621 0.0332031Z" fill="white" fill-opacity="0.05"/>
<path d="M178.239 0.792969H9.92463C4.64296 0.792969 0.361328 7.44017 0.361328 15.6399V135.603C0.361328 143.803 4.64296 150.45 9.92463 150.45H178.239C183.52 150.45 187.802 143.803 187.802 135.603V15.6399C187.802 7.44017 183.52 0.792969 178.239 0.792969Z" stroke="white" stroke-opacity="0.1" strokeWidth="1.06667"/>
<path d="M25.2271 16.7462C25.2271 12.5506 21.8018 9.14941 17.5764 9.14941C13.3511 9.14941 9.92578 12.5506 9.92578 16.7462C9.92578 20.9418 13.3511 24.343 17.5764 24.343C21.8018 24.343 25.2271 20.9418 25.2271 16.7462Z" fill="white" fill-opacity="0.2"/>
<path d="M24.8409 16.7463C24.8409 12.7604 21.5869 9.5293 17.5728 9.5293C13.5587 9.5293 10.3047 12.7604 10.3047 16.7463C10.3047 20.7321 13.5587 23.9632 17.5728 23.9632C21.5869 23.9632 24.8409 20.7321 24.8409 16.7463Z" stroke="white" stroke-opacity="0.1" strokeWidth="1.06667"/>
<path d="M159.113 33.459H12.986C11.2959 33.459 9.92578 34.8195 9.92578 36.4977C9.92578 38.176 11.2959 39.5364 12.986 39.5364H159.113C160.803 39.5364 162.174 38.176 162.174 36.4977C162.174 34.8195 160.803 33.459 159.113 33.459Z" fill="white" fill-opacity="0.2"/>
<path d="M65.7761 13.7075H35.1735C33.4834 13.7075 32.1133 15.068 32.1133 16.7462C32.1133 18.4245 33.4834 19.785 35.1735 19.785H65.7761C67.4662 19.785 68.8364 18.4245 68.8364 16.7462C68.8364 15.068 67.4662 13.7075 65.7761 13.7075Z" fill="white" fill-opacity="0.2"/>
<path d="M88.7251 13.7075H76.4841C74.794 13.7075 73.4238 15.068 73.4238 16.7462C73.4238 18.4245 74.794 19.785 76.4841 19.785H88.7251C90.4152 19.785 91.7854 18.4245 91.7854 16.7462C91.7854 15.068 90.4152 13.7075 88.7251 13.7075Z" fill="white" fill-opacity="0.2"/>
<path d="M73.4261 45.6138H12.986C11.2959 45.6138 9.92578 46.9743 9.92578 48.6525C9.92578 50.3307 11.2959 51.6912 12.986 51.6912H73.4261C75.1162 51.6912 76.4864 50.3307 76.4864 48.6525C76.4864 46.9743 75.1162 45.6138 73.4261 45.6138Z" fill="white" fill-opacity="0.2"/>
</g>
<defs>
<clipPath id="clip0_1070_5233">
<rect width="189" height="141" fill="white"/>
</clipPath>
</defs>
</svg>
