<svg width="500" height="460" viewBox="0 0 500 460" fill="none" xmlns="http://www.w3.org/2000/svg">
<g filter="url(#filter0_i_260_2193)">
<g clipPath="url(#clip0_260_2193)">
<rect width="500" height="460" rx="32" fill="#05071A" fill-opacity="0.71"/>
<rect x="0.5" y="0.5" width="499" height="459" rx="31.5" stroke="#1C244C"/>
<g clipPath="url(#clip1_260_2193)">
<g clipPath="url(#clip2_260_2193)">
<g clipPath="url(#clip3_260_2193)">
<mask id="mask0_260_2193" style="mask-type:luminance" maskUnits="userSpaceOnUse" x="70" y="34" width="360" height="360">
<path d="M430 34H70V394H430V34Z" fill="white"/>
</mask>
<g mask="url(#mask0_260_2193)">
<mask id="mask1_260_2193" style="mask-type:alpha" maskUnits="userSpaceOnUse" x="52" y="16" width="396" height="396">
<path d="M249.998 411.144C358.877 411.144 447.141 322.88 447.141 214.001C447.141 105.122 358.877 16.8579 249.998 16.8579C141.119 16.8579 52.8555 105.122 52.8555 214.001C52.8555 322.88 141.119 411.144 249.998 411.144Z" fill="url(#paint0_radial_260_2193)"/>
</mask>
<g mask="url(#mask1_260_2193)">
<g opacity="0.1">
<path opacity="0.3" d="M88.8399 54.5378C89.7774 54.5378 90.5373 53.7778 90.5373 52.8404C90.5373 51.903 89.7774 51.1431 88.8399 51.1431C87.9025 51.1431 87.1426 51.903 87.1426 52.8404C87.1426 53.7778 87.9025 54.5378 88.8399 54.5378Z" fill="#F8F8F8"/>
<path d="M110.183 54.3681C111.073 54.3681 111.795 53.6461 111.795 52.7556C111.795 51.865 111.073 51.1431 110.183 51.1431C109.292 51.1431 108.57 51.865 108.57 52.7556C108.57 53.6461 109.292 54.3681 110.183 54.3681Z" fill="#F8F8F8"/>
<path d="M132.02 54.6491C132.841 54.6491 133.506 53.9842 133.506 53.1639C133.506 52.3437 132.841 51.6787 132.02 51.6787C131.2 51.6787 130.535 52.3437 130.535 53.1639C130.535 53.9842 131.2 54.6491 132.02 54.6491Z" fill="#F8F8F8"/>
<path d="M153.28 54.3097C154.007 54.3097 154.596 53.7207 154.596 52.9942C154.596 52.2677 154.007 51.6787 153.28 51.6787C152.554 51.6787 151.965 52.2677 151.965 52.9942C151.965 53.7207 152.554 54.3097 153.28 54.3097Z" fill="#F8F8F8"/>
<path d="M174.56 54.0127C175.204 54.0127 175.727 53.4902 175.727 52.8457C175.727 52.2012 175.204 51.6787 174.56 51.6787C173.915 51.6787 173.393 52.2012 173.393 52.8457C173.393 53.4902 173.915 54.0127 174.56 54.0127Z" fill="#F8F8F8"/>
<path d="M196.333 54.1665C196.873 54.1665 197.31 53.7295 197.31 53.1904C197.31 52.6514 196.873 52.2144 196.333 52.2144C195.794 52.2144 195.357 52.6514 195.357 53.1904C195.357 53.7295 195.794 54.1665 196.333 54.1665Z" fill="#F8F8F8"/>
<path d="M217.57 53.7846C218.004 53.7846 218.355 53.4331 218.355 52.9995C218.355 52.5659 218.004 52.2144 217.57 52.2144C217.137 52.2144 216.785 52.5659 216.785 52.9995C216.785 53.4331 217.137 53.7846 217.57 53.7846Z" fill="#F8F8F8"/>
<path d="M238.83 53.4452C239.17 53.4452 239.446 53.1697 239.446 52.8298C239.446 52.4899 239.17 52.2144 238.83 52.2144C238.49 52.2144 238.215 52.4899 238.215 52.8298C238.215 53.1697 238.49 53.4452 238.83 53.4452Z" fill="#F8F8F8"/>
<path d="M260.178 53.2858C260.474 53.2858 260.714 53.0459 260.714 52.7501C260.714 52.4542 260.474 52.2144 260.178 52.2144C259.882 52.2144 259.643 52.4542 259.643 52.7501C259.643 53.0459 259.882 53.2858 260.178 53.2858Z" fill="#F8F8F8"/>
<path d="M281.606 53.2858C281.902 53.2858 282.142 53.0459 282.142 52.7501C282.142 52.4542 281.902 52.2144 281.606 52.2144C281.31 52.2144 281.07 52.4542 281.07 52.7501C281.07 53.0459 281.31 53.2858 281.606 53.2858Z" fill="#F8F8F8"/>
<path d="M303.036 53.2858C303.332 53.2858 303.571 53.0459 303.571 52.7501C303.571 52.4542 303.332 52.2144 303.036 52.2144C302.74 52.2144 302.5 52.4542 302.5 52.7501C302.5 53.0459 302.74 53.2858 303.036 53.2858Z" fill="#F8F8F8"/>
<path d="M324.463 53.2858C324.759 53.2858 324.999 53.0459 324.999 52.7501C324.999 52.4542 324.759 52.2144 324.463 52.2144C324.168 52.2144 323.928 52.4542 323.928 52.7501C323.928 53.0459 324.168 53.2858 324.463 53.2858Z" fill="#F8F8F8"/>
<path d="M345.893 53.2858C346.189 53.2858 346.429 53.0459 346.429 52.7501C346.429 52.4542 346.189 52.2144 345.893 52.2144C345.597 52.2144 345.357 52.4542 345.357 52.7501C345.357 53.0459 345.597 53.2858 345.893 53.2858Z" fill="#F8F8F8"/>
<path d="M367.321 53.2858C367.617 53.2858 367.857 53.0459 367.857 52.7501C367.857 52.4542 367.617 52.2144 367.321 52.2144C367.025 52.2144 366.785 52.4542 366.785 52.7501C366.785 53.0459 367.025 53.2858 367.321 53.2858Z" fill="#F8F8F8"/>
<path d="M388.751 53.2858C389.046 53.2858 389.286 53.0459 389.286 52.7501C389.286 52.4542 389.046 52.2144 388.751 52.2144C388.455 52.2144 388.215 52.4542 388.215 52.7501C388.215 53.0459 388.455 53.2858 388.751 53.2858Z" fill="#F8F8F8"/>
<path d="M410.178 53.2858C410.474 53.2858 410.714 53.0459 410.714 52.7501C410.714 52.4542 410.474 52.2144 410.178 52.2144C409.882 52.2144 409.643 52.4542 409.643 52.7501C409.643 53.0459 409.882 53.2858 410.178 53.2858Z" fill="#F8F8F8"/>
<path opacity="0.3" d="M88.7763 75.8392C89.6786 75.8392 90.41 75.1078 90.41 74.2055C90.41 73.3032 89.6786 72.5718 88.7763 72.5718C87.874 72.5718 87.1426 73.3032 87.1426 74.2055C87.1426 75.1078 87.874 75.8392 88.7763 75.8392Z" fill="#F8F8F8"/>
<path opacity="0.4" d="M110.656 76.2051C111.512 76.2051 112.205 75.5117 112.205 74.6563C112.205 73.8009 111.512 73.1074 110.656 73.1074C109.801 73.1074 109.107 73.8009 109.107 74.6563C109.107 75.5117 109.801 76.2051 110.656 76.2051Z" fill="#F8F8F8"/>
<path opacity="0.4" d="M131.936 75.9081C132.709 75.9081 133.336 75.2812 133.336 74.5078C133.336 73.7344 132.709 73.1074 131.936 73.1074C131.162 73.1074 130.535 73.7344 130.535 74.5078C130.535 75.2812 131.162 75.9081 131.936 75.9081Z" fill="#F8F8F8"/>
<path opacity="0.4" d="M153.195 75.5687C153.875 75.5687 154.426 75.0177 154.426 74.3381C154.426 73.6584 153.875 73.1074 153.195 73.1074C152.516 73.1074 151.965 73.6584 151.965 74.3381C151.965 75.0177 152.516 75.5687 153.195 75.5687Z" fill="#F8F8F8"/>
<path d="M174.989 75.7649C175.575 75.7649 176.05 75.2899 176.05 74.704C176.05 74.1181 175.575 73.6431 174.989 73.6431C174.403 73.6431 173.928 74.1181 173.928 74.704C173.928 75.2899 174.403 75.7649 174.989 75.7649Z" fill="#F8F8F8"/>
<path d="M196.227 75.3831C196.708 75.3831 197.097 74.9936 197.097 74.5131C197.097 74.0326 196.708 73.6431 196.227 73.6431C195.747 73.6431 195.357 74.0326 195.357 74.5131C195.357 74.9936 195.747 75.3831 196.227 75.3831Z" fill="#F8F8F8"/>
<path d="M217.464 75.0012C217.839 75.0012 218.143 74.6972 218.143 74.3221C218.143 73.9471 217.839 73.6431 217.464 73.6431C217.089 73.6431 216.785 73.9471 216.785 74.3221C216.785 74.6972 217.089 75.0012 217.464 75.0012Z" fill="#F8F8F8"/>
<path d="M238.751 74.7145C239.046 74.7145 239.286 74.4746 239.286 74.1788C239.286 73.8829 239.046 73.6431 238.751 73.6431C238.455 73.6431 238.215 73.8829 238.215 74.1788C238.215 74.4746 238.455 74.7145 238.751 74.7145Z" fill="#F8F8F8"/>
<path d="M260.178 74.7145C260.474 74.7145 260.714 74.4746 260.714 74.1788C260.714 73.8829 260.474 73.6431 260.178 73.6431C259.882 73.6431 259.643 73.8829 259.643 74.1788C259.643 74.4746 259.882 74.7145 260.178 74.7145Z" fill="#F8F8F8"/>
<path d="M281.606 74.7145C281.902 74.7145 282.142 74.4746 282.142 74.1788C282.142 73.8829 281.902 73.6431 281.606 73.6431C281.31 73.6431 281.07 73.8829 281.07 74.1788C281.07 74.4746 281.31 74.7145 281.606 74.7145Z" fill="#F8F8F8"/>
<path d="M303.036 74.7145C303.332 74.7145 303.571 74.4746 303.571 74.1788C303.571 73.8829 303.332 73.6431 303.036 73.6431C302.74 73.6431 302.5 73.8829 302.5 74.1788C302.5 74.4746 302.74 74.7145 303.036 74.7145Z" fill="#F8F8F8"/>
<path d="M324.463 74.7145C324.759 74.7145 324.999 74.4746 324.999 74.1788C324.999 73.8829 324.759 73.6431 324.463 73.6431C324.168 73.6431 323.928 73.8829 323.928 74.1788C323.928 74.4746 324.168 74.7145 324.463 74.7145Z" fill="#F8F8F8"/>
<path d="M345.893 74.7145C346.189 74.7145 346.429 74.4746 346.429 74.1788C346.429 73.8829 346.189 73.6431 345.893 73.6431C345.597 73.6431 345.357 73.8829 345.357 74.1788C345.357 74.4746 345.597 74.7145 345.893 74.7145Z" fill="#F8F8F8"/>
<path d="M367.321 74.7145C367.617 74.7145 367.857 74.4746 367.857 74.1788C367.857 73.8829 367.617 73.6431 367.321 73.6431C367.025 73.6431 366.785 73.8829 366.785 74.1788C366.785 74.4746 367.025 74.7145 367.321 74.7145Z" fill="#F8F8F8"/>
<path d="M388.751 74.7145C389.046 74.7145 389.286 74.4746 389.286 74.1788C389.286 73.8829 389.046 73.6431 388.751 73.6431C388.455 73.6431 388.215 73.8829 388.215 74.1788C388.215 74.4746 388.455 74.7145 388.751 74.7145Z" fill="#F8F8F8"/>
<path d="M410.178 74.7145C410.474 74.7145 410.714 74.4746 410.714 74.1788C410.714 73.8829 410.474 73.6431 410.178 73.6431C409.882 73.6431 409.643 73.8829 409.643 74.1788C409.643 74.4746 409.882 74.7145 410.178 74.7145Z" fill="#F8F8F8"/>
<path opacity="0.3" d="M89.2478 97.6763C90.1149 97.6763 90.8179 96.9733 90.8179 96.1062C90.8179 95.2391 90.1149 94.5361 89.2478 94.5361C88.3807 94.5361 87.6777 95.2391 87.6777 96.1062C87.6777 96.9733 88.3807 97.6763 89.2478 97.6763Z" fill="#F8F8F8"/>
<path opacity="0.4" d="M110.55 97.4217C111.347 97.4217 111.993 96.7758 111.993 95.9789C111.993 95.1821 111.347 94.5361 110.55 94.5361C109.753 94.5361 109.107 95.1821 109.107 95.9789C109.107 96.7758 109.753 97.4217 110.55 97.4217Z" fill="#F8F8F8"/>
<path opacity="0.4" d="M131.829 97.1247C132.544 97.1247 133.124 96.5452 133.124 95.8304C133.124 95.1156 132.544 94.5361 131.829 94.5361C131.115 94.5361 130.535 95.1156 130.535 95.8304C130.535 96.5452 131.115 97.1247 131.829 97.1247Z" fill="#F8F8F8"/>
<path opacity="0.4" d="M153.068 96.7428C153.678 96.7428 154.172 96.2489 154.172 95.6395C154.172 95.0301 153.678 94.5361 153.068 94.5361C152.459 94.5361 151.965 95.0301 151.965 95.6395C151.965 96.2489 152.459 96.7428 153.068 96.7428Z" fill="#F8F8F8"/>
<path d="M174.883 96.9815C175.41 96.9815 175.837 96.554 175.837 96.0266C175.837 95.4993 175.41 95.0718 174.883 95.0718C174.355 95.0718 173.928 95.4993 173.928 96.0266C173.928 96.554 174.355 96.9815 174.883 96.9815Z" fill="#F8F8F8"/>
<path d="M196.143 96.6421C196.576 96.6421 196.928 96.2905 196.928 95.8569C196.928 95.4233 196.576 95.0718 196.143 95.0718C195.709 95.0718 195.357 95.4233 195.357 95.8569C195.357 96.2905 195.709 96.6421 196.143 96.6421Z" fill="#F8F8F8"/>
<path d="M217.379 96.2602C217.708 96.2602 217.974 95.9942 217.974 95.666C217.974 95.3378 217.708 95.0718 217.379 95.0718C217.051 95.0718 216.785 95.3378 216.785 95.666C216.785 95.9942 217.051 96.2602 217.379 96.2602Z" fill="#F8F8F8"/>
<path d="M238.751 96.1432C239.046 96.1432 239.286 95.9034 239.286 95.6075C239.286 95.3116 239.046 95.0718 238.751 95.0718C238.455 95.0718 238.215 95.3116 238.215 95.6075C238.215 95.9034 238.455 96.1432 238.751 96.1432Z" fill="#F8F8F8"/>
<path d="M260.178 96.1432C260.474 96.1432 260.714 95.9034 260.714 95.6075C260.714 95.3116 260.474 95.0718 260.178 95.0718C259.882 95.0718 259.643 95.3116 259.643 95.6075C259.643 95.9034 259.882 96.1432 260.178 96.1432Z" fill="#F8F8F8"/>
<path d="M281.606 96.1432C281.902 96.1432 282.142 95.9034 282.142 95.6075C282.142 95.3116 281.902 95.0718 281.606 95.0718C281.31 95.0718 281.07 95.3116 281.07 95.6075C281.07 95.9034 281.31 96.1432 281.606 96.1432Z" fill="#F8F8F8"/>
<path d="M303.036 96.1432C303.332 96.1432 303.571 95.9034 303.571 95.6075C303.571 95.3116 303.332 95.0718 303.036 95.0718C302.74 95.0718 302.5 95.3116 302.5 95.6075C302.5 95.9034 302.74 96.1432 303.036 96.1432Z" fill="#F8F8F8"/>
<path d="M324.463 96.1432C324.759 96.1432 324.999 95.9034 324.999 95.6075C324.999 95.3116 324.759 95.0718 324.463 95.0718C324.168 95.0718 323.928 95.3116 323.928 95.6075C323.928 95.9034 324.168 96.1432 324.463 96.1432Z" fill="#F8F8F8"/>
<path d="M345.893 96.1432C346.189 96.1432 346.429 95.9034 346.429 95.6075C346.429 95.3116 346.189 95.0718 345.893 95.0718C345.597 95.0718 345.357 95.3116 345.357 95.6075C345.357 95.9034 345.597 96.1432 345.893 96.1432Z" fill="#F8F8F8"/>
<path d="M367.321 96.1432C367.617 96.1432 367.857 95.9034 367.857 95.6075C367.857 95.3116 367.617 95.0718 367.321 95.0718C367.025 95.0718 366.785 95.3116 366.785 95.6075C366.785 95.9034 367.025 96.1432 367.321 96.1432Z" fill="#F8F8F8"/>
<path d="M388.751 96.1432C389.046 96.1432 389.286 95.9034 389.286 95.6075C389.286 95.3116 389.046 95.0718 388.751 95.0718C388.455 95.0718 388.215 95.3116 388.215 95.6075C388.215 95.9034 388.455 96.1432 388.751 96.1432Z" fill="#F8F8F8"/>
<path d="M410.178 96.1432C410.474 96.1432 410.714 95.9034 410.714 95.6075C410.714 95.3116 410.474 95.0718 410.178 95.0718C409.882 95.0718 409.643 95.3116 409.643 95.6075C409.643 95.9034 409.882 96.1432 410.178 96.1432Z" fill="#F8F8F8"/>
<path opacity="0.3" d="M89.1417 118.892C89.9503 118.892 90.6057 118.237 90.6057 117.428C90.6057 116.62 89.9503 115.964 89.1417 115.964C88.3332 115.964 87.6777 116.62 87.6777 117.428C87.6777 118.237 88.3332 118.892 89.1417 118.892Z" fill="#F8F8F8"/>
<path opacity="0.4" d="M110.444 118.638C111.182 118.638 111.781 118.039 111.781 117.301C111.781 116.563 111.182 115.964 110.444 115.964C109.706 115.964 109.107 116.563 109.107 117.301C109.107 118.039 109.706 118.638 110.444 118.638Z" fill="#F8F8F8"/>
<path opacity="0.4" d="M131.723 118.341C132.38 118.341 132.912 117.809 132.912 117.153C132.912 116.496 132.38 115.964 131.723 115.964C131.067 115.964 130.535 116.496 130.535 117.153C130.535 117.809 131.067 118.341 131.723 118.341Z" fill="#F8F8F8"/>
<path opacity="0.4" d="M153.54 118.579C154.114 118.579 154.579 118.114 154.579 117.54C154.579 116.965 154.114 116.5 153.54 116.5C152.965 116.5 152.5 116.965 152.5 117.54C152.5 118.114 152.965 118.579 153.54 118.579Z" fill="#F8F8F8"/>
<path d="M174.819 118.282C175.311 118.282 175.71 117.883 175.71 117.391C175.71 116.899 175.311 116.5 174.819 116.5C174.327 116.5 173.928 116.899 173.928 117.391C173.928 117.883 174.327 118.282 174.819 118.282Z" fill="#F8F8F8"/>
<path d="M196.079 117.943C196.477 117.943 196.8 117.62 196.8 117.222C196.8 116.823 196.477 116.5 196.079 116.5C195.68 116.5 195.357 116.823 195.357 117.222C195.357 117.62 195.68 117.943 196.079 117.943Z" fill="#F8F8F8"/>
<path d="M217.379 117.688C217.708 117.688 217.974 117.422 217.974 117.094C217.974 116.766 217.708 116.5 217.379 116.5C217.051 116.5 216.785 116.766 216.785 117.094C216.785 117.422 217.051 117.688 217.379 117.688Z" fill="#F8F8F8"/>
<path d="M238.751 117.571C239.046 117.571 239.286 117.332 239.286 117.036C239.286 116.74 239.046 116.5 238.751 116.5C238.455 116.5 238.215 116.74 238.215 117.036C238.215 117.332 238.455 117.571 238.751 117.571Z" fill="#F8F8F8"/>
<path d="M260.178 117.571C260.474 117.571 260.714 117.332 260.714 117.036C260.714 116.74 260.474 116.5 260.178 116.5C259.882 116.5 259.643 116.74 259.643 117.036C259.643 117.332 259.882 117.571 260.178 117.571Z" fill="#F8F8F8"/>
<path d="M281.606 117.571C281.902 117.571 282.142 117.332 282.142 117.036C282.142 116.74 281.902 116.5 281.606 116.5C281.31 116.5 281.07 116.74 281.07 117.036C281.07 117.332 281.31 117.571 281.606 117.571Z" fill="#F8F8F8"/>
<path d="M303.036 117.571C303.332 117.571 303.571 117.332 303.571 117.036C303.571 116.74 303.332 116.5 303.036 116.5C302.74 116.5 302.5 116.74 302.5 117.036C302.5 117.332 302.74 117.571 303.036 117.571Z" fill="#F8F8F8"/>
<path d="M324.463 117.571C324.759 117.571 324.999 117.332 324.999 117.036C324.999 116.74 324.759 116.5 324.463 116.5C324.168 116.5 323.928 116.74 323.928 117.036C323.928 117.332 324.168 117.571 324.463 117.571Z" fill="#F8F8F8"/>
<path d="M345.893 117.571C346.189 117.571 346.429 117.332 346.429 117.036C346.429 116.74 346.189 116.5 345.893 116.5C345.597 116.5 345.357 116.74 345.357 117.036C345.357 117.332 345.597 117.571 345.893 117.571Z" fill="#F8F8F8"/>
<path d="M367.321 117.571C367.617 117.571 367.857 117.332 367.857 117.036C367.857 116.74 367.617 116.5 367.321 116.5C367.025 116.5 366.785 116.74 366.785 117.036C366.785 117.332 367.025 117.571 367.321 117.571Z" fill="#F8F8F8"/>
<path d="M388.751 117.571C389.046 117.571 389.286 117.332 389.286 117.036C389.286 116.74 389.046 116.5 388.751 116.5C388.455 116.5 388.215 116.74 388.215 117.036C388.215 117.332 388.455 117.571 388.751 117.571Z" fill="#F8F8F8"/>
<path d="M410.178 117.571C410.474 117.571 410.714 117.332 410.714 117.036C410.714 116.74 410.474 116.5 410.178 116.5C409.882 116.5 409.643 116.74 409.643 117.036C409.643 117.332 409.882 117.571 410.178 117.571Z" fill="#F8F8F8"/>
<path d="M89.0357 140.108C89.7856 140.108 90.3936 139.5 90.3936 138.751C90.3936 138.001 89.7856 137.393 89.0357 137.393C88.2857 137.393 87.6777 138.001 87.6777 138.751C87.6777 139.5 88.2857 140.108 89.0357 140.108Z" fill="#F8F8F8"/>
<path d="M110.359 139.896C111.051 139.896 111.611 139.336 111.611 138.644C111.611 137.953 111.051 137.393 110.359 137.393C109.668 137.393 109.107 137.953 109.107 138.644C109.107 139.336 109.668 139.896 110.359 139.896Z" fill="#F8F8F8"/>
<path d="M131.66 139.643C132.281 139.643 132.784 139.139 132.784 138.518C132.784 137.897 132.281 137.394 131.66 137.394C131.039 137.394 130.535 137.897 130.535 138.518C130.535 139.139 131.039 139.643 131.66 139.643Z" fill="#F8F8F8"/>
<path d="M153.476 139.881C154.015 139.881 154.452 139.444 154.452 138.905C154.452 138.366 154.015 137.929 153.476 137.929C152.937 137.929 152.5 138.366 152.5 138.905C152.5 139.444 152.937 139.881 153.476 139.881Z" fill="#F8F8F8"/>
<path d="M174.798 139.669C175.278 139.669 175.668 139.279 175.668 138.799C175.668 138.318 175.278 137.929 174.798 137.929C174.317 137.929 173.928 138.318 173.928 138.799C173.928 139.279 174.317 139.669 174.798 139.669Z" fill="#F8F8F8"/>
<path d="M196.079 139.371C196.477 139.371 196.8 139.048 196.8 138.65C196.8 138.251 196.477 137.928 196.079 137.928C195.68 137.928 195.357 138.251 195.357 138.65C195.357 139.048 195.68 139.371 196.079 139.371Z" fill="#F8F8F8"/>
<path d="M217.401 139.159C217.74 139.159 218.016 138.884 218.016 138.544C218.016 138.204 217.74 137.928 217.401 137.928C217.061 137.928 216.785 138.204 216.785 138.544C216.785 138.884 217.061 139.159 217.401 139.159Z" fill="#F8F8F8"/>
<path d="M238.767 139.032C239.071 139.032 239.318 138.785 239.318 138.48C239.318 138.176 239.071 137.929 238.767 137.929C238.462 137.929 238.215 138.176 238.215 138.48C238.215 138.785 238.462 139.032 238.767 139.032Z" fill="#F8F8F8"/>
<path d="M260.178 139C260.474 139 260.714 138.76 260.714 138.464C260.714 138.169 260.474 137.929 260.178 137.929C259.882 137.929 259.643 138.169 259.643 138.464C259.643 138.76 259.882 139 260.178 139Z" fill="#F8F8F8"/>
<path d="M281.606 139C281.902 139 282.142 138.76 282.142 138.464C282.142 138.169 281.902 137.929 281.606 137.929C281.31 137.929 281.07 138.169 281.07 138.464C281.07 138.76 281.31 139 281.606 139Z" fill="#F8F8F8"/>
<path d="M303.036 139C303.332 139 303.571 138.76 303.571 138.464C303.571 138.169 303.332 137.929 303.036 137.929C302.74 137.929 302.5 138.169 302.5 138.464C302.5 138.76 302.74 139 303.036 139Z" fill="#F8F8F8"/>
<path d="M324.463 139C324.759 139 324.999 138.76 324.999 138.464C324.999 138.169 324.759 137.929 324.463 137.929C324.168 137.929 323.928 138.169 323.928 138.464C323.928 138.76 324.168 139 324.463 139Z" fill="#F8F8F8"/>
<path d="M345.893 139C346.189 139 346.429 138.76 346.429 138.464C346.429 138.169 346.189 137.929 345.893 137.929C345.597 137.929 345.357 138.169 345.357 138.464C345.357 138.76 345.597 139 345.893 139Z" fill="#F8F8F8"/>
<path d="M367.321 139C367.617 139 367.857 138.76 367.857 138.464C367.857 138.169 367.617 137.929 367.321 137.929C367.025 137.929 366.785 138.169 366.785 138.464C366.785 138.76 367.025 139 367.321 139Z" fill="#F8F8F8"/>
<path d="M388.751 139C389.046 139 389.286 138.76 389.286 138.464C389.286 138.169 389.046 137.929 388.751 137.929C388.455 137.929 388.215 138.169 388.215 138.464C388.215 138.76 388.455 139 388.751 139Z" fill="#F8F8F8"/>
<path d="M410.178 139C410.474 139 410.714 138.76 410.714 138.464C410.714 138.169 410.474 137.929 410.178 137.929C409.882 137.929 409.643 138.169 409.643 138.464C409.643 138.76 409.882 139 410.178 139Z" fill="#F8F8F8"/>
<path d="M88.9508 161.368C89.6539 161.368 90.2239 160.798 90.2239 160.095C90.2239 159.392 89.6539 158.822 88.9508 158.822C88.2477 158.822 87.6777 159.392 87.6777 160.095C87.6777 160.798 88.2477 161.368 88.9508 161.368Z" fill="#F8F8F8"/>
<path d="M110.274 161.156C110.919 161.156 111.441 160.633 111.441 159.989C111.441 159.344 110.919 158.822 110.274 158.822C109.63 158.822 109.107 159.344 109.107 159.989C109.107 160.633 109.63 161.156 110.274 161.156Z" fill="#F8F8F8"/>
<path d="M132.131 161.479C132.717 161.479 133.192 161.004 133.192 160.418C133.192 159.832 132.717 159.357 132.131 159.357C131.545 159.357 131.07 159.832 131.07 160.418C131.07 161.004 131.545 161.479 132.131 161.479Z" fill="#F8F8F8"/>
<path d="M367.321 160.429C367.617 160.429 367.857 160.189 367.857 159.893C367.857 159.597 367.617 159.357 367.321 159.357C367.025 159.357 366.785 159.597 366.785 159.893C366.785 160.189 367.025 160.429 367.321 160.429Z" fill="#F8F8F8"/>
<path d="M388.751 160.429C389.046 160.429 389.286 160.189 389.286 159.893C389.286 159.597 389.046 159.357 388.751 159.357C388.455 159.357 388.215 159.597 388.215 159.893C388.215 160.189 388.455 160.429 388.751 160.429Z" fill="#F8F8F8"/>
<path d="M410.178 160.429C410.474 160.429 410.714 160.189 410.714 159.893C410.714 159.597 410.474 159.357 410.178 159.357C409.882 159.357 409.643 159.597 409.643 159.893C409.643 160.189 409.882 160.429 410.178 160.429Z" fill="#F8F8F8"/>
<path d="M88.8447 182.584C89.4892 182.584 90.0117 182.062 90.0117 181.417C90.0117 180.772 89.4892 180.25 88.8447 180.25C88.2002 180.25 87.6777 180.772 87.6777 181.417C87.6777 182.062 88.2002 182.584 88.8447 182.584Z" fill="#F8F8F8"/>
<path d="M110.211 182.457C110.82 182.457 111.314 181.963 111.314 181.353C111.314 180.744 110.82 180.25 110.211 180.25C109.601 180.25 109.107 180.744 109.107 181.353C109.107 181.963 109.601 182.457 110.211 182.457Z" fill="#F8F8F8"/>
<path d="M132.089 182.824C132.651 182.824 133.107 182.368 133.107 181.805C133.107 181.243 132.651 180.787 132.089 180.787C131.526 180.787 131.07 181.243 131.07 181.805C131.07 182.368 131.526 182.824 132.089 182.824Z" fill="#F8F8F8"/>
<path d="M367.379 181.975C367.708 181.975 367.974 181.709 367.974 181.381C367.974 181.053 367.708 180.787 367.379 180.787C367.051 180.787 366.785 181.053 366.785 181.381C366.785 181.709 367.051 181.975 367.379 181.975Z" fill="#F8F8F8"/>
<path d="M388.751 181.858C389.046 181.858 389.286 181.618 389.286 181.322C389.286 181.026 389.046 180.786 388.751 180.786C388.455 180.786 388.215 181.026 388.215 181.322C388.215 181.618 388.455 181.858 388.751 181.858Z" fill="#F8F8F8"/>
<path d="M410.178 181.858C410.474 181.858 410.714 181.618 410.714 181.322C410.714 181.026 410.474 180.786 410.178 180.786C409.882 180.786 409.643 181.026 409.643 181.322C409.643 181.618 409.882 181.858 410.178 181.858Z" fill="#F8F8F8"/>
<path d="M88.7811 203.885C89.3905 203.885 89.8844 203.391 89.8844 202.782C89.8844 202.173 89.3905 201.679 88.7811 201.679C88.1717 201.679 87.6777 202.173 87.6777 202.782C87.6777 203.391 88.1717 203.885 88.7811 203.885Z" fill="#F8F8F8"/>
<path d="M110.704 204.336C111.289 204.336 111.764 203.861 111.764 203.275C111.764 202.689 111.289 202.214 110.704 202.214C110.118 202.214 109.643 202.689 109.643 203.275C109.643 203.861 110.118 204.336 110.704 204.336Z" fill="#F8F8F8"/>
<path d="M132.089 204.252C132.651 204.252 133.107 203.796 133.107 203.233C133.107 202.671 132.651 202.215 132.089 202.215C131.526 202.215 131.07 202.671 131.07 203.233C131.07 203.796 131.526 204.252 132.089 204.252Z" fill="#F8F8F8"/>
<path d="M367.549 203.742C367.971 203.742 368.313 203.4 368.313 202.978C368.313 202.556 367.971 202.214 367.549 202.214C367.127 202.214 366.785 202.556 366.785 202.978C366.785 203.4 367.127 203.742 367.549 203.742Z" fill="#F8F8F8"/>
<path d="M388.894 203.573C389.269 203.573 389.573 203.268 389.573 202.893C389.573 202.518 389.269 202.214 388.894 202.214C388.519 202.214 388.215 202.518 388.215 202.893C388.215 203.268 388.519 203.573 388.894 203.573Z" fill="#F8F8F8"/>
<path d="M410.258 203.445C410.598 203.445 410.873 203.169 410.873 202.829C410.873 202.489 410.598 202.214 410.258 202.214C409.918 202.214 409.643 202.489 409.643 202.829C409.643 203.169 409.918 203.445 410.258 203.445Z" fill="#F8F8F8"/>
<path d="M89.2546 225.722C89.8288 225.722 90.2943 225.257 90.2943 224.682C90.2943 224.108 89.8288 223.643 89.2546 223.643C88.6803 223.643 88.2148 224.108 88.2148 224.682C88.2148 225.257 88.6803 225.722 89.2546 225.722Z" fill="#F8F8F8"/>
<path d="M110.661 225.681C111.224 225.681 111.68 225.225 111.68 224.662C111.68 224.1 111.224 223.644 110.661 223.644C110.099 223.644 109.643 224.1 109.643 224.662C109.643 225.225 110.099 225.681 110.661 225.681Z" fill="#F8F8F8"/>
<path d="M132.089 225.681C132.651 225.681 133.107 225.225 133.107 224.662C133.107 224.1 132.651 223.644 132.089 223.644C131.526 223.644 131.07 224.1 131.07 224.662C131.07 225.225 131.526 225.681 132.089 225.681Z" fill="#F8F8F8"/>
<path d="M367.719 225.51C368.234 225.51 368.652 225.092 368.652 224.576C368.652 224.061 368.234 223.643 367.719 223.643C367.203 223.643 366.785 224.061 366.785 224.576C366.785 225.092 367.203 225.51 367.719 225.51Z" fill="#F8F8F8"/>
<path d="M389.064 225.341C389.532 225.341 389.912 224.961 389.912 224.492C389.912 224.023 389.532 223.643 389.064 223.643C388.595 223.643 388.215 224.023 388.215 224.492C388.215 224.961 388.595 225.341 389.064 225.341Z" fill="#F8F8F8"/>
<path d="M410.385 225.128C410.795 225.128 411.128 224.796 411.128 224.386C411.128 223.976 410.795 223.643 410.385 223.643C409.975 223.643 409.643 223.976 409.643 224.386C409.643 224.796 409.975 225.128 410.385 225.128Z" fill="#F8F8F8"/>
<path d="M89.2333 247.109C89.7958 247.109 90.2518 246.653 90.2518 246.091C90.2518 245.528 89.7958 245.072 89.2333 245.072C88.6708 245.072 88.2148 245.528 88.2148 246.091C88.2148 246.653 88.6708 247.109 89.2333 247.109Z" fill="#F8F8F8"/>
<path d="M110.661 247.109C111.224 247.109 111.68 246.653 111.68 246.091C111.68 245.528 111.224 245.072 110.661 245.072C110.099 245.072 109.643 245.528 109.643 246.091C109.643 246.653 110.099 247.109 110.661 247.109Z" fill="#F8F8F8"/>
<path d="M132.11 247.151C132.684 247.151 133.15 246.685 133.15 246.111C133.15 245.537 132.684 245.071 132.11 245.071C131.536 245.071 131.07 245.537 131.07 246.111C131.07 246.685 131.536 247.151 132.11 247.151Z" fill="#F8F8F8"/>
<path d="M367.332 246.7C367.93 246.7 368.414 246.216 368.414 245.618C368.414 245.021 367.93 244.536 367.332 244.536C366.735 244.536 366.25 245.021 366.25 245.618C366.25 246.216 366.735 246.7 367.332 246.7Z" fill="#F8F8F8"/>
<path d="M389.191 247.024C389.73 247.024 390.167 246.587 390.167 246.048C390.167 245.509 389.73 245.072 389.191 245.072C388.652 245.072 388.215 245.509 388.215 246.048C388.215 246.587 388.652 247.024 389.191 247.024Z" fill="#F8F8F8"/>
<path d="M410.513 246.812C410.993 246.812 411.383 246.422 411.383 245.942C411.383 245.461 410.993 245.072 410.513 245.072C410.032 245.072 409.643 245.461 409.643 245.942C409.643 246.422 410.032 246.812 410.513 246.812Z" fill="#F8F8F8"/>
<path d="M89.1909 268.452C89.73 268.452 90.167 268.015 90.167 267.476C90.167 266.937 89.73 266.5 89.1909 266.5C88.6518 266.5 88.2148 266.937 88.2148 267.476C88.2148 268.015 88.6518 268.452 89.1909 268.452Z" fill="#F8F8F8"/>
<path d="M110.661 268.538C111.224 268.538 111.68 268.082 111.68 267.519C111.68 266.957 111.224 266.501 110.661 266.501C110.099 266.501 109.643 266.957 109.643 267.519C109.643 268.082 110.099 268.538 110.661 268.538Z" fill="#F8F8F8"/>
<path d="M132.131 268.622C132.717 268.622 133.192 268.147 133.192 267.561C133.192 266.975 132.717 266.5 132.131 266.5C131.545 266.5 131.07 266.975 131.07 267.561C131.07 268.147 131.545 268.622 132.131 268.622Z" fill="#F8F8F8"/>
<path d="M367.417 268.298C368.062 268.298 368.584 267.776 368.584 267.131C368.584 266.487 368.062 265.964 367.417 265.964C366.772 265.964 366.25 266.487 366.25 267.131C366.25 267.776 366.772 268.298 367.417 268.298Z" fill="#F8F8F8"/>
<path d="M388.76 268.129C389.358 268.129 389.842 267.644 389.842 267.046C389.842 266.449 389.358 265.964 388.76 265.964C388.162 265.964 387.678 266.449 387.678 267.046C387.678 267.644 388.162 268.129 388.76 268.129Z" fill="#F8F8F8"/>
<path d="M410.619 268.452C411.158 268.452 411.595 268.015 411.595 267.476C411.595 266.937 411.158 266.5 410.619 266.5C410.08 266.5 409.643 266.937 409.643 267.476C409.643 268.015 410.08 268.452 410.619 268.452Z" fill="#F8F8F8"/>
<path d="M89.1909 289.881C89.73 289.881 90.167 289.444 90.167 288.905C90.167 288.366 89.73 287.929 89.1909 287.929C88.6518 287.929 88.2148 288.366 88.2148 288.905C88.2148 289.444 88.6518 289.881 89.1909 289.881Z" fill="#F8F8F8"/>
<path opacity="0.5" d="M110.661 289.966C111.224 289.966 111.68 289.51 111.68 288.948C111.68 288.385 111.224 287.929 110.661 287.929C110.099 287.929 109.643 288.385 109.643 288.948C109.643 289.51 110.099 289.966 110.661 289.966Z" fill="#F8F8F8"/>
<path opacity="0.5" d="M131.639 289.6C132.248 289.6 132.742 289.106 132.742 288.496C132.742 287.887 132.248 287.393 131.639 287.393C131.029 287.393 130.535 287.887 130.535 288.496C130.535 289.106 131.029 289.6 131.639 289.6Z" fill="#F8F8F8"/>
<path d="M153.153 289.769C153.809 289.769 154.341 289.238 154.341 288.581C154.341 287.925 153.809 287.393 153.153 287.393C152.497 287.393 151.965 287.925 151.965 288.581C151.965 289.238 152.497 289.769 153.153 289.769Z" fill="#F8F8F8"/>
<path d="M174.644 289.896C175.336 289.896 175.896 289.336 175.896 288.644C175.896 287.953 175.336 287.393 174.644 287.393C173.953 287.393 173.393 287.953 173.393 288.644C173.393 289.336 173.953 289.896 174.644 289.896Z" fill="#F8F8F8"/>
<path d="M196.136 290.024C196.862 290.024 197.451 289.435 197.451 288.709C197.451 287.982 196.862 287.393 196.136 287.393C195.409 287.393 194.82 287.982 194.82 288.709C194.82 289.435 195.409 290.024 196.136 290.024Z" fill="#F8F8F8"/>
<path d="M303.365 290.194C304.139 290.194 304.766 289.567 304.766 288.793C304.766 288.02 304.139 287.393 303.365 287.393C302.592 287.393 301.965 288.02 301.965 288.793C301.965 289.567 302.592 290.194 303.365 290.194Z" fill="#F8F8F8"/>
<path d="M324.772 290.151C325.533 290.151 326.151 289.534 326.151 288.772C326.151 288.011 325.533 287.393 324.772 287.393C324.01 287.393 323.393 288.011 323.393 288.772C323.393 289.534 324.01 290.151 324.772 290.151Z" fill="#F8F8F8"/>
<path d="M346.157 290.067C346.895 290.067 347.494 289.469 347.494 288.73C347.494 287.992 346.895 287.394 346.157 287.394C345.419 287.394 344.82 287.992 344.82 288.73C344.82 289.469 345.419 290.067 346.157 290.067Z" fill="#F8F8F8"/>
<path d="M367.544 289.982C368.259 289.982 368.839 289.402 368.839 288.687C368.839 287.973 368.259 287.393 367.544 287.393C366.829 287.393 366.25 287.973 366.25 288.687C366.25 289.402 366.829 289.982 367.544 289.982Z" fill="#F8F8F8"/>
<path d="M388.866 289.769C389.522 289.769 390.054 289.238 390.054 288.581C390.054 287.925 389.522 287.393 388.866 287.393C388.21 287.393 387.678 287.925 387.678 288.581C387.678 289.238 388.21 289.769 388.866 289.769Z" fill="#F8F8F8"/>
<path d="M410.19 289.557C410.787 289.557 411.272 289.073 411.272 288.475C411.272 287.878 410.787 287.393 410.19 287.393C409.592 287.393 409.107 287.878 409.107 288.475C409.107 289.073 409.592 289.557 410.19 289.557Z" fill="#F8F8F8"/>
<path d="M89.1697 311.267C89.6971 311.267 90.1246 310.84 90.1246 310.312C90.1246 309.785 89.6971 309.357 89.1697 309.357C88.6423 309.357 88.2148 309.785 88.2148 310.312C88.2148 310.84 88.6423 311.267 89.1697 311.267Z" fill="#F8F8F8"/>
<path opacity="0.5" d="M110.682 311.436C111.257 311.436 111.722 310.971 111.722 310.397C111.722 309.822 111.257 309.357 110.682 309.357C110.108 309.357 109.643 309.822 109.643 310.397C109.643 310.971 110.108 311.436 110.682 311.436Z" fill="#F8F8F8"/>
<path opacity="0.5" d="M131.66 311.071C132.281 311.071 132.784 310.568 132.784 309.947C132.784 309.326 132.281 308.822 131.66 308.822C131.039 308.822 130.535 309.326 130.535 309.947C130.535 310.568 131.039 311.071 131.66 311.071Z" fill="#F8F8F8"/>
<path d="M153.195 311.284C153.875 311.284 154.426 310.733 154.426 310.053C154.426 309.373 153.875 308.822 153.195 308.822C152.516 308.822 151.965 309.373 151.965 310.053C151.965 310.733 152.516 311.284 153.195 311.284Z" fill="#F8F8F8"/>
<path d="M174.708 311.453C175.435 311.453 176.024 310.864 176.024 310.137C176.024 309.411 175.435 308.822 174.708 308.822C173.982 308.822 173.393 309.411 173.393 310.137C173.393 310.864 173.982 311.453 174.708 311.453Z" fill="#F8F8F8"/>
<path d="M196.221 311.623C196.994 311.623 197.621 310.996 197.621 310.222C197.621 309.449 196.994 308.822 196.221 308.822C195.447 308.822 194.82 309.449 194.82 310.222C194.82 310.996 195.447 311.623 196.221 311.623Z" fill="#F8F8F8"/>
<path d="M303.471 311.835C304.303 311.835 304.978 311.16 304.978 310.328C304.978 309.496 304.303 308.822 303.471 308.822C302.639 308.822 301.965 309.496 301.965 310.328C301.965 311.16 302.639 311.835 303.471 311.835Z" fill="#F8F8F8"/>
<path d="M324.878 311.792C325.698 311.792 326.363 311.127 326.363 310.307C326.363 309.487 325.698 308.822 324.878 308.822C324.058 308.822 323.393 309.487 323.393 310.307C323.393 311.127 324.058 311.792 324.878 311.792Z" fill="#F8F8F8"/>
<path d="M346.263 311.708C347.06 311.708 347.706 311.062 347.706 310.265C347.706 309.468 347.06 308.822 346.263 308.822C345.466 308.822 344.82 309.468 344.82 310.265C344.82 311.062 345.466 311.708 346.263 311.708Z" fill="#F8F8F8"/>
<path d="M367.629 311.58C368.391 311.58 369.008 310.963 369.008 310.201C369.008 309.439 368.391 308.822 367.629 308.822C366.867 308.822 366.25 309.439 366.25 310.201C366.25 310.963 366.867 311.58 367.629 311.58Z" fill="#F8F8F8"/>
<path d="M388.972 311.41C389.687 311.41 390.266 310.831 390.266 310.116C390.266 309.401 389.687 308.822 388.972 308.822C388.257 308.822 387.678 309.401 387.678 310.116C387.678 310.831 388.257 311.41 388.972 311.41Z" fill="#F8F8F8"/>
<path d="M410.274 311.156C410.919 311.156 411.441 310.633 411.441 309.989C411.441 309.344 410.919 308.822 410.274 308.822C409.63 308.822 409.107 309.344 409.107 309.989C409.107 310.633 409.63 311.156 410.274 311.156Z" fill="#F8F8F8"/>
<path opacity="0.5" d="M89.1909 332.738C89.73 332.738 90.167 332.301 90.167 331.762C90.167 331.223 89.73 330.786 89.1909 330.786C88.6518 330.786 88.2148 331.223 88.2148 331.762C88.2148 332.301 88.6518 332.738 89.1909 332.738Z" fill="#F8F8F8"/>
<path opacity="0.5" d="M110.704 332.908C111.289 332.908 111.764 332.433 111.764 331.847C111.764 331.261 111.289 330.786 110.704 330.786C110.118 330.786 109.643 331.261 109.643 331.847C109.643 332.433 110.118 332.908 110.704 332.908Z" fill="#F8F8F8"/>
<path opacity="0.5" d="M131.702 332.584C132.347 332.584 132.869 332.062 132.869 331.417C132.869 330.772 132.347 330.25 131.702 330.25C131.058 330.25 130.535 330.772 130.535 331.417C130.535 332.062 131.058 332.584 131.702 332.584Z" fill="#F8F8F8"/>
<path d="M153.238 332.796C153.941 332.796 154.511 332.226 154.511 331.523C154.511 330.82 153.941 330.25 153.238 330.25C152.535 330.25 151.965 330.82 151.965 331.523C151.965 332.226 152.535 332.796 153.238 332.796Z" fill="#F8F8F8"/>
<path d="M174.751 332.965C175.5 332.965 176.108 332.357 176.108 331.607C176.108 330.857 175.5 330.25 174.751 330.25C174.001 330.25 173.393 330.857 173.393 331.607C173.393 332.357 174.001 332.965 174.751 332.965Z" fill="#F8F8F8"/>
<path d="M196.263 333.137C197.06 333.137 197.706 332.491 197.706 331.694C197.706 330.897 197.06 330.251 196.263 330.251C195.466 330.251 194.82 330.897 194.82 331.694C194.82 332.491 195.466 333.137 196.263 333.137Z" fill="#F8F8F8"/>
<path d="M303.535 333.39C304.402 333.39 305.105 332.687 305.105 331.82C305.105 330.952 304.402 330.25 303.535 330.25C302.668 330.25 301.965 330.952 301.965 331.82C301.965 332.687 302.668 333.39 303.535 333.39Z" fill="#F8F8F8"/>
<path d="M324.941 333.349C325.797 333.349 326.49 332.655 326.49 331.8C326.49 330.944 325.797 330.251 324.941 330.251C324.086 330.251 323.393 330.944 323.393 331.8C323.393 332.655 324.086 333.349 324.941 333.349Z" fill="#F8F8F8"/>
<path opacity="0.3" d="M346.327 333.263C347.159 333.263 347.833 332.588 347.833 331.756C347.833 330.924 347.159 330.25 346.327 330.25C345.495 330.25 344.82 330.924 344.82 331.756C344.82 332.588 345.495 333.263 346.327 333.263Z" fill="#F8F8F8"/>
<path opacity="0.3" d="M367.714 333.177C368.523 333.177 369.178 332.522 369.178 331.714C369.178 330.905 368.523 330.25 367.714 330.25C366.905 330.25 366.25 330.905 366.25 331.714C366.25 332.522 366.905 333.177 367.714 333.177Z" fill="#F8F8F8"/>
<path opacity="0.3" d="M389.057 333.008C389.819 333.008 390.436 332.391 390.436 331.629C390.436 330.867 389.819 330.25 389.057 330.25C388.295 330.25 387.678 330.867 387.678 331.629C387.678 332.391 388.295 333.008 389.057 333.008Z" fill="#F8F8F8"/>
<path d="M410.359 332.753C411.051 332.753 411.611 332.193 411.611 331.501C411.611 330.81 411.051 330.25 410.359 330.25C409.668 330.25 409.107 330.81 409.107 331.501C409.107 332.193 409.668 332.753 410.359 332.753Z" fill="#F8F8F8"/>
<path opacity="0.5" d="M89.2121 354.209C89.7629 354.209 90.2094 353.762 90.2094 353.212C90.2094 352.661 89.7629 352.214 89.2121 352.214C88.6613 352.214 88.2148 352.661 88.2148 353.212C88.2148 353.762 88.6613 354.209 89.2121 354.209Z" fill="#F8F8F8"/>
<path opacity="0.5" d="M110.19 353.843C110.787 353.843 111.272 353.359 111.272 352.761C111.272 352.163 110.787 351.679 110.19 351.679C109.592 351.679 109.107 352.163 109.107 352.761C109.107 353.359 109.592 353.843 110.19 353.843Z" fill="#F8F8F8"/>
<path opacity="0.5" d="M131.723 354.055C132.38 354.055 132.912 353.523 132.912 352.867C132.912 352.211 132.38 351.679 131.723 351.679C131.067 351.679 130.535 352.211 130.535 352.867C130.535 353.523 131.067 354.055 131.723 354.055Z" fill="#F8F8F8"/>
<path d="M153.259 354.267C153.974 354.267 154.553 353.688 154.553 352.973C154.553 352.258 153.974 351.679 153.259 351.679C152.544 351.679 151.965 352.258 151.965 352.973C151.965 353.688 152.544 354.267 153.259 354.267Z" fill="#F8F8F8"/>
<path d="M174.772 354.437C175.533 354.437 176.151 353.82 176.151 353.058C176.151 352.296 175.533 351.679 174.772 351.679C174.01 351.679 173.393 352.296 173.393 353.058C173.393 353.82 174.01 354.437 174.772 354.437Z" fill="#F8F8F8"/>
<path opacity="0.3" d="M196.284 354.606C197.093 354.606 197.748 353.951 197.748 353.142C197.748 352.334 197.093 351.678 196.284 351.678C195.476 351.678 194.82 352.334 194.82 353.142C194.82 353.951 195.476 354.606 196.284 354.606Z" fill="#F8F8F8"/>
<path opacity="0.3" d="M217.778 354.734C218.621 354.734 219.305 354.05 219.305 353.206C219.305 352.363 218.621 351.679 217.778 351.679C216.934 351.679 216.25 352.363 216.25 353.206C216.25 354.05 216.934 354.734 217.778 354.734Z" fill="#F8F8F8"/>
<path opacity="0.3" d="M239.248 354.818C240.115 354.818 240.818 354.115 240.818 353.248C240.818 352.381 240.115 351.678 239.248 351.678C238.381 351.678 237.678 352.381 237.678 353.248C237.678 354.115 238.381 354.818 239.248 354.818Z" fill="#F8F8F8"/>
<path opacity="0.3" d="M260.699 354.861C261.578 354.861 262.29 354.149 262.29 353.27C262.29 352.391 261.578 351.679 260.699 351.679C259.82 351.679 259.107 352.391 259.107 353.27C259.107 354.149 259.82 354.861 260.699 354.861Z" fill="#F8F8F8"/>
<path opacity="0.3" d="M281.613 354.368C282.503 354.368 283.225 353.646 283.225 352.756C283.225 351.865 282.503 351.143 281.613 351.143C280.722 351.143 280 351.865 280 352.756C280 353.646 280.722 354.368 281.613 354.368Z" fill="#F8F8F8"/>
<path opacity="0.3" d="M303.04 354.368C303.931 354.368 304.653 353.646 304.653 352.756C304.653 351.865 303.931 351.143 303.04 351.143C302.15 351.143 301.428 351.865 301.428 352.756C301.428 353.646 302.15 354.368 303.04 354.368Z" fill="#F8F8F8"/>
<path d="M324.984 354.861C325.863 354.861 326.575 354.149 326.575 353.27C326.575 352.391 325.863 351.679 324.984 351.679C324.105 351.679 323.393 352.391 323.393 353.27C323.393 354.149 324.105 354.861 324.984 354.861Z" fill="#F8F8F8"/>
<path opacity="0.3" d="M346.39 354.818C347.258 354.818 347.96 354.115 347.96 353.248C347.96 352.381 347.258 351.678 346.39 351.678C345.523 351.678 344.82 352.381 344.82 353.248C344.82 354.115 345.523 354.818 346.39 354.818Z" fill="#F8F8F8"/>
<path opacity="0.3" d="M367.778 354.734C368.621 354.734 369.305 354.05 369.305 353.206C369.305 352.363 368.621 351.679 367.778 351.679C366.934 351.679 366.25 352.363 366.25 353.206C366.25 354.05 366.934 354.734 367.778 354.734Z" fill="#F8F8F8"/>
<path opacity="0.3" d="M389.121 354.565C389.917 354.565 390.563 353.919 390.563 353.122C390.563 352.325 389.917 351.679 389.121 351.679C388.324 351.679 387.678 352.325 387.678 353.122C387.678 353.919 388.324 354.565 389.121 354.565Z" fill="#F8F8F8"/>
<path d="M410.444 354.353C411.182 354.353 411.781 353.754 411.781 353.016C411.781 352.278 411.182 351.679 410.444 351.679C409.706 351.679 409.107 352.278 409.107 353.016C409.107 353.754 409.706 354.353 410.444 354.353Z" fill="#F8F8F8"/>
<path opacity="0.5" d="M89.2758 375.765C89.8617 375.765 90.3367 375.29 90.3367 374.704C90.3367 374.118 89.8617 373.643 89.2758 373.643C88.6898 373.643 88.2148 374.118 88.2148 374.704C88.2148 375.29 88.6898 375.765 89.2758 375.765Z" fill="#F8F8F8"/>
<path opacity="0.5" d="M110.211 375.314C110.82 375.314 111.314 374.82 111.314 374.211C111.314 373.601 110.82 373.107 110.211 373.107C109.601 373.107 109.107 373.601 109.107 374.211C109.107 374.82 109.601 375.314 110.211 375.314Z" fill="#F8F8F8"/>
<path opacity="0.5" d="M131.745 375.526C132.413 375.526 132.954 374.985 132.954 374.317C132.954 373.649 132.413 373.107 131.745 373.107C131.077 373.107 130.535 373.649 130.535 374.317C130.535 374.985 131.077 375.526 131.745 375.526Z" fill="#F8F8F8"/>
<path d="M153.259 375.696C153.974 375.696 154.553 375.117 154.553 374.402C154.553 373.687 153.974 373.107 153.259 373.107C152.544 373.107 151.965 373.687 151.965 374.402C151.965 375.117 152.544 375.696 153.259 375.696Z" fill="#F8F8F8"/>
<path d="M174.772 375.866C175.533 375.866 176.151 375.248 176.151 374.487C176.151 373.725 175.533 373.107 174.772 373.107C174.01 373.107 173.393 373.725 173.393 374.487C173.393 375.248 174.01 375.866 174.772 375.866Z" fill="#F8F8F8"/>
<path opacity="0.3" d="M196.284 376.035C197.093 376.035 197.748 375.379 197.748 374.571C197.748 373.762 197.093 373.107 196.284 373.107C195.476 373.107 194.82 373.762 194.82 374.571C194.82 375.379 195.476 376.035 196.284 376.035Z" fill="#F8F8F8"/>
<path opacity="0.3" d="M217.778 376.163C218.621 376.163 219.305 375.479 219.305 374.635C219.305 373.791 218.621 373.107 217.778 373.107C216.934 373.107 216.25 373.791 216.25 374.635C216.25 375.479 216.934 376.163 217.778 376.163Z" fill="#F8F8F8"/>
<path opacity="0.3" d="M239.248 376.247C240.115 376.247 240.818 375.544 240.818 374.677C240.818 373.81 240.115 373.107 239.248 373.107C238.381 373.107 237.678 373.81 237.678 374.677C237.678 375.544 238.381 376.247 239.248 376.247Z" fill="#F8F8F8"/>
<path opacity="0.3" d="M260.699 376.29C261.578 376.29 262.29 375.578 262.29 374.699C262.29 373.82 261.578 373.107 260.699 373.107C259.82 373.107 259.107 373.82 259.107 374.699C259.107 375.578 259.82 376.29 260.699 376.29Z" fill="#F8F8F8"/>
<path opacity="0.3" d="M281.613 375.797C282.503 375.797 283.225 375.075 283.225 374.184C283.225 373.294 282.503 372.572 281.613 372.572C280.722 372.572 280 373.294 280 374.184C280 375.075 280.722 375.797 281.613 375.797Z" fill="#F8F8F8"/>
<path opacity="0.3" d="M303.04 375.797C303.931 375.797 304.653 375.075 304.653 374.184C304.653 373.294 303.931 372.572 303.04 372.572C302.15 372.572 301.428 373.294 301.428 374.184C301.428 375.075 302.15 375.797 303.04 375.797Z" fill="#F8F8F8"/>
<path d="M324.47 375.797C325.36 375.797 326.082 375.075 326.082 374.184C326.082 373.294 325.36 372.572 324.47 372.572C323.579 372.572 322.857 373.294 322.857 374.184C322.857 375.075 323.579 375.797 324.47 375.797Z" fill="#F8F8F8"/>
<path d="M345.898 375.797C346.788 375.797 347.51 375.075 347.51 374.184C347.51 373.294 346.788 372.572 345.898 372.572C345.007 372.572 344.285 373.294 344.285 374.184C344.285 375.075 345.007 375.797 345.898 375.797Z" fill="#F8F8F8"/>
<path d="M367.82 376.247C368.687 376.247 369.39 375.544 369.39 374.677C369.39 373.81 368.687 373.107 367.82 373.107C366.953 373.107 366.25 373.81 366.25 374.677C366.25 375.544 366.953 376.247 367.82 376.247Z" fill="#F8F8F8"/>
<path d="M389.184 376.12C390.016 376.12 390.691 375.446 390.691 374.614C390.691 373.782 390.016 373.107 389.184 373.107C388.352 373.107 387.678 373.782 387.678 374.614C387.678 375.446 388.352 376.12 389.184 376.12Z" fill="#F8F8F8"/>
<path d="M410.508 375.908C411.281 375.908 411.908 375.281 411.908 374.508C411.908 373.734 411.281 373.107 410.508 373.107C409.734 373.107 409.107 373.734 409.107 374.508C409.107 375.281 409.734 375.908 410.508 375.908Z" fill="#F8F8F8"/>
</g>
</g>
</g>
<mask id="mask2_260_2193" style="mask-type:alpha" maskUnits="userSpaceOnUse" x="52" y="16" width="396" height="396">
<path d="M250 411.143C358.879 411.143 447.143 322.879 447.143 214C447.143 105.121 358.879 16.8574 250 16.8574C141.121 16.8574 52.8574 105.121 52.8574 214C52.8574 322.879 141.121 411.143 250 411.143Z" fill="url(#paint1_radial_260_2193)"/>
</mask>
<g mask="url(#mask2_260_2193)">
<path opacity="0.25" d="M156.252 224.179H112.789C110.439 224.179 108.193 223.214 106.574 221.511L91.1088 205.232C89.5954 203.638 88.7517 201.525 88.7517 199.328V169C88.7517 164.267 84.9141 160.429 80.1802 160.429H53.3945" stroke="url(#paint2_linear_260_2193)" stroke-width="1.60714"/>
<path opacity="0.5" d="M110.717 8.82129V92.0566C110.717 94.3299 111.62 96.5101 113.227 98.1175L129.635 114.525C131.242 116.132 132.145 118.313 132.145 120.586V225.786V284.976C132.145 287.213 131.271 289.36 129.709 290.962L113.153 307.931C111.591 309.533 110.717 311.68 110.717 313.917V426.143" stroke="url(#paint3_linear_260_2193)" stroke-width="1.60714"/>
<path opacity="0.25" d="M344.287 202.75H386.679C389.028 202.75 391.275 201.786 392.894 200.082L408.181 183.989C409.8 182.286 412.046 181.321 414.395 181.321H457.323" stroke="url(#paint4_linear_260_2193)" stroke-width="1.60714"/>
<path opacity="0.5" d="M388.752 73.1069V155.334C388.752 157.57 387.879 159.717 386.318 161.318L370.294 177.753C368.733 179.354 367.859 181.501 367.859 183.737V203.286V242.592C367.859 244.866 368.763 247.046 370.37 248.653L408.206 286.489C409.813 288.097 410.717 290.277 410.717 292.551V407.928" stroke="url(#paint5_linear_260_2193)" stroke-width="1.60714"/>
<path opacity="0.25" d="M217.859 -17.9644V92.5924C217.859 94.8656 218.763 97.0459 220.37 98.6532L236.242 114.525C237.849 116.133 238.752 118.313 238.752 120.586V150.25" stroke="url(#paint6_linear_260_2193)" stroke-width="1.60714"/>
<path opacity="0.5" d="M259.645 150.25V77.7287C259.645 75.4554 260.548 73.2752 262.155 71.6678L278.563 55.2602C280.17 53.6528 281.073 51.4726 281.073 49.1993V-5.10742" stroke="url(#paint7_linear_260_2193)" stroke-width="1.60714"/>
</g>
<g filter="url(#filter1_di_260_2193)">
<g style="mix-blend-mode:luminosity">
<path d="M140.713 224.714C140.713 219.98 136.876 216.143 132.142 216.143C127.408 216.143 123.57 219.98 123.57 224.714C123.57 229.448 127.408 233.285 132.142 233.285C136.876 233.285 140.713 229.448 140.713 224.714Z" fill="#282828" fill-opacity="0.7"/>
</g>
<path d="M139.909 224.714C139.909 220.424 136.431 216.946 132.141 216.946C127.851 216.946 124.373 220.424 124.373 224.714C124.373 229.004 127.851 232.482 132.141 232.482C136.431 232.482 139.909 229.004 139.909 224.714Z" stroke="url(#paint8_linear_260_2193)" stroke-opacity="0.25" stroke-width="1.60714"/>
<path d="M132.141 221.5C130.366 221.5 128.927 222.939 128.927 224.714C128.927 226.489 130.366 227.928 132.141 227.928C133.916 227.928 135.355 226.489 135.355 224.714C135.355 222.939 133.916 221.5 132.141 221.5Z" fill="#F8F8F8"/>
</g>
<g filter="url(#filter2_di_260_2193)">
<g style="mix-blend-mode:luminosity">
<path d="M376.43 203.286C376.43 198.552 372.592 194.714 367.859 194.714C363.125 194.714 359.287 198.552 359.287 203.286C359.287 208.02 363.125 211.857 367.859 211.857C372.592 211.857 376.43 208.02 376.43 203.286Z" fill="#282828" fill-opacity="0.7"/>
</g>
<path d="M375.626 203.286C375.626 198.996 372.148 195.518 367.858 195.518C363.568 195.518 360.09 198.996 360.09 203.286C360.09 207.576 363.568 211.054 367.858 211.054C372.148 211.054 375.626 207.576 375.626 203.286Z" stroke="url(#paint9_linear_260_2193)" stroke-opacity="0.25" stroke-width="1.60714"/>
<path d="M367.858 200.071C366.083 200.071 364.644 201.511 364.644 203.286C364.644 205.061 366.083 206.5 367.858 206.5C369.633 206.5 371.072 205.061 371.072 203.286C371.072 201.511 369.633 200.071 367.858 200.071Z" fill="#F8F8F8"/>
</g>
</g>
</g>
</g>
<g opacity="0.72">
<g filter="url(#filter3_bi_260_2193)">
<rect x="218" y="272" width="64" height="57" rx="2.14286" fill="#282828" fill-opacity="0.7"/>
</g>
<g filter="url(#filter4_bi_260_2193)">
<rect x="215.715" y="319" width="68.5714" height="9.64286" rx="2.14286" fill="#282828" fill-opacity="0.7"/>
</g>
<mask id="mask3_260_2193" style="mask-type:alpha" maskUnits="userSpaceOnUse" x="215" y="319" width="70" height="10">
<rect x="215.715" y="319" width="68.5714" height="9.64286" fill="url(#paint10_linear_260_2193)"/>
</mask>
<g mask="url(#mask3_260_2193)">
<rect x="216.251" y="319.536" width="67.5" height="8.57143" rx="1.60714" stroke="white" stroke-opacity="0.1" stroke-width="1.07143"/>
</g>
<mask id="mask4_260_2193" style="mask-type:alpha" maskUnits="userSpaceOnUse" x="218" y="272" width="64" height="57">
<rect x="218" y="272" width="64" height="57" fill="url(#paint11_linear_260_2193)"/>
</mask>
<g mask="url(#mask4_260_2193)">
<rect x="218.536" y="272.536" width="62.9286" height="55.9286" rx="1.60714" stroke="white" stroke-opacity="0.1" stroke-width="1.07143"/>
</g>
</g>
<g opacity="0.71">
<g filter="url(#filter5_bi_260_2193)">
<rect x="155.715" y="149.714" width="188.571" height="128.571" rx="21.4286" fill="#282828" fill-opacity="0.7"/>
</g>
<g filter="url(#filter6_bd_260_2193)">
<rect x="162.143" y="156.143" width="175.714" height="115.714" rx="12.8571" fill="#F8F8F8" fill-opacity="0.05" shape-rendering="crispEdges"/>
</g>
<g clipPath="url(#clip4_260_2193)">
<g clipPath="url(#clip5_260_2193)">
<g clipPath="url(#clip6_260_2193)">
<path opacity="0.5" d="M292.842 183.991C292.735 184.135 292.766 184.339 292.91 184.445C293.054 184.552 293.257 184.522 293.364 184.377C293.47 184.233 293.44 184.03 293.296 183.924C293.152 183.817 292.949 183.847 292.842 183.991Z" fill="url(#paint12_linear_260_2193)"/>
<path opacity="0.5" d="M274.672 175.555C274.565 175.699 274.596 175.902 274.74 176.009C274.884 176.115 275.087 176.085 275.194 175.941C275.3 175.797 275.27 175.594 275.126 175.487C274.982 175.38 274.779 175.411 274.672 175.555Z" fill="url(#paint13_linear_260_2193)"/>
<path opacity="0.5" d="M325.287 193.076C325.181 193.22 325.211 193.424 325.355 193.53C325.499 193.637 325.702 193.606 325.809 193.462C325.916 193.318 325.885 193.115 325.741 193.009C325.597 192.902 325.394 192.932 325.287 193.076Z" fill="url(#paint14_linear_260_2193)"/>
<path opacity="0.5" d="M300.629 171.661C300.522 171.805 300.553 172.008 300.697 172.115C300.841 172.221 301.044 172.191 301.151 172.047C301.257 171.903 301.227 171.7 301.083 171.593C300.939 171.486 300.736 171.517 300.629 171.661Z" fill="url(#paint15_linear_260_2193)"/>
<path opacity="0.5" d="M269.479 185.289C269.372 185.433 269.402 185.636 269.546 185.743C269.69 185.85 269.894 185.819 270 185.675C270.107 185.531 270.077 185.328 269.933 185.221C269.789 185.115 269.585 185.145 269.479 185.289Z" fill="url(#paint16_linear_260_2193)"/>
<path opacity="0.5" d="M313.024 192.816C313.024 193.891 313.896 194.762 314.971 194.762C316.046 194.762 316.918 193.891 316.918 192.816C316.918 191.74 316.046 190.869 314.971 190.869C313.896 190.869 313.024 191.74 313.024 192.816Z" fill="url(#paint17_linear_260_2193)"/>
<path opacity="0.5" d="M279.927 183.405C279.927 184.301 280.653 185.027 281.549 185.027C282.446 185.027 283.172 184.301 283.172 183.405C283.172 182.509 282.446 181.783 281.549 181.783C280.653 181.783 279.927 182.509 279.927 183.405Z" fill="url(#paint18_linear_260_2193)"/>
<path d="M320.811 167.506C320.811 167.864 321.102 168.155 321.46 168.155C321.819 168.155 322.109 167.864 322.109 167.506C322.109 167.147 321.819 166.857 321.46 166.857C321.102 166.857 320.811 167.147 320.811 167.506Z" fill="url(#paint19_linear_260_2193)"/>
<path opacity="0.5" d="M313.634 183.191C313.906 183.424 314.316 183.392 314.549 183.119C314.782 182.847 314.75 182.437 314.478 182.204C314.205 181.972 313.796 182.004 313.563 182.276C313.33 182.548 313.362 182.958 313.634 183.191Z" fill="url(#paint20_linear_260_2193)"/>
<path opacity="0.5" d="M286.934 176.464C286.721 176.752 286.781 177.158 287.069 177.371C287.358 177.585 287.764 177.524 287.977 177.236C288.19 176.948 288.13 176.541 287.842 176.328C287.554 176.115 287.147 176.176 286.934 176.464Z" fill="url(#paint21_linear_260_2193)"/>
<path opacity="0.5" d="M311.077 168.804C311.077 169.163 311.368 169.453 311.726 169.453C312.084 169.453 312.375 169.163 312.375 168.804C312.375 168.446 312.084 168.155 311.726 168.155C311.368 168.155 311.077 168.446 311.077 168.804Z" fill="url(#paint22_linear_260_2193)"/>
<path opacity="0.5" d="M303.29 190.22C303.29 190.578 303.581 190.869 303.939 190.869C304.297 190.869 304.588 190.578 304.588 190.22C304.588 189.861 304.297 189.571 303.939 189.571C303.581 189.571 303.29 189.861 303.29 190.22Z" fill="url(#paint23_linear_260_2193)"/>
<path d="M324.766 179.137C323.956 179.684 323.742 180.785 324.289 181.596C324.836 182.406 325.936 182.62 326.747 182.073C327.558 181.526 327.771 180.425 327.224 179.615C326.677 178.804 325.577 178.59 324.766 179.137Z" fill="white" fill-opacity="0.15"/>
<path d="M296.152 177.89C296.152 178.607 296.733 179.188 297.45 179.188C298.167 179.188 298.748 178.607 298.748 177.89C298.748 177.173 298.167 176.592 297.45 176.592C296.733 176.592 296.152 177.173 296.152 177.89Z" fill="url(#paint24_linear_260_2193)"/>
</g>
</g>
</g>
<g filter="url(#filter7_b_260_2193)">
<rect x="175" y="235.429" width="17.7643" height="23.5714" rx="4.28571" fill="#F8F8F8" fill-opacity="0.1"/>
</g>
<g filter="url(#filter8_b_260_2193)">
<rect x="197.049" y="216.143" width="17.7643" height="42.8571" rx="4.28571" fill="#F8F8F8" fill-opacity="0.1"/>
</g>
<g filter="url(#filter9_b_260_2193)">
<rect x="219.1" y="222.572" width="17.7536" height="36.4286" rx="4.28571" fill="#F8F8F8" fill-opacity="0.1"/>
</g>
<g filter="url(#filter10_bdd_260_2193)">
<rect x="241.139" y="179.714" width="17.7643" height="79.2857" rx="4.28571" fill="url(#paint25_linear_260_2193)" shape-rendering="crispEdges"/>
</g>
<g filter="url(#filter11_b_260_2193)">
<rect x="263.189" y="199" width="17.7643" height="60" rx="4.28571" fill="#F8F8F8" fill-opacity="0.1"/>
</g>
<g filter="url(#filter12_b_260_2193)">
<rect x="285.238" y="222.572" width="17.7643" height="36.4286" rx="4.28571" fill="#F8F8F8" fill-opacity="0.1"/>
</g>
<g filter="url(#filter13_b_260_2193)">
<rect x="307.289" y="199" width="17.7643" height="60" rx="4.28571" fill="#F8F8F8" fill-opacity="0.1"/>
</g>
<mask id="mask5_260_2193" style="mask-type:alpha" maskUnits="userSpaceOnUse" x="162" y="156" width="176" height="116">
<rect x="162.143" y="156.143" width="175.714" height="115.714" fill="url(#paint26_linear_260_2193)"/>
</mask>
<g mask="url(#mask5_260_2193)">
<rect x="162.678" y="156.679" width="174.643" height="114.643" rx="12.3214" stroke="white" stroke-opacity="0.1" stroke-width="1.07143"/>
</g>
<g clipPath="url(#clip7_260_2193)">
<g clipPath="url(#clip8_260_2193)">
<g clipPath="url(#clip9_260_2193)">
<path d="M254.375 223.839C254.174 223.767 253.969 223.694 253.797 223.649C253.634 223.606 253.318 223.536 252.98 223.653C252.592 223.788 252.287 224.093 252.152 224.481C252.035 224.819 252.106 225.135 252.148 225.298C252.193 225.47 252.266 225.675 252.338 225.876L257.453 240.125C257.543 240.375 257.629 240.615 257.714 240.8C257.786 240.956 257.949 241.298 258.304 241.491C258.693 241.702 259.16 241.709 259.554 241.508C259.914 241.324 260.086 240.987 260.162 240.832C260.251 240.65 260.344 240.412 260.44 240.164L262.743 234.244L268.663 231.941C268.911 231.845 269.149 231.752 269.331 231.663C269.486 231.587 269.823 231.415 270.007 231.055C270.208 230.661 270.201 230.194 269.99 229.805C269.797 229.45 269.455 229.287 269.299 229.215C269.114 229.13 268.874 229.044 268.624 228.955L254.375 223.839Z" fill="#121212" stroke="#F8F8F8" stroke-width="1.60714" strokeLinecap="round" strokeLinejoin="round"/>
</g>
</g>
</g>
<g filter="url(#filter14_bdi_260_2193)">
<rect x="267.143" y="238.643" width="62.2929" height="23.5714" rx="8.57143" fill="#F8F8F8" fill-opacity="0.05" shape-rendering="crispEdges"/>
</g>
<mask id="mask6_260_2193" style="mask-type:alpha" maskUnits="userSpaceOnUse" x="267" y="238" width="63" height="25">
<rect x="267.143" y="238.643" width="62.2929" height="23.5714" fill="url(#paint27_linear_260_2193)"/>
</mask>
<g mask="url(#mask6_260_2193)">
<rect x="267.678" y="239.179" width="61.2214" height="22.5" rx="8.03571" stroke="white" stroke-opacity="0.1" stroke-width="1.07143"/>
</g>
<path d="M280.149 254.857C280.055 254.857 279.978 254.827 279.918 254.767C279.858 254.707 279.828 254.63 279.828 254.536V246.179C279.828 246.085 279.858 246.007 279.918 245.947C279.978 245.887 280.055 245.857 280.149 245.857H284.071C284.808 245.857 285.412 245.96 285.883 246.166C286.355 246.372 286.702 246.667 286.925 247.053C287.156 247.43 287.272 247.88 287.272 248.403C287.272 248.712 287.212 248.986 287.092 249.226C286.981 249.457 286.839 249.65 286.668 249.805C286.505 249.959 286.351 250.07 286.205 250.139C286.531 250.293 286.818 250.546 287.066 250.897C287.323 251.249 287.452 251.66 287.452 252.132C287.452 252.697 287.323 253.186 287.066 253.597C286.818 254 286.449 254.313 285.961 254.536C285.481 254.75 284.889 254.857 284.186 254.857H280.149ZM282.129 253.186H283.929C284.298 253.186 284.576 253.079 284.765 252.865C284.953 252.65 285.048 252.406 285.048 252.132C285.048 251.832 284.949 251.579 284.752 251.373C284.563 251.167 284.289 251.065 283.929 251.065H282.129V253.186ZM282.129 249.432H283.813C284.165 249.432 284.426 249.342 284.598 249.162C284.778 248.982 284.868 248.75 284.868 248.467C284.868 248.193 284.778 247.97 284.598 247.799C284.426 247.619 284.165 247.529 283.813 247.529H282.129V249.432ZM291.825 254.986C290.813 254.986 290.008 254.712 289.408 254.163C288.808 253.615 288.495 252.8 288.469 251.72C288.469 251.66 288.469 251.583 288.469 251.489C288.469 251.395 288.469 251.322 288.469 251.27C288.495 250.593 288.645 250.015 288.919 249.535C289.202 249.046 289.588 248.677 290.076 248.429C290.573 248.172 291.152 248.043 291.812 248.043C292.566 248.043 293.188 248.193 293.676 248.493C294.173 248.793 294.546 249.2 294.795 249.715C295.043 250.229 295.168 250.816 295.168 251.476V251.785C295.168 251.879 295.133 251.956 295.065 252.016C295.005 252.076 294.932 252.106 294.846 252.106H290.732C290.732 252.115 290.732 252.127 290.732 252.145C290.732 252.162 290.732 252.179 290.732 252.196C290.74 252.445 290.783 252.672 290.86 252.877C290.938 253.083 291.058 253.246 291.22 253.366C291.383 253.486 291.58 253.546 291.812 253.546C291.983 253.546 292.125 253.52 292.236 253.469C292.356 253.409 292.455 253.345 292.532 253.276C292.609 253.199 292.669 253.135 292.712 253.083C292.789 252.997 292.849 252.946 292.892 252.929C292.943 252.903 293.02 252.89 293.123 252.89H294.718C294.803 252.89 294.872 252.916 294.923 252.967C294.983 253.01 295.009 253.075 295 253.16C294.992 253.306 294.919 253.482 294.782 253.687C294.645 253.893 294.443 254.099 294.178 254.305C293.92 254.502 293.595 254.665 293.2 254.793C292.806 254.922 292.348 254.986 291.825 254.986ZM290.732 250.833H292.905V250.807C292.905 250.533 292.862 250.293 292.776 250.087C292.699 249.882 292.575 249.723 292.403 249.612C292.24 249.5 292.043 249.445 291.812 249.445C291.58 249.445 291.383 249.5 291.22 249.612C291.066 249.723 290.946 249.882 290.86 250.087C290.775 250.293 290.732 250.533 290.732 250.807V250.833ZM296.694 254.857C296.6 254.857 296.523 254.827 296.463 254.767C296.403 254.707 296.373 254.63 296.373 254.536V248.493C296.373 248.399 296.403 248.322 296.463 248.262C296.523 248.202 296.6 248.172 296.694 248.172H298.173C298.267 248.172 298.344 248.202 298.404 248.262C298.464 248.322 298.494 248.399 298.494 248.493V248.982C298.717 248.716 299.009 248.493 299.369 248.313C299.729 248.133 300.153 248.043 300.642 248.043C301.139 248.043 301.576 248.155 301.953 248.377C302.339 248.6 302.639 248.93 302.853 249.367C303.076 249.796 303.187 250.323 303.187 250.949V254.536C303.187 254.63 303.153 254.707 303.084 254.767C303.024 254.827 302.952 254.857 302.866 254.857H301.246C301.16 254.857 301.083 254.827 301.014 254.767C300.954 254.707 300.924 254.63 300.924 254.536V251.026C300.924 250.623 300.826 250.315 300.629 250.1C300.44 249.877 300.157 249.766 299.78 249.766C299.429 249.766 299.146 249.877 298.932 250.1C298.726 250.315 298.623 250.623 298.623 251.026V254.536C298.623 254.63 298.589 254.707 298.52 254.767C298.46 254.827 298.387 254.857 298.302 254.857H296.694ZM307.979 254.857C307.431 254.857 306.955 254.772 306.552 254.6C306.158 254.42 305.854 254.146 305.639 253.777C305.425 253.4 305.318 252.916 305.318 252.325V249.856H304.315C304.221 249.856 304.139 249.826 304.071 249.766C304.011 249.706 303.981 249.629 303.981 249.535V248.493C303.981 248.399 304.011 248.322 304.071 248.262C304.139 248.202 304.221 248.172 304.315 248.172H305.318V246.05C305.318 245.956 305.348 245.879 305.408 245.819C305.476 245.759 305.554 245.729 305.639 245.729H307.131C307.225 245.729 307.302 245.759 307.362 245.819C307.422 245.879 307.452 245.956 307.452 246.05V248.172H309.059C309.154 248.172 309.231 248.202 309.291 248.262C309.351 248.322 309.381 248.399 309.381 248.493V249.535C309.381 249.629 309.351 249.706 309.291 249.766C309.231 249.826 309.154 249.856 309.059 249.856H307.452V252.145C307.452 252.436 307.508 252.667 307.619 252.839C307.731 253.01 307.919 253.096 308.185 253.096H309.175C309.269 253.096 309.346 253.126 309.406 253.186C309.466 253.246 309.496 253.323 309.496 253.417V254.536C309.496 254.63 309.466 254.707 309.406 254.767C309.346 254.827 309.269 254.857 309.175 254.857H307.979ZM313.724 254.986C313.004 254.986 312.395 254.87 311.898 254.639C311.41 254.407 311.032 254.077 310.767 253.649C310.51 253.212 310.364 252.693 310.33 252.093C310.321 251.922 310.317 251.729 310.317 251.515C310.317 251.292 310.321 251.099 310.33 250.936C310.364 250.327 310.518 249.809 310.792 249.38C311.067 248.952 311.448 248.622 311.937 248.39C312.434 248.159 313.03 248.043 313.724 248.043C314.427 248.043 315.022 248.159 315.511 248.39C316.008 248.622 316.394 248.952 316.668 249.38C316.942 249.809 317.097 250.327 317.131 250.936C317.14 251.099 317.144 251.292 317.144 251.515C317.144 251.729 317.14 251.922 317.131 252.093C317.097 252.693 316.947 253.212 316.681 253.649C316.424 254.077 316.047 254.407 315.55 254.639C315.061 254.87 314.452 254.986 313.724 254.986ZM313.724 253.417C314.11 253.417 314.388 253.302 314.56 253.07C314.74 252.839 314.842 252.492 314.868 252.029C314.877 251.9 314.881 251.729 314.881 251.515C314.881 251.3 314.877 251.129 314.868 251C314.842 250.546 314.74 250.203 314.56 249.972C314.388 249.732 314.11 249.612 313.724 249.612C313.347 249.612 313.068 249.732 312.888 249.972C312.708 250.203 312.61 250.546 312.592 251C312.584 251.129 312.58 251.3 312.58 251.515C312.58 251.729 312.584 251.9 312.592 252.029C312.61 252.492 312.708 252.839 312.888 253.07C313.068 253.302 313.347 253.417 313.724 253.417Z" fill="#F8F8F8" fill-opacity="0.7"/>
<mask id="mask7_260_2193" style="mask-type:alpha" maskUnits="userSpaceOnUse" x="155" y="149" width="190" height="130">
<rect x="155.715" y="149.714" width="188.571" height="128.571" fill="url(#paint28_linear_260_2193)"/>
</mask>
<g mask="url(#mask7_260_2193)">
<rect x="156.251" y="150.25" width="187.5" height="127.5" rx="20.8929" stroke="white" stroke-opacity="0.1" stroke-width="1.07143"/>
</g>
</g>
</g>
</g>
<defs>
<filter id="filter0_i_260_2193" x="0" y="0" width="500" height="460" filterUnits="userSpaceOnUse" color-interpolation-filters="sRGB">
<feFlood flood-opacity="0" result="BackgroundImageFix"/>
<feBlend mode="normal" in="SourceGraphic" in2="BackgroundImageFix" result="shape"/>
<feColorMatrix in="SourceAlpha" type="matrix" values="0 0 0 0 0 0 0 0 0 0 0 0 0 0 0 0 0 0 127 0" result="hardAlpha"/>
<feMorphology radius="6" operator="erode" in="SourceAlpha" result="effect1_innerShadow_260_2193"/>
<feOffset/>
<feGaussianBlur stdDeviation="20"/>
<feComposite in2="hardAlpha" operator="arithmetic" k2="-1" k3="1"/>
<feColorMatrix type="matrix" values="0 0 0 0 0.0627451 0 0 0 0 0.0862745 0 0 0 0 0.211765 0 0 0 1 0"/>
<feBlend mode="normal" in2="shape" result="effect1_innerShadow_260_2193"/>
</filter>
<filter id="filter1_di_260_2193" x="97.856" y="216.143" width="68.5711" height="77.1431" filterUnits="userSpaceOnUse" color-interpolation-filters="sRGB">
<feFlood flood-opacity="0" result="BackgroundImageFix"/>
<feColorMatrix in="SourceAlpha" type="matrix" values="0 0 0 0 0 0 0 0 0 0 0 0 0 0 0 0 0 0 127 0" result="hardAlpha"/>
<feOffset dy="34.2857"/>
<feGaussianBlur stdDeviation="12.8571"/>
<feComposite in2="hardAlpha" operator="out"/>
<feColorMatrix type="matrix" values="0 0 0 0 0 0 0 0 0 0 0 0 0 0 0 0 0 0 0.4 0"/>
<feBlend mode="normal" in2="BackgroundImageFix" result="effect1_dropShadow_260_2193"/>
<feBlend mode="normal" in="SourceGraphic" in2="effect1_dropShadow_260_2193" result="shape"/>
<feColorMatrix in="SourceAlpha" type="matrix" values="0 0 0 0 0 0 0 0 0 0 0 0 0 0 0 0 0 0 127 0" result="hardAlpha"/>
<feOffset/>
<feGaussianBlur stdDeviation="4.28571"/>
<feComposite in2="hardAlpha" operator="arithmetic" k2="-1" k3="1"/>
<feColorMatrix type="matrix" values="0 0 0 0 0.972549 0 0 0 0 0.972549 0 0 0 0 0.972549 0 0 0 0.25 0"/>
<feBlend mode="normal" in2="shape" result="effect2_innerShadow_260_2193"/>
</filter>
<filter id="filter2_di_260_2193" x="333.573" y="194.714" width="68.5711" height="77.1431" filterUnits="userSpaceOnUse" color-interpolation-filters="sRGB">
<feFlood flood-opacity="0" result="BackgroundImageFix"/>
<feColorMatrix in="SourceAlpha" type="matrix" values="0 0 0 0 0 0 0 0 0 0 0 0 0 0 0 0 0 0 127 0" result="hardAlpha"/>
<feOffset dy="34.2857"/>
<feGaussianBlur stdDeviation="12.8571"/>
<feComposite in2="hardAlpha" operator="out"/>
<feColorMatrix type="matrix" values="0 0 0 0 0 0 0 0 0 0 0 0 0 0 0 0 0 0 0.4 0"/>
<feBlend mode="normal" in2="BackgroundImageFix" result="effect1_dropShadow_260_2193"/>
<feBlend mode="normal" in="SourceGraphic" in2="effect1_dropShadow_260_2193" result="shape"/>
<feColorMatrix in="SourceAlpha" type="matrix" values="0 0 0 0 0 0 0 0 0 0 0 0 0 0 0 0 0 0 127 0" result="hardAlpha"/>
<feOffset/>
<feGaussianBlur stdDeviation="4.28571"/>
<feComposite in2="hardAlpha" operator="arithmetic" k2="-1" k3="1"/>
<feColorMatrix type="matrix" values="0 0 0 0 0.972549 0 0 0 0 0.972549 0 0 0 0 0.972549 0 0 0 0.25 0"/>
<feBlend mode="normal" in2="shape" result="effect2_innerShadow_260_2193"/>
</filter>
<filter id="filter3_bi_260_2193" x="164.429" y="218.429" width="171.143" height="164.143" filterUnits="userSpaceOnUse" color-interpolation-filters="sRGB">
<feFlood flood-opacity="0" result="BackgroundImageFix"/>
<feGaussianBlur in="BackgroundImageFix" stdDeviation="26.7857"/>
<feComposite in2="SourceAlpha" operator="in" result="effect1_backgroundBlur_260_2193"/>
<feBlend mode="normal" in="SourceGraphic" in2="effect1_backgroundBlur_260_2193" result="shape"/>
<feColorMatrix in="SourceAlpha" type="matrix" values="0 0 0 0 0 0 0 0 0 0 0 0 0 0 0 0 0 0 127 0" result="hardAlpha"/>
<feOffset/>
<feGaussianBlur stdDeviation="4.28571"/>
<feComposite in2="hardAlpha" operator="arithmetic" k2="-1" k3="1"/>
<feColorMatrix type="matrix" values="0 0 0 0 0.972549 0 0 0 0 0.972549 0 0 0 0 0.972549 0 0 0 0.25 0"/>
<feBlend mode="normal" in2="shape" result="effect2_innerShadow_260_2193"/>
</filter>
<filter id="filter4_bi_260_2193" x="162.143" y="265.429" width="175.715" height="116.786" filterUnits="userSpaceOnUse" color-interpolation-filters="sRGB">
<feFlood flood-opacity="0" result="BackgroundImageFix"/>
<feGaussianBlur in="BackgroundImageFix" stdDeviation="26.7857"/>
<feComposite in2="SourceAlpha" operator="in" result="effect1_backgroundBlur_260_2193"/>
<feBlend mode="normal" in="SourceGraphic" in2="effect1_backgroundBlur_260_2193" result="shape"/>
<feColorMatrix in="SourceAlpha" type="matrix" values="0 0 0 0 0 0 0 0 0 0 0 0 0 0 0 0 0 0 127 0" result="hardAlpha"/>
<feOffset/>
<feGaussianBlur stdDeviation="4.28571"/>
<feComposite in2="hardAlpha" operator="arithmetic" k2="-1" k3="1"/>
<feColorMatrix type="matrix" values="0 0 0 0 0.972549 0 0 0 0 0.972549 0 0 0 0 0.972549 0 0 0 0.25 0"/>
<feBlend mode="normal" in2="shape" result="effect2_innerShadow_260_2193"/>
</filter>
<filter id="filter5_bi_260_2193" x="102.143" y="96.1429" width="295.715" height="235.714" filterUnits="userSpaceOnUse" color-interpolation-filters="sRGB">
<feFlood flood-opacity="0" result="BackgroundImageFix"/>
<feGaussianBlur in="BackgroundImageFix" stdDeviation="26.7857"/>
<feComposite in2="SourceAlpha" operator="in" result="effect1_backgroundBlur_260_2193"/>
<feBlend mode="normal" in="SourceGraphic" in2="effect1_backgroundBlur_260_2193" result="shape"/>
<feColorMatrix in="SourceAlpha" type="matrix" values="0 0 0 0 0 0 0 0 0 0 0 0 0 0 0 0 0 0 127 0" result="hardAlpha"/>
<feOffset/>
<feGaussianBlur stdDeviation="4.28571"/>
<feComposite in2="hardAlpha" operator="arithmetic" k2="-1" k3="1"/>
<feColorMatrix type="matrix" values="0 0 0 0 0.972549 0 0 0 0 0.972549 0 0 0 0 0.972549 0 0 0 0.25 0"/>
<feBlend mode="normal" in2="shape" result="effect2_innerShadow_260_2193"/>
</filter>
<filter id="filter6_bd_260_2193" x="136.428" y="139" width="227.143" height="184.286" filterUnits="userSpaceOnUse" color-interpolation-filters="sRGB">
<feFlood flood-opacity="0" result="BackgroundImageFix"/>
<feGaussianBlur in="BackgroundImageFix" stdDeviation="8.57143"/>
<feComposite in2="SourceAlpha" operator="in" result="effect1_backgroundBlur_260_2193"/>
<feColorMatrix in="SourceAlpha" type="matrix" values="0 0 0 0 0 0 0 0 0 0 0 0 0 0 0 0 0 0 127 0" result="hardAlpha"/>
<feOffset dy="25.7143"/>
<feGaussianBlur stdDeviation="12.8571"/>
<feComposite in2="hardAlpha" operator="out"/>
<feColorMatrix type="matrix" values="0 0 0 0 0 0 0 0 0 0 0 0 0 0 0 0 0 0 0.3 0"/>
<feBlend mode="normal" in2="effect1_backgroundBlur_260_2193" result="effect2_dropShadow_260_2193"/>
<feBlend mode="normal" in="SourceGraphic" in2="effect2_dropShadow_260_2193" result="shape"/>
</filter>
<filter id="filter7_b_260_2193" x="121.429" y="181.857" width="124.907" height="130.714" filterUnits="userSpaceOnUse" color-interpolation-filters="sRGB">
<feFlood flood-opacity="0" result="BackgroundImageFix"/>
<feGaussianBlur in="BackgroundImageFix" stdDeviation="26.7857"/>
<feComposite in2="SourceAlpha" operator="in" result="effect1_backgroundBlur_260_2193"/>
<feBlend mode="normal" in="SourceGraphic" in2="effect1_backgroundBlur_260_2193" result="shape"/>
</filter>
<filter id="filter8_b_260_2193" x="143.477" y="162.572" width="124.907" height="150" filterUnits="userSpaceOnUse" color-interpolation-filters="sRGB">
<feFlood flood-opacity="0" result="BackgroundImageFix"/>
<feGaussianBlur in="BackgroundImageFix" stdDeviation="26.7857"/>
<feComposite in2="SourceAlpha" operator="in" result="effect1_backgroundBlur_260_2193"/>
<feBlend mode="normal" in="SourceGraphic" in2="effect1_backgroundBlur_260_2193" result="shape"/>
</filter>
<filter id="filter9_b_260_2193" x="165.528" y="169" width="124.897" height="143.572" filterUnits="userSpaceOnUse" color-interpolation-filters="sRGB">
<feFlood flood-opacity="0" result="BackgroundImageFix"/>
<feGaussianBlur in="BackgroundImageFix" stdDeviation="26.7857"/>
<feComposite in2="SourceAlpha" operator="in" result="effect1_backgroundBlur_260_2193"/>
<feBlend mode="normal" in="SourceGraphic" in2="effect1_backgroundBlur_260_2193" result="shape"/>
</filter>
<filter id="filter10_bdd_260_2193" x="187.567" y="126.143" width="124.907" height="186.428" filterUnits="userSpaceOnUse" color-interpolation-filters="sRGB">
<feFlood flood-opacity="0" result="BackgroundImageFix"/>
<feGaussianBlur in="BackgroundImageFix" stdDeviation="26.7857"/>
<feComposite in2="SourceAlpha" operator="in" result="effect1_backgroundBlur_260_2193"/>
<feColorMatrix in="SourceAlpha" type="matrix" values="0 0 0 0 0 0 0 0 0 0 0 0 0 0 0 0 0 0 127 0" result="hardAlpha"/>
<feOffset dx="-3.21429" dy="5.35714"/>
<feGaussianBlur stdDeviation="3.21429"/>
<feComposite in2="hardAlpha" operator="out"/>
<feColorMatrix type="matrix" values="0 0 0 0 0 0 0 0 0 0 0 0 0 0 0 0 0 0 0.2 0"/>
<feBlend mode="normal" in2="effect1_backgroundBlur_260_2193" result="effect2_dropShadow_260_2193"/>
<feColorMatrix in="SourceAlpha" type="matrix" values="0 0 0 0 0 0 0 0 0 0 0 0 0 0 0 0 0 0 127 0" result="hardAlpha"/>
<feOffset dx="-1.07143" dy="2.14286"/>
<feGaussianBlur stdDeviation="1.60714"/>
<feComposite in2="hardAlpha" operator="out"/>
<feColorMatrix type="matrix" values="0 0 0 0 0 0 0 0 0 0 0 0 0 0 0 0 0 0 0.1 0"/>
<feBlend mode="normal" in2="effect2_dropShadow_260_2193" result="effect3_dropShadow_260_2193"/>
<feBlend mode="normal" in="SourceGraphic" in2="effect3_dropShadow_260_2193" result="shape"/>
</filter>
<filter id="filter11_b_260_2193" x="209.618" y="145.429" width="124.907" height="167.143" filterUnits="userSpaceOnUse" color-interpolation-filters="sRGB">
<feFlood flood-opacity="0" result="BackgroundImageFix"/>
<feGaussianBlur in="BackgroundImageFix" stdDeviation="26.7857"/>
<feComposite in2="SourceAlpha" operator="in" result="effect1_backgroundBlur_260_2193"/>
<feBlend mode="normal" in="SourceGraphic" in2="effect1_backgroundBlur_260_2193" result="shape"/>
</filter>
<filter id="filter12_b_260_2193" x="231.667" y="169" width="124.907" height="143.572" filterUnits="userSpaceOnUse" color-interpolation-filters="sRGB">
<feFlood flood-opacity="0" result="BackgroundImageFix"/>
<feGaussianBlur in="BackgroundImageFix" stdDeviation="26.7857"/>
<feComposite in2="SourceAlpha" operator="in" result="effect1_backgroundBlur_260_2193"/>
<feBlend mode="normal" in="SourceGraphic" in2="effect1_backgroundBlur_260_2193" result="shape"/>
</filter>
<filter id="filter13_b_260_2193" x="253.718" y="145.429" width="124.907" height="167.143" filterUnits="userSpaceOnUse" color-interpolation-filters="sRGB">
<feFlood flood-opacity="0" result="BackgroundImageFix"/>
<feGaussianBlur in="BackgroundImageFix" stdDeviation="26.7857"/>
<feComposite in2="SourceAlpha" operator="in" result="effect1_backgroundBlur_260_2193"/>
<feBlend mode="normal" in="SourceGraphic" in2="effect1_backgroundBlur_260_2193" result="shape"/>
</filter>
<filter id="filter14_bdi_260_2193" x="258.571" y="232.214" width="79.4358" height="72.857" filterUnits="userSpaceOnUse" color-interpolation-filters="sRGB">
<feFlood flood-opacity="0" result="BackgroundImageFix"/>
<feGaussianBlur in="BackgroundImageFix" stdDeviation="3.21429"/>
<feComposite in2="SourceAlpha" operator="in" result="effect1_backgroundBlur_260_2193"/>
<feColorMatrix in="SourceAlpha" type="matrix" values="0 0 0 0 0 0 0 0 0 0 0 0 0 0 0 0 0 0 127 0" result="hardAlpha"/>
<feMorphology radius="17.1429" operator="erode" in="SourceAlpha" result="effect2_dropShadow_260_2193"/>
<feOffset dy="34.2857"/>
<feGaussianBlur stdDeviation="12.8571"/>
<feComposite in2="hardAlpha" operator="out"/>
<feColorMatrix type="matrix" values="0 0 0 0 0 0 0 0 0 0 0 0 0 0 0 0 0 0 0.4 0"/>
<feBlend mode="normal" in2="effect1_backgroundBlur_260_2193" result="effect2_dropShadow_260_2193"/>
<feBlend mode="normal" in="SourceGraphic" in2="effect2_dropShadow_260_2193" result="shape"/>
<feColorMatrix in="SourceAlpha" type="matrix" values="0 0 0 0 0 0 0 0 0 0 0 0 0 0 0 0 0 0 127 0" result="hardAlpha"/>
<feOffset/>
<feGaussianBlur stdDeviation="4.28571"/>
<feComposite in2="hardAlpha" operator="arithmetic" k2="-1" k3="1"/>
<feColorMatrix type="matrix" values="0 0 0 0 0.972549 0 0 0 0 0.972549 0 0 0 0 0.972549 0 0 0 0.25 0"/>
<feBlend mode="normal" in2="shape" result="effect3_innerShadow_260_2193"/>
</filter>
<radialGradient id="paint0_radial_260_2193" cx="0" cy="0" r="1" gradientUnits="userSpaceOnUse" gradientTransform="translate(249.998 214.001) rotate(90) scale(197.143)">
<stop offset="0.433142" stop-color="#737373" stop-opacity="0"/>
<stop offset="1" stop-color="#D9D9D9"/>
</radialGradient>
<radialGradient id="paint1_radial_260_2193" cx="0" cy="0" r="1" gradientUnits="userSpaceOnUse" gradientTransform="translate(250 214) rotate(90) scale(197.143)">
<stop stop-color="#D9D9D9"/>
<stop offset="1" stop-color="#737373" stop-opacity="0"/>
</radialGradient>
<linearGradient id="paint2_linear_260_2193" x1="88.216" y1="203.286" x2="94.0811" y2="237.927" gradientUnits="userSpaceOnUse">
<stop stop-color="#F8F8F8" stop-opacity="0.8"/>
<stop offset="0.45221" stop-color="#F8F8F8" stop-opacity="0.25"/>
<stop offset="1" stop-color="#F8F8F8" stop-opacity="0.8"/>
</linearGradient>
<linearGradient id="paint3_linear_260_2193" x1="26.0739" y1="225.786" x2="55.9263" y2="323.577" gradientUnits="userSpaceOnUse">
<stop stop-color="#F8F8F8" stop-opacity="0.8"/>
<stop offset="0.45221" stop-color="#F8F8F8" stop-opacity="0.25"/>
<stop offset="1" stop-color="#F8F8F8" stop-opacity="0.8"/>
</linearGradient>
<linearGradient id="paint4_linear_260_2193" x1="411.251" y1="181.857" x2="405.386" y2="216.498" gradientUnits="userSpaceOnUse">
<stop stop-color="#F8F8F8" stop-opacity="0.8"/>
<stop offset="0.45221" stop-color="#F8F8F8" stop-opacity="0.25"/>
<stop offset="1" stop-color="#F8F8F8" stop-opacity="0.8"/>
</linearGradient>
<linearGradient id="paint5_linear_260_2193" x1="367.859" y1="203.286" x2="384.464" y2="272.393" gradientUnits="userSpaceOnUse">
<stop stop-color="#F8F8F8" stop-opacity="0.8"/>
<stop offset="0.45221" stop-color="#F8F8F8" stop-opacity="0.25"/>
<stop offset="1" stop-color="#F8F8F8" stop-opacity="0.8"/>
</linearGradient>
<linearGradient id="paint6_linear_260_2193" x1="217.859" y1="53.2856" x2="276.618" y2="77.7931" gradientUnits="userSpaceOnUse">
<stop stop-color="#F8F8F8" stop-opacity="0.8"/>
<stop offset="0.54779" stop-color="#F8F8F8" stop-opacity="0.2"/>
<stop offset="1" stop-color="#F8F8F8" stop-opacity="0.8"/>
</linearGradient>
<linearGradient id="paint7_linear_260_2193" x1="259.645" y1="-5.10742" x2="325.685" y2="12.5252" gradientUnits="userSpaceOnUse">
<stop stop-color="#F8F8F8" stop-opacity="0.8"/>
<stop offset="0.45221" stop-color="#F8F8F8" stop-opacity="0.2"/>
<stop offset="1" stop-color="#F8F8F8" stop-opacity="0.8"/>
</linearGradient>
<linearGradient id="paint8_linear_260_2193" x1="132.141" y1="216.143" x2="139.598" y2="234.968" gradientUnits="userSpaceOnUse">
<stop stop-color="white" stop-opacity="0.4"/>
<stop offset="0.4" stop-color="white" stop-opacity="0.01"/>
<stop offset="0.6" stop-color="white" stop-opacity="0.01"/>
<stop offset="1" stop-color="white" stop-opacity="0.1"/>
</linearGradient>
<linearGradient id="paint9_linear_260_2193" x1="367.858" y1="194.714" x2="375.315" y2="213.539" gradientUnits="userSpaceOnUse">
<stop stop-color="white" stop-opacity="0.4"/>
<stop offset="0.4" stop-color="white" stop-opacity="0.01"/>
<stop offset="0.6" stop-color="white" stop-opacity="0.01"/>
<stop offset="1" stop-color="white" stop-opacity="0.1"/>
</linearGradient>
<linearGradient id="paint10_linear_260_2193" x1="246.498" y1="310.752" x2="253.503" y2="336.891" gradientUnits="userSpaceOnUse">
<stop/>
<stop offset="0.5" stop-opacity="0"/>
</linearGradient>
<linearGradient id="paint11_linear_260_2193" x1="237.99" y1="268.132" x2="250.931" y2="335.012" gradientUnits="userSpaceOnUse">
<stop/>
<stop offset="0.5" stop-opacity="0"/>
</linearGradient>
<linearGradient id="paint12_linear_260_2193" x1="293.409" y1="184.68" x2="292.982" y2="183.893" gradientUnits="userSpaceOnUse">
<stop offset="0.173306" stop-color="white" stop-opacity="0"/>
<stop offset="1" stop-color="white" stop-opacity="0.3"/>
</linearGradient>
<linearGradient id="paint13_linear_260_2193" x1="275.239" y1="176.244" x2="274.812" y2="175.457" gradientUnits="userSpaceOnUse">
<stop offset="0.173306" stop-color="white" stop-opacity="0"/>
<stop offset="1" stop-color="white" stop-opacity="0.3"/>
</linearGradient>
<linearGradient id="paint14_linear_260_2193" x1="325.854" y1="193.765" x2="325.427" y2="192.978" gradientUnits="userSpaceOnUse">
<stop offset="0.173306" stop-color="white" stop-opacity="0"/>
<stop offset="1" stop-color="white" stop-opacity="0.3"/>
</linearGradient>
<linearGradient id="paint15_linear_260_2193" x1="301.196" y1="172.349" x2="300.769" y2="171.563" gradientUnits="userSpaceOnUse">
<stop offset="0.173306" stop-color="white" stop-opacity="0"/>
<stop offset="1" stop-color="white" stop-opacity="0.3"/>
</linearGradient>
<linearGradient id="paint16_linear_260_2193" x1="270.045" y1="185.978" x2="269.619" y2="185.191" gradientUnits="userSpaceOnUse">
<stop offset="0.173306" stop-color="white" stop-opacity="0"/>
<stop offset="1" stop-color="white" stop-opacity="0.3"/>
</linearGradient>
<linearGradient id="paint17_linear_260_2193" x1="316.918" y1="194.113" x2="312.375" y2="190.869" gradientUnits="userSpaceOnUse">
<stop stop-color="white" stop-opacity="0.3"/>
<stop offset="0.826694" stop-color="white" stop-opacity="0"/>
</linearGradient>
<linearGradient id="paint18_linear_260_2193" x1="284.253" y1="184.487" x2="280.197" y2="182.594" gradientUnits="userSpaceOnUse">
<stop stop-color="white" stop-opacity="0.3"/>
<stop offset="0.826694" stop-color="white" stop-opacity="0"/>
</linearGradient>
<linearGradient id="paint19_linear_260_2193" x1="322.542" y1="167.939" x2="320.92" y2="167.181" gradientUnits="userSpaceOnUse">
<stop offset="0.173306" stop-color="white" stop-opacity="0"/>
<stop offset="1" stop-color="white" stop-opacity="0.3"/>
</linearGradient>
<linearGradient id="paint20_linear_260_2193" x1="315.088" y1="182.157" x2="313.458" y2="182.898" gradientUnits="userSpaceOnUse">
<stop offset="0.173306" stop-color="white" stop-opacity="0"/>
<stop offset="1" stop-color="white" stop-opacity="0.3"/>
</linearGradient>
<linearGradient id="paint21_linear_260_2193" x1="288.067" y1="177.841" x2="287.214" y2="176.267" gradientUnits="userSpaceOnUse">
<stop offset="0.173306" stop-color="white" stop-opacity="0"/>
<stop offset="1" stop-color="white" stop-opacity="0.3"/>
</linearGradient>
<linearGradient id="paint22_linear_260_2193" x1="312.808" y1="169.237" x2="311.185" y2="168.48" gradientUnits="userSpaceOnUse">
<stop offset="0.173306" stop-color="white" stop-opacity="0"/>
<stop offset="1" stop-color="white" stop-opacity="0.3"/>
</linearGradient>
<linearGradient id="paint23_linear_260_2193" x1="305.021" y1="190.652" x2="303.398" y2="189.895" gradientUnits="userSpaceOnUse">
<stop offset="0.173306" stop-color="white" stop-opacity="0"/>
<stop offset="1" stop-color="white" stop-opacity="0.3"/>
</linearGradient>
<linearGradient id="paint24_linear_260_2193" x1="299.613" y1="178.755" x2="296.369" y2="177.241" gradientUnits="userSpaceOnUse">
<stop stop-color="white" stop-opacity="0.3"/>
<stop offset="0.826694" stop-color="white" stop-opacity="0"/>
</linearGradient>
<linearGradient id="paint25_linear_260_2193" x1="250.021" y1="179.714" x2="250.021" y2="259" gradientUnits="userSpaceOnUse">
<stop stop-color="#F8F8F8" stop-opacity="0.9"/>
<stop offset="1" stop-color="#F8F8F8" stop-opacity="0.3"/>
</linearGradient>
<linearGradient id="paint26_linear_260_2193" x1="229.65" y1="138.054" x2="270.349" y2="289.946" gradientUnits="userSpaceOnUse">
<stop/>
<stop offset="0.5" stop-opacity="0"/>
</linearGradient>
<linearGradient id="paint27_linear_260_2193" x1="295.334" y1="233.672" x2="301.244" y2="267.185" gradientUnits="userSpaceOnUse">
<stop/>
<stop offset="0.5" stop-opacity="0"/>
</linearGradient>
<linearGradient id="paint28_linear_260_2193" x1="227.613" y1="130.449" x2="272.388" y2="297.551" gradientUnits="userSpaceOnUse">
<stop/>
<stop offset="0.5" stop-opacity="0"/>
</linearGradient>
<clipPath id="clip0_260_2193">
<rect width="500" height="460" rx="32" fill="white"/>
</clipPath>
<clipPath id="clip1_260_2193">
<rect width="394.286" height="394.286" fill="white" transform="translate(52.8574 16.8569)"/>
</clipPath>
<clipPath id="clip2_260_2193">
<rect width="394.286" height="394.286" fill="white" transform="translate(52.8574 16.8569)"/>
</clipPath>
<clipPath id="clip3_260_2193">
<rect width="394.286" height="394.286" fill="white" transform="translate(52.8574 16.8569)"/>
</clipPath>
<clipPath id="clip4_260_2193">
<rect width="58.9286" height="28.9286" fill="white" transform="translate(269.285 166.857)"/>
</clipPath>
<clipPath id="clip5_260_2193">
<rect width="58.9286" height="28.9286" fill="white" transform="translate(269.285 166.857)"/>
</clipPath>
<clipPath id="clip6_260_2193">
<rect width="58.9286" height="28.9286" fill="white" transform="translate(269.285 166.857)"/>
</clipPath>
<clipPath id="clip7_260_2193">
<rect width="21.4286" height="21.4286" fill="white" transform="translate(250 221.5)"/>
</clipPath>
<clipPath id="clip8_260_2193">
<rect width="21.4286" height="21.4286" fill="white" transform="translate(250 221.5)"/>
</clipPath>
<clipPath id="clip9_260_2193">
<rect width="21.4286" height="21.4286" fill="white" transform="translate(250 221.5)"/>
</clipPath>
</defs>
</svg>
