<svg width="500" height="460" viewBox="0 0 500 460" fill="none" xmlns="http://www.w3.org/2000/svg">
<g filter="url(#filter0_i_260_2790)">
<g clip-path="url(#clip0_260_2790)">
<rect width="500" height="460" rx="32" fill="#05071A" fill-opacity="0.71"/>
<rect x="0.5" y="0.5" width="499" height="459" rx="31.5" stroke="#1C244C"/>
<g clip-path="url(#clip1_260_2790)">
<g clip-path="url(#clip2_260_2790)">
<g clip-path="url(#clip3_260_2790)">
<mask id="mask0_260_2790" style="mask-type:luminance" maskUnits="userSpaceOnUse" x="51" y="31" width="398" height="398">
<path d="M449 31H51V429H449V31Z" fill="white"/>
</mask>
<g mask="url(#mask0_260_2790)">
<g opacity="0.1">
<path opacity="0.3" d="M71.8277 53.7057C72.8641 53.7057 73.7042 52.8655 73.7042 51.8292C73.7042 50.7928 72.8641 49.9526 71.8277 49.9526C70.7913 49.9526 69.9512 50.7928 69.9512 51.8292C69.9512 52.8655 70.7913 53.7057 71.8277 53.7057Z" fill="#F8F8F8"/>
<path d="M95.4233 53.5181C96.4079 53.5181 97.206 52.7199 97.206 51.7353C97.206 50.7508 96.4079 49.9526 95.4233 49.9526C94.4388 49.9526 93.6406 50.7508 93.6406 51.7353C93.6406 52.7199 94.4388 53.5181 95.4233 53.5181Z" fill="#F8F8F8"/>
<path d="M119.566 53.8289C120.473 53.8289 121.208 53.0938 121.208 52.1869C121.208 51.2801 120.473 50.5449 119.566 50.5449C118.659 50.5449 117.924 51.2801 117.924 52.1869C117.924 53.0938 118.659 53.8289 119.566 53.8289Z" fill="#F8F8F8"/>
<path d="M379.704 52.3212C380.031 52.3212 380.296 52.0561 380.296 51.729C380.296 51.4019 380.031 51.1367 379.704 51.1367C379.376 51.1367 379.111 51.4019 379.111 51.729C379.111 52.0561 379.376 52.3212 379.704 52.3212Z" fill="#F8F8F8"/>
<path d="M403.395 52.3212C403.722 52.3212 403.987 52.0561 403.987 51.729C403.987 51.4019 403.722 51.1367 403.395 51.1367C403.068 51.1367 402.803 51.4019 402.803 51.729C402.803 52.0561 403.068 52.3212 403.395 52.3212Z" fill="#F8F8F8"/>
<path d="M427.084 52.3212C427.412 52.3212 427.677 52.0561 427.677 51.729C427.677 51.4019 427.412 51.1367 427.084 51.1367C426.757 51.1367 426.492 51.4019 426.492 51.729C426.492 52.0561 426.757 52.3212 427.084 52.3212Z" fill="#F8F8F8"/>
<path opacity="0.3" d="M71.7573 77.2554C72.7548 77.2554 73.5635 76.4467 73.5635 75.4492C73.5635 74.4517 72.7548 73.6431 71.7573 73.6431C70.7598 73.6431 69.9512 74.4517 69.9512 75.4492C69.9512 76.4467 70.7598 77.2554 71.7573 77.2554Z" fill="#F8F8F8"/>
<path opacity="0.4" d="M95.9467 77.6596C96.8924 77.6596 97.6591 76.8929 97.6591 75.9472C97.6591 75.0015 96.8924 74.2349 95.9467 74.2349C95.001 74.2349 94.2344 75.0015 94.2344 75.9472C94.2344 76.8929 95.001 77.6596 95.9467 77.6596Z" fill="#F8F8F8"/>
<path opacity="0.4" d="M119.472 77.3312C120.327 77.3312 121.02 76.6381 121.02 75.783C121.02 74.928 120.327 74.2349 119.472 74.2349C118.617 74.2349 117.924 74.928 117.924 75.783C117.924 76.6381 118.617 77.3312 119.472 77.3312Z" fill="#F8F8F8"/>
<path d="M379.704 76.0122C380.031 76.0122 380.296 75.747 380.296 75.4199C380.296 75.0928 380.031 74.8276 379.704 74.8276C379.376 74.8276 379.111 75.0928 379.111 75.4199C379.111 75.747 379.376 76.0122 379.704 76.0122Z" fill="#F8F8F8"/>
<path d="M403.395 76.0122C403.722 76.0122 403.987 75.747 403.987 75.4199C403.987 75.0928 403.722 74.8276 403.395 74.8276C403.068 74.8276 402.803 75.0928 402.803 75.4199C402.803 75.747 403.068 76.0122 403.395 76.0122Z" fill="#F8F8F8"/>
<path d="M427.084 76.0122C427.412 76.0122 427.677 75.747 427.677 75.4199C427.677 75.0928 427.412 74.8276 427.084 74.8276C426.757 74.8276 426.492 75.0928 426.492 75.4199C426.492 75.747 426.757 76.0122 427.084 76.0122Z" fill="#F8F8F8"/>
<path opacity="0.3" d="M72.2788 101.397C73.2374 101.397 74.0146 100.62 74.0146 99.6616C74.0146 98.7029 73.2374 97.9258 72.2788 97.9258C71.3201 97.9258 70.543 98.7029 70.543 99.6616C70.543 100.62 71.3201 101.397 72.2788 101.397Z" fill="#F8F8F8"/>
<path opacity="0.4" d="M95.8295 101.116C96.7104 101.116 97.4245 100.402 97.4245 99.5209C97.4245 98.6399 96.7104 97.9258 95.8295 97.9258C94.9485 97.9258 94.2344 98.6399 94.2344 99.5209C94.2344 100.402 94.9485 101.116 95.8295 101.116Z" fill="#F8F8F8"/>
<path opacity="0.4" d="M119.355 100.788C120.145 100.788 120.786 100.147 120.786 99.3567C120.786 98.5664 120.145 97.9258 119.355 97.9258C118.564 97.9258 117.924 98.5664 117.924 99.3567C117.924 100.147 118.564 100.788 119.355 100.788Z" fill="#F8F8F8"/>
<path d="M379.704 99.7026C380.031 99.7026 380.296 99.4374 380.296 99.1103C380.296 98.7832 380.031 98.5181 379.704 98.5181C379.376 98.5181 379.111 98.7832 379.111 99.1103C379.111 99.4374 379.376 99.7026 379.704 99.7026Z" fill="#F8F8F8"/>
<path d="M403.395 99.7026C403.722 99.7026 403.987 99.4374 403.987 99.1103C403.987 98.7832 403.722 98.5181 403.395 98.5181C403.068 98.5181 402.803 98.7832 402.803 99.1103C402.803 99.4374 403.068 99.7026 403.395 99.7026Z" fill="#F8F8F8"/>
<path d="M427.084 99.7026C427.412 99.7026 427.677 99.4374 427.677 99.1103C427.677 98.7832 427.412 98.5181 427.084 98.5181C426.757 98.5181 426.492 98.7832 426.492 99.1103C426.492 99.4374 426.757 99.7026 427.084 99.7026Z" fill="#F8F8F8"/>
<path opacity="0.3" d="M72.1615 124.853C73.0554 124.853 73.78 124.128 73.78 123.234C73.78 122.34 73.0554 121.616 72.1615 121.616C71.2676 121.616 70.543 122.34 70.543 123.234C70.543 124.128 71.2676 124.853 72.1615 124.853Z" fill="#F8F8F8"/>
<path opacity="0.4" d="M95.7122 124.571C96.5284 124.571 97.19 123.91 97.19 123.094C97.19 122.277 96.5284 121.616 95.7122 121.616C94.896 121.616 94.2344 122.277 94.2344 123.094C94.2344 123.91 94.896 124.571 95.7122 124.571Z" fill="#F8F8F8"/>
<path opacity="0.4" d="M119.237 124.243C119.963 124.243 120.551 123.655 120.551 122.929C120.551 122.204 119.963 121.616 119.237 121.616C118.512 121.616 117.924 122.204 117.924 122.929C117.924 123.655 118.512 124.243 119.237 124.243Z" fill="#F8F8F8"/>
<path d="M379.704 123.393C380.031 123.393 380.296 123.128 380.296 122.801C380.296 122.474 380.031 122.208 379.704 122.208C379.376 122.208 379.111 122.474 379.111 122.801C379.111 123.128 379.376 123.393 379.704 123.393Z" fill="#F8F8F8"/>
<path d="M403.395 123.393C403.722 123.393 403.987 123.128 403.987 122.801C403.987 122.474 403.722 122.208 403.395 122.208C403.068 122.208 402.803 122.474 402.803 122.801C402.803 123.128 403.068 123.393 403.395 123.393Z" fill="#F8F8F8"/>
<path d="M427.084 123.393C427.412 123.393 427.677 123.128 427.677 122.801C427.677 122.474 427.412 122.208 427.084 122.208C426.757 122.208 426.492 122.474 426.492 122.801C426.492 123.128 426.757 123.393 427.084 123.393Z" fill="#F8F8F8"/>
<path d="M72.0442 148.309C72.8734 148.309 73.5455 147.637 73.5455 146.807C73.5455 145.978 72.8734 145.306 72.0442 145.306C71.2151 145.306 70.543 145.978 70.543 146.807C70.543 147.637 71.2151 148.309 72.0442 148.309Z" fill="#F8F8F8"/>
<path d="M95.6184 148.074C96.3827 148.074 97.0024 147.455 97.0024 146.69C97.0024 145.926 96.3827 145.306 95.6184 145.306C94.854 145.306 94.2344 145.926 94.2344 146.69C94.2344 147.455 94.854 148.074 95.6184 148.074Z" fill="#F8F8F8"/>
<path d="M119.167 147.794C119.854 147.794 120.41 147.237 120.41 146.55C120.41 145.864 119.854 145.307 119.167 145.307C118.48 145.307 117.924 145.864 117.924 146.55C117.924 147.237 118.48 147.794 119.167 147.794Z" fill="#F8F8F8"/>
<path d="M379.704 147.083C380.031 147.083 380.296 146.818 380.296 146.491C380.296 146.164 380.031 145.899 379.704 145.899C379.376 145.899 379.111 146.164 379.111 146.491C379.111 146.818 379.376 147.083 379.704 147.083Z" fill="#F8F8F8"/>
<path d="M403.395 147.083C403.722 147.083 403.987 146.818 403.987 146.491C403.987 146.164 403.722 145.899 403.395 145.899C403.068 145.899 402.803 146.164 402.803 146.491C402.803 146.818 403.068 147.083 403.395 147.083Z" fill="#F8F8F8"/>
<path d="M427.084 147.083C427.412 147.083 427.677 146.818 427.677 146.491C427.677 146.164 427.412 145.899 427.084 145.899C426.757 145.899 426.492 146.164 426.492 146.491C426.492 146.818 426.757 147.083 427.084 147.083Z" fill="#F8F8F8"/>
<path d="M71.9504 171.812C72.7277 171.812 73.3579 171.182 73.3579 170.405C73.3579 169.627 72.7277 168.997 71.9504 168.997C71.1731 168.997 70.543 169.627 70.543 170.405C70.543 171.182 71.1731 171.812 71.9504 171.812Z" fill="#F8F8F8"/>
<path d="M95.5246 171.577C96.2371 171.577 96.8147 171 96.8147 170.287C96.8147 169.575 96.2371 168.997 95.5246 168.997C94.812 168.997 94.2344 169.575 94.2344 170.287C94.2344 171 94.812 171.577 95.5246 171.577Z" fill="#F8F8F8"/>
<path d="M119.689 171.935C120.336 171.935 120.861 171.41 120.861 170.762C120.861 170.114 120.336 169.589 119.689 169.589C119.041 169.589 118.516 170.114 118.516 170.762C118.516 171.41 119.041 171.935 119.689 171.935Z" fill="#F8F8F8"/>
<path d="M379.704 170.774C380.031 170.774 380.296 170.509 380.296 170.182C380.296 169.855 380.031 169.589 379.704 169.589C379.376 169.589 379.111 169.855 379.111 170.182C379.111 170.509 379.376 170.774 379.704 170.774Z" fill="#F8F8F8"/>
<path d="M403.395 170.774C403.722 170.774 403.987 170.509 403.987 170.182C403.987 169.855 403.722 169.589 403.395 169.589C403.068 169.589 402.803 169.855 402.803 170.182C402.803 170.509 403.068 170.774 403.395 170.774Z" fill="#F8F8F8"/>
<path d="M427.084 170.774C427.412 170.774 427.677 170.509 427.677 170.182C427.677 169.855 427.412 169.589 427.084 169.589C426.757 169.589 426.492 169.855 426.492 170.182C426.492 170.509 426.757 170.774 427.084 170.774Z" fill="#F8F8F8"/>
<path d="M95.4542 195.127C96.1279 195.127 96.674 194.581 96.674 193.907C96.674 193.234 96.1279 192.688 95.4542 192.688C94.7805 192.688 94.2344 193.234 94.2344 193.907C94.2344 194.581 94.7805 195.127 95.4542 195.127Z" fill="#F8F8F8"/>
<path d="M119.642 195.532C120.264 195.532 120.768 195.028 120.768 194.406C120.768 193.784 120.264 193.28 119.642 193.28C119.02 193.28 118.516 193.784 118.516 194.406C118.516 195.028 119.02 195.532 119.642 195.532Z" fill="#F8F8F8"/>
<path d="M379.768 194.594C380.131 194.594 380.425 194.3 380.425 193.937C380.425 193.574 380.131 193.28 379.768 193.28C379.405 193.28 379.111 193.574 379.111 193.937C379.111 194.3 379.405 194.594 379.768 194.594Z" fill="#F8F8F8"/>
<path d="M403.395 194.464C403.722 194.464 403.987 194.199 403.987 193.872C403.987 193.545 403.722 193.28 403.395 193.28C403.068 193.28 402.803 193.545 402.803 193.872C402.803 194.199 403.068 194.464 403.395 194.464Z" fill="#F8F8F8"/>
<path d="M95.9991 219.316C96.6469 219.316 97.172 218.791 97.172 218.143C97.172 217.495 96.6469 216.97 95.9991 216.97C95.3513 216.97 94.8262 217.495 94.8262 218.143C94.8262 218.791 95.3513 219.316 95.9991 219.316Z" fill="#F8F8F8"/>
<path d="M119.642 219.223C120.264 219.223 120.768 218.719 120.768 218.097C120.768 217.475 120.264 216.971 119.642 216.971C119.02 216.971 118.516 217.475 118.516 218.097C118.516 218.719 119.02 219.223 119.642 219.223Z" fill="#F8F8F8"/>
<path d="M379.956 218.659C380.422 218.659 380.8 218.281 380.8 217.815C380.8 217.348 380.422 216.97 379.956 216.97C379.489 216.97 379.111 217.348 379.111 217.815C379.111 218.281 379.489 218.659 379.956 218.659Z" fill="#F8F8F8"/>
<path d="M403.553 218.472C403.968 218.472 404.304 218.136 404.304 217.721C404.304 217.306 403.968 216.97 403.553 216.97C403.139 216.97 402.803 217.306 402.803 217.721C402.803 218.136 403.139 218.472 403.553 218.472Z" fill="#F8F8F8"/>
<path d="M95.9522 242.913C96.5741 242.913 97.0782 242.409 97.0782 241.787C97.0782 241.165 96.5741 240.661 95.9522 240.661C95.3303 240.661 94.8262 241.165 94.8262 241.787C94.8262 242.409 95.3303 242.913 95.9522 242.913Z" fill="#F8F8F8"/>
<path d="M119.642 242.913C120.264 242.913 120.768 242.409 120.768 241.787C120.768 241.165 120.264 240.661 119.642 240.661C119.02 240.661 118.516 241.165 118.516 241.787C118.516 242.409 119.02 242.913 119.642 242.913Z" fill="#F8F8F8"/>
<path d="M380.144 242.725C380.714 242.725 381.176 242.262 381.176 241.692C381.176 241.122 380.714 240.66 380.144 240.66C379.573 240.66 379.111 241.122 379.111 241.692C379.111 242.262 379.573 242.725 380.144 242.725Z" fill="#F8F8F8"/>
<path d="M403.741 242.537C404.259 242.537 404.68 242.117 404.68 241.599C404.68 241.081 404.259 240.661 403.741 240.661C403.223 240.661 402.803 241.081 402.803 241.599C402.803 242.117 403.223 242.537 403.741 242.537Z" fill="#F8F8F8"/>
<path d="M95.9522 266.604C96.5741 266.604 97.0782 266.1 97.0782 265.478C97.0782 264.856 96.5741 264.352 95.9522 264.352C95.3303 264.352 94.8262 264.856 94.8262 265.478C94.8262 266.1 95.3303 266.604 95.9522 266.604Z" fill="#F8F8F8"/>
<path d="M119.665 266.65C120.3 266.65 120.815 266.135 120.815 265.5C120.815 264.865 120.3 264.351 119.665 264.351C119.03 264.351 118.516 264.865 118.516 265.5C118.516 266.135 119.03 266.65 119.665 266.65Z" fill="#F8F8F8"/>
<path d="M379.716 266.152C380.377 266.152 380.912 265.616 380.912 264.956C380.912 264.295 380.377 263.759 379.716 263.759C379.055 263.759 378.52 264.295 378.52 264.956C378.52 265.616 379.055 266.152 379.716 266.152Z" fill="#F8F8F8"/>
<path d="M403.882 266.51C404.478 266.51 404.961 266.027 404.961 265.431C404.961 264.835 404.478 264.352 403.882 264.352C403.286 264.352 402.803 264.835 402.803 265.431C402.803 266.027 403.286 266.51 403.882 266.51Z" fill="#F8F8F8"/>
<path d="M72.2158 290.2C72.8118 290.2 73.2949 289.717 73.2949 289.121C73.2949 288.525 72.8118 288.042 72.2158 288.042C71.6198 288.042 71.1367 288.525 71.1367 289.121C71.1367 289.717 71.6198 290.2 72.2158 290.2Z" fill="#F8F8F8"/>
<path d="M95.9522 290.294C96.5741 290.294 97.0782 289.79 97.0782 289.168C97.0782 288.546 96.5741 288.042 95.9522 288.042C95.3303 288.042 94.8262 288.546 94.8262 289.168C94.8262 289.79 95.3303 290.294 95.9522 290.294Z" fill="#F8F8F8"/>
<path d="M119.689 290.387C120.336 290.387 120.861 289.862 120.861 289.214C120.861 288.567 120.336 288.042 119.689 288.042C119.041 288.042 118.516 288.567 118.516 289.214C118.516 289.862 119.041 290.387 119.689 290.387Z" fill="#F8F8F8"/>
<path d="M379.81 290.03C380.522 290.03 381.1 289.452 381.1 288.739C381.1 288.027 380.522 287.449 379.81 287.449C379.097 287.449 378.52 288.027 378.52 288.739C378.52 289.452 379.097 290.03 379.81 290.03Z" fill="#F8F8F8"/>
<path d="M403.405 289.842C404.066 289.842 404.602 289.306 404.602 288.646C404.602 287.985 404.066 287.449 403.405 287.449C402.745 287.449 402.209 287.985 402.209 288.646C402.209 289.306 402.745 289.842 403.405 289.842Z" fill="#F8F8F8"/>
<path d="M427.571 290.2C428.167 290.2 428.65 289.717 428.65 289.121C428.65 288.525 428.167 288.042 427.571 288.042C426.975 288.042 426.492 288.525 426.492 289.121C426.492 289.717 426.975 290.2 427.571 290.2Z" fill="#F8F8F8"/>
<path d="M72.2158 313.891C72.8118 313.891 73.2949 313.407 73.2949 312.812C73.2949 312.216 72.8118 311.732 72.2158 311.732C71.6198 311.732 71.1367 312.216 71.1367 312.812C71.1367 313.407 71.6198 313.891 72.2158 313.891Z" fill="#F8F8F8"/>
<path opacity="0.5" d="M95.9522 313.985C96.5741 313.985 97.0782 313.481 97.0782 312.859C97.0782 312.237 96.5741 311.733 95.9522 311.733C95.3303 311.733 94.8262 312.237 94.8262 312.859C94.8262 313.481 95.3303 313.985 95.9522 313.985Z" fill="#F8F8F8"/>
<path opacity="0.5" d="M119.144 313.58C119.817 313.58 120.363 313.034 120.363 312.36C120.363 311.686 119.817 311.14 119.144 311.14C118.47 311.14 117.924 311.686 117.924 312.36C117.924 313.034 118.47 313.58 119.144 313.58Z" fill="#F8F8F8"/>
<path d="M379.95 314.002C380.741 314.002 381.381 313.361 381.381 312.571C381.381 311.781 380.741 311.14 379.95 311.14C379.16 311.14 378.52 311.781 378.52 312.571C378.52 313.361 379.16 314.002 379.95 314.002Z" fill="#F8F8F8"/>
<path d="M403.523 313.767C404.248 313.767 404.836 313.179 404.836 312.454C404.836 311.728 404.248 311.14 403.523 311.14C402.797 311.14 402.209 311.728 402.209 312.454C402.209 313.179 402.797 313.767 403.523 313.767Z" fill="#F8F8F8"/>
<path d="M427.097 313.533C427.758 313.533 428.293 312.997 428.293 312.336C428.293 311.676 427.758 311.14 427.097 311.14C426.436 311.14 425.9 311.676 425.9 312.336C425.9 312.997 426.436 313.533 427.097 313.533Z" fill="#F8F8F8"/>
<path d="M72.1924 337.534C72.7754 337.534 73.248 337.061 73.248 336.478C73.248 335.895 72.7754 335.422 72.1924 335.422C71.6093 335.422 71.1367 335.895 71.1367 336.478C71.1367 337.061 71.6093 337.534 72.1924 337.534Z" fill="#F8F8F8"/>
<path opacity="0.5" d="M95.9756 337.721C96.6105 337.721 97.1251 337.206 97.1251 336.571C97.1251 335.937 96.6105 335.422 95.9756 335.422C95.3408 335.422 94.8262 335.937 94.8262 336.571C94.8262 337.206 95.3408 337.721 95.9756 337.721Z" fill="#F8F8F8"/>
<path opacity="0.5" d="M119.167 337.318C119.854 337.318 120.41 336.761 120.41 336.074C120.41 335.388 119.854 334.831 119.167 334.831C118.48 334.831 117.924 335.388 117.924 336.074C117.924 336.761 118.48 337.318 119.167 337.318Z" fill="#F8F8F8"/>
<path d="M142.976 337.552C143.727 337.552 144.336 336.943 144.336 336.192C144.336 335.44 143.727 334.831 142.976 334.831C142.224 334.831 141.615 335.44 141.615 336.192C141.615 336.943 142.224 337.552 142.976 337.552Z" fill="#F8F8F8"/>
<path d="M356.423 338.021C357.304 338.021 358.018 337.307 358.018 336.426C358.018 335.545 357.304 334.831 356.423 334.831C355.542 334.831 354.828 335.545 354.828 336.426C354.828 337.307 355.542 338.021 356.423 338.021Z" fill="#F8F8F8"/>
<path d="M380.044 337.88C380.886 337.88 381.569 337.197 381.569 336.355C381.569 335.513 380.886 334.831 380.044 334.831C379.202 334.831 378.52 335.513 378.52 336.355C378.52 337.197 379.202 337.88 380.044 337.88Z" fill="#F8F8F8"/>
<path d="M403.64 337.692C404.43 337.692 405.071 337.052 405.071 336.261C405.071 335.471 404.43 334.831 403.64 334.831C402.85 334.831 402.209 335.471 402.209 336.261C402.209 337.052 402.85 337.692 403.64 337.692Z" fill="#F8F8F8"/>
<path d="M427.191 337.411C427.903 337.411 428.481 336.833 428.481 336.121C428.481 335.408 427.903 334.831 427.191 334.831C426.478 334.831 425.9 335.408 425.9 336.121C425.9 336.833 426.478 337.411 427.191 337.411Z" fill="#F8F8F8"/>
<path opacity="0.5" d="M72.2158 361.271C72.8118 361.271 73.2949 360.788 73.2949 360.192C73.2949 359.596 72.8118 359.113 72.2158 359.113C71.6198 359.113 71.1367 359.596 71.1367 360.192C71.1367 360.788 71.6198 361.271 72.2158 361.271Z" fill="#F8F8F8"/>
<path opacity="0.5" d="M95.9991 361.459C96.6469 361.459 97.172 360.934 97.172 360.286C97.172 359.638 96.6469 359.113 95.9991 359.113C95.3513 359.113 94.8262 359.638 94.8262 360.286C94.8262 360.934 95.3513 361.459 95.9991 361.459Z" fill="#F8F8F8"/>
<path opacity="0.5" d="M119.214 361.101C119.927 361.101 120.504 360.524 120.504 359.811C120.504 359.099 119.927 358.521 119.214 358.521C118.501 358.521 117.924 359.099 117.924 359.811C117.924 360.524 118.501 361.101 119.214 361.101Z" fill="#F8F8F8"/>
<path d="M143.023 361.336C143.8 361.336 144.43 360.706 144.43 359.928C144.43 359.151 143.8 358.521 143.023 358.521C142.245 358.521 141.615 359.151 141.615 359.928C141.615 360.706 142.245 361.336 143.023 361.336Z" fill="#F8F8F8"/>
<path d="M166.806 361.523C167.635 361.523 168.307 360.851 168.307 360.022C168.307 359.193 167.635 358.521 166.806 358.521C165.977 358.521 165.305 359.193 165.305 360.022C165.305 360.851 165.977 361.523 166.806 361.523Z" fill="#F8F8F8"/>
<path d="M332.851 361.946C333.797 361.946 334.563 361.18 334.563 360.234C334.563 359.288 333.797 358.521 332.851 358.521C331.905 358.521 331.139 359.288 331.139 360.234C331.139 361.18 331.905 361.946 332.851 361.946Z" fill="#F8F8F8"/>
<path opacity="0.3" d="M356.494 361.852C357.413 361.852 358.159 361.106 358.159 360.186C358.159 359.267 357.413 358.521 356.494 358.521C355.574 358.521 354.828 359.267 354.828 360.186C354.828 361.106 355.574 361.852 356.494 361.852Z" fill="#F8F8F8"/>
<path opacity="0.3" d="M380.138 361.758C381.032 361.758 381.757 361.033 381.757 360.139C381.757 359.245 381.032 358.521 380.138 358.521C379.244 358.521 378.52 359.245 378.52 360.139C378.52 361.033 379.244 361.758 380.138 361.758Z" fill="#F8F8F8"/>
<path opacity="0.3" d="M403.734 361.57C404.576 361.57 405.258 360.888 405.258 360.046C405.258 359.204 404.576 358.521 403.734 358.521C402.892 358.521 402.209 359.204 402.209 360.046C402.209 360.888 402.892 361.57 403.734 361.57Z" fill="#F8F8F8"/>
<path d="M427.284 361.288C428.049 361.288 428.668 360.669 428.668 359.905C428.668 359.14 428.049 358.521 427.284 358.521C426.52 358.521 425.9 359.14 425.9 359.905C425.9 360.669 426.52 361.288 427.284 361.288Z" fill="#F8F8F8"/>
<path opacity="0.5" d="M72.2393 385.008C72.8482 385.008 73.3418 384.515 73.3418 383.906C73.3418 383.297 72.8482 382.803 72.2393 382.803C71.6304 382.803 71.1367 383.297 71.1367 383.906C71.1367 384.515 71.6304 385.008 72.2393 385.008Z" fill="#F8F8F8"/>
<path opacity="0.5" d="M95.4307 384.604C96.0915 384.604 96.6271 384.069 96.6271 383.408C96.6271 382.747 96.0915 382.211 95.4307 382.211C94.77 382.211 94.2344 382.747 94.2344 383.408C94.2344 384.069 94.77 384.604 95.4307 384.604Z" fill="#F8F8F8"/>
<path opacity="0.5" d="M119.237 384.839C119.963 384.839 120.551 384.251 120.551 383.525C120.551 382.8 119.963 382.211 119.237 382.211C118.512 382.211 117.924 382.8 117.924 383.525C117.924 384.251 118.512 384.839 119.237 384.839Z" fill="#F8F8F8"/>
<path d="M143.046 385.073C143.836 385.073 144.477 384.433 144.477 383.642C144.477 382.852 143.836 382.211 143.046 382.211C142.256 382.211 141.615 382.852 141.615 383.642C141.615 384.433 142.256 385.073 143.046 385.073Z" fill="#F8F8F8"/>
<path d="M166.829 385.261C167.671 385.261 168.354 384.578 168.354 383.736C168.354 382.894 167.671 382.211 166.829 382.211C165.987 382.211 165.305 382.894 165.305 383.736C165.305 384.578 165.987 385.261 166.829 385.261Z" fill="#F8F8F8"/>
<path opacity="0.3" d="M190.615 385.448C191.509 385.448 192.233 384.723 192.233 383.829C192.233 382.936 191.509 382.211 190.615 382.211C189.721 382.211 188.996 382.936 188.996 383.829C188.996 384.723 189.721 385.448 190.615 385.448Z" fill="#F8F8F8"/>
<path opacity="0.3" d="M214.374 385.589C215.307 385.589 216.063 384.833 216.063 383.9C216.063 382.968 215.307 382.211 214.374 382.211C213.442 382.211 212.686 382.968 212.686 383.9C212.686 384.833 213.442 385.589 214.374 385.589Z" fill="#F8F8F8"/>
<path opacity="0.3" d="M238.111 385.683C239.069 385.683 239.847 384.905 239.847 383.947C239.847 382.988 239.069 382.211 238.111 382.211C237.152 382.211 236.375 382.988 236.375 383.947C236.375 384.905 237.152 385.683 238.111 385.683Z" fill="#F8F8F8"/>
<path opacity="0.3" d="M261.828 385.73C262.799 385.73 263.587 384.942 263.587 383.971C263.587 382.999 262.799 382.211 261.828 382.211C260.856 382.211 260.068 382.999 260.068 383.971C260.068 384.942 260.856 385.73 261.828 385.73Z" fill="#F8F8F8"/>
<path opacity="0.3" d="M284.947 385.185C285.931 385.185 286.729 384.386 286.729 383.402C286.729 382.417 285.931 381.619 284.947 381.619C283.962 381.619 283.164 382.417 283.164 383.402C283.164 384.386 283.962 385.185 284.947 385.185Z" fill="#F8F8F8"/>
<path opacity="0.3" d="M308.638 385.185C309.623 385.185 310.421 384.386 310.421 383.402C310.421 382.417 309.623 381.619 308.638 381.619C307.654 381.619 306.855 382.417 306.855 383.402C306.855 384.386 307.654 385.185 308.638 385.185Z" fill="#F8F8F8"/>
<path d="M332.898 385.73C333.87 385.73 334.657 384.942 334.657 383.971C334.657 382.999 333.87 382.211 332.898 382.211C331.926 382.211 331.139 382.999 331.139 383.971C331.139 384.942 331.926 385.73 332.898 385.73Z" fill="#F8F8F8"/>
<path opacity="0.3" d="M356.564 385.683C357.523 385.683 358.3 384.905 358.3 383.947C358.3 382.988 357.523 382.211 356.564 382.211C355.605 382.211 354.828 382.988 354.828 383.947C354.828 384.905 355.605 385.683 356.564 385.683Z" fill="#F8F8F8"/>
<path opacity="0.3" d="M380.208 385.589C381.141 385.589 381.897 384.833 381.897 383.9C381.897 382.968 381.141 382.211 380.208 382.211C379.276 382.211 378.52 382.968 378.52 383.9C378.52 384.833 379.276 385.589 380.208 385.589Z" fill="#F8F8F8"/>
<path opacity="0.3" d="M403.804 385.402C404.685 385.402 405.399 384.688 405.399 383.807C405.399 382.926 404.685 382.212 403.804 382.212C402.923 382.212 402.209 382.926 402.209 383.807C402.209 384.688 402.923 385.402 403.804 385.402Z" fill="#F8F8F8"/>
<path d="M427.378 385.168C428.194 385.168 428.856 384.506 428.856 383.69C428.856 382.874 428.194 382.212 427.378 382.212C426.562 382.212 425.9 382.874 425.9 383.69C425.9 384.506 426.562 385.168 427.378 385.168Z" fill="#F8F8F8"/>
<path opacity="0.5" d="M72.3096 408.84C72.9574 408.84 73.4825 408.315 73.4825 407.667C73.4825 407.019 72.9574 406.494 72.3096 406.494C71.6619 406.494 71.1367 407.019 71.1367 407.667C71.1367 408.315 71.6619 408.84 72.3096 408.84Z" fill="#F8F8F8"/>
<path opacity="0.5" d="M95.4542 408.342C96.1279 408.342 96.674 407.795 96.674 407.122C96.674 406.448 96.1279 405.902 95.4542 405.902C94.7805 405.902 94.2344 406.448 94.2344 407.122C94.2344 407.795 94.7805 408.342 95.4542 408.342Z" fill="#F8F8F8"/>
<path opacity="0.5" d="M119.261 408.576C119.999 408.576 120.598 407.977 120.598 407.239C120.598 406.5 119.999 405.902 119.261 405.902C118.522 405.902 117.924 406.5 117.924 407.239C117.924 407.977 118.522 408.576 119.261 408.576Z" fill="#F8F8F8"/>
<path d="M143.046 408.764C143.836 408.764 144.477 408.123 144.477 407.333C144.477 406.543 143.836 405.902 143.046 405.902C142.256 405.902 141.615 406.543 141.615 407.333C141.615 408.123 142.256 408.764 143.046 408.764Z" fill="#F8F8F8"/>
<path d="M166.829 408.951C167.671 408.951 168.354 408.269 168.354 407.427C168.354 406.584 167.671 405.902 166.829 405.902C165.987 405.902 165.305 406.584 165.305 407.427C165.305 408.269 165.987 408.951 166.829 408.951Z" fill="#F8F8F8"/>
<path opacity="0.3" d="M190.615 409.138C191.509 409.138 192.233 408.414 192.233 407.52C192.233 406.626 191.509 405.901 190.615 405.901C189.721 405.901 188.996 406.626 188.996 407.52C188.996 408.414 189.721 409.138 190.615 409.138Z" fill="#F8F8F8"/>
<path opacity="0.3" d="M214.374 409.28C215.307 409.28 216.063 408.523 216.063 407.591C216.063 406.658 215.307 405.902 214.374 405.902C213.442 405.902 212.686 406.658 212.686 407.591C212.686 408.523 213.442 409.28 214.374 409.28Z" fill="#F8F8F8"/>
<path opacity="0.3" d="M238.111 409.373C239.069 409.373 239.847 408.596 239.847 407.637C239.847 406.679 239.069 405.901 238.111 405.901C237.152 405.901 236.375 406.679 236.375 407.637C236.375 408.596 237.152 409.373 238.111 409.373Z" fill="#F8F8F8"/>
<path opacity="0.3" d="M261.828 409.42C262.799 409.42 263.587 408.633 263.587 407.661C263.587 406.689 262.799 405.902 261.828 405.902C260.856 405.902 260.068 406.689 260.068 407.661C260.068 408.633 260.856 409.42 261.828 409.42Z" fill="#F8F8F8"/>
<path opacity="0.3" d="M284.947 408.875C285.931 408.875 286.729 408.077 286.729 407.092C286.729 406.108 285.931 405.31 284.947 405.31C283.962 405.31 283.164 406.108 283.164 407.092C283.164 408.077 283.962 408.875 284.947 408.875Z" fill="#F8F8F8"/>
<path opacity="0.3" d="M308.638 408.875C309.623 408.875 310.421 408.077 310.421 407.092C310.421 406.108 309.623 405.31 308.638 405.31C307.654 405.31 306.855 406.108 306.855 407.092C306.855 408.077 307.654 408.875 308.638 408.875Z" fill="#F8F8F8"/>
<path d="M332.33 408.875C333.314 408.875 334.112 408.077 334.112 407.092C334.112 406.108 333.314 405.31 332.33 405.31C331.345 405.31 330.547 406.108 330.547 407.092C330.547 408.077 331.345 408.875 332.33 408.875Z" fill="#F8F8F8"/>
<path d="M356.019 408.875C357.004 408.875 357.802 408.077 357.802 407.092C357.802 406.108 357.004 405.31 356.019 405.31C355.034 405.31 354.236 406.108 354.236 407.092C354.236 408.077 355.034 408.875 356.019 408.875Z" fill="#F8F8F8"/>
<path d="M380.255 409.373C381.214 409.373 381.991 408.596 381.991 407.637C381.991 406.679 381.214 405.901 380.255 405.901C379.297 405.901 378.52 406.679 378.52 407.637C378.52 408.596 379.297 409.373 380.255 409.373Z" fill="#F8F8F8"/>
<path d="M403.874 409.233C404.794 409.233 405.54 408.487 405.54 407.567C405.54 406.648 404.794 405.902 403.874 405.902C402.955 405.902 402.209 406.648 402.209 407.567C402.209 408.487 402.955 409.233 403.874 409.233Z" fill="#F8F8F8"/>
<path d="M427.449 408.998C428.304 408.998 428.997 408.305 428.997 407.45C428.997 406.595 428.304 405.902 427.449 405.902C426.594 405.902 425.9 406.595 425.9 407.45C425.9 408.305 426.594 408.998 427.449 408.998Z" fill="#F8F8F8"/>
</g>
</g>
<g style="mix-blend-mode:luminosity">
<path d="M381.482 230C381.482 156.73 322.085 97.3335 248.815 97.3335C175.545 97.3335 116.148 156.73 116.148 230C116.148 303.27 175.545 362.667 248.815 362.667C322.085 362.667 381.482 303.27 381.482 230Z" fill="#282828" fill-opacity="0.3"/>
</g>
<g style="mix-blend-mode:luminosity">
<path d="M374.377 229.999C374.377 160.655 318.162 104.44 248.817 104.44C179.473 104.44 123.258 160.655 123.258 229.999C123.258 299.344 179.473 355.559 248.817 355.559C318.162 355.559 374.377 299.344 374.377 229.999Z" fill="#F8F8F8" fill-opacity="0.01"/>
</g>
<path d="M374.377 229.999C374.377 160.655 318.162 104.44 248.817 104.44C179.473 104.44 123.258 160.655 123.258 229.999C123.258 299.344 179.473 355.559 248.817 355.559C318.162 355.559 374.377 299.344 374.377 229.999Z" stroke="url(#paint0_linear_260_2790)" stroke-opacity="0.25" stroke-width="1.77679"/>
<path d="M414.649 230C414.649 138.413 340.403 64.1665 248.816 64.1665C157.229 64.1665 82.9824 138.413 82.9824 230C82.9824 321.587 157.229 395.833 248.816 395.833C340.403 395.833 414.649 321.587 414.649 230Z" stroke="url(#paint1_linear_260_2790)" stroke-opacity="0.25" stroke-width="1.77679"/>
<g style="mix-blend-mode:luminosity">
<path d="M160.033 141.216C171.692 129.557 185.534 120.308 200.768 113.998C216.001 107.688 232.328 104.44 248.817 104.44C265.305 104.44 281.633 107.688 296.866 113.998C312.1 120.308 325.941 129.557 337.6 141.216L248.817 230L160.033 141.216Z" fill="#F8F8F8" fill-opacity="0.05"/>
</g>
<path d="M160.033 141.216C171.692 129.557 185.534 120.308 200.768 113.998C216.001 107.688 232.328 104.44 248.817 104.44C265.305 104.44 281.633 107.688 296.866 113.998C312.1 120.308 325.941 129.557 337.6 141.216L248.817 230L160.033 141.216Z" stroke="#F8F8F8" stroke-opacity="0.1" stroke-width="1.77679"/>
<mask id="mask1_260_2790" style="mask-type:alpha" maskUnits="userSpaceOnUse" x="158" y="103" width="181" height="129">
<path opacity="0.5" d="M160.033 141.216C171.692 129.557 185.534 120.308 200.768 113.998C216.001 107.688 232.328 104.44 248.817 104.44C265.305 104.44 281.633 107.688 296.866 113.998C312.1 120.308 325.941 129.557 337.6 141.216L248.817 230L160.033 141.216Z" fill="#D9D9D9" stroke="#F8F8F8" stroke-opacity="0.1" stroke-width="1.77679"/>
</mask>
<g mask="url(#mask1_260_2790)">
<g filter="url(#filter1_f_260_2790)">
<path d="M319.887 99.7023C319.887 60.4506 288.067 28.6309 248.816 28.6309C209.564 28.6309 177.744 60.4506 177.744 99.7023C177.744 138.954 209.564 170.774 248.816 170.774C288.067 170.774 319.887 138.954 319.887 99.7023Z" fill="#F8F8F8" fill-opacity="0.2"/>
</g>
</g>
<path d="M189.589 234.738H175.375" stroke="#F8F8F8" stroke-width="1.77679"/>
<path d="M322.255 234.738H308.041" stroke="#F8F8F8" stroke-width="1.77679"/>
<mask id="mask2_260_2790" style="mask-type:alpha" maskUnits="userSpaceOnUse" x="32" y="143" width="436" height="182">
<path d="M467.954 143.529H32.0488V324.761H467.954V143.529Z" fill="url(#paint2_linear_260_2790)"/>
</mask>
<g mask="url(#mask2_260_2790)">
<path opacity="0.3" d="M60.6493 182.619H0.0662203C-2.55051 182.619 -4.67188 184.74 -4.67188 187.357V569.958C-4.67188 572.575 -2.55051 574.696 0.0662203 574.696H499.935C502.552 574.696 504.673 572.575 504.673 569.958V187.357C504.673 184.74 502.552 182.619 499.935 182.619H440.055C438.704 182.619 437.417 183.196 436.518 184.204L392.976 233.03C392.077 234.038 390.791 234.615 389.441 234.615H111.264C109.913 234.615 108.626 234.038 107.727 233.03L64.1856 184.204C63.2865 183.196 62 182.619 60.6493 182.619Z" stroke="url(#paint3_linear_260_2790)" stroke-width="1.77679"/>
<path opacity="0.3" d="M60.6493 286.857H0.0662203C-2.55051 286.857 -4.67188 284.735 -4.67188 282.119V-100.483C-4.67188 -103.099 -2.55051 -105.221 0.0662203 -105.221H499.935C502.552 -105.221 504.673 -103.099 504.673 -100.483V282.119C504.673 284.735 502.552 286.857 499.935 286.857H440.055C438.704 286.857 437.417 286.28 436.518 285.272L392.976 236.446C392.077 235.438 390.791 234.861 389.441 234.861H111.264C109.913 234.861 108.626 235.438 107.727 236.446L64.1856 285.272C63.2865 286.28 62 286.857 60.6493 286.857Z" fill="url(#paint4_linear_260_2790)"/>
<path opacity="0.5" d="M-4.67188 182.619H60.6493C62 182.619 63.2865 183.196 64.1856 184.204L107.727 233.03C108.626 234.038 109.913 234.615 111.264 234.615H389.441C390.791 234.615 392.077 234.038 392.976 233.03L436.518 184.204C437.417 183.196 438.704 182.619 440.055 182.619H504.673" stroke="url(#paint5_linear_260_2790)" stroke-width="1.77679"/>
<path opacity="0.5" d="M-4.67188 286.734H60.6493C62 286.734 63.2865 286.157 64.1856 285.149L107.727 236.323C108.626 235.315 109.913 234.738 111.264 234.738H389.441C390.791 234.738 392.077 235.315 392.976 236.323L436.518 285.149C437.417 286.157 438.704 286.734 440.055 286.734H504.673" stroke="url(#paint6_linear_260_2790)" stroke-width="1.77679"/>
</g>
</g>
</g>
</g>
<g filter="url(#filter2_bi_260_2790)">
<rect x="242.893" y="97.3335" width="14.2143" height="14.2143" rx="7.10714" fill="#121212" fill-opacity="0.3"/>
</g>
<mask id="mask3_260_2790" style="mask-type:alpha" maskUnits="userSpaceOnUse" x="242" y="97" width="16" height="15">
<rect x="242.893" y="97.3335" width="14.2143" height="14.2143" fill="url(#paint7_linear_260_2790)"/>
</mask>
<g mask="url(#mask3_260_2790)">
<rect x="243.485" y="97.9258" width="13.0298" height="13.0298" rx="6.51488" stroke="white" stroke-opacity="0.1" stroke-width="1.18452"/>
</g>
<rect x="246.445" y="100.887" width="7.10714" height="7.10714" rx="3.55357" fill="#F8F8F8"/>
<g filter="url(#filter3_bd_260_2790)">
<rect x="88.9043" y="199.203" width="71.0714" height="71.0714" rx="23.6905" fill="#F8F8F8" fill-opacity="0.05" shape-rendering="crispEdges"/>
</g>
<mask id="mask4_260_2790" style="mask-type:alpha" maskUnits="userSpaceOnUse" x="88" y="199" width="72" height="72">
<rect x="88.9043" y="199.203" width="71.0714" height="71.0714" fill="url(#paint8_linear_260_2790)"/>
</mask>
<g mask="url(#mask4_260_2790)">
<rect x="89.4966" y="199.795" width="69.8869" height="69.8869" rx="23.0982" stroke="white" stroke-opacity="0.1" stroke-width="1.18452"/>
</g>
<g filter="url(#filter4_b_260_2790)">
<rect x="104.303" y="227.631" width="11.8452" height="14.2143" rx="5.92262" fill="#F8F8F8" fill-opacity="0.1"/>
</g>
<g filter="url(#filter5_bdd_260_2790)">
<rect x="118.518" y="222.893" width="11.8452" height="23.6905" rx="5.92262" fill="url(#paint9_linear_260_2790)" shape-rendering="crispEdges"/>
</g>
<g filter="url(#filter6_b_260_2790)">
<rect x="132.73" y="227.631" width="11.8452" height="14.2143" rx="5.92262" fill="#F8F8F8" fill-opacity="0.1"/>
</g>
<g filter="url(#filter7_bd_260_2790)">
<rect x="202.619" y="187.357" width="94.7619" height="94.7619" rx="47.381" fill="#F8F8F8" fill-opacity="0.05" shape-rendering="crispEdges"/>
</g>
<g clip-path="url(#clip4_260_2790)">
<g filter="url(#filter8_bdi_260_2790)">
<rect x="212.096" y="196.833" width="75.8095" height="75.8095" rx="37.9048" fill="white" fill-opacity="0.01" shape-rendering="crispEdges"/>
</g>
<g filter="url(#filter9_f_260_2790)">
<rect x="212.096" y="158.928" width="75.8095" height="75.8095" rx="37.9048" fill="#F8F8F8" fill-opacity="0.2"/>
</g>
<rect x="240.523" y="225.262" width="4.73809" height="4.73809" rx="2.36905" fill="#F8F8F8" fill-opacity="0.5"/>
<rect x="247.631" y="225.262" width="4.73809" height="4.73809" rx="2.36905" fill="#F8F8F8" fill-opacity="0.1"/>
<rect x="254.736" y="225.262" width="4.73809" height="4.73809" rx="2.36905" fill="#F8F8F8" fill-opacity="0.5"/>
<rect x="240.523" y="232.369" width="4.73809" height="4.73809" rx="2.36905" fill="#F8F8F8" fill-opacity="0.1"/>
<rect x="247.631" y="232.369" width="4.73809" height="4.73809" rx="2.36905" fill="#F8F8F8" fill-opacity="0.5"/>
<rect x="254.736" y="232.369" width="4.73809" height="4.73809" rx="2.36905" fill="#F8F8F8" fill-opacity="0.1"/>
<rect x="240.523" y="239.476" width="4.73809" height="4.73809" rx="2.36905" fill="#F8F8F8" fill-opacity="0.5"/>
<rect x="247.631" y="239.476" width="4.73809" height="4.73809" rx="2.36905" fill="#F8F8F8" fill-opacity="0.1"/>
<rect x="254.736" y="239.476" width="4.73809" height="4.73809" rx="2.36905" fill="#F8F8F8" fill-opacity="0.5"/>
</g>
<mask id="mask5_260_2790" style="mask-type:alpha" maskUnits="userSpaceOnUse" x="202" y="187" width="96" height="96">
<rect x="202.619" y="187.357" width="94.7619" height="94.7619" fill="url(#paint10_linear_260_2790)"/>
</mask>
<g mask="url(#mask5_260_2790)">
<rect x="203.211" y="187.95" width="93.5774" height="93.5774" rx="46.7887" stroke="white" stroke-opacity="0.1" stroke-width="1.18452"/>
</g>
<g filter="url(#filter10_bd_260_2790)">
<rect x="340.023" y="199.203" width="71.0714" height="71.0714" rx="23.6905" fill="#F8F8F8" fill-opacity="0.05" shape-rendering="crispEdges"/>
</g>
<mask id="mask6_260_2790" style="mask-type:alpha" maskUnits="userSpaceOnUse" x="340" y="199" width="72" height="72">
<rect x="340.023" y="199.203" width="71.0714" height="71.0714" fill="url(#paint11_linear_260_2790)"/>
</mask>
<g mask="url(#mask6_260_2790)">
<rect x="340.616" y="199.795" width="69.8869" height="69.8869" rx="23.0982" stroke="white" stroke-opacity="0.1" stroke-width="1.18452"/>
</g>
<g clip-path="url(#clip5_260_2790)">
<g clip-path="url(#clip6_260_2790)">
<g clip-path="url(#clip7_260_2790)">
<path d="M386.221 225.854H383.618C382.284 225.854 381.038 225.188 380.298 224.078C379.558 222.968 378.312 222.301 376.978 222.301H374.142C372.808 222.301 371.562 222.968 370.822 224.078C370.082 225.188 368.836 225.854 367.502 225.854H364.899C363.957 225.854 363.053 226.229 362.387 226.895C361.72 227.562 361.346 228.465 361.346 229.408V243.622C361.346 244.565 361.72 245.469 362.387 246.135C363.053 246.801 363.957 247.176 364.899 247.176H386.221C387.163 247.176 388.067 246.801 388.733 246.135C389.4 245.469 389.774 244.565 389.774 243.622V229.408C389.774 228.465 389.4 227.562 388.733 226.895C388.067 226.229 387.163 225.854 386.221 225.854ZM375.56 242.438C374.389 242.438 373.244 242.09 372.27 241.439C371.296 240.789 370.536 239.864 370.088 238.782C369.64 237.699 369.523 236.509 369.751 235.36C369.98 234.211 370.544 233.155 371.372 232.327C372.2 231.499 373.256 230.935 374.404 230.706C375.553 230.478 376.744 230.595 377.826 231.043C378.909 231.492 379.834 232.251 380.484 233.225C381.135 234.199 381.483 235.344 381.483 236.515C381.483 238.086 380.859 239.592 379.748 240.703C378.637 241.814 377.131 242.438 375.56 242.438Z" fill="url(#paint12_linear_260_2790)"/>
</g>
</g>
</g>
</g>
</g>
<defs>
<filter id="filter0_i_260_2790" x="0" y="0" width="500" height="460" filterUnits="userSpaceOnUse" color-interpolation-filters="sRGB">
<feFlood flood-opacity="0" result="BackgroundImageFix"/>
<feBlend mode="normal" in="SourceGraphic" in2="BackgroundImageFix" result="shape"/>
<feColorMatrix in="SourceAlpha" type="matrix" values="0 0 0 0 0 0 0 0 0 0 0 0 0 0 0 0 0 0 127 0" result="hardAlpha"/>
<feMorphology radius="6" operator="erode" in="SourceAlpha" result="effect1_innerShadow_260_2790"/>
<feOffset/>
<feGaussianBlur stdDeviation="20"/>
<feComposite in2="hardAlpha" operator="arithmetic" k2="-1" k3="1"/>
<feColorMatrix type="matrix" values="0 0 0 0 0.0627451 0 0 0 0 0.0862745 0 0 0 0 0.211765 0 0 0 1 0"/>
<feBlend mode="normal" in2="shape" result="effect1_innerShadow_260_2790"/>
</filter>
<filter id="filter1_f_260_2790" x="106.673" y="-42.4406" width="284.285" height="284.286" filterUnits="userSpaceOnUse" color-interpolation-filters="sRGB">
<feFlood flood-opacity="0" result="BackgroundImageFix"/>
<feBlend mode="normal" in="SourceGraphic" in2="BackgroundImageFix" result="shape"/>
<feGaussianBlur stdDeviation="35.5357" result="effect1_foregroundBlur_260_2790"/>
</filter>
<filter id="filter2_bi_260_2790" x="238.154" y="92.5954" width="23.691" height="23.6905" filterUnits="userSpaceOnUse" color-interpolation-filters="sRGB">
<feFlood flood-opacity="0" result="BackgroundImageFix"/>
<feGaussianBlur in="BackgroundImageFix" stdDeviation="2.36905"/>
<feComposite in2="SourceAlpha" operator="in" result="effect1_backgroundBlur_260_2790"/>
<feBlend mode="normal" in="SourceGraphic" in2="effect1_backgroundBlur_260_2790" result="shape"/>
<feColorMatrix in="SourceAlpha" type="matrix" values="0 0 0 0 0 0 0 0 0 0 0 0 0 0 0 0 0 0 127 0" result="hardAlpha"/>
<feOffset/>
<feGaussianBlur stdDeviation="3.15853"/>
<feComposite in2="hardAlpha" operator="arithmetic" k2="-1" k3="1"/>
<feColorMatrix type="matrix" values="0 0 0 0 0.972549 0 0 0 0 0.972549 0 0 0 0 0.972549 0 0 0 0.25 0"/>
<feBlend mode="normal" in2="shape" result="effect2_innerShadow_260_2790"/>
</filter>
<filter id="filter3_bd_260_2790" x="60.4757" y="180.25" width="127.929" height="146.881" filterUnits="userSpaceOnUse" color-interpolation-filters="sRGB">
<feFlood flood-opacity="0" result="BackgroundImageFix"/>
<feGaussianBlur in="BackgroundImageFix" stdDeviation="9.47619"/>
<feComposite in2="SourceAlpha" operator="in" result="effect1_backgroundBlur_260_2790"/>
<feColorMatrix in="SourceAlpha" type="matrix" values="0 0 0 0 0 0 0 0 0 0 0 0 0 0 0 0 0 0 127 0" result="hardAlpha"/>
<feOffset dy="28.4286"/>
<feGaussianBlur stdDeviation="14.2143"/>
<feComposite in2="hardAlpha" operator="out"/>
<feColorMatrix type="matrix" values="0 0 0 0 0 0 0 0 0 0 0 0 0 0 0 0 0 0 0.3 0"/>
<feBlend mode="normal" in2="effect1_backgroundBlur_260_2790" result="effect2_dropShadow_260_2790"/>
<feBlend mode="normal" in="SourceGraphic" in2="effect2_dropShadow_260_2790" result="shape"/>
</filter>
<filter id="filter4_b_260_2790" x="45.0765" y="168.405" width="130.298" height="132.667" filterUnits="userSpaceOnUse" color-interpolation-filters="sRGB">
<feFlood flood-opacity="0" result="BackgroundImageFix"/>
<feGaussianBlur in="BackgroundImageFix" stdDeviation="29.6131"/>
<feComposite in2="SourceAlpha" operator="in" result="effect1_backgroundBlur_260_2790"/>
<feBlend mode="normal" in="SourceGraphic" in2="effect1_backgroundBlur_260_2790" result="shape"/>
</filter>
<filter id="filter5_bdd_260_2790" x="59.2914" y="163.667" width="130.298" height="142.143" filterUnits="userSpaceOnUse" color-interpolation-filters="sRGB">
<feFlood flood-opacity="0" result="BackgroundImageFix"/>
<feGaussianBlur in="BackgroundImageFix" stdDeviation="29.6131"/>
<feComposite in2="SourceAlpha" operator="in" result="effect1_backgroundBlur_260_2790"/>
<feColorMatrix in="SourceAlpha" type="matrix" values="0 0 0 0 0 0 0 0 0 0 0 0 0 0 0 0 0 0 127 0" result="hardAlpha"/>
<feOffset dx="-3.55357" dy="5.92262"/>
<feGaussianBlur stdDeviation="3.55357"/>
<feComposite in2="hardAlpha" operator="out"/>
<feColorMatrix type="matrix" values="0 0 0 0 0 0 0 0 0 0 0 0 0 0 0 0 0 0 0.2 0"/>
<feBlend mode="normal" in2="effect1_backgroundBlur_260_2790" result="effect2_dropShadow_260_2790"/>
<feColorMatrix in="SourceAlpha" type="matrix" values="0 0 0 0 0 0 0 0 0 0 0 0 0 0 0 0 0 0 127 0" result="hardAlpha"/>
<feOffset dx="-1.18452" dy="2.36905"/>
<feGaussianBlur stdDeviation="1.77679"/>
<feComposite in2="hardAlpha" operator="out"/>
<feColorMatrix type="matrix" values="0 0 0 0 0 0 0 0 0 0 0 0 0 0 0 0 0 0 0.1 0"/>
<feBlend mode="normal" in2="effect2_dropShadow_260_2790" result="effect3_dropShadow_260_2790"/>
<feBlend mode="normal" in="SourceGraphic" in2="effect3_dropShadow_260_2790" result="shape"/>
</filter>
<filter id="filter6_b_260_2790" x="73.5043" y="168.405" width="130.298" height="132.667" filterUnits="userSpaceOnUse" color-interpolation-filters="sRGB">
<feFlood flood-opacity="0" result="BackgroundImageFix"/>
<feGaussianBlur in="BackgroundImageFix" stdDeviation="29.6131"/>
<feComposite in2="SourceAlpha" operator="in" result="effect1_backgroundBlur_260_2790"/>
<feBlend mode="normal" in="SourceGraphic" in2="effect1_backgroundBlur_260_2790" result="shape"/>
</filter>
<filter id="filter7_bd_260_2790" x="174.191" y="168.405" width="151.619" height="170.571" filterUnits="userSpaceOnUse" color-interpolation-filters="sRGB">
<feFlood flood-opacity="0" result="BackgroundImageFix"/>
<feGaussianBlur in="BackgroundImageFix" stdDeviation="9.47619"/>
<feComposite in2="SourceAlpha" operator="in" result="effect1_backgroundBlur_260_2790"/>
<feColorMatrix in="SourceAlpha" type="matrix" values="0 0 0 0 0 0 0 0 0 0 0 0 0 0 0 0 0 0 127 0" result="hardAlpha"/>
<feOffset dy="28.4286"/>
<feGaussianBlur stdDeviation="14.2143"/>
<feComposite in2="hardAlpha" operator="out"/>
<feColorMatrix type="matrix" values="0 0 0 0 0 0 0 0 0 0 0 0 0 0 0 0 0 0 0.3 0"/>
<feBlend mode="normal" in2="effect1_backgroundBlur_260_2790" result="effect2_dropShadow_260_2790"/>
<feBlend mode="normal" in="SourceGraphic" in2="effect2_dropShadow_260_2790" result="shape"/>
</filter>
<filter id="filter8_bdi_260_2790" x="202.62" y="189.726" width="94.761" height="130.298" filterUnits="userSpaceOnUse" color-interpolation-filters="sRGB">
<feFlood flood-opacity="0" result="BackgroundImageFix"/>
<feGaussianBlur in="BackgroundImageFix" stdDeviation="3.55357"/>
<feComposite in2="SourceAlpha" operator="in" result="effect1_backgroundBlur_260_2790"/>
<feColorMatrix in="SourceAlpha" type="matrix" values="0 0 0 0 0 0 0 0 0 0 0 0 0 0 0 0 0 0 127 0" result="hardAlpha"/>
<feMorphology radius="18.9524" operator="erode" in="SourceAlpha" result="effect2_dropShadow_260_2790"/>
<feOffset dy="37.9048"/>
<feGaussianBlur stdDeviation="14.2143"/>
<feComposite in2="hardAlpha" operator="out"/>
<feColorMatrix type="matrix" values="0 0 0 0 0 0 0 0 0 0 0 0 0 0 0 0 0 0 0.4 0"/>
<feBlend mode="normal" in2="effect1_backgroundBlur_260_2790" result="effect2_dropShadow_260_2790"/>
<feBlend mode="normal" in="SourceGraphic" in2="effect2_dropShadow_260_2790" result="shape"/>
<feColorMatrix in="SourceAlpha" type="matrix" values="0 0 0 0 0 0 0 0 0 0 0 0 0 0 0 0 0 0 127 0" result="hardAlpha"/>
<feOffset/>
<feGaussianBlur stdDeviation="4.73809"/>
<feComposite in2="hardAlpha" operator="arithmetic" k2="-1" k3="1"/>
<feColorMatrix type="matrix" values="0 0 0 0 0.972549 0 0 0 0 0.972549 0 0 0 0 0.972549 0 0 0 0.25 0"/>
<feBlend mode="normal" in2="shape" result="effect3_innerShadow_260_2790"/>
</filter>
<filter id="filter9_f_260_2790" x="193.143" y="139.976" width="113.713" height="113.714" filterUnits="userSpaceOnUse" color-interpolation-filters="sRGB">
<feFlood flood-opacity="0" result="BackgroundImageFix"/>
<feBlend mode="normal" in="SourceGraphic" in2="BackgroundImageFix" result="shape"/>
<feGaussianBlur stdDeviation="9.47619" result="effect1_foregroundBlur_260_2790"/>
</filter>
<filter id="filter10_bd_260_2790" x="311.595" y="180.25" width="127.929" height="146.881" filterUnits="userSpaceOnUse" color-interpolation-filters="sRGB">
<feFlood flood-opacity="0" result="BackgroundImageFix"/>
<feGaussianBlur in="BackgroundImageFix" stdDeviation="9.47619"/>
<feComposite in2="SourceAlpha" operator="in" result="effect1_backgroundBlur_260_2790"/>
<feColorMatrix in="SourceAlpha" type="matrix" values="0 0 0 0 0 0 0 0 0 0 0 0 0 0 0 0 0 0 127 0" result="hardAlpha"/>
<feOffset dy="28.4286"/>
<feGaussianBlur stdDeviation="14.2143"/>
<feComposite in2="hardAlpha" operator="out"/>
<feColorMatrix type="matrix" values="0 0 0 0 0 0 0 0 0 0 0 0 0 0 0 0 0 0 0.3 0"/>
<feBlend mode="normal" in2="effect1_backgroundBlur_260_2790" result="effect2_dropShadow_260_2790"/>
<feBlend mode="normal" in="SourceGraphic" in2="effect2_dropShadow_260_2790" result="shape"/>
</filter>
<linearGradient id="paint0_linear_260_2790" x1="248.817" y1="104.44" x2="358.059" y2="380.199" gradientUnits="userSpaceOnUse">
<stop stop-color="white" stop-opacity="0.4"/>
<stop offset="0.4" stop-color="white" stop-opacity="0.01"/>
<stop offset="0.6" stop-color="white" stop-opacity="0.01"/>
<stop offset="1" stop-color="white" stop-opacity="0.1"/>
</linearGradient>
<linearGradient id="paint1_linear_260_2790" x1="283.759" y1="-18.1579" x2="230.472" y2="416.943" gradientUnits="userSpaceOnUse">
<stop stop-color="white" stop-opacity="0.4"/>
<stop offset="0.4" stop-color="white" stop-opacity="0.01"/>
<stop offset="0.6" stop-color="white" stop-opacity="0.01"/>
<stop offset="1" stop-color="white" stop-opacity="0.1"/>
</linearGradient>
<linearGradient id="paint2_linear_260_2790" x1="467.954" y1="234.145" x2="32.0488" y2="234.145" gradientUnits="userSpaceOnUse">
<stop stop-color="#F8F8F8" stop-opacity="0"/>
<stop offset="0.0994155" stop-color="#F8F8F8"/>
<stop offset="0.89874" stop-color="#949494"/>
<stop offset="1" stop-color="#737373" stop-opacity="0"/>
</linearGradient>
<linearGradient id="paint3_linear_260_2790" x1="374.453" y1="413.789" x2="374.453" y2="182.619" gradientUnits="userSpaceOnUse">
<stop offset="0.522974" stop-color="white" stop-opacity="0"/>
<stop offset="1" stop-color="white" stop-opacity="0.1"/>
</linearGradient>
<linearGradient id="paint4_linear_260_2790" x1="374.453" y1="55.6856" x2="374.453" y2="286.857" gradientUnits="userSpaceOnUse">
<stop offset="0.522974" stop-color="white" stop-opacity="0"/>
<stop offset="1" stop-color="white" stop-opacity="0.1"/>
</linearGradient>
<linearGradient id="paint5_linear_260_2790" x1="374.453" y1="413.789" x2="374.453" y2="182.619" gradientUnits="userSpaceOnUse">
<stop offset="0.522974" stop-color="#F8F8F8" stop-opacity="0"/>
<stop offset="1" stop-color="#F8F8F8" stop-opacity="0.1"/>
</linearGradient>
<linearGradient id="paint6_linear_260_2790" x1="374.453" y1="55.5627" x2="374.453" y2="286.734" gradientUnits="userSpaceOnUse">
<stop offset="0.522974" stop-color="#F8F8F8" stop-opacity="0"/>
<stop offset="1" stop-color="#F8F8F8" stop-opacity="0.1"/>
</linearGradient>
<linearGradient id="paint7_linear_260_2790" x1="257.107" y1="111.548" x2="242.893" y2="97.3335" gradientUnits="userSpaceOnUse">
<stop/>
<stop offset="0.5" stop-opacity="0"/>
</linearGradient>
<linearGradient id="paint8_linear_260_2790" x1="117.292" y1="194.197" x2="131.589" y2="275.28" gradientUnits="userSpaceOnUse">
<stop/>
<stop offset="0.5" stop-opacity="0"/>
</linearGradient>
<linearGradient id="paint9_linear_260_2790" x1="124.44" y1="222.893" x2="124.44" y2="246.584" gradientUnits="userSpaceOnUse">
<stop stop-color="#F8F8F8" stop-opacity="0.9"/>
<stop offset="1" stop-color="#F8F8F8" stop-opacity="0.3"/>
</linearGradient>
<linearGradient id="paint10_linear_260_2790" x1="240.469" y1="180.684" x2="259.531" y2="288.793" gradientUnits="userSpaceOnUse">
<stop/>
<stop offset="0.5" stop-opacity="0"/>
</linearGradient>
<linearGradient id="paint11_linear_260_2790" x1="368.411" y1="194.197" x2="382.708" y2="275.28" gradientUnits="userSpaceOnUse">
<stop/>
<stop offset="0.5" stop-opacity="0"/>
</linearGradient>
<linearGradient id="paint12_linear_260_2790" x1="375.56" y1="222.301" x2="375.56" y2="247.176" gradientUnits="userSpaceOnUse">
<stop stop-color="#F8F8F8" stop-opacity="0.9"/>
<stop offset="1" stop-color="#F8F8F8" stop-opacity="0.3"/>
</linearGradient>
<clipPath id="clip0_260_2790">
<rect width="500" height="460" rx="32" fill="white"/>
</clipPath>
<clipPath id="clip1_260_2790">
<rect width="435.905" height="562.649" fill="white" transform="translate(32.0469 12.0474)"/>
</clipPath>
<clipPath id="clip2_260_2790">
<rect width="435.905" height="562.649" fill="white" transform="translate(32.0469 12.0474)"/>
</clipPath>
<clipPath id="clip3_260_2790">
<rect width="435.905" height="562.649" fill="white" transform="translate(32.0469 12.0474)"/>
</clipPath>
<clipPath id="clip4_260_2790">
<rect x="212.096" y="196.833" width="75.8095" height="75.8095" rx="37.9048" fill="white"/>
</clipPath>
<clipPath id="clip5_260_2790">
<rect width="28.4286" height="24.875" fill="white" transform="translate(361.346 222.301)"/>
</clipPath>
<clipPath id="clip6_260_2790">
<rect width="28.4286" height="24.875" fill="white" transform="translate(361.346 222.301)"/>
</clipPath>
<clipPath id="clip7_260_2790">
<rect width="28.4286" height="24.875" fill="white" transform="translate(361.346 222.301)"/>
</clipPath>
</defs>
</svg>
