<svg width="500" height="460" viewBox="0 0 500 460" fill="none" xmlns="http://www.w3.org/2000/svg">
<g filter="url(#filter0_i_260_1994)">
<g clipPath="url(#clip0_260_1994)">
<rect width="500" height="460" rx="32" fill="#05071A" fill-opacity="0.71"/>
<rect x="0.5" y="0.5" width="499" height="459" rx="31.5" stroke="#1C244C"/>
<g clipPath="url(#clip1_260_1994)">
<g clipPath="url(#clip2_260_1994)">
<g clipPath="url(#clip3_260_1994)">
<mask id="mask0_260_1994" style="mask-type:luminance" maskUnits="userSpaceOnUse" x="42" y="22" width="416" height="416">
<path d="M458 22H42V438H458V22Z" fill="white"/>
</mask>
<g mask="url(#mask0_260_1994)">
<mask id="mask1_260_1994" style="mask-type:alpha" maskUnits="userSpaceOnUse" x="22" y="2" width="456" height="456">
<path d="M249.997 457.81C375.813 457.81 477.807 355.816 477.807 230C477.807 104.184 375.813 2.19043 249.997 2.19043C124.181 2.19043 22.1875 104.184 22.1875 230C22.1875 355.816 124.181 457.81 249.997 457.81Z" fill="url(#paint0_radial_260_1994)"/>
</mask>
<g mask="url(#mask1_260_1994)">
<g opacity="0.1">
<path opacity="0.3" d="M63.77 45.7324C64.8532 45.7324 65.7314 44.8542 65.7314 43.771C65.7314 42.6877 64.8532 41.8096 63.77 41.8096C62.6867 41.8096 61.8086 42.6877 61.8086 43.771C61.8086 44.8542 62.6867 45.7324 63.77 45.7324Z" fill="#F8F8F8"/>
<path d="M88.4336 45.5362C89.4627 45.5362 90.297 44.702 90.297 43.6729C90.297 42.6438 89.4627 41.8096 88.4336 41.8096C87.4046 41.8096 86.5703 42.6438 86.5703 43.6729C86.5703 44.702 87.4046 45.5362 88.4336 45.5362Z" fill="#F8F8F8"/>
<path d="M113.667 45.8612C114.615 45.8612 115.384 45.0928 115.384 44.145C115.384 43.1971 114.615 42.4287 113.667 42.4287C112.72 42.4287 111.951 43.1971 111.951 44.145C111.951 45.0928 112.72 45.8612 113.667 45.8612Z" fill="#F8F8F8"/>
<path d="M138.233 45.469C139.073 45.469 139.753 44.7884 139.753 43.9488C139.753 43.1093 139.073 42.4287 138.233 42.4287C137.393 42.4287 136.713 43.1093 136.713 43.9488C136.713 44.7884 137.393 45.469 138.233 45.469Z" fill="#F8F8F8"/>
<path d="M162.823 45.1258C163.568 45.1258 164.172 44.522 164.172 43.7772C164.172 43.0325 163.568 42.4287 162.823 42.4287C162.078 42.4287 161.475 43.0325 161.475 43.7772C161.475 44.522 162.078 45.1258 162.823 45.1258Z" fill="#F8F8F8"/>
<path d="M187.983 45.3037C188.606 45.3037 189.111 44.7987 189.111 44.1758C189.111 43.5528 188.606 43.0479 187.983 43.0479C187.36 43.0479 186.855 43.5528 186.855 44.1758C186.855 44.7987 187.36 45.3037 187.983 45.3037Z" fill="#F8F8F8"/>
<path d="M212.524 44.8624C213.026 44.8624 213.432 44.4562 213.432 43.9551C213.432 43.4541 213.026 43.0479 212.524 43.0479C212.023 43.0479 211.617 43.4541 211.617 43.9551C211.617 44.4562 212.023 44.8624 212.524 44.8624Z" fill="#F8F8F8"/>
<path d="M237.092 44.4702C237.485 44.4702 237.803 44.1518 237.803 43.759C237.803 43.3663 237.485 43.0479 237.092 43.0479C236.699 43.0479 236.381 43.3663 236.381 43.759C236.381 44.1518 236.699 44.4702 237.092 44.4702Z" fill="#F8F8F8"/>
<path d="M261.762 44.2859C262.104 44.2859 262.381 44.0088 262.381 43.6669C262.381 43.325 262.104 43.0479 261.762 43.0479C261.42 43.0479 261.143 43.325 261.143 43.6669C261.143 44.0088 261.42 44.2859 261.762 44.2859Z" fill="#F8F8F8"/>
<path d="M286.523 44.2859C286.865 44.2859 287.142 44.0088 287.142 43.6669C287.142 43.325 286.865 43.0479 286.523 43.0479C286.181 43.0479 285.904 43.325 285.904 43.6669C285.904 44.0088 286.181 44.2859 286.523 44.2859Z" fill="#F8F8F8"/>
<path d="M311.285 44.2859C311.627 44.2859 311.904 44.0088 311.904 43.6669C311.904 43.325 311.627 43.0479 311.285 43.0479C310.943 43.0479 310.666 43.325 310.666 43.6669C310.666 44.0088 310.943 44.2859 311.285 44.2859Z" fill="#F8F8F8"/>
<path d="M336.047 44.2859C336.389 44.2859 336.666 44.0088 336.666 43.6669C336.666 43.325 336.389 43.0479 336.047 43.0479C335.705 43.0479 335.428 43.325 335.428 43.6669C335.428 44.0088 335.705 44.2859 336.047 44.2859Z" fill="#F8F8F8"/>
<path d="M360.809 44.2859C361.15 44.2859 361.428 44.0088 361.428 43.6669C361.428 43.325 361.15 43.0479 360.809 43.0479C360.467 43.0479 360.189 43.325 360.189 43.6669C360.189 44.0088 360.467 44.2859 360.809 44.2859Z" fill="#F8F8F8"/>
<path d="M385.57 44.2859C385.912 44.2859 386.189 44.0088 386.189 43.6669C386.189 43.325 385.912 43.0479 385.57 43.0479C385.228 43.0479 384.951 43.325 384.951 43.6669C384.951 44.0088 385.228 44.2859 385.57 44.2859Z" fill="#F8F8F8"/>
<path d="M410.332 44.2859C410.674 44.2859 410.951 44.0088 410.951 43.6669C410.951 43.325 410.674 43.0479 410.332 43.0479C409.99 43.0479 409.713 43.325 409.713 43.6669C409.713 44.0088 409.99 44.2859 410.332 44.2859Z" fill="#F8F8F8"/>
<path d="M435.094 44.2859C435.436 44.2859 435.713 44.0088 435.713 43.6669C435.713 43.325 435.436 43.0479 435.094 43.0479C434.752 43.0479 434.475 43.325 434.475 43.6669C434.475 44.0088 434.752 44.2859 435.094 44.2859Z" fill="#F8F8F8"/>
<path opacity="0.3" d="M63.6964 70.347C64.7391 70.347 65.5843 69.5018 65.5843 68.4591C65.5843 67.4165 64.7391 66.5713 63.6964 66.5713C62.6538 66.5713 61.8086 67.4165 61.8086 68.4591C61.8086 69.5018 62.6538 70.347 63.6964 70.347Z" fill="#F8F8F8"/>
<path opacity="0.4" d="M88.9792 70.77C89.9677 70.77 90.769 69.9687 90.769 68.9802C90.769 67.9917 89.9677 67.1904 88.9792 67.1904C87.9908 67.1904 87.1895 67.9917 87.1895 68.9802C87.1895 69.9687 87.9908 70.77 88.9792 70.77Z" fill="#F8F8F8"/>
<path opacity="0.4" d="M113.569 70.4268C114.463 70.4268 115.188 69.7023 115.188 68.8086C115.188 67.9149 114.463 67.1904 113.569 67.1904C112.676 67.1904 111.951 67.9149 111.951 68.8086C111.951 69.7023 112.676 70.4268 113.569 70.4268Z" fill="#F8F8F8"/>
<path opacity="0.4" d="M138.135 70.0346C138.92 70.0346 139.557 69.3979 139.557 68.6125C139.557 67.8271 138.92 67.1904 138.135 67.1904C137.35 67.1904 136.713 67.8271 136.713 68.6125C136.713 69.3979 137.35 70.0346 138.135 70.0346Z" fill="#F8F8F8"/>
<path d="M163.32 70.2615C163.997 70.2615 164.546 69.7126 164.546 69.0355C164.546 68.3584 163.997 67.8096 163.32 67.8096C162.643 67.8096 162.094 68.3584 162.094 69.0355C162.094 69.7126 162.643 70.2615 163.32 70.2615Z" fill="#F8F8F8"/>
<path d="M187.861 69.8202C188.416 69.8202 188.866 69.3701 188.866 68.8149C188.866 68.2597 188.416 67.8096 187.861 67.8096C187.306 67.8096 186.855 68.2597 186.855 68.8149C186.855 69.3701 187.306 69.8202 187.861 69.8202Z" fill="#F8F8F8"/>
<path d="M212.402 69.379C212.835 69.379 213.187 69.0277 213.187 68.5943C213.187 68.1609 212.835 67.8096 212.402 67.8096C211.969 67.8096 211.617 68.1609 211.617 68.5943C211.617 69.0277 211.969 69.379 212.402 69.379Z" fill="#F8F8F8"/>
<path d="M237 69.0477C237.342 69.0477 237.619 68.7705 237.619 68.4286C237.619 68.0867 237.342 67.8096 237 67.8096C236.658 67.8096 236.381 68.0867 236.381 68.4286C236.381 68.7705 236.658 69.0477 237 69.0477Z" fill="#F8F8F8"/>
<path d="M261.762 69.0477C262.104 69.0477 262.381 68.7705 262.381 68.4286C262.381 68.0867 262.104 67.8096 261.762 67.8096C261.42 67.8096 261.143 68.0867 261.143 68.4286C261.143 68.7705 261.42 69.0477 261.762 69.0477Z" fill="#F8F8F8"/>
<path d="M286.523 69.0477C286.865 69.0477 287.142 68.7705 287.142 68.4286C287.142 68.0867 286.865 67.8096 286.523 67.8096C286.181 67.8096 285.904 68.0867 285.904 68.4286C285.904 68.7705 286.181 69.0477 286.523 69.0477Z" fill="#F8F8F8"/>
<path d="M311.285 69.0477C311.627 69.0477 311.904 68.7705 311.904 68.4286C311.904 68.0867 311.627 67.8096 311.285 67.8096C310.943 67.8096 310.666 68.0867 310.666 68.4286C310.666 68.7705 310.943 69.0477 311.285 69.0477Z" fill="#F8F8F8"/>
<path d="M336.047 69.0477C336.389 69.0477 336.666 68.7705 336.666 68.4286C336.666 68.0867 336.389 67.8096 336.047 67.8096C335.705 67.8096 335.428 68.0867 335.428 68.4286C335.428 68.7705 335.705 69.0477 336.047 69.0477Z" fill="#F8F8F8"/>
<path d="M360.809 69.0477C361.15 69.0477 361.428 68.7705 361.428 68.4286C361.428 68.0867 361.15 67.8096 360.809 67.8096C360.467 67.8096 360.189 68.0867 360.189 68.4286C360.189 68.7705 360.467 69.0477 360.809 69.0477Z" fill="#F8F8F8"/>
<path d="M385.57 69.0477C385.912 69.0477 386.189 68.7705 386.189 68.4286C386.189 68.0867 385.912 67.8096 385.57 67.8096C385.228 67.8096 384.951 68.0867 384.951 68.4286C384.951 68.7705 385.228 69.0477 385.57 69.0477Z" fill="#F8F8F8"/>
<path d="M410.332 69.0477C410.674 69.0477 410.951 68.7705 410.951 68.4286C410.951 68.0867 410.674 67.8096 410.332 67.8096C409.99 67.8096 409.713 68.0867 409.713 68.4286C409.713 68.7705 409.99 69.0477 410.332 69.0477Z" fill="#F8F8F8"/>
<path d="M435.094 69.0477C435.436 69.0477 435.713 68.7705 435.713 68.4286C435.713 68.0867 435.436 67.8096 435.094 67.8096C434.752 67.8096 434.475 68.0867 434.475 68.4286C434.475 68.7705 434.752 69.0477 435.094 69.0477Z" fill="#F8F8F8"/>
<path opacity="0.3" d="M64.242 95.5812C65.2441 95.5812 66.0563 94.769 66.0563 93.7669C66.0563 92.7649 65.2441 91.9526 64.242 91.9526C63.24 91.9526 62.4277 92.7649 62.4277 93.7669C62.4277 94.769 63.24 95.5812 64.242 95.5812Z" fill="#F8F8F8"/>
<path opacity="0.4" d="M88.8567 95.2871C89.7775 95.2871 90.5239 94.5406 90.5239 93.6199C90.5239 92.6991 89.7775 91.9526 88.8567 91.9526C87.9359 91.9526 87.1895 92.6991 87.1895 93.6199C87.1895 94.5406 87.9359 95.2871 88.8567 95.2871Z" fill="#F8F8F8"/>
<path opacity="0.4" d="M113.447 94.9439C114.273 94.9439 114.942 94.2743 114.942 93.4483C114.942 92.6222 114.273 91.9526 113.447 91.9526C112.621 91.9526 111.951 92.6222 111.951 93.4483C111.951 94.2743 112.621 94.9439 113.447 94.9439Z" fill="#F8F8F8"/>
<path opacity="0.4" d="M137.988 94.5026C138.692 94.5026 139.263 93.9318 139.263 93.2276C139.263 92.5235 138.692 91.9526 137.988 91.9526C137.284 91.9526 136.713 92.5235 136.713 93.2276C136.713 93.9318 137.284 94.5026 137.988 94.5026Z" fill="#F8F8F8"/>
<path d="M163.197 94.7781C163.807 94.7781 164.301 94.2841 164.301 93.6747C164.301 93.0653 163.807 92.5713 163.197 92.5713C162.588 92.5713 162.094 93.0653 162.094 93.6747C162.094 94.2841 162.588 94.7781 163.197 94.7781Z" fill="#F8F8F8"/>
<path d="M187.763 94.3858C188.264 94.3858 188.67 93.9796 188.67 93.4786C188.67 92.9775 188.264 92.5713 187.763 92.5713C187.262 92.5713 186.855 92.9775 186.855 93.4786C186.855 93.9796 187.262 94.3858 187.763 94.3858Z" fill="#F8F8F8"/>
<path d="M212.304 93.9446C212.683 93.9446 212.99 93.6372 212.99 93.2579C212.99 92.8787 212.683 92.5713 212.304 92.5713C211.925 92.5713 211.617 92.8787 211.617 93.2579C211.617 93.6372 211.925 93.9446 212.304 93.9446Z" fill="#F8F8F8"/>
<path d="M237 93.8094C237.342 93.8094 237.619 93.5322 237.619 93.1903C237.619 92.8484 237.342 92.5713 237 92.5713C236.658 92.5713 236.381 92.8484 236.381 93.1903C236.381 93.5322 236.658 93.8094 237 93.8094Z" fill="#F8F8F8"/>
<path d="M261.762 93.8094C262.104 93.8094 262.381 93.5322 262.381 93.1903C262.381 92.8484 262.104 92.5713 261.762 92.5713C261.42 92.5713 261.143 92.8484 261.143 93.1903C261.143 93.5322 261.42 93.8094 261.762 93.8094Z" fill="#F8F8F8"/>
<path d="M286.523 93.8094C286.865 93.8094 287.142 93.5322 287.142 93.1903C287.142 92.8484 286.865 92.5713 286.523 92.5713C286.181 92.5713 285.904 92.8484 285.904 93.1903C285.904 93.5322 286.181 93.8094 286.523 93.8094Z" fill="#F8F8F8"/>
<path d="M311.285 93.8094C311.627 93.8094 311.904 93.5322 311.904 93.1903C311.904 92.8484 311.627 92.5713 311.285 92.5713C310.943 92.5713 310.666 92.8484 310.666 93.1903C310.666 93.5322 310.943 93.8094 311.285 93.8094Z" fill="#F8F8F8"/>
<path d="M336.047 93.8094C336.389 93.8094 336.666 93.5322 336.666 93.1903C336.666 92.8484 336.389 92.5713 336.047 92.5713C335.705 92.5713 335.428 92.8484 335.428 93.1903C335.428 93.5322 335.705 93.8094 336.047 93.8094Z" fill="#F8F8F8"/>
<path d="M360.809 93.8094C361.15 93.8094 361.428 93.5322 361.428 93.1903C361.428 92.8484 361.15 92.5713 360.809 92.5713C360.467 92.5713 360.189 92.8484 360.189 93.1903C360.189 93.5322 360.467 93.8094 360.809 93.8094Z" fill="#F8F8F8"/>
<path d="M385.57 93.8094C385.912 93.8094 386.189 93.5322 386.189 93.1903C386.189 92.8484 385.912 92.5713 385.57 92.5713C385.228 92.5713 384.951 92.8484 384.951 93.1903C384.951 93.5322 385.228 93.8094 385.57 93.8094Z" fill="#F8F8F8"/>
<path d="M410.332 93.8094C410.674 93.8094 410.951 93.5322 410.951 93.1903C410.951 92.8484 410.674 92.5713 410.332 92.5713C409.99 92.5713 409.713 92.8484 409.713 93.1903C409.713 93.5322 409.99 93.8094 410.332 93.8094Z" fill="#F8F8F8"/>
<path d="M435.094 93.8094C435.436 93.8094 435.713 93.5322 435.713 93.1903C435.713 92.8484 435.436 92.5713 435.094 92.5713C434.752 92.5713 434.475 92.8484 434.475 93.1903C434.475 93.5322 434.752 93.8094 435.094 93.8094Z" fill="#F8F8F8"/>
<path opacity="0.3" d="M64.1195 120.097C65.0538 120.097 65.8112 119.34 65.8112 118.406C65.8112 117.471 65.0538 116.714 64.1195 116.714C63.1852 116.714 62.4277 117.471 62.4277 118.406C62.4277 119.34 63.1852 120.097 64.1195 120.097Z" fill="#F8F8F8"/>
<path opacity="0.4" d="M88.7341 119.804C89.5872 119.804 90.2787 119.113 90.2787 118.259C90.2787 117.406 89.5872 116.715 88.7341 116.715C87.881 116.715 87.1895 117.406 87.1895 118.259C87.1895 119.113 87.881 119.804 88.7341 119.804Z" fill="#F8F8F8"/>
<path opacity="0.4" d="M113.324 119.46C114.083 119.46 114.697 118.846 114.697 118.087C114.697 117.329 114.083 116.714 113.324 116.714C112.566 116.714 111.951 117.329 111.951 118.087C111.951 118.846 112.566 119.46 113.324 119.46Z" fill="#F8F8F8"/>
<path opacity="0.4" d="M138.533 119.736C139.197 119.736 139.735 119.198 139.735 118.534C139.735 117.871 139.197 117.333 138.533 117.333C137.87 117.333 137.332 117.871 137.332 118.534C137.332 119.198 137.87 119.736 138.533 119.736Z" fill="#F8F8F8"/>
<path d="M163.124 119.393C163.692 119.393 164.153 118.932 164.153 118.363C164.153 117.795 163.692 117.333 163.124 117.333C162.555 117.333 162.094 117.795 162.094 118.363C162.094 118.932 162.555 119.393 163.124 119.393Z" fill="#F8F8F8"/>
<path d="M187.689 119C188.15 119 188.523 118.627 188.523 118.167C188.523 117.706 188.15 117.333 187.689 117.333C187.229 117.333 186.855 117.706 186.855 118.167C186.855 118.627 187.229 119 187.689 119Z" fill="#F8F8F8"/>
<path d="M212.304 118.707C212.683 118.707 212.99 118.4 212.99 118.021C212.99 117.641 212.683 117.334 212.304 117.334C211.925 117.334 211.617 117.641 211.617 118.021C211.617 118.4 211.925 118.707 212.304 118.707Z" fill="#F8F8F8"/>
<path d="M237 118.572C237.342 118.572 237.619 118.294 237.619 117.953C237.619 117.611 237.342 117.333 237 117.333C236.658 117.333 236.381 117.611 236.381 117.953C236.381 118.294 236.658 118.572 237 118.572Z" fill="#F8F8F8"/>
<path d="M261.762 118.572C262.104 118.572 262.381 118.294 262.381 117.953C262.381 117.611 262.104 117.333 261.762 117.333C261.42 117.333 261.143 117.611 261.143 117.953C261.143 118.294 261.42 118.572 261.762 118.572Z" fill="#F8F8F8"/>
<path d="M286.523 118.572C286.865 118.572 287.142 118.294 287.142 117.953C287.142 117.611 286.865 117.333 286.523 117.333C286.181 117.333 285.904 117.611 285.904 117.953C285.904 118.294 286.181 118.572 286.523 118.572Z" fill="#F8F8F8"/>
<path d="M311.285 118.572C311.627 118.572 311.904 118.294 311.904 117.953C311.904 117.611 311.627 117.333 311.285 117.333C310.943 117.333 310.666 117.611 310.666 117.953C310.666 118.294 310.943 118.572 311.285 118.572Z" fill="#F8F8F8"/>
<path d="M336.047 118.572C336.389 118.572 336.666 118.294 336.666 117.953C336.666 117.611 336.389 117.333 336.047 117.333C335.705 117.333 335.428 117.611 335.428 117.953C335.428 118.294 335.705 118.572 336.047 118.572Z" fill="#F8F8F8"/>
<path d="M360.809 118.572C361.15 118.572 361.428 118.294 361.428 117.953C361.428 117.611 361.15 117.333 360.809 117.333C360.467 117.333 360.189 117.611 360.189 117.953C360.189 118.294 360.467 118.572 360.809 118.572Z" fill="#F8F8F8"/>
<path d="M385.57 118.572C385.912 118.572 386.189 118.294 386.189 117.953C386.189 117.611 385.912 117.333 385.57 117.333C385.228 117.333 384.951 117.611 384.951 117.953C384.951 118.294 385.228 118.572 385.57 118.572Z" fill="#F8F8F8"/>
<path d="M410.332 118.572C410.674 118.572 410.951 118.294 410.951 117.953C410.951 117.611 410.674 117.333 410.332 117.333C409.99 117.333 409.713 117.611 409.713 117.953C409.713 118.294 409.99 118.572 410.332 118.572Z" fill="#F8F8F8"/>
<path d="M435.094 118.572C435.436 118.572 435.713 118.294 435.713 117.953C435.713 117.611 435.436 117.333 435.094 117.333C434.752 117.333 434.475 117.611 434.475 117.953C434.475 118.294 434.752 118.572 435.094 118.572Z" fill="#F8F8F8"/>
<path d="M63.9969 144.614C64.8635 144.614 65.5661 143.911 65.5661 143.045C65.5661 142.178 64.8635 141.476 63.9969 141.476C63.1303 141.476 62.4277 142.178 62.4277 143.045C62.4277 143.911 63.1303 144.614 63.9969 144.614Z" fill="#F8F8F8"/>
<path d="M88.636 144.369C89.435 144.369 90.0826 143.721 90.0826 142.922C90.0826 142.123 89.435 141.476 88.636 141.476C87.8371 141.476 87.1895 142.123 87.1895 142.922C87.1895 143.721 87.8371 144.369 88.636 144.369Z" fill="#F8F8F8"/>
<path d="M113.251 144.076C113.968 144.076 114.55 143.494 114.55 142.776C114.55 142.058 113.968 141.477 113.251 141.477C112.533 141.477 111.951 142.058 111.951 142.776C111.951 143.494 112.533 144.076 113.251 144.076Z" fill="#F8F8F8"/>
<path d="M138.46 144.351C139.083 144.351 139.588 143.846 139.588 143.223C139.588 142.6 139.083 142.095 138.46 142.095C137.837 142.095 137.332 142.6 137.332 143.223C137.332 143.846 137.837 144.351 138.46 144.351Z" fill="#F8F8F8"/>
<path d="M163.099 144.106C163.654 144.106 164.104 143.656 164.104 143.101C164.104 142.545 163.654 142.095 163.099 142.095C162.544 142.095 162.094 142.545 162.094 143.101C162.094 143.656 162.544 144.106 163.099 144.106Z" fill="#F8F8F8"/>
<path d="M187.689 143.762C188.15 143.762 188.523 143.389 188.523 142.928C188.523 142.468 188.15 142.095 187.689 142.095C187.229 142.095 186.855 142.468 186.855 142.928C186.855 143.389 187.229 143.762 187.689 143.762Z" fill="#F8F8F8"/>
<path d="M212.328 143.517C212.721 143.517 213.04 143.199 213.04 142.806C213.04 142.413 212.721 142.095 212.328 142.095C211.936 142.095 211.617 142.413 211.617 142.806C211.617 143.199 211.936 143.517 212.328 143.517Z" fill="#F8F8F8"/>
<path d="M237.018 143.37C237.371 143.37 237.656 143.085 237.656 142.733C237.656 142.381 237.371 142.095 237.018 142.095C236.666 142.095 236.381 142.381 236.381 142.733C236.381 143.085 236.666 143.37 237.018 143.37Z" fill="#F8F8F8"/>
<path d="M261.762 143.333C262.104 143.333 262.381 143.056 262.381 142.714C262.381 142.372 262.104 142.095 261.762 142.095C261.42 142.095 261.143 142.372 261.143 142.714C261.143 143.056 261.42 143.333 261.762 143.333Z" fill="#F8F8F8"/>
<path d="M286.523 143.333C286.865 143.333 287.142 143.056 287.142 142.714C287.142 142.372 286.865 142.095 286.523 142.095C286.181 142.095 285.904 142.372 285.904 142.714C285.904 143.056 286.181 143.333 286.523 143.333Z" fill="#F8F8F8"/>
<path d="M311.285 143.333C311.627 143.333 311.904 143.056 311.904 142.714C311.904 142.372 311.627 142.095 311.285 142.095C310.943 142.095 310.666 142.372 310.666 142.714C310.666 143.056 310.943 143.333 311.285 143.333Z" fill="#F8F8F8"/>
<path d="M336.047 143.333C336.389 143.333 336.666 143.056 336.666 142.714C336.666 142.372 336.389 142.095 336.047 142.095C335.705 142.095 335.428 142.372 335.428 142.714C335.428 143.056 335.705 143.333 336.047 143.333Z" fill="#F8F8F8"/>
<path d="M360.809 143.333C361.15 143.333 361.428 143.056 361.428 142.714C361.428 142.372 361.15 142.095 360.809 142.095C360.467 142.095 360.189 142.372 360.189 142.714C360.189 143.056 360.467 143.333 360.809 143.333Z" fill="#F8F8F8"/>
<path d="M385.57 143.333C385.912 143.333 386.189 143.056 386.189 142.714C386.189 142.372 385.912 142.095 385.57 142.095C385.228 142.095 384.951 142.372 384.951 142.714C384.951 143.056 385.228 143.333 385.57 143.333Z" fill="#F8F8F8"/>
<path d="M410.332 143.333C410.674 143.333 410.951 143.056 410.951 142.714C410.951 142.372 410.674 142.095 410.332 142.095C409.99 142.095 409.713 142.372 409.713 142.714C409.713 143.056 409.99 143.333 410.332 143.333Z" fill="#F8F8F8"/>
<path d="M435.094 143.333C435.436 143.333 435.713 143.056 435.713 142.714C435.713 142.372 435.436 142.095 435.094 142.095C434.752 142.095 434.475 142.372 434.475 142.714C434.475 143.056 434.752 143.333 435.094 143.333Z" fill="#F8F8F8"/>
<path d="M63.8988 169.18C64.7113 169.18 65.3699 168.522 65.3699 167.709C65.3699 166.897 64.7113 166.238 63.8988 166.238C63.0864 166.238 62.4277 166.897 62.4277 167.709C62.4277 168.522 63.0864 169.18 63.8988 169.18Z" fill="#F8F8F8"/>
<path d="M88.538 168.935C89.2828 168.935 89.8865 168.332 89.8865 167.587C89.8865 166.842 89.2828 166.238 88.538 166.238C87.7932 166.238 87.1895 166.842 87.1895 167.587C87.1895 168.332 87.7932 168.935 88.538 168.935Z" fill="#F8F8F8"/>
<path d="M113.796 169.309C114.473 169.309 115.022 168.76 115.022 168.083C115.022 167.406 114.473 166.857 113.796 166.857C113.119 166.857 112.57 167.406 112.57 168.083C112.57 168.76 113.119 169.309 113.796 169.309Z" fill="#F8F8F8"/>
<path d="M385.57 168.096C385.912 168.096 386.189 167.818 386.189 167.476C386.189 167.135 385.912 166.857 385.57 166.857C385.228 166.857 384.951 167.135 384.951 167.476C384.951 167.818 385.228 168.096 385.57 168.096Z" fill="#F8F8F8"/>
<path d="M410.332 168.096C410.674 168.096 410.951 167.818 410.951 167.476C410.951 167.135 410.674 166.857 410.332 166.857C409.99 166.857 409.713 167.135 409.713 167.476C409.713 167.818 409.99 168.096 410.332 168.096Z" fill="#F8F8F8"/>
<path d="M435.094 168.096C435.436 168.096 435.713 167.818 435.713 167.476C435.713 167.135 435.436 166.857 435.094 166.857C434.752 166.857 434.475 167.135 434.475 167.476C434.475 167.818 434.752 168.096 435.094 168.096Z" fill="#F8F8F8"/>
<path d="M63.7763 193.697C64.521 193.697 65.1248 193.093 65.1248 192.349C65.1248 191.604 64.521 191 63.7763 191C63.0315 191 62.4277 191.604 62.4277 192.349C62.4277 193.093 63.0315 193.697 63.7763 193.697Z" fill="#F8F8F8"/>
<path d="M88.4644 193.55C89.1686 193.55 89.7394 192.979 89.7394 192.275C89.7394 191.571 89.1686 191 88.4644 191C87.7603 191 87.1895 191.571 87.1895 192.275C87.1895 192.979 87.7603 193.55 88.4644 193.55Z" fill="#F8F8F8"/>
<path d="M113.747 193.973C114.397 193.973 114.924 193.447 114.924 192.797C114.924 192.147 114.397 191.62 113.747 191.62C113.097 191.62 112.57 192.147 112.57 192.797C112.57 193.447 113.097 193.973 113.747 193.973Z" fill="#F8F8F8"/>
<path d="M385.638 192.993C386.017 192.993 386.324 192.685 386.324 192.306C386.324 191.927 386.017 191.62 385.638 191.62C385.259 191.62 384.951 191.927 384.951 192.306C384.951 192.685 385.259 192.993 385.638 192.993Z" fill="#F8F8F8"/>
<path d="M410.332 192.857C410.674 192.857 410.951 192.58 410.951 192.238C410.951 191.896 410.674 191.619 410.332 191.619C409.99 191.619 409.713 191.896 409.713 192.238C409.713 192.58 409.99 192.857 410.332 192.857Z" fill="#F8F8F8"/>
<path d="M435.094 192.857C435.436 192.857 435.713 192.58 435.713 192.238C435.713 191.896 435.436 191.619 435.094 191.619C434.752 191.619 434.475 191.896 434.475 192.238C434.475 192.58 434.752 192.857 435.094 192.857Z" fill="#F8F8F8"/>
<path d="M63.7027 218.312C64.4069 218.312 64.9777 217.741 64.9777 217.037C64.9777 216.333 64.4069 215.762 63.7027 215.762C62.9986 215.762 62.4277 216.333 62.4277 217.037C62.4277 217.741 62.9986 218.312 63.7027 218.312Z" fill="#F8F8F8"/>
<path d="M89.0346 218.833C89.7116 218.833 90.2605 218.284 90.2605 217.607C90.2605 216.93 89.7116 216.381 89.0346 216.381C88.3575 216.381 87.8086 216.93 87.8086 217.607C87.8086 218.284 88.3575 218.833 89.0346 218.833Z" fill="#F8F8F8"/>
<path d="M113.747 218.735C114.397 218.735 114.924 218.208 114.924 217.558C114.924 216.908 114.397 216.381 113.747 216.381C113.097 216.381 112.57 216.908 112.57 217.558C112.57 218.208 113.097 218.735 113.747 218.735Z" fill="#F8F8F8"/>
<path d="M385.834 218.146C386.321 218.146 386.717 217.751 386.717 217.264C386.717 216.776 386.321 216.381 385.834 216.381C385.346 216.381 384.951 216.776 384.951 217.264C384.951 217.751 385.346 218.146 385.834 218.146Z" fill="#F8F8F8"/>
<path d="M410.498 217.95C410.931 217.95 411.282 217.599 411.282 217.166C411.282 216.732 410.931 216.381 410.498 216.381C410.064 216.381 409.713 216.732 409.713 217.166C409.713 217.599 410.064 217.95 410.498 217.95Z" fill="#F8F8F8"/>
<path d="M435.186 217.803C435.579 217.803 435.897 217.484 435.897 217.092C435.897 216.699 435.579 216.38 435.186 216.38C434.793 216.38 434.475 216.699 434.475 217.092C434.475 217.484 434.793 217.803 435.186 217.803Z" fill="#F8F8F8"/>
<path d="M64.2483 243.545C64.9119 243.545 65.4498 243.008 65.4498 242.344C65.4498 241.68 64.9119 241.143 64.2483 241.143C63.5848 241.143 63.0469 241.68 63.0469 242.344C63.0469 243.008 63.5848 243.545 64.2483 243.545Z" fill="#F8F8F8"/>
<path d="M88.9855 243.497C89.6355 243.497 90.1625 242.97 90.1625 242.32C90.1625 241.67 89.6355 241.144 88.9855 241.144C88.3355 241.144 87.8086 241.67 87.8086 242.32C87.8086 242.97 88.3355 243.497 88.9855 243.497Z" fill="#F8F8F8"/>
<path d="M113.747 243.497C114.397 243.497 114.924 242.97 114.924 242.32C114.924 241.67 114.397 241.144 113.747 241.144C113.097 241.144 112.57 241.67 112.57 242.32C112.57 242.97 113.097 243.497 113.747 243.497Z" fill="#F8F8F8"/>
<path d="M386.03 243.3C386.626 243.3 387.109 242.817 387.109 242.221C387.109 241.626 386.626 241.143 386.03 241.143C385.434 241.143 384.951 241.626 384.951 242.221C384.951 242.817 385.434 243.3 386.03 243.3Z" fill="#F8F8F8"/>
<path d="M410.694 243.105C411.235 243.105 411.675 242.666 411.675 242.124C411.675 241.582 411.235 241.143 410.694 241.143C410.152 241.143 409.713 241.582 409.713 242.124C409.713 242.666 410.152 243.105 410.694 243.105Z" fill="#F8F8F8"/>
<path d="M435.333 242.86C435.807 242.86 436.191 242.475 436.191 242.001C436.191 241.527 435.807 241.143 435.333 241.143C434.859 241.143 434.475 241.527 434.475 242.001C434.475 242.475 434.859 242.86 435.333 242.86Z" fill="#F8F8F8"/>
<path d="M64.2238 268.259C64.8738 268.259 65.4007 267.732 65.4007 267.082C65.4007 266.432 64.8738 265.905 64.2238 265.905C63.5738 265.905 63.0469 266.432 63.0469 267.082C63.0469 267.732 63.5738 268.259 64.2238 268.259Z" fill="#F8F8F8"/>
<path d="M88.9855 268.259C89.6355 268.259 90.1625 267.732 90.1625 267.082C90.1625 266.432 89.6355 265.905 88.9855 265.905C88.3355 265.905 87.8086 266.432 87.8086 267.082C87.8086 267.732 88.3355 268.259 88.9855 268.259Z" fill="#F8F8F8"/>
<path d="M113.772 268.307C114.435 268.307 114.973 267.769 114.973 267.106C114.973 266.442 114.435 265.904 113.772 265.904C113.108 265.904 112.57 266.442 112.57 267.106C112.57 267.769 113.108 268.307 113.772 268.307Z" fill="#F8F8F8"/>
<path d="M385.583 267.787C386.273 267.787 386.833 267.227 386.833 266.536C386.833 265.845 386.273 265.286 385.583 265.286C384.892 265.286 384.332 265.845 384.332 266.536C384.332 267.227 384.892 267.787 385.583 267.787Z" fill="#F8F8F8"/>
<path d="M410.841 268.161C411.464 268.161 411.969 267.656 411.969 267.033C411.969 266.41 411.464 265.905 410.841 265.905C410.218 265.905 409.713 266.41 409.713 267.033C409.713 267.656 410.218 268.161 410.841 268.161Z" fill="#F8F8F8"/>
<path d="M435.48 267.915C436.035 267.915 436.485 267.465 436.485 266.91C436.485 266.355 436.035 265.905 435.48 265.905C434.925 265.905 434.475 266.355 434.475 266.91C434.475 267.465 434.925 267.915 435.48 267.915Z" fill="#F8F8F8"/>
<path d="M64.1748 292.922C64.7977 292.922 65.3027 292.417 65.3027 291.794C65.3027 291.171 64.7977 290.667 64.1748 290.667C63.5519 290.667 63.0469 291.171 63.0469 291.794C63.0469 292.417 63.5519 292.922 64.1748 292.922Z" fill="#F8F8F8"/>
<path d="M88.9855 293.021C89.6355 293.021 90.1625 292.494 90.1625 291.844C90.1625 291.194 89.6355 290.667 88.9855 290.667C88.3355 290.667 87.8086 291.194 87.8086 291.844C87.8086 292.494 88.3355 293.021 88.9855 293.021Z" fill="#F8F8F8"/>
<path d="M113.796 293.118C114.473 293.118 115.022 292.57 115.022 291.892C115.022 291.215 114.473 290.667 113.796 290.667C113.119 290.667 112.57 291.215 112.57 291.892C112.57 292.57 113.119 293.118 113.796 293.118Z" fill="#F8F8F8"/>
<path d="M385.681 292.745C386.425 292.745 387.029 292.141 387.029 291.396C387.029 290.652 386.425 290.048 385.681 290.048C384.936 290.048 384.332 290.652 384.332 291.396C384.332 292.141 384.936 292.745 385.681 292.745Z" fill="#F8F8F8"/>
<path d="M410.344 292.549C411.035 292.549 411.595 291.989 411.595 291.298C411.595 290.608 411.035 290.048 410.344 290.048C409.654 290.048 409.094 290.608 409.094 291.298C409.094 291.989 409.654 292.549 410.344 292.549Z" fill="#F8F8F8"/>
<path d="M435.603 292.922C436.225 292.922 436.73 292.417 436.73 291.794C436.73 291.171 436.225 290.667 435.603 290.667C434.98 290.667 434.475 291.171 434.475 291.794C434.475 292.417 434.98 292.922 435.603 292.922Z" fill="#F8F8F8"/>
<path d="M64.1748 317.685C64.7977 317.685 65.3027 317.18 65.3027 316.557C65.3027 315.934 64.7977 315.429 64.1748 315.429C63.5519 315.429 63.0469 315.934 63.0469 316.557C63.0469 317.18 63.5519 317.685 64.1748 317.685Z" fill="#F8F8F8"/>
<path opacity="0.5" d="M88.9855 317.783C89.6355 317.783 90.1625 317.256 90.1625 316.606C90.1625 315.956 89.6355 315.429 88.9855 315.429C88.3355 315.429 87.8086 315.956 87.8086 316.606C87.8086 317.256 88.3355 317.783 88.9855 317.783Z" fill="#F8F8F8"/>
<path opacity="0.5" d="M113.226 317.36C113.93 317.36 114.501 316.789 114.501 316.085C114.501 315.38 113.93 314.81 113.226 314.81C112.522 314.81 111.951 315.38 111.951 316.085C111.951 316.789 112.522 317.36 113.226 317.36Z" fill="#F8F8F8"/>
<path d="M138.086 317.556C138.844 317.556 139.459 316.941 139.459 316.183C139.459 315.424 138.844 314.81 138.086 314.81C137.328 314.81 136.713 315.424 136.713 316.183C136.713 316.941 137.328 317.556 138.086 317.556Z" fill="#F8F8F8"/>
<path d="M162.921 317.702C163.72 317.702 164.368 317.055 164.368 316.256C164.368 315.457 163.72 314.809 162.921 314.809C162.122 314.809 161.475 315.457 161.475 316.256C161.475 317.055 162.122 317.702 162.921 317.702Z" fill="#F8F8F8"/>
<path d="M187.756 317.85C188.596 317.85 189.277 317.169 189.277 316.33C189.277 315.49 188.596 314.81 187.756 314.81C186.917 314.81 186.236 315.49 186.236 316.33C186.236 317.169 186.917 317.85 187.756 317.85Z" fill="#F8F8F8"/>
<path d="M311.665 318.046C312.559 318.046 313.283 317.321 313.283 316.428C313.283 315.534 312.559 314.81 311.665 314.81C310.771 314.81 310.047 315.534 310.047 316.428C310.047 317.321 310.771 318.046 311.665 318.046Z" fill="#F8F8F8"/>
<path d="M336.402 317.997C337.282 317.997 337.996 317.283 337.996 316.403C337.996 315.523 337.282 314.81 336.402 314.81C335.522 314.81 334.809 315.523 334.809 316.403C334.809 317.283 335.522 317.997 336.402 317.997Z" fill="#F8F8F8"/>
<path d="M361.115 317.899C361.968 317.899 362.66 317.208 362.66 316.355C362.66 315.502 361.968 314.81 361.115 314.81C360.262 314.81 359.57 315.502 359.57 316.355C359.57 317.208 360.262 317.899 361.115 317.899Z" fill="#F8F8F8"/>
<path d="M385.828 317.801C386.654 317.801 387.323 317.131 387.323 316.305C387.323 315.479 386.654 314.81 385.828 314.81C385.002 314.81 384.332 315.479 384.332 316.305C384.332 317.131 385.002 317.801 385.828 317.801Z" fill="#F8F8F8"/>
<path d="M410.467 317.556C411.225 317.556 411.84 316.941 411.84 316.183C411.84 315.424 411.225 314.81 410.467 314.81C409.708 314.81 409.094 315.424 409.094 316.183C409.094 316.941 409.708 317.556 410.467 317.556Z" fill="#F8F8F8"/>
<path d="M435.106 317.311C435.797 317.311 436.356 316.751 436.356 316.06C436.356 315.369 435.797 314.81 435.106 314.81C434.415 314.81 433.855 315.369 433.855 316.06C433.855 316.751 434.415 317.311 435.106 317.311Z" fill="#F8F8F8"/>
<path d="M64.1503 342.397C64.7597 342.397 65.2537 341.903 65.2537 341.294C65.2537 340.684 64.7597 340.19 64.1503 340.19C63.5409 340.19 63.0469 340.684 63.0469 341.294C63.0469 341.903 63.5409 342.397 64.1503 342.397Z" fill="#F8F8F8"/>
<path opacity="0.5" d="M89.01 342.593C89.6736 342.593 90.2115 342.055 90.2115 341.391C90.2115 340.728 89.6736 340.19 89.01 340.19C88.3465 340.19 87.8086 340.728 87.8086 341.391C87.8086 342.055 88.3465 342.593 89.01 342.593Z" fill="#F8F8F8"/>
<path opacity="0.5" d="M113.251 342.171C113.968 342.171 114.55 341.589 114.55 340.871C114.55 340.154 113.968 339.572 113.251 339.572C112.533 339.572 111.951 340.154 111.951 340.871C111.951 341.589 112.533 342.171 113.251 342.171Z" fill="#F8F8F8"/>
<path d="M138.135 342.416C138.92 342.416 139.557 341.779 139.557 340.994C139.557 340.208 138.92 339.572 138.135 339.572C137.35 339.572 136.713 340.208 136.713 340.994C136.713 341.779 137.35 342.416 138.135 342.416Z" fill="#F8F8F8"/>
<path d="M162.995 342.612C163.834 342.612 164.515 341.931 164.515 341.091C164.515 340.252 163.834 339.571 162.995 339.571C162.155 339.571 161.475 340.252 161.475 341.091C161.475 341.931 162.155 342.612 162.995 342.612Z" fill="#F8F8F8"/>
<path d="M187.855 342.808C188.748 342.808 189.473 342.083 189.473 341.189C189.473 340.296 188.748 339.571 187.855 339.571C186.961 339.571 186.236 340.296 186.236 341.189C186.236 342.083 186.961 342.808 187.855 342.808Z" fill="#F8F8F8"/>
<path d="M311.788 343.053C312.749 343.053 313.528 342.273 313.528 341.312C313.528 340.351 312.749 339.571 311.788 339.571C310.826 339.571 310.047 340.351 310.047 341.312C310.047 342.273 310.826 343.053 311.788 343.053Z" fill="#F8F8F8"/>
<path d="M336.525 343.004C337.473 343.004 338.241 342.235 338.241 341.288C338.241 340.34 337.473 339.571 336.525 339.571C335.577 339.571 334.809 340.34 334.809 341.288C334.809 342.235 335.577 343.004 336.525 343.004Z" fill="#F8F8F8"/>
<path d="M361.238 342.906C362.158 342.906 362.905 342.16 362.905 341.239C362.905 340.318 362.158 339.572 361.238 339.572C360.317 339.572 359.57 340.318 359.57 341.239C359.57 342.16 360.317 342.906 361.238 342.906Z" fill="#F8F8F8"/>
<path d="M385.926 342.759C386.806 342.759 387.519 342.045 387.519 341.165C387.519 340.285 386.806 339.571 385.926 339.571C385.046 339.571 384.332 340.285 384.332 341.165C384.332 342.045 385.046 342.759 385.926 342.759Z" fill="#F8F8F8"/>
<path d="M410.589 342.563C411.415 342.563 412.085 341.893 412.085 341.067C412.085 340.241 411.415 339.571 410.589 339.571C409.763 339.571 409.094 340.241 409.094 341.067C409.094 341.893 409.763 342.563 410.589 342.563Z" fill="#F8F8F8"/>
<path d="M435.204 342.268C435.949 342.268 436.553 341.665 436.553 340.92C436.553 340.175 435.949 339.571 435.204 339.571C434.459 339.571 433.855 340.175 433.855 340.92C433.855 341.665 434.459 342.268 435.204 342.268Z" fill="#F8F8F8"/>
<path opacity="0.5" d="M64.1748 367.208C64.7977 367.208 65.3027 366.703 65.3027 366.081C65.3027 365.458 64.7977 364.953 64.1748 364.953C63.5519 364.953 63.0469 365.458 63.0469 366.081C63.0469 366.703 63.5519 367.208 64.1748 367.208Z" fill="#F8F8F8"/>
<path opacity="0.5" d="M89.0346 367.405C89.7116 367.405 90.2605 366.856 90.2605 366.179C90.2605 365.502 89.7116 364.953 89.0346 364.953C88.3575 364.953 87.8086 365.502 87.8086 366.179C87.8086 366.856 88.3575 367.405 89.0346 367.405Z" fill="#F8F8F8"/>
<path opacity="0.5" d="M113.3 367.031C114.044 367.031 114.648 366.427 114.648 365.682C114.648 364.937 114.044 364.333 113.3 364.333C112.555 364.333 111.951 364.937 111.951 365.682C111.951 366.427 112.555 367.031 113.3 367.031Z" fill="#F8F8F8"/>
<path d="M138.184 367.276C138.996 367.276 139.655 366.617 139.655 365.805C139.655 364.992 138.996 364.333 138.184 364.333C137.372 364.333 136.713 364.992 136.713 365.805C136.713 366.617 137.372 367.276 138.184 367.276Z" fill="#F8F8F8"/>
<path d="M163.044 367.471C163.91 367.471 164.613 366.769 164.613 365.902C164.613 365.036 163.91 364.333 163.044 364.333C162.177 364.333 161.475 365.036 161.475 365.902C161.475 366.769 162.177 367.471 163.044 367.471Z" fill="#F8F8F8"/>
<path d="M187.904 367.668C188.824 367.668 189.571 366.922 189.571 366.001C189.571 365.08 188.824 364.334 187.904 364.334C186.983 364.334 186.236 365.08 186.236 366.001C186.236 366.922 186.983 367.668 187.904 367.668Z" fill="#F8F8F8"/>
<path d="M311.861 367.962C312.863 367.962 313.675 367.149 313.675 366.147C313.675 365.145 312.863 364.333 311.861 364.333C310.859 364.333 310.047 365.145 310.047 366.147C310.047 367.149 310.859 367.962 311.861 367.962Z" fill="#F8F8F8"/>
<path d="M336.598 367.914C337.587 367.914 338.388 367.112 338.388 366.124C338.388 365.135 337.587 364.334 336.598 364.334C335.61 364.334 334.809 365.135 334.809 366.124C334.809 367.112 335.61 367.914 336.598 367.914Z" fill="#F8F8F8"/>
<path opacity="0.3" d="M361.311 367.815C362.272 367.815 363.052 367.036 363.052 366.074C363.052 365.113 362.272 364.333 361.311 364.333C360.35 364.333 359.57 365.113 359.57 366.074C359.57 367.036 360.35 367.815 361.311 367.815Z" fill="#F8F8F8"/>
<path opacity="0.3" d="M386.024 367.716C386.958 367.716 387.715 366.959 387.715 366.025C387.715 365.09 386.958 364.333 386.024 364.333C385.089 364.333 384.332 365.09 384.332 366.025C384.332 366.959 385.089 367.716 386.024 367.716Z" fill="#F8F8F8"/>
<path opacity="0.3" d="M410.687 367.521C411.568 367.521 412.281 366.807 412.281 365.927C412.281 365.047 411.568 364.333 410.687 364.333C409.807 364.333 409.094 365.047 409.094 365.927C409.094 366.807 409.807 367.521 410.687 367.521Z" fill="#F8F8F8"/>
<path d="M435.302 367.226C436.101 367.226 436.749 366.579 436.749 365.78C436.749 364.981 436.101 364.333 435.302 364.333C434.503 364.333 433.855 364.981 433.855 365.78C433.855 366.579 434.503 367.226 435.302 367.226Z" fill="#F8F8F8"/>
<path opacity="0.5" d="M64.1993 392.019C64.8358 392.019 65.3517 391.503 65.3517 390.867C65.3517 390.23 64.8358 389.714 64.1993 389.714C63.5628 389.714 63.0469 390.23 63.0469 390.867C63.0469 391.503 63.5628 392.019 64.1993 392.019Z" fill="#F8F8F8"/>
<path opacity="0.5" d="M88.4399 391.596C89.1306 391.596 89.6904 391.036 89.6904 390.346C89.6904 389.655 89.1306 389.095 88.4399 389.095C87.7493 389.095 87.1895 389.655 87.1895 390.346C87.1895 391.036 87.7493 391.596 88.4399 391.596Z" fill="#F8F8F8"/>
<path opacity="0.5" d="M113.324 391.841C114.083 391.841 114.697 391.227 114.697 390.468C114.697 389.71 114.083 389.095 113.324 389.095C112.566 389.095 111.951 389.71 111.951 390.468C111.951 391.227 112.566 391.841 113.324 391.841Z" fill="#F8F8F8"/>
<path d="M138.209 392.086C139.035 392.086 139.704 391.417 139.704 390.591C139.704 389.765 139.035 389.095 138.209 389.095C137.383 389.095 136.713 389.765 136.713 390.591C136.713 391.417 137.383 392.086 138.209 392.086Z" fill="#F8F8F8"/>
<path d="M163.068 392.283C163.948 392.283 164.662 391.569 164.662 390.689C164.662 389.809 163.948 389.095 163.068 389.095C162.188 389.095 161.475 389.809 161.475 390.689C161.475 391.569 162.188 392.283 163.068 392.283Z" fill="#F8F8F8"/>
<path opacity="0.3" d="M187.928 392.478C188.862 392.478 189.62 391.721 189.62 390.786C189.62 389.852 188.862 389.095 187.928 389.095C186.994 389.095 186.236 389.852 186.236 390.786C186.236 391.721 186.994 392.478 187.928 392.478Z" fill="#F8F8F8"/>
<path opacity="0.3" d="M212.765 392.626C213.74 392.626 214.531 391.835 214.531 390.86C214.531 389.886 213.74 389.095 212.765 389.095C211.79 389.095 211 389.886 211 390.86C211 391.835 211.79 392.626 212.765 392.626Z" fill="#F8F8F8"/>
<path opacity="0.3" d="M237.576 392.723C238.578 392.723 239.39 391.911 239.39 390.909C239.39 389.907 238.578 389.095 237.576 389.095C236.574 389.095 235.762 389.907 235.762 390.909C235.762 391.911 236.574 392.723 237.576 392.723Z" fill="#F8F8F8"/>
<path opacity="0.3" d="M262.362 392.773C263.378 392.773 264.201 391.95 264.201 390.934C264.201 389.918 263.378 389.095 262.362 389.095C261.347 389.095 260.523 389.918 260.523 390.934C260.523 391.95 261.347 392.773 262.362 392.773Z" fill="#F8F8F8"/>
<path opacity="0.3" d="M286.529 392.203C287.558 392.203 288.393 391.369 288.393 390.339C288.393 389.31 287.558 388.476 286.529 388.476C285.5 388.476 284.666 389.31 284.666 390.339C284.666 391.369 285.5 392.203 286.529 392.203Z" fill="#F8F8F8"/>
<path opacity="0.3" d="M311.291 392.203C312.32 392.203 313.154 391.369 313.154 390.339C313.154 389.31 312.32 388.476 311.291 388.476C310.262 388.476 309.428 389.31 309.428 390.339C309.428 391.369 310.262 392.203 311.291 392.203Z" fill="#F8F8F8"/>
<path d="M336.647 392.773C337.663 392.773 338.486 391.95 338.486 390.934C338.486 389.918 337.663 389.095 336.647 389.095C335.632 389.095 334.809 389.918 334.809 390.934C334.809 391.95 335.632 392.773 336.647 392.773Z" fill="#F8F8F8"/>
<path opacity="0.3" d="M361.385 392.723C362.387 392.723 363.199 391.911 363.199 390.909C363.199 389.907 362.387 389.095 361.385 389.095C360.383 389.095 359.57 389.907 359.57 390.909C359.57 391.911 360.383 392.723 361.385 392.723Z" fill="#F8F8F8"/>
<path opacity="0.3" d="M386.097 392.626C387.072 392.626 387.863 391.835 387.863 390.86C387.863 389.886 387.072 389.095 386.097 389.095C385.122 389.095 384.332 389.886 384.332 390.86C384.332 391.835 385.122 392.626 386.097 392.626Z" fill="#F8F8F8"/>
<path opacity="0.3" d="M410.761 392.43C411.682 392.43 412.428 391.684 412.428 390.763C412.428 389.842 411.682 389.096 410.761 389.096C409.84 389.096 409.094 389.842 409.094 390.763C409.094 391.684 409.84 392.43 410.761 392.43Z" fill="#F8F8F8"/>
<path d="M435.4 392.185C436.253 392.185 436.945 391.493 436.945 390.64C436.945 389.787 436.253 389.096 435.4 389.096C434.547 389.096 433.855 389.787 433.855 390.64C433.855 391.493 434.547 392.185 435.4 392.185Z" fill="#F8F8F8"/>
<path opacity="0.5" d="M64.2728 416.928C64.9499 416.928 65.4988 416.379 65.4988 415.702C65.4988 415.025 64.9499 414.476 64.2728 414.476C63.5958 414.476 63.0469 415.025 63.0469 415.702C63.0469 416.379 63.5958 416.928 64.2728 416.928Z" fill="#F8F8F8"/>
<path opacity="0.5" d="M88.4644 416.407C89.1686 416.407 89.7394 415.837 89.7394 415.132C89.7394 414.428 89.1686 413.857 88.4644 413.857C87.7603 413.857 87.1895 414.428 87.1895 415.132C87.1895 415.837 87.7603 416.407 88.4644 416.407Z" fill="#F8F8F8"/>
<path opacity="0.5" d="M113.349 416.653C114.121 416.653 114.746 416.027 114.746 415.255C114.746 414.483 114.121 413.857 113.349 413.857C112.577 413.857 111.951 414.483 111.951 415.255C111.951 416.027 112.577 416.653 113.349 416.653Z" fill="#F8F8F8"/>
<path d="M138.209 416.849C139.035 416.849 139.704 416.179 139.704 415.353C139.704 414.527 139.035 413.857 138.209 413.857C137.383 413.857 136.713 414.527 136.713 415.353C136.713 416.179 137.383 416.849 138.209 416.849Z" fill="#F8F8F8"/>
<path d="M163.068 417.045C163.948 417.045 164.662 416.331 164.662 415.451C164.662 414.571 163.948 413.857 163.068 413.857C162.188 413.857 161.475 414.571 161.475 415.451C161.475 416.331 162.188 417.045 163.068 417.045Z" fill="#F8F8F8"/>
<path opacity="0.3" d="M187.928 417.24C188.862 417.24 189.62 416.482 189.62 415.548C189.62 414.614 188.862 413.856 187.928 413.856C186.994 413.856 186.236 414.614 186.236 415.548C186.236 416.482 186.994 417.24 187.928 417.24Z" fill="#F8F8F8"/>
<path opacity="0.3" d="M212.765 417.388C213.74 417.388 214.531 416.598 214.531 415.623C214.531 414.648 213.74 413.857 212.765 413.857C211.79 413.857 211 414.648 211 415.623C211 416.598 211.79 417.388 212.765 417.388Z" fill="#F8F8F8"/>
<path opacity="0.3" d="M237.576 417.485C238.578 417.485 239.39 416.673 239.39 415.671C239.39 414.669 238.578 413.856 237.576 413.856C236.574 413.856 235.762 414.669 235.762 415.671C235.762 416.673 236.574 417.485 237.576 417.485Z" fill="#F8F8F8"/>
<path opacity="0.3" d="M262.362 417.535C263.378 417.535 264.201 416.712 264.201 415.696C264.201 414.681 263.378 413.857 262.362 413.857C261.347 413.857 260.523 414.681 260.523 415.696C260.523 416.712 261.347 417.535 262.362 417.535Z" fill="#F8F8F8"/>
<path opacity="0.3" d="M286.529 416.965C287.558 416.965 288.393 416.131 288.393 415.102C288.393 414.073 287.558 413.238 286.529 413.238C285.5 413.238 284.666 414.073 284.666 415.102C284.666 416.131 285.5 416.965 286.529 416.965Z" fill="#F8F8F8"/>
<path opacity="0.3" d="M311.291 416.965C312.32 416.965 313.154 416.131 313.154 415.102C313.154 414.073 312.32 413.238 311.291 413.238C310.262 413.238 309.428 414.073 309.428 415.102C309.428 416.131 310.262 416.965 311.291 416.965Z" fill="#F8F8F8"/>
<path d="M336.053 416.965C337.082 416.965 337.916 416.131 337.916 415.102C337.916 414.073 337.082 413.238 336.053 413.238C335.024 413.238 334.189 414.073 334.189 415.102C334.189 416.131 335.024 416.965 336.053 416.965Z" fill="#F8F8F8"/>
<path d="M360.815 416.965C361.844 416.965 362.678 416.131 362.678 415.102C362.678 414.073 361.844 413.238 360.815 413.238C359.785 413.238 358.951 414.073 358.951 415.102C358.951 416.131 359.785 416.965 360.815 416.965Z" fill="#F8F8F8"/>
<path d="M386.146 417.485C387.148 417.485 387.961 416.673 387.961 415.671C387.961 414.669 387.148 413.856 386.146 413.856C385.144 413.856 384.332 414.669 384.332 415.671C384.332 416.673 385.144 417.485 386.146 417.485Z" fill="#F8F8F8"/>
<path d="M410.835 417.339C411.796 417.339 412.575 416.56 412.575 415.598C412.575 414.637 411.796 413.857 410.835 413.857C409.873 413.857 409.094 414.637 409.094 415.598C409.094 416.56 409.873 417.339 410.835 417.339Z" fill="#F8F8F8"/>
<path d="M435.474 417.094C436.367 417.094 437.092 416.369 437.092 415.476C437.092 414.582 436.367 413.857 435.474 413.857C434.58 413.857 433.855 414.582 433.855 415.476C433.855 416.369 434.58 417.094 435.474 417.094Z" fill="#F8F8F8"/>
</g>
</g>
</g>
<g filter="url(#filter1_i_260_1994)">
<g style="mix-blend-mode:luminosity">
<path d="M306.952 165.619H193.047C180.739 165.619 170.762 175.597 170.762 187.905V270.857C170.762 283.165 180.739 293.143 193.047 293.143H306.952C319.26 293.143 329.238 283.165 329.238 270.857V187.905C329.238 175.597 319.26 165.619 306.952 165.619Z" fill="#282828" fill-opacity="0.7"/>
</g>
<path d="M306.953 166.548H193.049C181.253 166.548 171.691 176.11 171.691 187.905V270.857C171.691 282.653 181.253 292.215 193.049 292.215H306.953C318.749 292.215 328.31 282.653 328.31 270.857V187.905C328.31 176.11 318.749 166.548 306.953 166.548Z" stroke="url(#paint1_linear_260_1994)" stroke-opacity="0.25" strokeWidth="1.85714"/>
</g>
<g filter="url(#filter2_d_260_1994)">
<g style="mix-blend-mode:luminosity">
<path d="M306.951 173.047H193.047C184.841 173.047 178.189 179.699 178.189 187.905V252.285C178.189 260.491 184.841 267.143 193.047 267.143H306.951C315.157 267.143 321.809 260.491 321.809 252.285V187.905C321.809 179.699 315.157 173.047 306.951 173.047Z" fill="#F8F8F8" fill-opacity="0.05"/>
</g>
<path d="M306.951 173.976H193.046C185.353 173.976 179.117 180.212 179.117 187.905V252.286C179.117 259.978 185.353 266.214 193.046 266.214H306.951C314.643 266.214 320.879 259.978 320.879 252.286V187.905C320.879 180.212 314.643 173.976 306.951 173.976Z" stroke="url(#paint2_linear_260_1994)" stroke-opacity="0.25" strokeWidth="1.85714"/>
</g>
<g filter="url(#filter3_i_260_1994)">
<g style="mix-blend-mode:luminosity">
<path fillRule="evenodd" clipRule="evenodd" d="M239.105 278.086C234.123 278.086 229.388 274.086 224.407 274.086H165.809C161.706 274.086 158.381 277.411 158.381 281.515V286.467C158.381 290.57 161.706 293.895 165.809 293.895H334.19C338.293 293.895 341.619 290.57 341.619 286.467V281.515C341.619 277.411 338.293 274.086 334.19 274.086H275.594C270.612 274.086 265.877 278.086 260.895 278.086H239.105Z" fill="#282828" fill-opacity="0.7"/>
</g>
<mask id="mask2_260_1994" style="mask-type:luminance" maskUnits="userSpaceOnUse" x="158" y="274" width="184" height="20">
<path fillRule="evenodd" clipRule="evenodd" d="M239.105 278.086C234.123 278.086 229.388 274.086 224.407 274.086H165.809C161.706 274.086 158.381 277.411 158.381 281.515V286.467C158.381 290.57 161.706 293.895 165.809 293.895H334.19C338.293 293.895 341.619 290.57 341.619 286.467V281.515C341.619 277.411 338.293 274.086 334.19 274.086H275.594C270.612 274.086 265.877 278.086 260.895 278.086H239.105Z" fill="white"/>
</mask>
<g mask="url(#mask2_260_1994)">
<path d="M165.809 275.943H224.407V272.229H165.809V275.943ZM160.238 281.514C160.238 278.438 162.732 275.943 165.809 275.943V272.229C160.681 272.229 156.523 276.386 156.523 281.514H160.238ZM160.238 286.467V281.514H156.523V286.467H160.238ZM165.809 292.038C162.732 292.038 160.238 289.543 160.238 286.467H156.523C156.523 291.595 160.681 295.752 165.809 295.752V292.038ZM334.19 292.038H165.809V295.752H334.19V292.038ZM339.762 286.467C339.762 289.543 337.267 292.038 334.19 292.038V295.752C339.318 295.752 343.476 291.595 343.476 286.467H339.762ZM339.762 281.514V286.467H343.476V281.514H339.762ZM334.19 275.943C337.267 275.943 339.762 278.438 339.762 281.514H343.476C343.476 276.386 339.318 272.229 334.19 272.229V275.943ZM275.594 275.943H334.19V272.229H275.594V275.943ZM260.895 276.229H239.104V279.943H260.895V276.229ZM275.594 272.229C272.668 272.229 269.89 273.4 267.537 274.368C265.031 275.399 262.953 276.229 260.895 276.229V279.943C263.819 279.943 266.598 278.772 268.951 277.804C271.456 276.772 273.536 275.943 275.594 275.943V272.229ZM224.407 275.943C226.463 275.943 228.543 276.772 231.048 277.804C233.402 278.772 236.18 279.943 239.104 279.943V276.229C237.047 276.229 234.968 275.399 232.462 274.368C230.11 273.4 227.331 272.229 224.407 272.229V275.943Z" fill="url(#paint3_linear_260_1994)" fill-opacity="0.25"/>
</g>
</g>
<g filter="url(#filter4_i_260_1994)">
<g style="mix-blend-mode:luminosity">
<path fillRule="evenodd" clipRule="evenodd" d="M239.105 278.086C234.123 278.086 229.388 274.086 224.407 274.086H165.809C161.706 274.086 158.381 277.411 158.381 281.515V286.467C158.381 290.57 161.706 293.895 165.809 293.895H334.19C338.293 293.895 341.619 290.57 341.619 286.467V281.515C341.619 277.411 338.293 274.086 334.19 274.086H275.594C270.612 274.086 265.877 278.086 260.895 278.086H239.105Z" fill="#282828" fill-opacity="0.7"/>
</g>
<mask id="mask3_260_1994" style="mask-type:luminance" maskUnits="userSpaceOnUse" x="158" y="274" width="184" height="20">
<path fillRule="evenodd" clipRule="evenodd" d="M239.105 278.086C234.123 278.086 229.388 274.086 224.407 274.086H165.809C161.706 274.086 158.381 277.411 158.381 281.515V286.467C158.381 290.57 161.706 293.895 165.809 293.895H334.19C338.293 293.895 341.619 290.57 341.619 286.467V281.515C341.619 277.411 338.293 274.086 334.19 274.086H275.594C270.612 274.086 265.877 278.086 260.895 278.086H239.105Z" fill="white"/>
</mask>
<g mask="url(#mask3_260_1994)">
<path d="M165.809 275.943H224.407V272.229H165.809V275.943ZM160.238 281.514C160.238 278.438 162.732 275.943 165.809 275.943V272.229C160.681 272.229 156.523 276.386 156.523 281.514H160.238ZM160.238 286.467V281.514H156.523V286.467H160.238ZM165.809 292.038C162.732 292.038 160.238 289.543 160.238 286.467H156.523C156.523 291.595 160.681 295.752 165.809 295.752V292.038ZM334.19 292.038H165.809V295.752H334.19V292.038ZM339.762 286.467C339.762 289.543 337.267 292.038 334.19 292.038V295.752C339.318 295.752 343.476 291.595 343.476 286.467H339.762ZM339.762 281.514V286.467H343.476V281.514H339.762ZM334.19 275.943C337.267 275.943 339.762 278.438 339.762 281.514H343.476C343.476 276.386 339.318 272.229 334.19 272.229V275.943ZM275.594 275.943H334.19V272.229H275.594V275.943ZM260.895 276.229H239.104V279.943H260.895V276.229ZM275.594 272.229C272.668 272.229 269.89 273.4 267.537 274.368C265.031 275.399 262.953 276.229 260.895 276.229V279.943C263.819 279.943 266.598 278.772 268.951 277.804C271.456 276.772 273.536 275.943 275.594 275.943V272.229ZM224.407 275.943C226.463 275.943 228.543 276.772 231.048 277.804C233.402 278.772 236.18 279.943 239.104 279.943V276.229C237.047 276.229 234.968 275.399 232.462 274.368C230.11 273.4 227.331 272.229 224.407 272.229V275.943Z" fill="url(#paint4_linear_260_1994)" fill-opacity="0.25"/>
</g>
</g>
<mask id="mask4_260_1994" style="mask-type:alpha" maskUnits="userSpaceOnUse" x="-3" y="173" width="506" height="95">
<path d="M502.573 173.047H-2.57031V267.143H502.573V173.047Z" fill="url(#paint5_linear_260_1994)"/>
</mask>
<g mask="url(#mask4_260_1994)">
<g filter="url(#filter5_i_260_1994)">
<g style="mix-blend-mode:luminosity">
<path d="M61.8106 180.476H12.2868C4.08146 180.476 -2.57031 187.128 -2.57031 195.333V244.857C-2.57031 253.062 4.08146 259.714 12.2868 259.714H61.8106C70.016 259.714 76.6678 253.062 76.6678 244.857V195.333C76.6678 187.128 70.016 180.476 61.8106 180.476Z" fill="white" fill-opacity="0.01"/>
</g>
<path d="M61.8098 181.405H12.286C4.59346 181.405 -1.64258 187.641 -1.64258 195.333V244.857C-1.64258 252.55 4.59346 258.786 12.286 258.786H61.8098C69.5023 258.786 75.7384 252.55 75.7384 244.857V195.333C75.7384 187.641 69.5023 181.405 61.8098 181.405Z" stroke="url(#paint6_linear_260_1994)" stroke-opacity="0.25" strokeWidth="1.85714"/>
<path opacity="0.5" d="M45.7157 195.333H13.5252C12.8414 195.333 12.2871 195.887 12.2871 196.571V199.047C12.2871 199.731 12.8414 200.285 13.5252 200.285H45.7157C46.3995 200.285 46.9538 199.731 46.9538 199.047V196.571C46.9538 195.887 46.3995 195.333 45.7157 195.333Z" fill="#F8F8F8"/>
<path opacity="0.1" d="M60.5728 204H13.5252C12.8414 204 12.2871 204.554 12.2871 205.238V207.714C12.2871 208.398 12.8414 208.952 13.5252 208.952H60.5728C61.2566 208.952 61.8109 208.398 61.8109 207.714V205.238C61.8109 204.554 61.2566 204 60.5728 204Z" fill="#F8F8F8"/>
<path opacity="0.1" d="M60.5728 212.667H13.5252C12.8414 212.667 12.2871 213.221 12.2871 213.905V216.381C12.2871 217.065 12.8414 217.619 13.5252 217.619H60.5728C61.2566 217.619 61.8109 217.065 61.8109 216.381V213.905C61.8109 213.221 61.2566 212.667 60.5728 212.667Z" fill="#F8F8F8"/>
</g>
<g filter="url(#filter6_i_260_1994)">
<g style="mix-blend-mode:luminosity">
<path d="M148.477 180.476H98.9528C90.7475 180.476 84.0957 187.128 84.0957 195.333V244.857C84.0957 253.062 90.7475 259.714 98.9528 259.714H148.477C156.682 259.714 163.334 253.062 163.334 244.857V195.333C163.334 187.128 156.682 180.476 148.477 180.476Z" fill="white" fill-opacity="0.01"/>
</g>
<path d="M148.476 181.405H98.952C91.2595 181.405 85.0234 187.641 85.0234 195.333V244.857C85.0234 252.55 91.2595 258.786 98.952 258.786H148.476C156.168 258.786 162.404 252.55 162.404 244.857V195.333C162.404 187.641 156.168 181.405 148.476 181.405Z" stroke="url(#paint7_linear_260_1994)" stroke-opacity="0.25" strokeWidth="1.85714"/>
<path opacity="0.5" d="M132.382 195.333H100.191C99.5074 195.333 98.9531 195.887 98.9531 196.571V199.047C98.9531 199.731 99.5074 200.285 100.191 200.285H132.382C133.065 200.285 133.62 199.731 133.62 199.047V196.571C133.62 195.887 133.065 195.333 132.382 195.333Z" fill="#F8F8F8"/>
<path opacity="0.1" d="M147.239 204H100.191C99.5074 204 98.9531 204.554 98.9531 205.238V207.714C98.9531 208.398 99.5074 208.952 100.191 208.952H147.239C147.923 208.952 148.477 208.398 148.477 207.714V205.238C148.477 204.554 147.923 204 147.239 204Z" fill="#F8F8F8"/>
<path opacity="0.1" d="M147.239 212.667H100.191C99.5074 212.667 98.9531 213.221 98.9531 213.905V216.381C98.9531 217.065 99.5074 217.619 100.191 217.619H147.239C147.923 217.619 148.477 217.065 148.477 216.381V213.905C148.477 213.221 147.923 212.667 147.239 212.667Z" fill="#F8F8F8"/>
</g>
<g filter="url(#filter7_di_260_1994)">
<g style="mix-blend-mode:luminosity">
<path d="M306.951 173.047H193.047C184.841 173.047 178.189 179.699 178.189 187.905V252.285C178.189 260.491 184.841 267.143 193.047 267.143H306.951C315.157 267.143 321.809 260.491 321.809 252.285V187.905C321.809 179.699 315.157 173.047 306.951 173.047Z" fill="white" fill-opacity="0.05"/>
</g>
<path d="M306.951 173.976H193.046C185.353 173.976 179.117 180.212 179.117 187.905V252.286C179.117 259.978 185.353 266.214 193.046 266.214H306.951C314.643 266.214 320.879 259.978 320.879 252.286V187.905C320.879 180.212 314.643 173.976 306.951 173.976Z" stroke="#F8F8F8" stroke-opacity="0.4" strokeWidth="1.85714"/>
<path opacity="0.5" d="M226.475 232.476H194.285C193.601 232.476 193.047 233.03 193.047 233.714V236.19C193.047 236.874 193.601 237.428 194.285 237.428H226.475C227.159 237.428 227.714 236.874 227.714 236.19V233.714C227.714 233.03 227.159 232.476 226.475 232.476Z" fill="#F8F8F8"/>
<path opacity="0.1" d="M256.19 239.904H194.285C193.601 239.904 193.047 240.459 193.047 241.142V243.619C193.047 244.302 193.601 244.857 194.285 244.857H256.19C256.874 244.857 257.428 244.302 257.428 243.619V241.142C257.428 240.459 256.874 239.904 256.19 239.904Z" fill="#F8F8F8"/>
<path opacity="0.1" d="M226.475 247.333H194.285C193.601 247.333 193.047 247.887 193.047 248.571V251.047C193.047 251.731 193.601 252.285 194.285 252.285H226.475C227.159 252.285 227.714 251.731 227.714 251.047V248.571C227.714 247.887 227.159 247.333 226.475 247.333Z" fill="#F8F8F8"/>
<g filter="url(#filter8_di_260_1994)">
<mask id="mask5_260_1994" style="mask-type:luminance" maskUnits="userSpaceOnUse" x="271" y="182" width="40" height="41">
<path d="M310.668 202.762C310.668 191.822 301.799 182.953 290.858 182.953C279.918 182.953 271.049 191.822 271.049 202.762C271.049 213.703 279.918 222.572 290.858 222.572C301.799 222.572 310.668 213.703 310.668 202.762Z" fill="white"/>
</mask>
<g mask="url(#mask5_260_1994)">
<path d="M310.668 202.762C310.668 191.822 301.799 182.953 290.858 182.953C279.918 182.953 271.049 191.822 271.049 202.762C271.049 213.703 279.918 222.572 290.858 222.572C301.799 222.572 310.668 213.703 310.668 202.762Z" fill="#F8F8F8" fill-opacity="0.01"/>
<g filter="url(#filter9_f_260_1994)">
<path d="M303.969 192.565C303.969 173.259 288.317 157.607 269.011 157.607C249.704 157.607 234.053 173.259 234.053 192.565C234.053 211.872 249.704 227.523 269.011 227.523C288.317 227.523 303.969 211.872 303.969 192.565Z" fill="#F8F8F8" fill-opacity="0.2"/>
</g>
<g filter="url(#filter10_dd_260_1994)">
<path fillRule="evenodd" clipRule="evenodd" d="M297.801 197.468C298.446 198.113 298.446 199.158 297.801 199.803L290.373 207.231C289.729 207.875 288.684 207.875 288.039 207.231L284.737 203.929C284.093 203.284 284.093 202.239 284.737 201.594C285.382 200.95 286.427 200.95 287.072 201.594L289.206 203.729L295.467 197.468C296.112 196.823 297.157 196.823 297.801 197.468Z" fill="url(#paint8_linear_260_1994)"/>
</g>
</g>
</g>
</g>
<g filter="url(#filter11_i_260_1994)">
<g style="mix-blend-mode:luminosity">
<path d="M401.049 180.476H351.525C343.32 180.476 336.668 187.128 336.668 195.333V244.857C336.668 253.062 343.32 259.714 351.525 259.714H401.049C409.254 259.714 415.906 253.062 415.906 244.857V195.333C415.906 187.128 409.254 180.476 401.049 180.476Z" fill="white" fill-opacity="0.01"/>
</g>
<path d="M401.048 181.405H351.524C343.832 181.405 337.596 187.641 337.596 195.333V244.857C337.596 252.55 343.832 258.786 351.524 258.786H401.048C408.741 258.786 414.977 252.55 414.977 244.857V195.333C414.977 187.641 408.741 181.405 401.048 181.405Z" stroke="url(#paint9_linear_260_1994)" stroke-opacity="0.25" strokeWidth="1.85714"/>
<path opacity="0.5" d="M384.954 195.333H352.763C352.08 195.333 351.525 195.887 351.525 196.571V199.047C351.525 199.731 352.08 200.285 352.763 200.285H384.954C385.638 200.285 386.192 199.731 386.192 199.047V196.571C386.192 195.887 385.638 195.333 384.954 195.333Z" fill="#F8F8F8"/>
<path opacity="0.1" d="M399.811 204H352.763C352.08 204 351.525 204.554 351.525 205.238V207.714C351.525 208.398 352.08 208.952 352.763 208.952H399.811C400.495 208.952 401.049 208.398 401.049 207.714V205.238C401.049 204.554 400.495 204 399.811 204Z" fill="#F8F8F8"/>
<path opacity="0.1" d="M399.811 212.667H352.763C352.08 212.667 351.525 213.221 351.525 213.905V216.381C351.525 217.065 352.08 217.619 352.763 217.619H399.811C400.495 217.619 401.049 217.065 401.049 216.381V213.905C401.049 213.221 400.495 212.667 399.811 212.667Z" fill="#F8F8F8"/>
</g>
<g filter="url(#filter12_i_260_1994)">
<g style="mix-blend-mode:luminosity">
<path d="M487.713 180.476H438.189C429.984 180.476 423.332 187.128 423.332 195.333V244.857C423.332 253.062 429.984 259.714 438.189 259.714H487.713C495.918 259.714 502.57 253.062 502.57 244.857V195.333C502.57 187.128 495.918 180.476 487.713 180.476Z" fill="white" fill-opacity="0.01"/>
</g>
<path d="M487.712 181.405H438.188C430.496 181.405 424.26 187.641 424.26 195.333V244.857C424.26 252.55 430.496 258.786 438.188 258.786H487.712C495.405 258.786 501.641 252.55 501.641 244.857V195.333C501.641 187.641 495.405 181.405 487.712 181.405Z" stroke="url(#paint10_linear_260_1994)" stroke-opacity="0.25" strokeWidth="1.85714"/>
<path opacity="0.5" d="M471.618 195.333H439.428C438.744 195.333 438.189 195.887 438.189 196.571V199.047C438.189 199.731 438.744 200.285 439.428 200.285H471.618C472.302 200.285 472.856 199.731 472.856 199.047V196.571C472.856 195.887 472.302 195.333 471.618 195.333Z" fill="#F8F8F8"/>
<path opacity="0.1" d="M486.475 204H439.428C438.744 204 438.189 204.554 438.189 205.238V207.714C438.189 208.398 438.744 208.952 439.428 208.952H486.475C487.159 208.952 487.713 208.398 487.713 207.714V205.238C487.713 204.554 487.159 204 486.475 204Z" fill="#F8F8F8"/>
<path opacity="0.1" d="M486.475 212.667H439.428C438.744 212.667 438.189 213.221 438.189 213.905V216.381C438.189 217.065 438.744 217.619 439.428 217.619H486.475C487.159 217.619 487.713 217.065 487.713 216.381V213.905C487.713 213.221 487.159 212.667 486.475 212.667Z" fill="#F8F8F8"/>
</g>
</g>
<mask id="mask6_260_1994" style="mask-type:alpha" maskUnits="userSpaceOnUse" x="28" y="-23" width="452" height="506">
<path d="M479.047 -22.5713H28.3809V482.572H479.047V-22.5713Z" fill="url(#paint11_linear_260_1994)"/>
</mask>
<g mask="url(#mask6_260_1994)">
<path opacity="0.1" d="M160.857 477.619V352.637C160.857 351.398 160.394 350.223 159.558 349.31L137.949 325.703C137.01 324.678 135.685 324.095 134.295 324.095H81.619H28.9425C27.5531 324.095 26.2276 324.678 25.2895 325.703L3.68024 349.31C2.84443 350.223 2.38086 351.398 2.38086 352.637V477.619C2.38086 480.355 4.59811 482.571 7.33324 482.571H155.905C158.64 482.571 160.857 480.355 160.857 477.619Z" fill="url(#paint12_linear_260_1994)"/>
<path opacity="0.5" d="M329.238 477.619V352.637C329.238 351.398 328.775 350.223 327.939 349.31L306.329 325.703C305.391 324.678 304.066 324.095 302.676 324.095H250H197.324C195.933 324.095 194.609 324.678 193.67 325.703L172.062 349.31C171.225 350.223 170.762 351.398 170.762 352.637V477.619C170.762 480.355 172.979 482.571 175.714 482.571H324.286C327.02 482.571 329.238 480.355 329.238 477.619Z" fill="url(#paint13_linear_260_1994)"/>
<path opacity="0.5" d="M329.238 477.619V352.637C329.238 351.398 328.775 350.223 327.939 349.31L306.329 325.703C305.391 324.678 304.066 324.095 302.676 324.095H250H197.324C195.933 324.095 194.609 324.678 193.67 325.703L172.062 349.31C171.225 350.223 170.762 351.398 170.762 352.637V477.619C170.762 480.355 172.979 482.571 175.714 482.571H324.286C327.02 482.571 329.238 480.355 329.238 477.619Z" stroke="url(#paint14_linear_260_1994)" strokeWidth="1.85714"/>
<path opacity="0.1" d="M497.619 477.619V352.637C497.619 351.398 497.156 350.223 496.32 349.31L474.71 325.703C473.772 324.678 472.447 324.095 471.057 324.095H418.381H365.705C364.314 324.095 362.99 324.678 362.051 325.703L340.443 349.31C339.606 350.223 339.143 351.398 339.143 352.637V477.619C339.143 480.355 341.36 482.571 344.095 482.571H492.666C495.401 482.571 497.619 480.355 497.619 477.619Z" fill="url(#paint15_linear_260_1994)"/>
<path opacity="0.1" d="M159.619 -17.62V107.363C159.619 108.601 159.156 109.776 158.32 110.689L136.71 134.296C135.772 135.321 134.447 135.904 133.057 135.904H80.3807H27.7042C26.3148 135.904 24.9893 135.321 24.0512 134.296L2.44196 110.689C1.60615 109.776 1.14258 108.601 1.14258 107.363V-17.62C1.14258 -20.3551 3.35983 -22.5718 6.09496 -22.5718H154.666C157.401 -22.5718 159.619 -20.3551 159.619 -17.62Z" fill="url(#paint16_linear_260_1994)"/>
<path opacity="0.5" d="M328 -17.62V107.363C328 108.601 327.537 109.776 326.701 110.689L305.091 134.296C304.153 135.321 302.828 135.904 301.438 135.904H248.762H196.086C194.695 135.904 193.37 135.321 192.432 134.296L170.823 110.689C169.986 109.776 169.523 108.601 169.523 107.363V-17.62C169.523 -20.3551 171.741 -22.5718 174.476 -22.5718H323.047C325.782 -22.5718 328 -20.3551 328 -17.62Z" fill="url(#paint17_linear_260_1994)"/>
<path opacity="0.5" d="M328 -17.62V107.363C328 108.601 327.537 109.776 326.701 110.689L305.091 134.296C304.153 135.321 302.828 135.904 301.438 135.904H248.762H196.086C194.695 135.904 193.37 135.321 192.432 134.296L170.823 110.689C169.986 109.776 169.523 108.601 169.523 107.363V-17.62C169.523 -20.3551 171.741 -22.5718 174.476 -22.5718H323.047C325.782 -22.5718 328 -20.3551 328 -17.62Z" stroke="url(#paint18_linear_260_1994)" strokeWidth="1.85714"/>
<path opacity="0.1" d="M496.38 -17.62V107.363C496.38 108.601 495.917 109.776 495.082 110.689L473.472 134.296C472.534 135.321 471.209 135.904 469.818 135.904H417.142H364.466C363.076 135.904 361.751 135.321 360.813 134.296L339.204 110.689C338.367 109.776 337.904 108.601 337.904 107.363V-17.62C337.904 -20.3551 340.122 -22.5718 342.857 -22.5718H491.428C494.163 -22.5718 496.38 -20.3551 496.38 -17.62Z" fill="url(#paint19_linear_260_1994)"/>
</g>
<g filter="url(#filter13_di_260_1994)">
<g style="mix-blend-mode:luminosity">
<path d="M254.954 109.905C254.954 107.17 252.736 104.953 250.001 104.953C247.266 104.953 245.049 107.17 245.049 109.905C245.049 112.64 247.266 114.857 250.001 114.857C252.736 114.857 254.954 112.64 254.954 109.905Z" fill="#282828" fill-opacity="0.7"/>
</g>
<path d="M254.024 109.905C254.024 107.683 252.223 105.881 250 105.881C247.778 105.881 245.977 107.683 245.977 109.905C245.977 112.127 247.778 113.929 250 113.929C252.223 113.929 254.024 112.127 254.024 109.905Z" stroke="url(#paint20_linear_260_1994)" stroke-opacity="0.25" strokeWidth="1.85714"/>
</g>
<g filter="url(#filter14_di_260_1994)">
<g style="mix-blend-mode:luminosity">
<path d="M254.954 348.857C254.954 346.122 252.736 343.905 250.001 343.905C247.266 343.905 245.049 346.122 245.049 348.857C245.049 351.592 247.266 353.81 250.001 353.81C252.736 353.81 254.954 351.592 254.954 348.857Z" fill="#282828" fill-opacity="0.7"/>
</g>
<path d="M254.024 348.857C254.024 346.635 252.223 344.833 250 344.833C247.778 344.833 245.977 346.635 245.977 348.857C245.977 351.08 247.778 352.881 250 352.881C252.223 352.881 254.024 351.08 254.024 348.857Z" stroke="url(#paint21_linear_260_1994)" stroke-opacity="0.25" strokeWidth="1.85714"/>
</g>
<mask id="mask7_260_1994" style="mask-type:alpha" maskUnits="userSpaceOnUse" x="24" y="13" width="452" height="437">
<path d="M475.335 13.333H24.668V449.143H475.335V13.333Z" fill="url(#paint22_linear_260_1994)"/>
</mask>
<g mask="url(#mask7_260_1994)">
<path d="M256.189 308H243.808C243.125 308 242.57 308.555 242.57 309.239V311.715C242.57 312.399 243.125 312.953 243.808 312.953H256.189C256.873 312.953 257.427 312.399 257.427 311.715V309.239C257.427 308.555 256.873 308 256.189 308Z" fill="#F8F8F8" fill-opacity="0.1"/>
<path opacity="0.1" d="M245.047 312.953V425.619" stroke="url(#paint23_linear_260_1994)" strokeWidth="1.85714"/>
<path opacity="0.1" d="M250 312.953V425.619" stroke="url(#paint24_linear_260_1994)" strokeWidth="1.85714"/>
<path opacity="0.1" d="M254.951 312.953V425.619" stroke="url(#paint25_linear_260_1994)" strokeWidth="1.85714"/>
<path opacity="0.5" d="M250 330.286V315.429" stroke="#F8F8F8" strokeWidth="1.85714"/>
<path opacity="0.1" d="M245.047 388.476V373.619" stroke="#F8F8F8" strokeWidth="1.85714"/>
<path d="M256.189 154.476H243.808C243.125 154.476 242.57 153.922 242.57 153.238V150.762C242.57 150.078 243.125 149.524 243.808 149.524H256.189C256.873 149.524 257.427 150.078 257.427 150.762V153.238C257.427 153.922 256.873 154.476 256.189 154.476Z" fill="#F8F8F8" fill-opacity="0.1"/>
<path opacity="0.1" d="M245.047 149.524V36.8574" stroke="url(#paint26_linear_260_1994)" strokeWidth="1.85714"/>
<path opacity="0.1" d="M250 149.524V36.8574" stroke="url(#paint27_linear_260_1994)" strokeWidth="1.85714"/>
<path opacity="0.1" d="M254.951 149.524V36.8574" stroke="url(#paint28_linear_260_1994)" strokeWidth="1.85714"/>
<path opacity="0.5" d="M250 128.477V143.334" stroke="#F8F8F8" strokeWidth="1.85714"/>
<path opacity="0.1" d="M245.047 74.0005V88.8576" stroke="#F8F8F8" strokeWidth="1.85714"/>
</g>
</g>
</g>
</g>
<path d="M197.554 210.905C197.273 210.905 197.05 210.822 196.885 210.657C196.72 210.492 196.621 210.302 196.588 210.088L193.889 194.265C193.872 194.232 193.864 194.199 193.864 194.166C193.864 194.133 193.864 194.108 193.864 194.091C193.864 193.959 193.914 193.844 194.013 193.745C194.128 193.629 194.252 193.571 194.384 193.571H197.454C197.917 193.571 198.173 193.753 198.222 194.116L199.832 203.798L201.614 198.078C201.664 197.946 201.747 197.806 201.862 197.657C201.978 197.492 202.168 197.41 202.432 197.41H204.214C204.495 197.41 204.693 197.492 204.809 197.657C204.924 197.806 204.999 197.946 205.032 198.078L206.814 203.773L208.424 194.116C208.474 193.753 208.729 193.571 209.192 193.571H212.262C212.411 193.571 212.534 193.629 212.634 193.745C212.733 193.844 212.782 193.959 212.782 194.091C212.782 194.108 212.782 194.133 212.782 194.166C212.782 194.199 212.782 194.232 212.782 194.265L210.083 210.088C210.05 210.302 209.951 210.492 209.786 210.657C209.621 210.822 209.398 210.905 209.117 210.905H206.765C206.484 210.905 206.27 210.83 206.121 210.682C205.973 210.533 205.874 210.393 205.824 210.261L203.323 203.179L200.822 210.261C200.773 210.393 200.674 210.533 200.525 210.682C200.393 210.83 200.187 210.905 199.906 210.905H197.554ZM215.954 210.905C215.772 210.905 215.623 210.847 215.508 210.731C215.392 210.616 215.335 210.467 215.335 210.286V194.19C215.335 194.009 215.392 193.86 215.508 193.745C215.623 193.629 215.772 193.571 215.954 193.571H227.517C227.699 193.571 227.848 193.629 227.963 193.745C228.079 193.86 228.136 194.009 228.136 194.19V196.518C228.136 196.7 228.079 196.848 227.963 196.964C227.848 197.079 227.699 197.137 227.517 197.137H219.618V200.48H226.973C227.154 200.48 227.303 200.546 227.418 200.678C227.534 200.794 227.592 200.942 227.592 201.124V203.278C227.592 203.443 227.534 203.592 227.418 203.724C227.303 203.839 227.154 203.897 226.973 203.897H219.618V207.339H227.715C227.897 207.339 228.046 207.397 228.161 207.512C228.277 207.628 228.335 207.777 228.335 207.958V210.286C228.335 210.467 228.277 210.616 228.161 210.731C228.046 210.847 227.897 210.905 227.715 210.905H215.954ZM231.768 210.905C231.587 210.905 231.438 210.847 231.323 210.731C231.207 210.616 231.149 210.467 231.149 210.286V194.19C231.149 194.009 231.207 193.86 231.323 193.745C231.438 193.629 231.587 193.571 231.768 193.571H239.321C240.74 193.571 241.904 193.77 242.812 194.166C243.72 194.562 244.389 195.131 244.818 195.874C245.264 196.601 245.486 197.467 245.486 198.474C245.486 199.069 245.371 199.597 245.14 200.059C244.925 200.505 244.653 200.876 244.323 201.173C244.009 201.47 243.712 201.685 243.431 201.817C244.058 202.114 244.611 202.601 245.09 203.278C245.585 203.955 245.833 204.747 245.833 205.655C245.833 206.745 245.585 207.686 245.09 208.478C244.611 209.254 243.902 209.857 242.961 210.286C242.036 210.698 240.897 210.905 239.544 210.905H231.768ZM235.582 207.686H239.048C239.758 207.686 240.295 207.479 240.658 207.067C241.021 206.654 241.203 206.184 241.203 205.655C241.203 205.077 241.013 204.59 240.633 204.194C240.27 203.798 239.742 203.6 239.048 203.6H235.582V207.686ZM235.582 200.455H238.825C239.502 200.455 240.006 200.282 240.336 199.935C240.683 199.589 240.856 199.143 240.856 198.598C240.856 198.07 240.683 197.641 240.336 197.31C240.006 196.964 239.502 196.79 238.825 196.79H235.582V200.455Z" fill="#F8F8F8" fill-opacity="0.8"/>
</g>
</g>
<defs>
<filter id="filter0_i_260_1994" x="0" y="0" width="500" height="460" filterUnits="userSpaceOnUse" color-interpolation-filters="sRGB">
<feFlood flood-opacity="0" result="BackgroundImageFix"/>
<feBlend mode="normal" in="SourceGraphic" in2="BackgroundImageFix" result="shape"/>
<feColorMatrix in="SourceAlpha" type="matrix" values="0 0 0 0 0 0 0 0 0 0 0 0 0 0 0 0 0 0 127 0" result="hardAlpha"/>
<feMorphology radius="6" operator="erode" in="SourceAlpha" result="effect1_innerShadow_260_1994"/>
<feOffset/>
<feGaussianBlur stdDeviation="20"/>
<feComposite in2="hardAlpha" operator="arithmetic" k2="-1" k3="1"/>
<feColorMatrix type="matrix" values="0 0 0 0 0.0627451 0 0 0 0 0.0862745 0 0 0 0 0.211765 0 0 0 1 0"/>
<feBlend mode="normal" in2="shape" result="effect1_innerShadow_260_1994"/>
</filter>
<filter id="filter1_i_260_1994" x="170.762" y="165.619" width="158.477" height="127.524" filterUnits="userSpaceOnUse" color-interpolation-filters="sRGB">
<feFlood flood-opacity="0" result="BackgroundImageFix"/>
<feBlend mode="normal" in="SourceGraphic" in2="BackgroundImageFix" result="shape"/>
<feColorMatrix in="SourceAlpha" type="matrix" values="0 0 0 0 0 0 0 0 0 0 0 0 0 0 0 0 0 0 127 0" result="hardAlpha"/>
<feOffset/>
<feGaussianBlur stdDeviation="4.95238"/>
<feComposite in2="hardAlpha" operator="arithmetic" k2="-1" k3="1"/>
<feColorMatrix type="matrix" values="0 0 0 0 0.972549 0 0 0 0 0.972549 0 0 0 0 0.972549 0 0 0 0.25 0"/>
<feBlend mode="normal" in2="shape" result="effect1_innerShadow_260_1994"/>
</filter>
<filter id="filter2_d_260_1994" x="148.475" y="173.047" width="203.048" height="153.524" filterUnits="userSpaceOnUse" color-interpolation-filters="sRGB">
<feFlood flood-opacity="0" result="BackgroundImageFix"/>
<feColorMatrix in="SourceAlpha" type="matrix" values="0 0 0 0 0 0 0 0 0 0 0 0 0 0 0 0 0 0 127 0" result="hardAlpha"/>
<feOffset dy="29.7143"/>
<feGaussianBlur stdDeviation="14.8571"/>
<feComposite in2="hardAlpha" operator="out"/>
<feColorMatrix type="matrix" values="0 0 0 0 0 0 0 0 0 0 0 0 0 0 0 0 0 0 0.3 0"/>
<feBlend mode="normal" in2="BackgroundImageFix" result="effect1_dropShadow_260_1994"/>
<feBlend mode="normal" in="SourceGraphic" in2="effect1_dropShadow_260_1994" result="shape"/>
</filter>
<filter id="filter3_i_260_1994" x="158.381" y="274.086" width="183.238" height="19.8096" filterUnits="userSpaceOnUse" color-interpolation-filters="sRGB">
<feFlood flood-opacity="0" result="BackgroundImageFix"/>
<feBlend mode="normal" in="SourceGraphic" in2="BackgroundImageFix" result="shape"/>
<feColorMatrix in="SourceAlpha" type="matrix" values="0 0 0 0 0 0 0 0 0 0 0 0 0 0 0 0 0 0 127 0" result="hardAlpha"/>
<feOffset/>
<feGaussianBlur stdDeviation="4.95238"/>
<feComposite in2="hardAlpha" operator="arithmetic" k2="-1" k3="1"/>
<feColorMatrix type="matrix" values="0 0 0 0 0.972549 0 0 0 0 0.972549 0 0 0 0 0.972549 0 0 0 0.25 0"/>
<feBlend mode="normal" in2="shape" result="effect1_innerShadow_260_1994"/>
</filter>
<filter id="filter4_i_260_1994" x="158.381" y="274.086" width="183.238" height="19.8096" filterUnits="userSpaceOnUse" color-interpolation-filters="sRGB">
<feFlood flood-opacity="0" result="BackgroundImageFix"/>
<feBlend mode="normal" in="SourceGraphic" in2="BackgroundImageFix" result="shape"/>
<feColorMatrix in="SourceAlpha" type="matrix" values="0 0 0 0 0 0 0 0 0 0 0 0 0 0 0 0 0 0 127 0" result="hardAlpha"/>
<feOffset/>
<feGaussianBlur stdDeviation="4.95238"/>
<feComposite in2="hardAlpha" operator="arithmetic" k2="-1" k3="1"/>
<feColorMatrix type="matrix" values="0 0 0 0 0.972549 0 0 0 0 0.972549 0 0 0 0 0.972549 0 0 0 0.25 0"/>
<feBlend mode="normal" in2="shape" result="effect1_innerShadow_260_1994"/>
</filter>
<filter id="filter5_i_260_1994" x="-2.57031" y="180.476" width="81.7145" height="84.1907" filterUnits="userSpaceOnUse" color-interpolation-filters="sRGB">
<feFlood flood-opacity="0" result="BackgroundImageFix"/>
<feBlend mode="normal" in="SourceGraphic" in2="BackgroundImageFix" result="shape"/>
<feColorMatrix in="SourceAlpha" type="matrix" values="0 0 0 0 0 0 0 0 0 0 0 0 0 0 0 0 0 0 127 0" result="hardAlpha"/>
<feOffset dx="2.47619" dy="4.95238"/>
<feGaussianBlur stdDeviation="9.90476"/>
<feComposite in2="hardAlpha" operator="arithmetic" k2="-1" k3="1"/>
<feColorMatrix type="matrix" values="0 0 0 0 0.972549 0 0 0 0 0.972549 0 0 0 0 0.972549 0 0 0 0.06 0"/>
<feBlend mode="normal" in2="shape" result="effect1_innerShadow_260_1994"/>
</filter>
<filter id="filter6_i_260_1994" x="84.0957" y="180.476" width="81.7145" height="84.1907" filterUnits="userSpaceOnUse" color-interpolation-filters="sRGB">
<feFlood flood-opacity="0" result="BackgroundImageFix"/>
<feBlend mode="normal" in="SourceGraphic" in2="BackgroundImageFix" result="shape"/>
<feColorMatrix in="SourceAlpha" type="matrix" values="0 0 0 0 0 0 0 0 0 0 0 0 0 0 0 0 0 0 127 0" result="hardAlpha"/>
<feOffset dx="2.47619" dy="4.95238"/>
<feGaussianBlur stdDeviation="9.90476"/>
<feComposite in2="hardAlpha" operator="arithmetic" k2="-1" k3="1"/>
<feColorMatrix type="matrix" values="0 0 0 0 0.972549 0 0 0 0 0.972549 0 0 0 0 0.972549 0 0 0 0.06 0"/>
<feBlend mode="normal" in2="shape" result="effect1_innerShadow_260_1994"/>
</filter>
<filter id="filter7_di_260_1994" x="118.761" y="173.047" width="262.476" height="212.952" filterUnits="userSpaceOnUse" color-interpolation-filters="sRGB">
<feFlood flood-opacity="0" result="BackgroundImageFix"/>
<feColorMatrix in="SourceAlpha" type="matrix" values="0 0 0 0 0 0 0 0 0 0 0 0 0 0 0 0 0 0 127 0" result="hardAlpha"/>
<feOffset dy="59.4286"/>
<feGaussianBlur stdDeviation="29.7143"/>
<feComposite in2="hardAlpha" operator="out"/>
<feColorMatrix type="matrix" values="0 0 0 0 0.109804 0 0 0 0 0.12549 0 0 0 0 0.156863 0 0 0 0.5 0"/>
<feBlend mode="normal" in2="BackgroundImageFix" result="effect1_dropShadow_260_1994"/>
<feBlend mode="normal" in="SourceGraphic" in2="effect1_dropShadow_260_1994" result="shape"/>
<feColorMatrix in="SourceAlpha" type="matrix" values="0 0 0 0 0 0 0 0 0 0 0 0 0 0 0 0 0 0 127 0" result="hardAlpha"/>
<feOffset dx="2.47619" dy="4.95238"/>
<feGaussianBlur stdDeviation="9.90476"/>
<feComposite in2="hardAlpha" operator="arithmetic" k2="-1" k3="1"/>
<feColorMatrix type="matrix" values="0 0 0 0 0.972549 0 0 0 0 0.972549 0 0 0 0 0.972549 0 0 0 0.06 0"/>
<feBlend mode="normal" in2="shape" result="effect2_innerShadow_260_1994"/>
</filter>
<filter id="filter8_di_260_1994" x="250.074" y="182.953" width="81.5687" height="88.5603" filterUnits="userSpaceOnUse" color-interpolation-filters="sRGB">
<feFlood flood-opacity="0" result="BackgroundImageFix"/>
<feColorMatrix in="SourceAlpha" type="matrix" values="0 0 0 0 0 0 0 0 0 0 0 0 0 0 0 0 0 0 127 0" result="hardAlpha"/>
<feOffset dy="27.9663"/>
<feGaussianBlur stdDeviation="10.4874"/>
<feComposite in2="hardAlpha" operator="out"/>
<feColorMatrix type="matrix" values="0 0 0 0 0 0 0 0 0 0 0 0 0 0 0 0 0 0 0.4 0"/>
<feBlend mode="normal" in2="BackgroundImageFix" result="effect1_dropShadow_260_1994"/>
<feBlend mode="normal" in="SourceGraphic" in2="effect1_dropShadow_260_1994" result="shape"/>
<feColorMatrix in="SourceAlpha" type="matrix" values="0 0 0 0 0 0 0 0 0 0 0 0 0 0 0 0 0 0 127 0" result="hardAlpha"/>
<feOffset/>
<feGaussianBlur stdDeviation="3.4958"/>
<feComposite in2="hardAlpha" operator="arithmetic" k2="-1" k3="1"/>
<feColorMatrix type="matrix" values="0 0 0 0 0.972549 0 0 0 0 0.972549 0 0 0 0 0.972549 0 0 0 0.25 0"/>
<feBlend mode="normal" in2="shape" result="effect2_innerShadow_260_1994"/>
</filter>
<filter id="filter9_f_260_1994" x="199.095" y="122.65" width="139.832" height="139.832" filterUnits="userSpaceOnUse" color-interpolation-filters="sRGB">
<feFlood flood-opacity="0" result="BackgroundImageFix"/>
<feBlend mode="normal" in="SourceGraphic" in2="BackgroundImageFix" result="shape"/>
<feGaussianBlur stdDeviation="17.4789" result="effect1_foregroundBlur_260_1994"/>
</filter>
<filter id="filter10_dd_260_1994" x="273.111" y="195.746" width="28.8884" height="25.5876" filterUnits="userSpaceOnUse" color-interpolation-filters="sRGB">
<feFlood flood-opacity="0" result="BackgroundImageFix"/>
<feColorMatrix in="SourceAlpha" type="matrix" values="0 0 0 0 0 0 0 0 0 0 0 0 0 0 0 0 0 0 127 0" result="hardAlpha"/>
<feOffset dx="-3.71429" dy="6.19048"/>
<feGaussianBlur stdDeviation="3.71429"/>
<feColorMatrix type="matrix" values="0 0 0 0 0 0 0 0 0 0 0 0 0 0 0 0 0 0 0.2 0"/>
<feBlend mode="normal" in2="BackgroundImageFix" result="effect1_dropShadow_260_1994"/>
<feColorMatrix in="SourceAlpha" type="matrix" values="0 0 0 0 0 0 0 0 0 0 0 0 0 0 0 0 0 0 127 0" result="hardAlpha"/>
<feOffset dx="-1.2381" dy="2.47619"/>
<feGaussianBlur stdDeviation="1.85714"/>
<feComposite in2="hardAlpha" operator="out"/>
<feColorMatrix type="matrix" values="0 0 0 0 0 0 0 0 0 0 0 0 0 0 0 0 0 0 0.1 0"/>
<feBlend mode="normal" in2="effect1_dropShadow_260_1994" result="effect2_dropShadow_260_1994"/>
<feBlend mode="normal" in="SourceGraphic" in2="effect2_dropShadow_260_1994" result="shape"/>
</filter>
<filter id="filter11_i_260_1994" x="336.668" y="180.476" width="81.7145" height="84.1907" filterUnits="userSpaceOnUse" color-interpolation-filters="sRGB">
<feFlood flood-opacity="0" result="BackgroundImageFix"/>
<feBlend mode="normal" in="SourceGraphic" in2="BackgroundImageFix" result="shape"/>
<feColorMatrix in="SourceAlpha" type="matrix" values="0 0 0 0 0 0 0 0 0 0 0 0 0 0 0 0 0 0 127 0" result="hardAlpha"/>
<feOffset dx="2.47619" dy="4.95238"/>
<feGaussianBlur stdDeviation="9.90476"/>
<feComposite in2="hardAlpha" operator="arithmetic" k2="-1" k3="1"/>
<feColorMatrix type="matrix" values="0 0 0 0 0.972549 0 0 0 0 0.972549 0 0 0 0 0.972549 0 0 0 0.06 0"/>
<feBlend mode="normal" in2="shape" result="effect1_innerShadow_260_1994"/>
</filter>
<filter id="filter12_i_260_1994" x="423.332" y="180.476" width="81.7145" height="84.1907" filterUnits="userSpaceOnUse" color-interpolation-filters="sRGB">
<feFlood flood-opacity="0" result="BackgroundImageFix"/>
<feBlend mode="normal" in="SourceGraphic" in2="BackgroundImageFix" result="shape"/>
<feColorMatrix in="SourceAlpha" type="matrix" values="0 0 0 0 0 0 0 0 0 0 0 0 0 0 0 0 0 0 127 0" result="hardAlpha"/>
<feOffset dx="2.47619" dy="4.95238"/>
<feGaussianBlur stdDeviation="9.90476"/>
<feComposite in2="hardAlpha" operator="arithmetic" k2="-1" k3="1"/>
<feColorMatrix type="matrix" values="0 0 0 0 0.972549 0 0 0 0 0.972549 0 0 0 0 0.972549 0 0 0 0.06 0"/>
<feBlend mode="normal" in2="shape" result="effect1_innerShadow_260_1994"/>
</filter>
<filter id="filter13_di_260_1994" x="215.335" y="104.953" width="69.3329" height="79.2381" filterUnits="userSpaceOnUse" color-interpolation-filters="sRGB">
<feFlood flood-opacity="0" result="BackgroundImageFix"/>
<feColorMatrix in="SourceAlpha" type="matrix" values="0 0 0 0 0 0 0 0 0 0 0 0 0 0 0 0 0 0 127 0" result="hardAlpha"/>
<feOffset dy="39.619"/>
<feGaussianBlur stdDeviation="14.8571"/>
<feComposite in2="hardAlpha" operator="out"/>
<feColorMatrix type="matrix" values="0 0 0 0 0 0 0 0 0 0 0 0 0 0 0 0 0 0 0.4 0"/>
<feBlend mode="normal" in2="BackgroundImageFix" result="effect1_dropShadow_260_1994"/>
<feBlend mode="normal" in="SourceGraphic" in2="effect1_dropShadow_260_1994" result="shape"/>
<feColorMatrix in="SourceAlpha" type="matrix" values="0 0 0 0 0 0 0 0 0 0 0 0 0 0 0 0 0 0 127 0" result="hardAlpha"/>
<feOffset/>
<feGaussianBlur stdDeviation="4.95238"/>
<feComposite in2="hardAlpha" operator="arithmetic" k2="-1" k3="1"/>
<feColorMatrix type="matrix" values="0 0 0 0 0.972549 0 0 0 0 0.972549 0 0 0 0 0.972549 0 0 0 0.25 0"/>
<feBlend mode="normal" in2="shape" result="effect2_innerShadow_260_1994"/>
</filter>
<filter id="filter14_di_260_1994" x="215.335" y="343.905" width="69.3329" height="79.2381" filterUnits="userSpaceOnUse" color-interpolation-filters="sRGB">
<feFlood flood-opacity="0" result="BackgroundImageFix"/>
<feColorMatrix in="SourceAlpha" type="matrix" values="0 0 0 0 0 0 0 0 0 0 0 0 0 0 0 0 0 0 127 0" result="hardAlpha"/>
<feOffset dy="39.619"/>
<feGaussianBlur stdDeviation="14.8571"/>
<feComposite in2="hardAlpha" operator="out"/>
<feColorMatrix type="matrix" values="0 0 0 0 0 0 0 0 0 0 0 0 0 0 0 0 0 0 0.4 0"/>
<feBlend mode="normal" in2="BackgroundImageFix" result="effect1_dropShadow_260_1994"/>
<feBlend mode="normal" in="SourceGraphic" in2="effect1_dropShadow_260_1994" result="shape"/>
<feColorMatrix in="SourceAlpha" type="matrix" values="0 0 0 0 0 0 0 0 0 0 0 0 0 0 0 0 0 0 127 0" result="hardAlpha"/>
<feOffset/>
<feGaussianBlur stdDeviation="4.95238"/>
<feComposite in2="hardAlpha" operator="arithmetic" k2="-1" k3="1"/>
<feColorMatrix type="matrix" values="0 0 0 0 0.972549 0 0 0 0 0.972549 0 0 0 0 0.972549 0 0 0 0.25 0"/>
<feBlend mode="normal" in2="shape" result="effect2_innerShadow_260_1994"/>
</filter>
<radialGradient id="paint0_radial_260_1994" cx="0" cy="0" r="1" gradientUnits="userSpaceOnUse" gradientTransform="translate(249.997 230) rotate(90) scale(227.81)">
<stop offset="0.433142" stop-color="#737373" stop-opacity="0"/>
<stop offset="1" stop-color="#D9D9D9"/>
</radialGradient>
<linearGradient id="paint1_linear_260_1994" x1="250.001" y1="165.619" x2="296.883" y2="312.688" gradientUnits="userSpaceOnUse">
<stop stop-color="white" stop-opacity="0.4"/>
<stop offset="0.4" stop-color="white" stop-opacity="0.01"/>
<stop offset="0.6" stop-color="white" stop-opacity="0.01"/>
<stop offset="1" stop-color="white" stop-opacity="0.1"/>
</linearGradient>
<linearGradient id="paint2_linear_260_1994" x1="249.998" y1="173.048" x2="279.067" y2="285.047" gradientUnits="userSpaceOnUse">
<stop stop-color="white" stop-opacity="0.4"/>
<stop offset="0.4" stop-color="white" stop-opacity="0.01"/>
<stop offset="0.6" stop-color="white" stop-opacity="0.01"/>
<stop offset="1" stop-color="white" stop-opacity="0.1"/>
</linearGradient>
<linearGradient id="paint3_linear_260_1994" x1="250" y1="274.086" x2="251.076" y2="299.207" gradientUnits="userSpaceOnUse">
<stop stop-color="white" stop-opacity="0.4"/>
<stop offset="0.4" stop-color="white" stop-opacity="0.01"/>
<stop offset="0.6" stop-color="white" stop-opacity="0.01"/>
<stop offset="1" stop-color="white" stop-opacity="0.1"/>
</linearGradient>
<linearGradient id="paint4_linear_260_1994" x1="250" y1="274.086" x2="251.076" y2="299.207" gradientUnits="userSpaceOnUse">
<stop stop-color="white" stop-opacity="0.4"/>
<stop offset="0.4" stop-color="white" stop-opacity="0.01"/>
<stop offset="0.6" stop-color="white" stop-opacity="0.01"/>
<stop offset="1" stop-color="white" stop-opacity="0.1"/>
</linearGradient>
<linearGradient id="paint5_linear_260_1994" x1="-2.57031" y1="220.095" x2="502.573" y2="220.095" gradientUnits="userSpaceOnUse">
<stop offset="0.0504196" stop-color="#D9D9D9" stop-opacity="0"/>
<stop offset="0.495145" stop-color="#737373"/>
<stop offset="0.947001" stop-color="#737373" stop-opacity="0"/>
</linearGradient>
<linearGradient id="paint6_linear_260_1994" x1="37.0479" y1="180.476" x2="71.5181" y2="267.49" gradientUnits="userSpaceOnUse">
<stop stop-color="white" stop-opacity="0.4"/>
<stop offset="0.4" stop-color="white" stop-opacity="0.01"/>
<stop offset="0.6" stop-color="white" stop-opacity="0.01"/>
<stop offset="1" stop-color="white" stop-opacity="0.1"/>
</linearGradient>
<linearGradient id="paint7_linear_260_1994" x1="123.714" y1="180.476" x2="158.184" y2="267.49" gradientUnits="userSpaceOnUse">
<stop stop-color="white" stop-opacity="0.4"/>
<stop offset="0.4" stop-color="white" stop-opacity="0.01"/>
<stop offset="0.6" stop-color="white" stop-opacity="0.01"/>
<stop offset="1" stop-color="white" stop-opacity="0.1"/>
</linearGradient>
<linearGradient id="paint8_linear_260_1994" x1="291.269" y1="196.984" x2="291.269" y2="207.714" gradientUnits="userSpaceOnUse">
<stop stop-color="#F8F8F8" stop-opacity="0.9"/>
<stop offset="1" stop-color="#F8F8F8" stop-opacity="0.3"/>
</linearGradient>
<linearGradient id="paint9_linear_260_1994" x1="376.286" y1="180.476" x2="410.756" y2="267.49" gradientUnits="userSpaceOnUse">
<stop stop-color="white" stop-opacity="0.4"/>
<stop offset="0.4" stop-color="white" stop-opacity="0.01"/>
<stop offset="0.6" stop-color="white" stop-opacity="0.01"/>
<stop offset="1" stop-color="white" stop-opacity="0.1"/>
</linearGradient>
<linearGradient id="paint10_linear_260_1994" x1="462.95" y1="180.476" x2="497.42" y2="267.49" gradientUnits="userSpaceOnUse">
<stop stop-color="white" stop-opacity="0.4"/>
<stop offset="0.4" stop-color="white" stop-opacity="0.01"/>
<stop offset="0.6" stop-color="white" stop-opacity="0.01"/>
<stop offset="1" stop-color="white" stop-opacity="0.1"/>
</linearGradient>
<linearGradient id="paint11_linear_260_1994" x1="28.3809" y1="230" x2="479.048" y2="230" gradientUnits="userSpaceOnUse">
<stop offset="0.0504196" stop-color="#D9D9D9" stop-opacity="0"/>
<stop offset="0.495145" stop-color="#737373"/>
<stop offset="0.947001" stop-color="#737373" stop-opacity="0"/>
</linearGradient>
<linearGradient id="paint12_linear_260_1994" x1="81.619" y1="482.571" x2="81.619" y2="324.095" gradientUnits="userSpaceOnUse">
<stop offset="0.522974" stop-color="#F8F8F8" stop-opacity="0"/>
<stop offset="1" stop-color="#F8F8F8" stop-opacity="0.1"/>
</linearGradient>
<linearGradient id="paint13_linear_260_1994" x1="250" y1="482.571" x2="250" y2="324.095" gradientUnits="userSpaceOnUse">
<stop offset="0.522974" stop-color="#F8F8F8" stop-opacity="0"/>
<stop offset="1" stop-color="#F8F8F8" stop-opacity="0.1"/>
</linearGradient>
<linearGradient id="paint14_linear_260_1994" x1="250" y1="482.571" x2="250" y2="324.095" gradientUnits="userSpaceOnUse">
<stop offset="0.522974" stop-color="#F8F8F8" stop-opacity="0"/>
<stop offset="1" stop-color="#F8F8F8" stop-opacity="0.1"/>
</linearGradient>
<linearGradient id="paint15_linear_260_1994" x1="418.381" y1="482.571" x2="418.381" y2="324.095" gradientUnits="userSpaceOnUse">
<stop offset="0.522974" stop-color="#F8F8F8" stop-opacity="0"/>
<stop offset="1" stop-color="#F8F8F8" stop-opacity="0.1"/>
</linearGradient>
<linearGradient id="paint16_linear_260_1994" x1="80.3807" y1="-22.5718" x2="80.3807" y2="135.904" gradientUnits="userSpaceOnUse">
<stop offset="0.522974" stop-color="#F8F8F8" stop-opacity="0"/>
<stop offset="1" stop-color="#F8F8F8" stop-opacity="0.1"/>
</linearGradient>
<linearGradient id="paint17_linear_260_1994" x1="248.762" y1="-22.5718" x2="248.762" y2="135.904" gradientUnits="userSpaceOnUse">
<stop offset="0.522974" stop-color="#F8F8F8" stop-opacity="0"/>
<stop offset="1" stop-color="#F8F8F8" stop-opacity="0.1"/>
</linearGradient>
<linearGradient id="paint18_linear_260_1994" x1="248.762" y1="-22.5718" x2="248.762" y2="135.904" gradientUnits="userSpaceOnUse">
<stop offset="0.522974" stop-color="#F8F8F8" stop-opacity="0"/>
<stop offset="1" stop-color="#F8F8F8" stop-opacity="0.1"/>
</linearGradient>
<linearGradient id="paint19_linear_260_1994" x1="417.142" y1="-22.5718" x2="417.142" y2="135.904" gradientUnits="userSpaceOnUse">
<stop offset="0.522974" stop-color="#F8F8F8" stop-opacity="0"/>
<stop offset="1" stop-color="#F8F8F8" stop-opacity="0.1"/>
</linearGradient>
<linearGradient id="paint20_linear_260_1994" x1="250" y1="104.953" x2="254.309" y2="115.829" gradientUnits="userSpaceOnUse">
<stop stop-color="white" stop-opacity="0.4"/>
<stop offset="0.4" stop-color="white" stop-opacity="0.01"/>
<stop offset="0.6" stop-color="white" stop-opacity="0.01"/>
<stop offset="1" stop-color="white" stop-opacity="0.1"/>
</linearGradient>
<linearGradient id="paint21_linear_260_1994" x1="250" y1="343.905" x2="254.309" y2="354.782" gradientUnits="userSpaceOnUse">
<stop stop-color="white" stop-opacity="0.4"/>
<stop offset="0.4" stop-color="white" stop-opacity="0.01"/>
<stop offset="0.6" stop-color="white" stop-opacity="0.01"/>
<stop offset="1" stop-color="white" stop-opacity="0.1"/>
</linearGradient>
<linearGradient id="paint22_linear_260_1994" x1="250.001" y1="13.333" x2="250.001" y2="449.143" gradientUnits="userSpaceOnUse">
<stop stop-color="#D9D9D9" stop-opacity="0"/>
<stop offset="0.155034" stop-color="#B9B9B9" stop-opacity="0.313109"/>
<stop offset="0.495145" stop-color="#737373"/>
<stop offset="0.815034" stop-color="#737373" stop-opacity="0.366374"/>
<stop offset="1" stop-color="#737373" stop-opacity="0"/>
</linearGradient>
<linearGradient id="paint23_linear_260_1994" x1="-nan" y1="-nan" x2="-nan" y2="-nan" gradientUnits="userSpaceOnUse">
<stop stop-color="#F8F8F8" stop-opacity="0.8"/>
<stop offset="0.45221" stop-color="#F8F8F8" stop-opacity="0.2"/>
<stop offset="1" stop-color="#F8F8F8" stop-opacity="0.8"/>
</linearGradient>
<linearGradient id="paint24_linear_260_1994" x1="-nan" y1="-nan" x2="-nan" y2="-nan" gradientUnits="userSpaceOnUse">
<stop stop-color="#F8F8F8" stop-opacity="0.8"/>
<stop offset="0.45221" stop-color="#F8F8F8" stop-opacity="0.2"/>
<stop offset="1" stop-color="#F8F8F8" stop-opacity="0.8"/>
</linearGradient>
<linearGradient id="paint25_linear_260_1994" x1="-nan" y1="-nan" x2="-nan" y2="-nan" gradientUnits="userSpaceOnUse">
<stop stop-color="#F8F8F8" stop-opacity="0.8"/>
<stop offset="0.45221" stop-color="#F8F8F8" stop-opacity="0.2"/>
<stop offset="1" stop-color="#F8F8F8" stop-opacity="0.8"/>
</linearGradient>
<linearGradient id="paint26_linear_260_1994" x1="-nan" y1="-nan" x2="-nan" y2="-nan" gradientUnits="userSpaceOnUse">
<stop stop-color="#F8F8F8" stop-opacity="0.8"/>
<stop offset="0.45221" stop-color="#F8F8F8" stop-opacity="0.2"/>
<stop offset="1" stop-color="#F8F8F8" stop-opacity="0.8"/>
</linearGradient>
<linearGradient id="paint27_linear_260_1994" x1="-nan" y1="-nan" x2="-nan" y2="-nan" gradientUnits="userSpaceOnUse">
<stop stop-color="#F8F8F8" stop-opacity="0.8"/>
<stop offset="0.45221" stop-color="#F8F8F8" stop-opacity="0.2"/>
<stop offset="1" stop-color="#F8F8F8" stop-opacity="0.8"/>
</linearGradient>
<linearGradient id="paint28_linear_260_1994" x1="-nan" y1="-nan" x2="-nan" y2="-nan" gradientUnits="userSpaceOnUse">
<stop stop-color="#F8F8F8" stop-opacity="0.8"/>
<stop offset="0.45221" stop-color="#F8F8F8" stop-opacity="0.2"/>
<stop offset="1" stop-color="#F8F8F8" stop-opacity="0.8"/>
</linearGradient>
<clipPath id="clip0_260_1994">
<rect width="500" height="460" rx="32" fill="white"/>
</clipPath>
<clipPath id="clip1_260_1994">
<rect width="505.143" height="505.143" fill="white" transform="translate(-2.57227 -22.5713)"/>
</clipPath>
<clipPath id="clip2_260_1994">
<rect width="505.143" height="505.143" fill="white" transform="translate(-2.57227 -22.5713)"/>
</clipPath>
<clipPath id="clip3_260_1994">
<rect width="505.143" height="505.143" fill="white" transform="translate(-2.57227 -22.5713)"/>
</clipPath>
</defs>
</svg>
