<svg width="500" height="460" viewBox="0 0 500 460" fill="none" xmlns="http://www.w3.org/2000/svg">
<g filter="url(#filter0_i_260_95)">
<g clip-path="url(#clip0_260_95)">
<rect width="500" height="460" rx="32" fill="#05071A" fill-opacity="0.71"/>
<rect x="0.5" y="0.5" width="499" height="459" rx="31.5" stroke="#1C244C"/>
<mask id="mask0_260_95" style="mask-type:alpha" maskUnits="userSpaceOnUse" x="102" y="71" width="296" height="296">
<rect x="102.25" y="71.25" width="295.5" height="295.5" fill="url(#paint0_linear_260_95)"/>
</mask>
<g mask="url(#mask0_260_95)">
<rect x="102.836" y="71.8363" width="294.327" height="294.327" rx="147.164" stroke="#F8F8F8" stroke-opacity="0.03" stroke-width="1.17262"/>
</g>
<g clip-path="url(#clip1_260_95)">
<g clip-path="url(#clip2_260_95)">
<g clip-path="url(#clip3_260_95)">
<path opacity="0.25" d="M249.999 365.87C331.114 365.87 396.87 300.114 396.87 219C396.87 137.886 331.114 72.1294 249.999 72.1294C168.885 72.1294 103.129 137.886 103.129 219C103.129 300.114 168.885 365.87 249.999 365.87Z" stroke="url(#paint1_radial_260_95)" stroke-width="1.75893"/>
<path opacity="0.5" d="M119.84 472.253V345.163C119.84 340.454 121.611 335.965 124.803 332.5L142.814 312.949C146.341 309.121 151.299 306.929 156.505 306.9L250.001 306.36H343.431C348.675 306.36 353.679 308.554 357.231 312.41L375.199 331.914C378.389 335.379 380.161 339.868 380.161 344.577V471.75C380.161 482.096 371.788 490.48 361.442 490.504L138.644 491.006C128.266 491.029 119.84 482.631 119.84 472.253Z" fill="url(#paint2_linear_260_95)"/>
<path opacity="0.3" d="M119.84 486.36V339.66C119.84 338.483 120.283 337.408 121.081 336.541L146.961 308.448C147.843 307.491 149.083 306.942 150.384 306.935L250.001 306.36H349.602C350.911 306.36 352.163 306.909 353.052 307.873L378.921 335.955C379.718 336.821 380.161 337.897 380.161 339.074V485.794C380.161 488.381 378.068 490.466 375.481 490.472L124.541 491.037C121.946 491.043 119.84 488.955 119.84 486.36Z" stroke="url(#paint3_linear_260_95)" stroke-width="1.75893"/>
<mask id="mask1_260_95" style="mask-type:alpha" maskUnits="userSpaceOnUse" x="119" y="306" width="262" height="186">
<path opacity="0.1" d="M119.838 486.359V339.66C119.838 338.483 120.281 337.407 121.079 336.541L146.959 308.447C147.841 307.49 149.081 306.941 150.382 306.934L249.999 306.36H349.6C350.91 306.36 352.161 306.909 353.05 307.873L378.919 335.954C379.716 336.821 380.159 337.896 380.159 339.074V485.794C380.159 488.381 378.066 490.466 375.479 490.472L124.539 491.037C121.944 491.043 119.838 488.954 119.838 486.359Z" fill="#F8F8F8"/>
</mask>
<g mask="url(#mask1_260_95)">
<path d="M120.483 317.617C121.162 317.617 121.714 317.066 121.714 316.386C121.714 315.706 121.162 315.155 120.483 315.155C119.803 315.155 119.252 315.706 119.252 316.386C119.252 317.066 119.803 317.617 120.483 317.617Z" fill="#F8F8F8"/>
<path d="M144.359 317.878C144.949 317.878 145.428 317.399 145.428 316.809C145.428 316.219 144.949 315.741 144.359 315.741C143.769 315.741 143.291 316.219 143.291 316.809C143.291 317.399 143.769 317.878 144.359 317.878Z" fill="#F8F8F8"/>
<path d="M167.694 317.646C168.22 317.646 168.647 317.219 168.647 316.693C168.647 316.168 168.22 315.741 167.694 315.741C167.168 315.741 166.742 316.168 166.742 316.693C166.742 317.219 167.168 317.646 167.694 317.646Z" fill="#F8F8F8"/>
<path d="M190.985 317.32C191.421 317.32 191.775 316.966 191.775 316.53C191.775 316.094 191.421 315.74 190.985 315.74C190.549 315.74 190.195 316.094 190.195 316.53C190.195 316.966 190.549 317.32 190.985 317.32Z" fill="#F8F8F8"/>
<path d="M214.322 317.087C214.694 317.087 214.996 316.786 214.996 316.414C214.996 316.042 214.694 315.74 214.322 315.74C213.95 315.74 213.648 316.042 213.648 316.414C213.648 316.786 213.95 317.087 214.322 317.087Z" fill="#F8F8F8"/>
<path d="M237.704 316.949C238.037 316.949 238.307 316.679 238.307 316.345C238.307 316.012 238.037 315.741 237.704 315.741C237.37 315.741 237.1 316.012 237.1 316.345C237.1 316.679 237.37 316.949 237.704 316.949Z" fill="#F8F8F8"/>
<path d="M261.139 316.914C261.463 316.914 261.725 316.651 261.725 316.328C261.725 316.004 261.463 315.741 261.139 315.741C260.815 315.741 260.553 316.004 260.553 316.328C260.553 316.651 260.815 316.914 261.139 316.914Z" fill="#F8F8F8"/>
<path d="M284.592 316.914C284.916 316.914 285.178 316.651 285.178 316.328C285.178 316.004 284.916 315.741 284.592 315.741C284.268 315.741 284.006 316.004 284.006 316.328C284.006 316.651 284.268 316.914 284.592 316.914Z" fill="#F8F8F8"/>
<path d="M308.043 316.914C308.367 316.914 308.63 316.651 308.63 316.328C308.63 316.004 308.367 315.741 308.043 315.741C307.72 315.741 307.457 316.004 307.457 316.328C307.457 316.651 307.72 316.914 308.043 316.914Z" fill="#F8F8F8"/>
<path d="M331.496 316.914C331.82 316.914 332.083 316.651 332.083 316.328C332.083 316.004 331.82 315.741 331.496 315.741C331.173 315.741 330.91 316.004 330.91 316.328C330.91 316.651 331.173 316.914 331.496 316.914Z" fill="#F8F8F8"/>
<path d="M354.948 316.914C355.271 316.914 355.534 316.651 355.534 316.328C355.534 316.004 355.271 315.741 354.948 315.741C354.624 315.741 354.361 316.004 354.361 316.328C354.361 316.651 354.624 316.914 354.948 316.914Z" fill="#F8F8F8"/>
<path d="M378.401 316.914C378.725 316.914 378.987 316.651 378.987 316.328C378.987 316.004 378.725 315.741 378.401 315.741C378.077 315.741 377.814 316.004 377.814 316.328C377.814 316.651 378.077 316.914 378.401 316.914Z" fill="#F8F8F8"/>
<path d="M144.336 341.283C144.913 341.283 145.381 340.816 145.381 340.238C145.381 339.661 144.913 339.193 144.336 339.193C143.759 339.193 143.291 339.661 143.291 340.238C143.291 340.816 143.759 341.283 144.336 341.283Z" fill="#F8F8F8"/>
<path d="M167.694 341.098C168.22 341.098 168.647 340.671 168.647 340.146C168.647 339.62 168.22 339.193 167.694 339.193C167.168 339.193 166.742 339.62 166.742 340.146C166.742 340.671 167.168 341.098 167.694 341.098Z" fill="#F8F8F8"/>
<path d="M191.055 340.912C191.529 340.912 191.914 340.528 191.914 340.053C191.914 339.579 191.529 339.194 191.055 339.194C190.58 339.194 190.195 339.579 190.195 340.053C190.195 340.528 190.58 340.912 191.055 340.912Z" fill="#F8F8F8"/>
<path d="M214.415 340.727C214.838 340.727 215.181 340.384 215.181 339.96C215.181 339.537 214.838 339.194 214.415 339.194C213.992 339.194 213.648 339.537 213.648 339.96C213.648 340.384 213.992 340.727 214.415 340.727Z" fill="#F8F8F8"/>
<path d="M237.82 340.633C238.217 340.633 238.54 340.311 238.54 339.913C238.54 339.516 238.217 339.193 237.82 339.193C237.422 339.193 237.1 339.516 237.1 339.913C237.1 340.311 237.422 340.633 237.82 340.633Z" fill="#F8F8F8"/>
<path d="M261.226 340.54C261.598 340.54 261.9 340.238 261.9 339.866C261.9 339.494 261.598 339.193 261.226 339.193C260.854 339.193 260.553 339.494 260.553 339.866C260.553 340.238 260.854 340.54 261.226 340.54Z" fill="#F8F8F8"/>
<path d="M284.633 340.448C284.979 340.448 285.26 340.167 285.26 339.821C285.26 339.475 284.979 339.194 284.633 339.194C284.287 339.194 284.006 339.475 284.006 339.821C284.006 340.167 284.287 340.448 284.633 340.448Z" fill="#F8F8F8"/>
<path d="M308.061 340.401C308.394 340.401 308.665 340.131 308.665 339.797C308.665 339.464 308.394 339.193 308.061 339.193C307.727 339.193 307.457 339.464 307.457 339.797C307.457 340.131 307.727 340.401 308.061 340.401Z" fill="#F8F8F8"/>
<path d="M331.496 340.366C331.82 340.366 332.083 340.103 332.083 339.78C332.083 339.456 331.82 339.193 331.496 339.193C331.173 339.193 330.91 339.456 330.91 339.78C330.91 340.103 331.173 340.366 331.496 340.366Z" fill="#F8F8F8"/>
<path d="M354.948 340.366C355.271 340.366 355.534 340.103 355.534 339.78C355.534 339.456 355.271 339.193 354.948 339.193C354.624 339.193 354.361 339.456 354.361 339.78C354.361 340.103 354.624 340.366 354.948 340.366Z" fill="#F8F8F8"/>
<path d="M144.336 364.736C144.913 364.736 145.381 364.268 145.381 363.691C145.381 363.114 144.913 362.646 144.336 362.646C143.759 362.646 143.291 363.114 143.291 363.691C143.291 364.268 143.759 364.736 144.336 364.736Z" fill="#F8F8F8"/>
<path d="M167.741 364.644C168.292 364.644 168.739 364.197 168.739 363.645C168.739 363.094 168.292 362.646 167.741 362.646C167.189 362.646 166.742 363.094 166.742 363.645C166.742 364.197 167.189 364.644 167.741 364.644Z" fill="#F8F8F8"/>
<path d="M191.147 364.55C191.673 364.55 192.1 364.124 192.1 363.598C192.1 363.072 191.673 362.646 191.147 362.646C190.622 362.646 190.195 363.072 190.195 363.598C190.195 364.124 190.622 364.55 191.147 364.55Z" fill="#F8F8F8"/>
<path d="M214.554 364.456C215.054 364.456 215.46 364.051 215.46 363.551C215.46 363.051 215.054 362.645 214.554 362.645C214.054 362.645 213.648 363.051 213.648 363.551C213.648 364.051 214.054 364.456 214.554 364.456Z" fill="#F8F8F8"/>
<path d="M237.982 364.412C238.47 364.412 238.865 364.016 238.865 363.529C238.865 363.042 238.47 362.646 237.982 362.646C237.495 362.646 237.1 363.042 237.1 363.529C237.1 364.016 237.495 364.412 237.982 364.412Z" fill="#F8F8F8"/>
<path d="M261.412 364.365C261.887 364.365 262.271 363.98 262.271 363.506C262.271 363.031 261.887 362.646 261.412 362.646C260.937 362.646 260.553 363.031 260.553 363.506C260.553 363.98 260.937 364.365 261.412 364.365Z" fill="#F8F8F8"/>
<path d="M284.819 364.272C285.268 364.272 285.632 363.908 285.632 363.459C285.632 363.01 285.268 362.646 284.819 362.646C284.37 362.646 284.006 363.01 284.006 363.459C284.006 363.908 284.37 364.272 284.819 364.272Z" fill="#F8F8F8"/>
<path d="M308.247 364.224C308.683 364.224 309.036 363.871 309.036 363.435C309.036 362.999 308.683 362.645 308.247 362.645C307.811 362.645 307.457 362.999 307.457 363.435C307.457 363.871 307.811 364.224 308.247 364.224Z" fill="#F8F8F8"/>
<path d="M331.677 364.179C332.1 364.179 332.443 363.836 332.443 363.413C332.443 362.99 332.1 362.646 331.677 362.646C331.253 362.646 330.91 362.99 330.91 363.413C330.91 363.836 331.253 364.179 331.677 364.179Z" fill="#F8F8F8"/>
<path d="M355.081 364.086C355.479 364.086 355.801 363.764 355.801 363.366C355.801 362.968 355.479 362.646 355.081 362.646C354.684 362.646 354.361 362.968 354.361 363.366C354.361 363.764 354.684 364.086 355.081 364.086Z" fill="#F8F8F8"/>
<path d="M144.359 388.235C144.949 388.235 145.428 387.756 145.428 387.166C145.428 386.576 144.949 386.098 144.359 386.098C143.769 386.098 143.291 386.576 143.291 387.166C143.291 387.756 143.769 388.235 144.359 388.235Z" fill="#F8F8F8"/>
<path d="M167.787 388.188C168.364 388.188 168.832 387.72 168.832 387.143C168.832 386.566 168.364 386.098 167.787 386.098C167.21 386.098 166.742 386.566 166.742 387.143C166.742 387.72 167.21 388.188 167.787 388.188Z" fill="#F8F8F8"/>
<path d="M191.24 388.188C191.818 388.188 192.285 387.72 192.285 387.143C192.285 386.566 191.818 386.098 191.24 386.098C190.663 386.098 190.195 386.566 190.195 387.143C190.195 387.72 190.663 388.188 191.24 388.188Z" fill="#F8F8F8"/>
<path d="M214.693 388.188C215.271 388.188 215.739 387.72 215.739 387.143C215.739 386.566 215.271 386.098 214.693 386.098C214.116 386.098 213.648 386.566 213.648 387.143C213.648 387.72 214.116 388.188 214.693 388.188Z" fill="#F8F8F8"/>
<path d="M238.121 388.141C238.686 388.141 239.143 387.684 239.143 387.119C239.143 386.555 238.686 386.098 238.121 386.098C237.557 386.098 237.1 386.555 237.1 387.119C237.1 387.684 237.557 388.141 238.121 388.141Z" fill="#F8F8F8"/>
<path d="M261.551 388.096C262.103 388.096 262.55 387.649 262.55 387.097C262.55 386.546 262.103 386.099 261.551 386.099C261 386.099 260.553 386.546 260.553 387.097C260.553 387.649 261 388.096 261.551 388.096Z" fill="#F8F8F8"/>
<path d="M285.004 388.096C285.556 388.096 286.003 387.649 286.003 387.097C286.003 386.546 285.556 386.099 285.004 386.099C284.453 386.099 284.006 386.546 284.006 387.097C284.006 387.649 284.453 388.096 285.004 388.096Z" fill="#F8F8F8"/>
<path d="M308.432 388.049C308.971 388.049 309.408 387.613 309.408 387.074C309.408 386.535 308.971 386.099 308.432 386.099C307.894 386.099 307.457 386.535 307.457 387.074C307.457 387.613 307.894 388.049 308.432 388.049Z" fill="#F8F8F8"/>
<path d="M331.862 388.002C332.388 388.002 332.814 387.576 332.814 387.05C332.814 386.524 332.388 386.098 331.862 386.098C331.336 386.098 330.91 386.524 330.91 387.05C330.91 387.576 331.336 388.002 331.862 388.002Z" fill="#F8F8F8"/>
<path d="M355.267 387.909C355.767 387.909 356.173 387.504 356.173 387.003C356.173 386.503 355.767 386.098 355.267 386.098C354.767 386.098 354.361 386.503 354.361 387.003C354.361 387.504 354.767 387.909 355.267 387.909Z" fill="#F8F8F8"/>
<path d="M144.406 411.781C145.021 411.781 145.52 411.282 145.52 410.666C145.52 410.05 145.021 409.551 144.406 409.551C143.79 409.551 143.291 410.05 143.291 410.666C143.291 411.282 143.79 411.781 144.406 411.781Z" fill="#F8F8F8"/>
<path d="M167.88 411.826C168.509 411.826 169.018 411.316 169.018 410.688C169.018 410.059 168.509 409.55 167.88 409.55C167.252 409.55 166.742 410.059 166.742 410.688C166.742 411.316 167.252 411.826 167.88 411.826Z" fill="#F8F8F8"/>
<path d="M191.356 411.873C191.998 411.873 192.518 411.353 192.518 410.712C192.518 410.071 191.998 409.551 191.356 409.551C190.715 409.551 190.195 410.071 190.195 410.712C190.195 411.353 190.715 411.873 191.356 411.873Z" fill="#F8F8F8"/>
<path d="M214.81 411.873C215.451 411.873 215.971 411.353 215.971 410.712C215.971 410.071 215.451 409.551 214.81 409.551C214.168 409.551 213.648 410.071 213.648 410.712C213.648 411.353 214.168 411.873 214.81 411.873Z" fill="#F8F8F8"/>
<path d="M237.698 411.333C238.352 411.333 238.882 410.803 238.882 410.149C238.882 409.495 238.352 408.964 237.698 408.964C237.044 408.964 236.514 409.495 236.514 410.149C236.514 410.803 237.044 411.333 237.698 411.333Z" fill="#F8F8F8"/>
<path d="M261.151 411.333C261.805 411.333 262.335 410.803 262.335 410.149C262.335 409.495 261.805 408.964 261.151 408.964C260.497 408.964 259.967 409.495 259.967 410.149C259.967 410.803 260.497 411.333 261.151 411.333Z" fill="#F8F8F8"/>
<path d="M285.167 411.873C285.808 411.873 286.328 411.353 286.328 410.712C286.328 410.071 285.808 409.551 285.167 409.551C284.526 409.551 284.006 410.071 284.006 410.712C284.006 411.353 284.526 411.873 285.167 411.873Z" fill="#F8F8F8"/>
<path d="M308.618 411.873C309.259 411.873 309.779 411.353 309.779 410.712C309.779 410.071 309.259 409.551 308.618 409.551C307.977 409.551 307.457 410.071 307.457 410.712C307.457 411.353 307.977 411.873 308.618 411.873Z" fill="#F8F8F8"/>
<path d="M332.025 411.781C332.64 411.781 333.14 411.282 333.14 410.666C333.14 410.05 332.64 409.551 332.025 409.551C331.409 409.551 330.91 410.05 330.91 410.666C330.91 411.282 331.409 411.781 332.025 411.781Z" fill="#F8F8F8"/>
<path d="M355.43 411.687C356.02 411.687 356.498 411.209 356.498 410.619C356.498 410.029 356.02 409.551 355.43 409.551C354.84 409.551 354.361 410.029 354.361 410.619C354.361 411.209 354.84 411.687 355.43 411.687Z" fill="#F8F8F8"/>
<path d="M143.889 434.785C144.544 434.785 145.074 434.255 145.074 433.601C145.074 432.947 144.544 432.417 143.889 432.417C143.235 432.417 142.705 432.947 142.705 433.601C142.705 434.255 143.235 434.785 143.889 434.785Z" fill="#F8F8F8"/>
<path d="M167.364 434.832C168.031 434.832 168.571 434.291 168.571 433.625C168.571 432.958 168.031 432.417 167.364 432.417C166.697 432.417 166.156 432.958 166.156 433.625C166.156 434.291 166.697 434.832 167.364 434.832Z" fill="#F8F8F8"/>
<path d="M190.863 434.924C191.556 434.924 192.117 434.363 192.117 433.67C192.117 432.977 191.556 432.416 190.863 432.416C190.171 432.416 189.609 432.977 189.609 433.67C189.609 434.363 190.171 434.924 190.863 434.924Z" fill="#F8F8F8"/>
<path d="M214.361 435.017C215.079 435.017 215.661 434.435 215.661 433.717C215.661 432.999 215.079 432.417 214.361 432.417C213.643 432.417 213.061 432.999 213.061 433.717C213.061 434.435 213.643 435.017 214.361 435.017Z" fill="#F8F8F8"/>
<path d="M237.837 435.064C238.568 435.064 239.161 434.472 239.161 433.741C239.161 433.01 238.568 432.417 237.837 432.417C237.106 432.417 236.514 433.01 236.514 433.741C236.514 434.472 237.106 435.064 237.837 435.064Z" fill="#F8F8F8"/>
<path d="M261.29 435.064C262.021 435.064 262.614 434.472 262.614 433.741C262.614 433.01 262.021 432.417 261.29 432.417C260.559 432.417 259.967 433.01 259.967 433.741C259.967 434.472 260.559 435.064 261.29 435.064Z" fill="#F8F8F8"/>
<path d="M284.742 435.064C285.473 435.064 286.065 434.472 286.065 433.741C286.065 433.01 285.473 432.417 284.742 432.417C284.011 432.417 283.418 433.01 283.418 433.741C283.418 434.472 284.011 435.064 284.742 435.064Z" fill="#F8F8F8"/>
<path d="M308.172 435.017C308.89 435.017 309.472 434.435 309.472 433.717C309.472 432.999 308.89 432.417 308.172 432.417C307.453 432.417 306.871 432.999 306.871 433.717C306.871 434.435 307.453 435.017 308.172 435.017Z" fill="#F8F8F8"/>
<path d="M331.601 434.971C332.307 434.971 332.879 434.399 332.879 433.694C332.879 432.988 332.307 432.417 331.601 432.417C330.896 432.417 330.324 432.988 330.324 433.694C330.324 434.399 330.896 434.971 331.601 434.971Z" fill="#F8F8F8"/>
<path d="M355.006 434.879C355.686 434.879 356.237 434.328 356.237 433.648C356.237 432.968 355.686 432.417 355.006 432.417C354.326 432.417 353.775 432.968 353.775 433.648C353.775 434.328 354.326 434.879 355.006 434.879Z" fill="#F8F8F8"/>
<path d="M143.936 458.331C144.616 458.331 145.167 457.78 145.167 457.1C145.167 456.421 144.616 455.87 143.936 455.87C143.256 455.87 142.705 456.421 142.705 457.1C142.705 457.78 143.256 458.331 143.936 458.331Z" fill="#F8F8F8"/>
<path d="M167.457 458.47C168.175 458.47 168.757 457.888 168.757 457.17C168.757 456.451 168.175 455.869 167.457 455.869C166.738 455.869 166.156 456.451 166.156 457.17C166.156 457.888 166.738 458.47 167.457 458.47Z" fill="#F8F8F8"/>
<path d="M190.956 458.563C191.7 458.563 192.303 457.96 192.303 457.216C192.303 456.473 191.7 455.87 190.956 455.87C190.212 455.87 189.609 456.473 189.609 457.216C189.609 457.96 190.212 458.563 190.956 458.563Z" fill="#F8F8F8"/>
<path d="M214.454 458.656C215.223 458.656 215.847 458.032 215.847 457.262C215.847 456.493 215.223 455.869 214.454 455.869C213.684 455.869 213.061 456.493 213.061 457.262C213.061 458.032 213.684 458.656 214.454 458.656Z" fill="#F8F8F8"/>
<path d="M237.93 458.702C238.713 458.702 239.347 458.068 239.347 457.286C239.347 456.503 238.713 455.869 237.93 455.869C237.148 455.869 236.514 456.503 236.514 457.286C236.514 458.068 237.148 458.702 237.93 458.702Z" fill="#F8F8F8"/>
<path d="M261.407 458.749C262.202 458.749 262.846 458.104 262.846 457.309C262.846 456.514 262.202 455.87 261.407 455.87C260.611 455.87 259.967 456.514 259.967 457.309C259.967 458.104 260.611 458.749 261.407 458.749Z" fill="#F8F8F8"/>
<path d="M284.858 458.749C285.653 458.749 286.297 458.104 286.297 457.309C286.297 456.514 285.653 455.87 284.858 455.87C284.063 455.87 283.418 456.514 283.418 457.309C283.418 458.104 284.063 458.749 284.858 458.749Z" fill="#F8F8F8"/>
<path d="M308.288 458.702C309.07 458.702 309.704 458.068 309.704 457.286C309.704 456.503 309.07 455.869 308.288 455.869C307.505 455.869 306.871 456.503 306.871 457.286C306.871 458.068 307.505 458.702 308.288 458.702Z" fill="#F8F8F8"/>
<path d="M331.718 458.656C332.487 458.656 333.111 458.032 333.111 457.262C333.111 456.493 332.487 455.869 331.718 455.869C330.948 455.869 330.324 456.493 330.324 457.262C330.324 458.032 330.948 458.656 331.718 458.656Z" fill="#F8F8F8"/>
<path d="M355.122 458.563C355.866 458.563 356.469 457.96 356.469 457.216C356.469 456.473 355.866 455.87 355.122 455.87C354.378 455.87 353.775 456.473 353.775 457.216C353.775 457.96 354.378 458.563 355.122 458.563Z" fill="#F8F8F8"/>
</g>
<mask id="mask2_260_95" style="mask-type:alpha" maskUnits="userSpaceOnUse" x="34" y="143" width="432" height="181">
<path d="M465.762 143.952H34.2383V323.363H465.762V143.952Z" fill="url(#paint4_linear_260_95)"/>
</mask>
<g mask="url(#mask2_260_95)">
<path opacity="0.3" d="M62.5514 321.018H2.5772C-0.0132377 321.018 -2.11328 318.918 -2.11328 316.327V-62.4287C-2.11328 -65.0191 -0.0132377 -67.1191 2.5772 -67.1191H497.422C500.013 -67.1191 502.113 -65.0191 502.113 -62.4287V316.327C502.113 318.918 500.013 321.018 497.422 321.018H438.144C436.806 321.018 435.533 320.447 434.643 319.449L391.538 271.113C390.648 270.116 389.375 269.544 388.038 269.544H112.657C111.32 269.544 110.046 270.116 109.156 271.113L66.0521 319.449C65.1621 320.447 63.8885 321.018 62.5514 321.018Z" fill="url(#paint5_linear_260_95)"/>
<path opacity="0.3" d="M62.5514 145.125H2.5772C-0.0132377 145.125 -2.11328 147.225 -2.11328 149.815V528.571C-2.11328 531.162 -0.0132377 533.262 2.5772 533.262H497.422C500.013 533.262 502.113 531.162 502.113 528.571V149.815C502.113 147.225 500.013 145.125 497.422 145.125H438.144C436.806 145.125 435.533 145.696 434.643 146.694L391.538 195.029C390.648 196.027 389.375 196.598 388.038 196.598H112.657C111.32 196.598 110.046 196.027 109.156 195.029L66.0521 146.694C65.1621 145.696 63.8885 145.125 62.5514 145.125Z" fill="url(#paint6_linear_260_95)"/>
</g>
<path opacity="0.3" d="M62.5514 145.125H2.5772C-0.0132377 145.125 -2.11328 147.225 -2.11328 149.815V528.571C-2.11328 531.162 -0.0132377 533.262 2.5772 533.262H497.422C500.013 533.262 502.113 531.162 502.113 528.571V149.815C502.113 147.225 500.013 145.125 497.422 145.125H438.144C436.806 145.125 435.533 145.696 434.643 146.694L391.538 195.029C390.648 196.027 389.375 196.598 388.038 196.598H112.657C111.32 196.598 110.046 196.027 109.156 195.029L66.0521 146.694C65.1621 145.696 63.8885 145.125 62.5514 145.125Z" stroke="url(#paint7_linear_260_95)" stroke-width="1.75893"/>
<mask id="mask3_260_95" style="mask-type:alpha" maskUnits="userSpaceOnUse" x="357" y="201" width="156" height="60">
<path d="M357.881 201.997V260.628H512.667V201.997H357.881Z" fill="url(#paint8_linear_260_95)"/>
</mask>
<g mask="url(#mask3_260_95)">
<path opacity="0.5" d="M356.707 236.003H436.077C438.565 236.003 440.951 236.991 442.71 238.75L460.668 256.708C462.427 258.467 464.813 259.455 467.301 259.455H526.737" stroke="url(#paint9_linear_260_95)" stroke-width="1.75893"/>
<path opacity="0.25" d="M540.808 209.033H484.233C481.787 209.033 479.438 209.988 477.686 211.695L460.284 228.651C458.533 230.357 456.184 231.312 453.738 231.312H356.707" stroke="url(#paint10_linear_260_95)" stroke-width="1.75893"/>
<path opacity="0.25" d="M540.808 204.342H431.342C428.625 204.342 426.04 205.521 424.259 207.573L410.521 223.391C408.74 225.444 406.155 226.622 403.438 226.622H356.707" stroke="url(#paint11_linear_260_95)" stroke-width="1.75893"/>
<path d="M439.963 204.342H454.034" stroke="#F8F8F8" stroke-width="1.75893"/>
<path opacity="0.5" d="M422.373 231.312H430.581" stroke="#F8F8F8" stroke-width="1.75893"/>
<path d="M380.16 236.003H390.714" stroke="#F8F8F8" stroke-width="1.75893"/>
</g>
<mask id="mask4_260_95" style="mask-type:alpha" maskUnits="userSpaceOnUse" x="-13" y="202" width="156" height="60">
<path d="M142.117 261.214V202.583H-12.6685V261.214H142.117Z" fill="url(#paint12_linear_260_95)"/>
</mask>
<g mask="url(#mask4_260_95)">
<path opacity="0.5" d="M143.291 227.208H63.9212C61.4333 227.208 59.0471 226.22 57.288 224.461L39.3308 206.503C37.5715 204.744 35.1854 203.756 32.6974 203.756H-26.7383" stroke="url(#paint13_linear_260_95)" stroke-width="1.75893"/>
<path opacity="0.25" d="M-40.8105 254.179H15.7648C18.2105 254.179 20.5596 253.223 22.3114 251.517L39.7133 234.561C41.4651 232.855 43.8142 231.899 46.2599 231.899H143.291" stroke="url(#paint14_linear_260_95)" stroke-width="1.75893"/>
<path opacity="0.25" d="M-40.8105 258.869H68.6556C71.3729 258.869 73.9567 257.691 75.7385 255.639L89.4767 239.82C91.2585 237.768 93.8424 236.589 96.5597 236.589H143.291" stroke="url(#paint15_linear_260_95)" stroke-width="1.75893"/>
<path d="M60.0343 258.869H45.9629" stroke="#F8F8F8" stroke-width="1.75893"/>
<path opacity="0.5" d="M77.6243 231.899H69.416" stroke="#F8F8F8" stroke-width="1.75893"/>
<path d="M119.839 227.208H109.285" stroke="#F8F8F8" stroke-width="1.75893"/>
</g>
</g>
</g>
</g>
<rect x="142.119" y="143.952" width="215.762" height="150.095" rx="28.1429" fill="#121212" fill-opacity="0.5"/>
<g clip-path="url(#clip4_260_95)">
<g clip-path="url(#clip5_260_95)">
<g clip-path="url(#clip6_260_95)">
<path opacity="0.5" d="M248.828 92.3569V113.647C248.828 117.442 246.541 120.864 243.034 122.315L235.861 125.283C232.353 126.735 230.066 130.156 230.066 133.952V148.643" stroke="url(#paint16_linear_260_95)" stroke-width="1.75893"/>
<path opacity="0.5" d="M251.172 92.3569V113.647C251.172 117.442 253.459 120.864 256.966 122.315L264.14 125.283C267.647 126.735 269.934 130.156 269.934 133.952V148.643" stroke="url(#paint17_linear_260_95)" stroke-width="1.75893"/>
</g>
</g>
</g>
<g filter="url(#filter1_bi_260_95)">
<rect x="214.822" y="257.696" width="70.3571" height="86.7738" rx="2.34524" fill="#282828" fill-opacity="0.7"/>
</g>
<g filter="url(#filter2_bi_260_95)">
<rect x="212.477" y="333.917" width="75.0476" height="10.5536" rx="2.34524" fill="#282828" fill-opacity="0.7"/>
</g>
<mask id="mask5_260_95" style="mask-type:alpha" maskUnits="userSpaceOnUse" x="212" y="333" width="76" height="12">
<rect x="212.477" y="333.917" width="75.0476" height="10.5536" fill="url(#paint18_linear_260_95)"/>
</mask>
<g mask="url(#mask5_260_95)">
<rect x="213.063" y="334.503" width="73.875" height="9.38095" rx="1.75893" stroke="white" stroke-opacity="0.1" stroke-width="1.17262"/>
</g>
<mask id="mask6_260_95" style="mask-type:alpha" maskUnits="userSpaceOnUse" x="214" y="257" width="72" height="88">
<rect x="214.822" y="257.696" width="70.3571" height="86.7738" fill="url(#paint19_linear_260_95)"/>
</mask>
<g mask="url(#mask6_260_95)">
<rect x="215.409" y="258.283" width="69.1845" height="85.6012" rx="1.75893" stroke="white" stroke-opacity="0.1" stroke-width="1.17262"/>
</g>
<g filter="url(#filter3_bd_260_95)">
<rect x="146.809" y="148.643" width="206.381" height="140.714" rx="23.4524" fill="#F8F8F8" fill-opacity="0.05" shape-rendering="crispEdges"/>
</g>
<g filter="url(#filter4_bdi_260_95)">
<rect x="167.916" y="169.75" width="77.3929" height="98.5" rx="14.0714" fill="white" fill-opacity="0.05" shape-rendering="crispEdges"/>
</g>
<rect x="168.502" y="170.336" width="76.2202" height="97.3274" rx="13.4851" stroke="#F8F8F8" stroke-opacity="0.4" stroke-width="1.17262"/>
<rect x="181.988" y="183.821" width="32.8333" height="4.69048" rx="1.17262" fill="#F8F8F8" fill-opacity="0.5"/>
<rect x="181.988" y="192.03" width="49.25" height="4.69048" rx="1.17262" fill="#F8F8F8" fill-opacity="0.1"/>
<rect x="181.988" y="200.238" width="49.25" height="4.69048" rx="1.17262" fill="#F8F8F8" fill-opacity="0.1"/>
<g filter="url(#filter5_bi_260_95)">
<rect x="254.689" y="169.75" width="77.3929" height="49.25" rx="14.0714" fill="white" fill-opacity="0.01"/>
</g>
<mask id="mask7_260_95" style="mask-type:alpha" maskUnits="userSpaceOnUse" x="254" y="169" width="79" height="50">
<rect x="254.689" y="169.75" width="77.3929" height="49.25" fill="url(#paint20_linear_260_95)"/>
</mask>
<g mask="url(#mask7_260_95)">
<rect x="255.276" y="170.336" width="76.2202" height="48.0774" rx="13.4851" stroke="white" stroke-opacity="0.1" stroke-width="1.17262"/>
</g>
<rect x="268.762" y="183.821" width="32.8333" height="4.69048" rx="1.17262" fill="#F8F8F8" fill-opacity="0.5"/>
<rect x="268.762" y="192.03" width="49.25" height="4.69048" rx="1.17262" fill="#F8F8F8" fill-opacity="0.1"/>
<rect x="268.762" y="200.238" width="49.25" height="4.69048" rx="1.17262" fill="#F8F8F8" fill-opacity="0.1"/>
<mask id="mask8_260_95" style="mask-type:alpha" maskUnits="userSpaceOnUse" x="146" y="148" width="208" height="142">
<rect x="146.809" y="148.643" width="206.381" height="140.714" fill="url(#paint21_linear_260_95)"/>
</mask>
<g mask="url(#mask8_260_95)">
<rect x="147.395" y="149.229" width="205.208" height="139.542" rx="22.8661" stroke="white" stroke-opacity="0.1" stroke-width="1.17262"/>
</g>
<g filter="url(#filter6_bd_260_95)">
<rect x="151.5" y="64.2144" width="46.9048" height="46.9048" rx="23.4524" fill="#F8F8F8" fill-opacity="0.05" shape-rendering="crispEdges"/>
</g>
<mask id="mask9_260_95" style="mask-type:alpha" maskUnits="userSpaceOnUse" x="151" y="64" width="48" height="48">
<rect x="151.5" y="64.2144" width="46.9048" height="46.9048" fill="url(#paint22_linear_260_95)"/>
</mask>
<g mask="url(#mask9_260_95)">
<rect x="152.086" y="64.8007" width="45.7321" height="45.7321" rx="22.8661" stroke="white" stroke-opacity="0.1" stroke-width="1.17262"/>
</g>
<g clip-path="url(#clip7_260_95)">
<g clip-path="url(#clip8_260_95)">
<g clip-path="url(#clip9_260_95)">
<path opacity="0.5" d="M169.548 79.3061C167.941 80.2338 166.646 81.6171 165.825 83.2812C165.004 84.9452 164.696 86.8152 164.938 88.6547C165.18 90.4942 165.962 92.2206 167.185 93.6155C168.409 95.0105 170.018 96.0114 171.81 96.4915C173.603 96.9717 175.497 96.9098 177.254 96.3133C179.011 95.7169 180.551 94.613 181.681 93.141C182.81 91.6691 183.478 89.8952 183.599 88.0438C183.721 86.1923 183.29 84.3466 182.363 82.7398C181.119 80.5851 179.07 79.0129 176.666 78.3689C174.263 77.725 171.703 78.0621 169.548 79.3061ZM168.899 87.4002C168.874 86.969 169.203 86.5992 169.634 86.5738L171.379 86.4711C171.811 86.4457 172.182 86.7755 172.206 87.2075C172.231 87.6387 171.902 88.0086 171.471 88.0339L169.726 88.1366C169.294 88.1621 168.923 87.8322 168.899 87.4002ZM177.365 92.8464C176.288 93.4683 175.008 93.6369 173.806 93.3149C171.841 92.7884 172.386 90.3049 174.148 89.2876L175.892 88.2809C177.654 87.2637 180.077 88.0331 179.551 89.9982C179.229 91.1999 178.443 92.2244 177.365 92.8464ZM176.139 85.3336C175.902 85.6945 175.417 85.7947 175.056 85.5576C174.694 85.3201 174.594 84.8344 174.832 84.4731L175.793 83.0139C176.031 82.6529 176.516 82.5533 176.877 82.7914C177.237 83.029 177.337 83.5134 177.1 83.8739L176.139 85.3336Z" fill="url(#paint23_linear_260_95)"/>
</g>
</g>
</g>
<g filter="url(#filter7_bdi_260_95)">
<rect x="221.857" y="40.7617" width="56.2857" height="56.2857" rx="28.1429" fill="white" fill-opacity="0.05" shape-rendering="crispEdges"/>
</g>
<rect x="222.444" y="41.348" width="55.1131" height="55.1131" rx="27.5565" stroke="#F8F8F8" stroke-opacity="0.05" stroke-width="1.17262"/>
<g filter="url(#filter8_di_260_95)">
<rect x="226.549" y="45.4521" width="46.9048" height="46.9048" rx="23.4524" fill="#F8F8F8" fill-opacity="0.05" shape-rendering="crispEdges"/>
</g>
<mask id="mask10_260_95" style="mask-type:alpha" maskUnits="userSpaceOnUse" x="226" y="45" width="48" height="48">
<rect x="226.549" y="45.4521" width="46.9048" height="46.9048" fill="url(#paint24_linear_260_95)"/>
</mask>
<g mask="url(#mask10_260_95)">
<rect x="227.135" y="46.0385" width="45.7321" height="45.7321" rx="22.8661" stroke="white" stroke-opacity="0.1" stroke-width="1.17262"/>
</g>
<g clip-path="url(#clip10_260_95)">
<g clip-path="url(#clip11_260_95)">
<g clip-path="url(#clip12_260_95)">
<path d="M250.002 59.5234C248.147 59.5234 246.333 60.0736 244.79 61.1044C243.248 62.1352 242.045 63.6003 241.335 65.3145C240.625 67.0286 240.439 68.9148 240.801 70.7345C241.163 72.5543 242.057 74.2257 243.369 75.5378C244.681 76.8497 246.352 77.7431 248.172 78.1051C249.992 78.4671 251.878 78.2812 253.592 77.5712C255.306 76.8612 256.771 75.6589 257.802 74.1162C258.833 72.5735 259.383 70.7598 259.383 68.9044C259.383 66.4164 258.395 64.0303 256.635 62.2711C254.876 60.5118 252.49 59.5234 250.002 59.5234ZM254.561 72.4653C254.068 73.2428 253.398 73.8924 252.606 74.3606C251.813 74.8287 250.921 75.1022 250.002 75.1583C249.57 75.1583 249.22 74.8084 249.22 74.3767C249.22 73.9449 249.57 73.5949 250.002 73.5949C250.664 73.5392 251.303 73.3296 251.87 72.9828C252.436 72.636 252.914 72.1616 253.264 71.5975C253.503 71.239 253.989 71.1409 254.347 71.38C254.707 71.6199 254.803 72.1067 254.561 72.4653ZM254.969 69.8007C254.676 69.9697 254.353 70.0799 254.018 70.1241C253.682 70.1682 253.342 70.1459 253.015 70.0583C252.688 69.9708 252.382 69.8197 252.114 69.6138C251.846 69.4079 251.62 69.1512 251.451 68.8583L250.736 67.6191C250.616 67.4102 250.539 67.1586 250.343 67.0179C250.244 66.9468 250.125 66.9085 250.003 66.9085C249.881 66.9085 249.762 66.9468 249.663 67.0179C249.467 67.1586 249.39 67.4102 249.27 67.6191L248.554 68.8583C248.327 69.2519 247.999 69.5783 247.605 69.8043C247.21 70.0303 246.763 70.1479 246.308 70.145C245.854 70.1421 245.408 70.0189 245.016 69.7879C244.625 69.5569 244.301 69.2264 244.079 68.8299C243.856 68.4334 243.743 67.9851 243.75 67.5305C243.757 67.0759 243.884 66.6313 244.119 66.2418C244.353 65.8523 244.686 65.5318 245.085 65.3129C245.483 65.0941 245.933 64.9846 246.387 64.9957L250.002 65.0121L253.618 64.9957C254.191 64.9815 254.751 65.1584 255.212 65.4983C255.672 65.8383 256.006 66.322 256.161 66.873C256.316 67.424 256.283 68.0109 256.067 68.541C255.851 69.071 255.465 69.5146 254.969 69.8007Z" fill="url(#paint25_linear_260_95)"/>
</g>
</g>
</g>
<g filter="url(#filter9_bd_260_95)">
<rect x="301.596" y="64.2139" width="46.9048" height="46.9048" rx="23.4524" fill="#F8F8F8" fill-opacity="0.05" shape-rendering="crispEdges"/>
</g>
<mask id="mask11_260_95" style="mask-type:alpha" maskUnits="userSpaceOnUse" x="301" y="64" width="48" height="48">
<rect x="301.596" y="64.2139" width="46.9048" height="46.9048" fill="url(#paint26_linear_260_95)"/>
</mask>
<g mask="url(#mask11_260_95)">
<rect x="302.182" y="64.8002" width="45.7321" height="45.7321" rx="22.8661" stroke="white" stroke-opacity="0.1" stroke-width="1.17262"/>
</g>
<g clip-path="url(#clip13_260_95)">
<g clip-path="url(#clip14_260_95)">
<g clip-path="url(#clip15_260_95)">
<path opacity="0.5" d="M329.737 79.5401C328.131 78.6124 326.285 78.182 324.433 78.3034C322.582 78.4247 320.808 79.0923 319.336 80.2218C317.864 81.3513 316.76 82.8919 316.164 84.6488C315.567 86.4058 315.505 88.3 315.986 90.0922C316.466 91.8844 317.467 93.4939 318.862 94.7172C320.257 95.9406 321.983 96.7227 323.822 96.9649C325.662 97.207 327.532 96.8984 329.196 96.0778C330.86 95.2572 332.243 93.9615 333.171 92.3547C334.415 90.2001 334.752 87.6395 334.108 85.2363C333.464 82.833 331.892 80.7841 329.737 79.5401ZM321.09 83.5741C321.401 83.0354 321.913 82.6424 322.514 82.4814C323.114 82.3204 323.755 82.4047 324.293 82.7157C324.832 83.0267 325.225 83.5389 325.386 84.1397C325.547 84.7405 325.463 85.3807 325.152 85.9193C324.936 86.2932 324.458 86.4213 324.084 86.2055C323.71 85.9896 323.582 85.5115 323.798 85.1376C323.901 84.958 323.929 84.7447 323.876 84.5444C323.822 84.3441 323.691 84.1734 323.512 84.0697C323.332 83.966 323.119 83.9379 322.918 83.9916C322.718 84.0453 322.547 84.1763 322.444 84.3558C322.228 84.7297 321.75 84.8578 321.376 84.642C321.002 84.4261 320.874 83.948 321.09 83.5741ZM321.92 93.0803C320.843 92.4583 320.057 91.4338 319.735 90.2323C319.208 88.267 321.631 87.4977 323.393 88.5149L325.137 89.5216C326.899 90.5389 327.444 93.0223 325.479 93.549C324.278 93.8708 322.997 93.7023 321.92 93.0803ZM330.568 89.0463C330.352 89.4202 329.874 89.5484 329.5 89.3325C329.126 89.1166 328.998 88.6385 329.214 88.2646C329.317 88.085 329.346 87.8717 329.292 87.6713C329.238 87.4711 329.107 87.3003 328.928 87.1967C328.748 87.093 328.535 87.065 328.334 87.1186C328.134 87.1723 327.963 87.3033 327.86 87.4829C327.644 87.8568 327.166 87.9848 326.792 87.769C326.418 87.5531 326.29 87.075 326.506 86.7011C326.817 86.1624 327.329 85.7694 327.93 85.6084C328.531 85.4474 329.171 85.5317 329.709 85.8427C330.248 86.1537 330.641 86.6659 330.802 87.2667C330.963 87.8675 330.879 88.5076 330.568 89.0463Z" fill="url(#paint27_linear_260_95)"/>
</g>
</g>
</g>
</g>
</g>
<defs>
<filter id="filter0_i_260_95" x="0" y="0" width="500" height="460" filterUnits="userSpaceOnUse" color-interpolation-filters="sRGB">
<feFlood flood-opacity="0" result="BackgroundImageFix"/>
<feBlend mode="normal" in="SourceGraphic" in2="BackgroundImageFix" result="shape"/>
<feColorMatrix in="SourceAlpha" type="matrix" values="0 0 0 0 0 0 0 0 0 0 0 0 0 0 0 0 0 0 127 0" result="hardAlpha"/>
<feMorphology radius="6" operator="erode" in="SourceAlpha" result="effect1_innerShadow_260_95"/>
<feOffset/>
<feGaussianBlur stdDeviation="20"/>
<feComposite in2="hardAlpha" operator="arithmetic" k2="-1" k3="1"/>
<feColorMatrix type="matrix" values="0 0 0 0 0.0627451 0 0 0 0 0.0862745 0 0 0 0 0.211765 0 0 0 1 0"/>
<feBlend mode="normal" in2="shape" result="effect1_innerShadow_260_95"/>
</filter>
<filter id="filter1_bi_260_95" x="156.191" y="199.065" width="187.619" height="204.036" filterUnits="userSpaceOnUse" color-interpolation-filters="sRGB">
<feFlood flood-opacity="0" result="BackgroundImageFix"/>
<feGaussianBlur in="BackgroundImageFix" stdDeviation="29.3155"/>
<feComposite in2="SourceAlpha" operator="in" result="effect1_backgroundBlur_260_95"/>
<feBlend mode="normal" in="SourceGraphic" in2="effect1_backgroundBlur_260_95" result="shape"/>
<feColorMatrix in="SourceAlpha" type="matrix" values="0 0 0 0 0 0 0 0 0 0 0 0 0 0 0 0 0 0 127 0" result="hardAlpha"/>
<feOffset/>
<feGaussianBlur stdDeviation="4.69048"/>
<feComposite in2="hardAlpha" operator="arithmetic" k2="-1" k3="1"/>
<feColorMatrix type="matrix" values="0 0 0 0 0.972549 0 0 0 0 0.972549 0 0 0 0 0.972549 0 0 0 0.25 0"/>
<feBlend mode="normal" in2="shape" result="effect2_innerShadow_260_95"/>
</filter>
<filter id="filter2_bi_260_95" x="153.846" y="275.286" width="192.309" height="127.816" filterUnits="userSpaceOnUse" color-interpolation-filters="sRGB">
<feFlood flood-opacity="0" result="BackgroundImageFix"/>
<feGaussianBlur in="BackgroundImageFix" stdDeviation="29.3155"/>
<feComposite in2="SourceAlpha" operator="in" result="effect1_backgroundBlur_260_95"/>
<feBlend mode="normal" in="SourceGraphic" in2="effect1_backgroundBlur_260_95" result="shape"/>
<feColorMatrix in="SourceAlpha" type="matrix" values="0 0 0 0 0 0 0 0 0 0 0 0 0 0 0 0 0 0 127 0" result="hardAlpha"/>
<feOffset/>
<feGaussianBlur stdDeviation="4.69048"/>
<feComposite in2="hardAlpha" operator="arithmetic" k2="-1" k3="1"/>
<feColorMatrix type="matrix" values="0 0 0 0 0.972549 0 0 0 0 0.972549 0 0 0 0 0.972549 0 0 0 0.25 0"/>
<feBlend mode="normal" in2="shape" result="effect2_innerShadow_260_95"/>
</filter>
<filter id="filter3_bd_260_95" x="118.666" y="129.881" width="262.667" height="215.762" filterUnits="userSpaceOnUse" color-interpolation-filters="sRGB">
<feFlood flood-opacity="0" result="BackgroundImageFix"/>
<feGaussianBlur in="BackgroundImageFix" stdDeviation="9.38095"/>
<feComposite in2="SourceAlpha" operator="in" result="effect1_backgroundBlur_260_95"/>
<feColorMatrix in="SourceAlpha" type="matrix" values="0 0 0 0 0 0 0 0 0 0 0 0 0 0 0 0 0 0 127 0" result="hardAlpha"/>
<feOffset dy="28.1429"/>
<feGaussianBlur stdDeviation="14.0714"/>
<feComposite in2="hardAlpha" operator="out"/>
<feColorMatrix type="matrix" values="0 0 0 0 0 0 0 0 0 0 0 0 0 0 0 0 0 0 0.3 0"/>
<feBlend mode="normal" in2="effect1_backgroundBlur_260_95" result="effect2_dropShadow_260_95"/>
<feBlend mode="normal" in="SourceGraphic" in2="effect2_dropShadow_260_95" result="shape"/>
</filter>
<filter id="filter4_bdi_260_95" x="158.535" y="162.714" width="96.1545" height="152.44" filterUnits="userSpaceOnUse" color-interpolation-filters="sRGB">
<feFlood flood-opacity="0" result="BackgroundImageFix"/>
<feGaussianBlur in="BackgroundImageFix" stdDeviation="3.51786"/>
<feComposite in2="SourceAlpha" operator="in" result="effect1_backgroundBlur_260_95"/>
<feColorMatrix in="SourceAlpha" type="matrix" values="0 0 0 0 0 0 0 0 0 0 0 0 0 0 0 0 0 0 127 0" result="hardAlpha"/>
<feMorphology radius="18.7619" operator="erode" in="SourceAlpha" result="effect2_dropShadow_260_95"/>
<feOffset dy="37.5238"/>
<feGaussianBlur stdDeviation="14.0714"/>
<feComposite in2="hardAlpha" operator="out"/>
<feColorMatrix type="matrix" values="0 0 0 0 0 0 0 0 0 0 0 0 0 0 0 0 0 0 0.4 0"/>
<feBlend mode="normal" in2="effect1_backgroundBlur_260_95" result="effect2_dropShadow_260_95"/>
<feBlend mode="normal" in="SourceGraphic" in2="effect2_dropShadow_260_95" result="shape"/>
<feColorMatrix in="SourceAlpha" type="matrix" values="0 0 0 0 0 0 0 0 0 0 0 0 0 0 0 0 0 0 127 0" result="hardAlpha"/>
<feOffset/>
<feGaussianBlur stdDeviation="4.69048"/>
<feComposite in2="hardAlpha" operator="arithmetic" k2="-1" k3="1"/>
<feColorMatrix type="matrix" values="0 0 0 0 0.972549 0 0 0 0 0.972549 0 0 0 0 0.972549 0 0 0 0.25 0"/>
<feBlend mode="normal" in2="shape" result="effect3_innerShadow_260_95"/>
</filter>
<filter id="filter5_bi_260_95" x="196.059" y="111.119" width="194.654" height="166.512" filterUnits="userSpaceOnUse" color-interpolation-filters="sRGB">
<feFlood flood-opacity="0" result="BackgroundImageFix"/>
<feGaussianBlur in="BackgroundImageFix" stdDeviation="29.3155"/>
<feComposite in2="SourceAlpha" operator="in" result="effect1_backgroundBlur_260_95"/>
<feBlend mode="normal" in="SourceGraphic" in2="effect1_backgroundBlur_260_95" result="shape"/>
<feColorMatrix in="SourceAlpha" type="matrix" values="0 0 0 0 0 0 0 0 0 0 0 0 0 0 0 0 0 0 127 0" result="hardAlpha"/>
<feOffset dx="2.34524" dy="4.69048"/>
<feGaussianBlur stdDeviation="9.38095"/>
<feComposite in2="hardAlpha" operator="arithmetic" k2="-1" k3="1"/>
<feColorMatrix type="matrix" values="0 0 0 0 0.972549 0 0 0 0 0.972549 0 0 0 0 0.972549 0 0 0 0.06 0"/>
<feBlend mode="normal" in2="shape" result="effect2_innerShadow_260_95"/>
</filter>
<filter id="filter6_bd_260_95" x="123.357" y="45.4525" width="103.19" height="121.952" filterUnits="userSpaceOnUse" color-interpolation-filters="sRGB">
<feFlood flood-opacity="0" result="BackgroundImageFix"/>
<feGaussianBlur in="BackgroundImageFix" stdDeviation="9.38095"/>
<feComposite in2="SourceAlpha" operator="in" result="effect1_backgroundBlur_260_95"/>
<feColorMatrix in="SourceAlpha" type="matrix" values="0 0 0 0 0 0 0 0 0 0 0 0 0 0 0 0 0 0 127 0" result="hardAlpha"/>
<feOffset dy="28.1429"/>
<feGaussianBlur stdDeviation="14.0714"/>
<feComposite in2="hardAlpha" operator="out"/>
<feColorMatrix type="matrix" values="0 0 0 0 0 0 0 0 0 0 0 0 0 0 0 0 0 0 0.3 0"/>
<feBlend mode="normal" in2="effect1_backgroundBlur_260_95" result="effect2_dropShadow_260_95"/>
<feBlend mode="normal" in="SourceGraphic" in2="effect2_dropShadow_260_95" result="shape"/>
</filter>
<filter id="filter7_bdi_260_95" x="212.476" y="33.726" width="75.0471" height="110.226" filterUnits="userSpaceOnUse" color-interpolation-filters="sRGB">
<feFlood flood-opacity="0" result="BackgroundImageFix"/>
<feGaussianBlur in="BackgroundImageFix" stdDeviation="3.51786"/>
<feComposite in2="SourceAlpha" operator="in" result="effect1_backgroundBlur_260_95"/>
<feColorMatrix in="SourceAlpha" type="matrix" values="0 0 0 0 0 0 0 0 0 0 0 0 0 0 0 0 0 0 127 0" result="hardAlpha"/>
<feMorphology radius="18.7619" operator="erode" in="SourceAlpha" result="effect2_dropShadow_260_95"/>
<feOffset dy="37.5238"/>
<feGaussianBlur stdDeviation="14.0714"/>
<feComposite in2="hardAlpha" operator="out"/>
<feColorMatrix type="matrix" values="0 0 0 0 0 0 0 0 0 0 0 0 0 0 0 0 0 0 0.4 0"/>
<feBlend mode="normal" in2="effect1_backgroundBlur_260_95" result="effect2_dropShadow_260_95"/>
<feBlend mode="normal" in="SourceGraphic" in2="effect2_dropShadow_260_95" result="shape"/>
<feColorMatrix in="SourceAlpha" type="matrix" values="0 0 0 0 0 0 0 0 0 0 0 0 0 0 0 0 0 0 127 0" result="hardAlpha"/>
<feOffset/>
<feGaussianBlur stdDeviation="4.69048"/>
<feComposite in2="hardAlpha" operator="arithmetic" k2="-1" k3="1"/>
<feColorMatrix type="matrix" values="0 0 0 0 0.972549 0 0 0 0 0.972549 0 0 0 0 0.972549 0 0 0 0.25 0"/>
<feBlend mode="normal" in2="shape" result="effect3_innerShadow_260_95"/>
</filter>
<filter id="filter8_di_260_95" x="217.168" y="45.4521" width="65.6662" height="93.8095" filterUnits="userSpaceOnUse" color-interpolation-filters="sRGB">
<feFlood flood-opacity="0" result="BackgroundImageFix"/>
<feColorMatrix in="SourceAlpha" type="matrix" values="0 0 0 0 0 0 0 0 0 0 0 0 0 0 0 0 0 0 127 0" result="hardAlpha"/>
<feMorphology radius="18.7619" operator="erode" in="SourceAlpha" result="effect1_dropShadow_260_95"/>
<feOffset dy="37.5238"/>
<feGaussianBlur stdDeviation="14.0714"/>
<feComposite in2="hardAlpha" operator="out"/>
<feColorMatrix type="matrix" values="0 0 0 0 0 0 0 0 0 0 0 0 0 0 0 0 0 0 0.4 0"/>
<feBlend mode="normal" in2="BackgroundImageFix" result="effect1_dropShadow_260_95"/>
<feBlend mode="normal" in="SourceGraphic" in2="effect1_dropShadow_260_95" result="shape"/>
<feColorMatrix in="SourceAlpha" type="matrix" values="0 0 0 0 0 0 0 0 0 0 0 0 0 0 0 0 0 0 127 0" result="hardAlpha"/>
<feOffset/>
<feGaussianBlur stdDeviation="4.69048"/>
<feComposite in2="hardAlpha" operator="arithmetic" k2="-1" k3="1"/>
<feColorMatrix type="matrix" values="0 0 0 0 0.972549 0 0 0 0 0.972549 0 0 0 0 0.972549 0 0 0 0.25 0"/>
<feBlend mode="normal" in2="shape" result="effect2_innerShadow_260_95"/>
</filter>
<filter id="filter9_bd_260_95" x="273.453" y="45.452" width="103.19" height="121.952" filterUnits="userSpaceOnUse" color-interpolation-filters="sRGB">
<feFlood flood-opacity="0" result="BackgroundImageFix"/>
<feGaussianBlur in="BackgroundImageFix" stdDeviation="9.38095"/>
<feComposite in2="SourceAlpha" operator="in" result="effect1_backgroundBlur_260_95"/>
<feColorMatrix in="SourceAlpha" type="matrix" values="0 0 0 0 0 0 0 0 0 0 0 0 0 0 0 0 0 0 127 0" result="hardAlpha"/>
<feOffset dy="28.1429"/>
<feGaussianBlur stdDeviation="14.0714"/>
<feComposite in2="hardAlpha" operator="out"/>
<feColorMatrix type="matrix" values="0 0 0 0 0 0 0 0 0 0 0 0 0 0 0 0 0 0 0.3 0"/>
<feBlend mode="normal" in2="effect1_backgroundBlur_260_95" result="effect2_dropShadow_260_95"/>
<feBlend mode="normal" in="SourceGraphic" in2="effect2_dropShadow_260_95" result="shape"/>
</filter>
<linearGradient id="paint0_linear_260_95" x1="250" y1="71.25" x2="250" y2="366.75" gradientUnits="userSpaceOnUse">
<stop/>
<stop offset="0.05" stop-opacity="0.1"/>
<stop offset="0.1" stop-opacity="0"/>
</linearGradient>
<radialGradient id="paint1_radial_260_95" cx="0" cy="0" r="1" gradientUnits="userSpaceOnUse" gradientTransform="translate(249.999 219) rotate(90) scale(147.75)">
<stop offset="0.397211" stop-color="white" stop-opacity="0"/>
<stop offset="0.49798" stop-color="white" stop-opacity="0.15"/>
<stop offset="0.603724" stop-color="white" stop-opacity="0"/>
</radialGradient>
<linearGradient id="paint2_linear_260_95" x1="262.321" y1="413.616" x2="276.146" y2="327.564" gradientUnits="userSpaceOnUse">
<stop offset="0.260409" stop-color="#181818" stop-opacity="0"/>
<stop offset="1" stop-color="#181818"/>
</linearGradient>
<linearGradient id="paint3_linear_260_95" x1="250.001" y1="490.462" x2="250.001" y2="306.36" gradientUnits="userSpaceOnUse">
<stop offset="0.522974" stop-color="#F8F8F8" stop-opacity="0"/>
<stop offset="1" stop-color="#F8F8F8" stop-opacity="0.1"/>
</linearGradient>
<linearGradient id="paint4_linear_260_95" x1="465.762" y1="233.658" x2="34.2383" y2="233.658" gradientUnits="userSpaceOnUse">
<stop stop-color="#F8F8F8" stop-opacity="0"/>
<stop offset="0.498245" stop-color="#F8F8F8"/>
<stop offset="1" stop-color="#737373" stop-opacity="0"/>
</linearGradient>
<linearGradient id="paint5_linear_260_95" x1="373.201" y1="92.17" x2="373.201" y2="321.018" gradientUnits="userSpaceOnUse">
<stop offset="0.522974" stop-color="white" stop-opacity="0"/>
<stop offset="1" stop-color="white" stop-opacity="0.1"/>
</linearGradient>
<linearGradient id="paint6_linear_260_95" x1="373.201" y1="373.972" x2="373.201" y2="145.125" gradientUnits="userSpaceOnUse">
<stop offset="0.522974" stop-color="white" stop-opacity="0"/>
<stop offset="1" stop-color="white" stop-opacity="0.1"/>
</linearGradient>
<linearGradient id="paint7_linear_260_95" x1="373.201" y1="373.972" x2="373.201" y2="145.125" gradientUnits="userSpaceOnUse">
<stop offset="0.522974" stop-color="white" stop-opacity="0"/>
<stop offset="1" stop-color="white" stop-opacity="0.1"/>
</linearGradient>
<linearGradient id="paint8_linear_260_95" x1="357.881" y1="231.312" x2="512.667" y2="231.312" gradientUnits="userSpaceOnUse">
<stop offset="0.391024" stop-color="#D9D9D9"/>
<stop offset="1" stop-color="#737373" stop-opacity="0"/>
</linearGradient>
<linearGradient id="paint9_linear_260_95" x1="526.737" y1="236.003" x2="507.439" y2="308.281" gradientUnits="userSpaceOnUse">
<stop stop-color="#F8F8F8" stop-opacity="0.8"/>
<stop offset="0.45221" stop-color="#F8F8F8" stop-opacity="0.2"/>
<stop offset="1" stop-color="#F8F8F8" stop-opacity="0.8"/>
</linearGradient>
<linearGradient id="paint10_linear_260_95" x1="462.829" y1="209.033" x2="437.172" y2="272.164" gradientUnits="userSpaceOnUse">
<stop stop-color="#F8F8F8" stop-opacity="0.8"/>
<stop offset="0.54779" stop-color="#F8F8F8" stop-opacity="0.2"/>
<stop offset="1" stop-color="#F8F8F8" stop-opacity="0.8"/>
</linearGradient>
<linearGradient id="paint11_linear_260_95" x1="462.829" y1="204.342" x2="437.172" y2="267.474" gradientUnits="userSpaceOnUse">
<stop stop-color="#F8F8F8" stop-opacity="0.8"/>
<stop offset="0.54779" stop-color="#F8F8F8" stop-opacity="0.2"/>
<stop offset="1" stop-color="#F8F8F8" stop-opacity="0.8"/>
</linearGradient>
<linearGradient id="paint12_linear_260_95" x1="142.117" y1="231.898" x2="-12.6685" y2="231.898" gradientUnits="userSpaceOnUse">
<stop offset="0.391024" stop-color="#D9D9D9"/>
<stop offset="1" stop-color="#737373" stop-opacity="0"/>
</linearGradient>
<linearGradient id="paint13_linear_260_95" x1="-26.7383" y1="227.208" x2="-7.44037" y2="154.93" gradientUnits="userSpaceOnUse">
<stop stop-color="#F8F8F8" stop-opacity="0.8"/>
<stop offset="0.45221" stop-color="#F8F8F8" stop-opacity="0.2"/>
<stop offset="1" stop-color="#F8F8F8" stop-opacity="0.8"/>
</linearGradient>
<linearGradient id="paint14_linear_260_95" x1="37.1686" y1="254.179" x2="62.8252" y2="191.047" gradientUnits="userSpaceOnUse">
<stop stop-color="#F8F8F8" stop-opacity="0.8"/>
<stop offset="0.54779" stop-color="#F8F8F8" stop-opacity="0.2"/>
<stop offset="1" stop-color="#F8F8F8" stop-opacity="0.8"/>
</linearGradient>
<linearGradient id="paint15_linear_260_95" x1="37.1686" y1="258.869" x2="62.8252" y2="195.738" gradientUnits="userSpaceOnUse">
<stop stop-color="#F8F8F8" stop-opacity="0.8"/>
<stop offset="0.54779" stop-color="#F8F8F8" stop-opacity="0.2"/>
<stop offset="1" stop-color="#F8F8F8" stop-opacity="0.8"/>
</linearGradient>
<linearGradient id="paint16_linear_260_95" x1="248.828" y1="148.643" x2="205.093" y2="120.423" gradientUnits="userSpaceOnUse">
<stop stop-color="#F8F8F8" stop-opacity="0.8"/>
<stop offset="0.45221" stop-color="#F8F8F8" stop-opacity="0.2"/>
<stop offset="1" stop-color="#F8F8F8" stop-opacity="0.8"/>
</linearGradient>
<linearGradient id="paint17_linear_260_95" x1="251.172" y1="148.643" x2="294.907" y2="120.423" gradientUnits="userSpaceOnUse">
<stop stop-color="#F8F8F8" stop-opacity="0.8"/>
<stop offset="0.45221" stop-color="#F8F8F8" stop-opacity="0.2"/>
<stop offset="1" stop-color="#F8F8F8" stop-opacity="0.8"/>
</linearGradient>
<linearGradient id="paint18_linear_260_95" x1="246.168" y1="324.889" x2="253.833" y2="353.498" gradientUnits="userSpaceOnUse">
<stop/>
<stop offset="0.5" stop-opacity="0"/>
</linearGradient>
<linearGradient id="paint19_linear_260_95" x1="236.798" y1="251.808" x2="263.204" y2="350.358" gradientUnits="userSpaceOnUse">
<stop/>
<stop offset="0.5" stop-opacity="0"/>
</linearGradient>
<linearGradient id="paint20_linear_260_95" x1="284.637" y1="161.725" x2="302.134" y2="227.025" gradientUnits="userSpaceOnUse">
<stop/>
<stop offset="0.5" stop-opacity="0"/>
</linearGradient>
<linearGradient id="paint21_linear_260_95" x1="225.497" y1="127.558" x2="274.501" y2="310.442" gradientUnits="userSpaceOnUse">
<stop/>
<stop offset="0.5" stop-opacity="0"/>
</linearGradient>
<linearGradient id="paint22_linear_260_95" x1="151.5" y1="64.2144" x2="198.405" y2="111.119" gradientUnits="userSpaceOnUse">
<stop/>
<stop offset="0.4" stop-opacity="0"/>
</linearGradient>
<linearGradient id="paint23_linear_260_95" x1="169.548" y1="79.3061" x2="178.929" y2="95.5544" gradientUnits="userSpaceOnUse">
<stop stop-color="#F8F8F8" stop-opacity="0.9"/>
<stop offset="1" stop-color="#F8F8F8" stop-opacity="0.3"/>
</linearGradient>
<linearGradient id="paint24_linear_260_95" x1="245.283" y1="42.1487" x2="254.719" y2="95.6603" gradientUnits="userSpaceOnUse">
<stop/>
<stop offset="0.6" stop-opacity="0"/>
</linearGradient>
<linearGradient id="paint25_linear_260_95" x1="250.002" y1="59.5234" x2="250.002" y2="78.2853" gradientUnits="userSpaceOnUse">
<stop stop-color="#F8F8F8" stop-opacity="0.9"/>
<stop offset="1" stop-color="#F8F8F8" stop-opacity="0.3"/>
</linearGradient>
<linearGradient id="paint26_linear_260_95" x1="348.5" y1="64.2139" x2="301.596" y2="111.119" gradientUnits="userSpaceOnUse">
<stop/>
<stop offset="0.4" stop-opacity="0"/>
</linearGradient>
<linearGradient id="paint27_linear_260_95" x1="329.737" y1="79.5401" x2="320.356" y2="95.7884" gradientUnits="userSpaceOnUse">
<stop stop-color="#F8F8F8" stop-opacity="0.9"/>
<stop offset="1" stop-color="#F8F8F8" stop-opacity="0.3"/>
</linearGradient>
<clipPath id="clip0_260_95">
<rect width="500" height="460" rx="32" fill="white"/>
</clipPath>
<clipPath id="clip1_260_95">
<rect width="431.524" height="531.196" fill="white" transform="translate(34.2383 3.23828)"/>
</clipPath>
<clipPath id="clip2_260_95">
<rect width="431.524" height="531.196" fill="white" transform="translate(34.2383 3.23828)"/>
</clipPath>
<clipPath id="clip3_260_95">
<rect width="431.524" height="531.196" fill="white" transform="translate(34.2383 3.23828)"/>
</clipPath>
<clipPath id="clip4_260_95">
<rect width="42.2143" height="56.2857" fill="white" transform="translate(228.893 92.3569)"/>
</clipPath>
<clipPath id="clip5_260_95">
<rect width="42.2143" height="56.2857" fill="white" transform="translate(228.893 92.3569)"/>
</clipPath>
<clipPath id="clip6_260_95">
<rect width="42.2143" height="56.2857" fill="white" transform="translate(228.893 92.3569)"/>
</clipPath>
<clipPath id="clip7_260_95">
<rect width="19.9321" height="19.9321" fill="white" transform="translate(161.338 84.02) rotate(-30)"/>
</clipPath>
<clipPath id="clip8_260_95">
<rect width="19.9321" height="19.9321" fill="white" transform="translate(161.338 84.02) rotate(-30)"/>
</clipPath>
<clipPath id="clip9_260_95">
<rect width="19.9345" height="19.9345" fill="white" transform="translate(161.338 84.02) rotate(-30)"/>
</clipPath>
<clipPath id="clip10_260_95">
<rect width="18.7619" height="18.7619" fill="white" transform="translate(240.621 59.5234)"/>
</clipPath>
<clipPath id="clip11_260_95">
<rect width="18.7619" height="18.7619" fill="white" transform="translate(240.621 59.5234)"/>
</clipPath>
<clipPath id="clip12_260_95">
<rect width="18.7619" height="18.7619" fill="white" transform="translate(240.621 59.5234)"/>
</clipPath>
<clipPath id="clip13_260_95">
<rect width="18.7656" height="18.7656" fill="white" transform="translate(321.613 74.8496) rotate(30)"/>
</clipPath>
<clipPath id="clip14_260_95">
<rect width="18.7656" height="18.7656" fill="white" transform="translate(321.613 74.8496) rotate(30)"/>
</clipPath>
<clipPath id="clip15_260_95">
<rect width="18.7619" height="18.7619" fill="white" transform="translate(321.613 74.8496) rotate(30)"/>
</clipPath>
</defs>
</svg>
