<svg width="171" height="216" viewBox="0 0 171 216" fill="none" xmlns="http://www.w3.org/2000/svg">
<path d="M129.25 46.99V51.3" stroke="#4A5059" stroke-linecap="round" stroke-linejoin="round"/>
<path d="M127.1 49.15H131.4" stroke="#4A5059" stroke-linecap="round" stroke-linejoin="round"/>
<path d="M41.09 30.36V34.67" stroke="#4A5059" stroke-linecap="round" stroke-linejoin="round"/>
<path d="M38.9301 32.51H43.2401" stroke="#4A5059" stroke-linecap="round" stroke-linejoin="round"/>
<path d="M74.5499 22.29C75.0912 22.29 75.5299 21.8512 75.5299 21.31C75.5299 20.7687 75.0912 20.33 74.5499 20.33C74.0087 20.33 73.5699 20.7687 73.5699 21.31C73.5699 21.8512 74.0087 22.29 74.5499 22.29Z" fill="#4A5059"/>
<path d="M105.97 61.25C97.59 61.25 89.08 60.92 81.11 58.7C73.29 56.5 66.15 52.32 59.71 47.5C55.51 44.32 51.71 41.8 46.26 42.18C40.9469 42.4538 35.8614 44.4235 31.75 47.8C24.82 53.86 25.87 65.07 28.64 72.95C32.8 84.82 45.5 93.07 56.22 98.44C68.65 104.65 82.3 108.26 96 110.33C108 112.16 123.41 113.48 133.81 105.64C143.37 98.44 145.99 82 143.65 70.9C143.081 67.6187 141.331 64.6591 138.73 62.58C132.02 57.67 122.02 60.95 114.48 61.11C111.68 61.17 108.83 61.24 105.97 61.25Z" fill="#272933" fill-opacity="0.96"/>
<path d="M85.48 129.79C105.754 129.79 122.19 128.765 122.19 127.5C122.19 126.235 105.754 125.21 85.48 125.21C65.2056 125.21 48.77 126.235 48.77 127.5C48.77 128.765 65.2056 129.79 85.48 129.79Z" fill="#272933" fill-opacity="0.96"/>
<path d="M101.075 23.6526L52.1993 30.2608C50.634 30.4725 49.5367 31.913 49.7483 33.4783L59.2265 103.58C59.4381 105.146 60.8786 106.243 62.4439 106.031L111.319 99.4232C112.884 99.2116 113.982 97.7711 113.77 96.2058L104.292 26.1037C104.08 24.5384 102.64 23.441 101.075 23.6526Z" fill="#4A5059"/>
<path d="M117.32 33.95H68C66.4205 33.95 65.14 35.2304 65.14 36.81V107.55C65.14 109.129 66.4205 110.41 68 110.41H117.32C118.9 110.41 120.18 109.129 120.18 107.55V36.81C120.18 35.2304 118.9 33.95 117.32 33.95Z" fill="#2D333E" stroke="#4A5059" stroke-miterlimit="10"/>
<path d="M104.51 88.86H80.7999C79.9108 88.86 79.1899 89.5808 79.1899 90.47V90.48C79.1899 91.3692 79.9108 92.09 80.7999 92.09H104.51C105.399 92.09 106.12 91.3692 106.12 90.48V90.47C106.12 89.5808 105.399 88.86 104.51 88.86Z" fill="#4A5059"/>
<path d="M103.66 102.06H80.91C80.6394 102.06 80.42 102.279 80.42 102.55V102.7C80.42 102.971 80.6394 103.19 80.91 103.19H103.66C103.931 103.19 104.15 102.971 104.15 102.7V102.55C104.15 102.279 103.931 102.06 103.66 102.06Z" fill="#4A5059"/>
<path d="M109.46 96.77H75.95C75.5911 96.77 75.3 97.061 75.3 97.42C75.3 97.779 75.5911 98.07 75.95 98.07H109.46C109.819 98.07 110.11 97.779 110.11 97.42C110.11 97.061 109.819 96.77 109.46 96.77Z" fill="#4A5059"/>
<path d="M115.59 36.27H69.73C68.5923 36.27 67.67 37.1923 67.67 38.33V78.1C67.67 79.2377 68.5923 80.16 69.73 80.16H115.59C116.728 80.16 117.65 79.2377 117.65 78.1V38.33C117.65 37.1923 116.728 36.27 115.59 36.27Z" fill="#2D333E" stroke="#4A5059" stroke-miterlimit="10"/>
<path d="M98.78 67.84C99.1093 67.8378 99.4299 67.7339 99.698 67.5427C99.9661 67.3514 100.169 67.0821 100.278 66.7715C100.387 66.4608 100.398 66.124 100.309 65.807C100.22 65.49 100.035 65.2082 99.78 65C97.6916 63.278 95.0631 62.347 92.3563 62.3708C89.6496 62.3946 87.0378 63.3715 84.98 65.13C84.7303 65.345 84.5526 65.6314 84.4709 65.9506C84.3891 66.2697 84.4073 66.6063 84.5228 66.9148C84.6384 67.2233 84.8458 67.489 85.1171 67.6759C85.3884 67.8628 85.7105 67.962 86.04 67.96L98.78 67.84Z" stroke="#4A5059" stroke-width="0.71" stroke-linecap="round" stroke-linejoin="round"/>
<path d="M106.95 57.82L101.12 54.46L106.95 51.1" stroke="#4A5059" stroke-width="0.71" stroke-linecap="round" stroke-linejoin="round"/>
<path d="M77.89 57.82L83.71 54.46L77.89 51.1" stroke="#4A5059" stroke-width="0.71" stroke-linecap="round" stroke-linejoin="round"/>
<path d="M45.92 79.16V83.46" stroke="#4A5059" stroke-linecap="round" stroke-linejoin="round"/>
<path d="M43.77 81.3101H48.07" stroke="#4A5059" stroke-linecap="round" stroke-linejoin="round"/>
<path d="M127.42 82.2C127.961 82.2 128.4 81.7612 128.4 81.22C128.4 80.6788 127.961 80.24 127.42 80.24C126.879 80.24 126.44 80.6788 126.44 81.22C126.44 81.7612 126.879 82.2 127.42 82.2Z" fill="#4A5059"/>
<path d="M49.235 161.37V163.375H51.765V164.41H49.235V166.455H52.445V167.53H47.885V160.3H52.445V161.37H49.235ZM53.3345 167.53V162.4H54.0895C54.2495 162.4 54.3545 162.475 54.4045 162.625L54.4845 163.005C54.5745 162.905 54.6678 162.813 54.7645 162.73C54.8645 162.647 54.9695 162.575 55.0795 162.515C55.1928 162.455 55.3128 162.408 55.4395 162.375C55.5695 162.338 55.7112 162.32 55.8645 162.32C56.1878 162.32 56.4528 162.408 56.6595 162.585C56.8695 162.758 57.0262 162.99 57.1295 163.28C57.2095 163.11 57.3095 162.965 57.4295 162.845C57.5495 162.722 57.6812 162.622 57.8245 162.545C57.9678 162.468 58.1195 162.412 58.2795 162.375C58.4428 162.338 58.6062 162.32 58.7695 162.32C59.0528 162.32 59.3045 162.363 59.5245 162.45C59.7445 162.537 59.9295 162.663 60.0795 162.83C60.2295 162.997 60.3428 163.2 60.4195 163.44C60.4995 163.68 60.5395 163.955 60.5395 164.265V167.53H59.3045V164.265C59.3045 163.938 59.2328 163.693 59.0895 163.53C58.9462 163.363 58.7362 163.28 58.4595 163.28C58.3328 163.28 58.2145 163.302 58.1045 163.345C57.9978 163.388 57.9028 163.452 57.8195 163.535C57.7395 163.615 57.6762 163.717 57.6295 163.84C57.5828 163.963 57.5595 164.105 57.5595 164.265V167.53H56.3195V164.265C56.3195 163.922 56.2495 163.672 56.1095 163.515C55.9728 163.358 55.7712 163.28 55.5045 163.28C55.3245 163.28 55.1562 163.325 54.9995 163.415C54.8462 163.502 54.7028 163.622 54.5695 163.775V167.53H53.3345ZM62.9484 166.2C63.0884 166.37 63.2401 166.49 63.4034 166.56C63.5701 166.63 63.7501 166.665 63.9434 166.665C64.1301 166.665 64.2984 166.63 64.4484 166.56C64.5984 166.49 64.7251 166.383 64.8284 166.24C64.9351 166.097 65.0167 165.917 65.0734 165.7C65.1301 165.48 65.1584 165.222 65.1584 164.925C65.1584 164.625 65.1334 164.372 65.0834 164.165C65.0367 163.955 64.9684 163.785 64.8784 163.655C64.7884 163.525 64.6784 163.43 64.5484 163.37C64.4217 163.31 64.2767 163.28 64.1134 163.28C63.8567 163.28 63.6384 163.335 63.4584 163.445C63.2784 163.552 63.1084 163.703 62.9484 163.9V166.2ZM62.8834 163.1C63.0934 162.863 63.3317 162.672 63.5984 162.525C63.8651 162.378 64.1784 162.305 64.5384 162.305C64.8184 162.305 65.0734 162.363 65.3034 162.48C65.5367 162.597 65.7367 162.767 65.9034 162.99C66.0734 163.21 66.2034 163.483 66.2934 163.81C66.3867 164.133 66.4334 164.505 66.4334 164.925C66.4334 165.308 66.3817 165.663 66.2784 165.99C66.1751 166.317 66.0267 166.6 65.8334 166.84C65.6434 167.08 65.4117 167.268 65.1384 167.405C64.8684 167.538 64.5651 167.605 64.2284 167.605C63.9417 167.605 63.6967 167.562 63.4934 167.475C63.2901 167.385 63.1084 167.262 62.9484 167.105V169.205H61.7134V162.4H62.4684C62.6284 162.4 62.7334 162.475 62.7834 162.625L62.8834 163.1ZM69.0386 167.61C68.592 167.61 68.2486 167.485 68.0086 167.235C67.772 166.982 67.6536 166.633 67.6536 166.19V163.325H67.1286C67.062 163.325 67.0053 163.303 66.9586 163.26C66.912 163.217 66.8886 163.152 66.8886 163.065V162.575L67.7136 162.44L67.9736 161.04C67.9903 160.973 68.022 160.922 68.0686 160.885C68.1153 160.848 68.1753 160.83 68.2486 160.83H68.8886V162.445H70.2586V163.325H68.8886V166.105C68.8886 166.265 68.927 166.39 69.0036 166.48C69.0836 166.57 69.192 166.615 69.3286 166.615C69.4053 166.615 69.4686 166.607 69.5186 166.59C69.572 166.57 69.617 166.55 69.6536 166.53C69.6936 166.51 69.7286 166.492 69.7586 166.475C69.7886 166.455 69.8186 166.445 69.8486 166.445C69.8853 166.445 69.9153 166.455 69.9386 166.475C69.962 166.492 69.987 166.518 70.0136 166.555L70.3836 167.155C70.2036 167.305 69.997 167.418 69.7636 167.495C69.5303 167.572 69.2886 167.61 69.0386 167.61ZM75.7093 162.4L72.9143 168.94C72.8777 169.027 72.8293 169.092 72.7693 169.135C72.7127 169.182 72.6243 169.205 72.5043 169.205H71.5843L72.5443 167.145L70.4693 162.4H71.5543C71.651 162.4 71.726 162.423 71.7793 162.47C71.836 162.517 71.8777 162.57 71.9043 162.63L72.9943 165.29C73.031 165.38 73.061 165.47 73.0843 165.56C73.111 165.65 73.136 165.742 73.1593 165.835C73.1893 165.742 73.2193 165.65 73.2493 165.56C73.2793 165.467 73.3127 165.375 73.3493 165.285L74.3793 162.63C74.406 162.563 74.4493 162.508 74.5093 162.465C74.5727 162.422 74.6427 162.4 74.7193 162.4H75.7093ZM83.4428 161.405H81.2628V167.53H79.9178V161.405H77.7378V160.3H83.4428V161.405ZM86.2977 164.375C86.2977 164.215 86.2744 164.065 86.2277 163.925C86.1844 163.782 86.1177 163.657 86.0277 163.55C85.9377 163.443 85.8227 163.36 85.6827 163.3C85.546 163.237 85.386 163.205 85.2027 163.205C84.846 163.205 84.5644 163.307 84.3577 163.51C84.1544 163.713 84.0244 164.002 83.9677 164.375H86.2977ZM83.9427 165.12C83.9627 165.383 84.0094 165.612 84.0827 165.805C84.156 165.995 84.2527 166.153 84.3727 166.28C84.4927 166.403 84.6344 166.497 84.7977 166.56C84.9644 166.62 85.1477 166.65 85.3477 166.65C85.5477 166.65 85.7194 166.627 85.8627 166.58C86.0094 166.533 86.136 166.482 86.2427 166.425C86.3527 166.368 86.4477 166.317 86.5277 166.27C86.611 166.223 86.691 166.2 86.7677 166.2C86.871 166.2 86.9477 166.238 86.9977 166.315L87.3527 166.765C87.216 166.925 87.0627 167.06 86.8927 167.17C86.7227 167.277 86.5444 167.363 86.3577 167.43C86.1744 167.493 85.986 167.538 85.7927 167.565C85.6027 167.592 85.4177 167.605 85.2377 167.605C84.881 167.605 84.5494 167.547 84.2427 167.43C83.936 167.31 83.6694 167.135 83.4427 166.905C83.216 166.672 83.0377 166.385 82.9077 166.045C82.7777 165.702 82.7127 165.305 82.7127 164.855C82.7127 164.505 82.7694 164.177 82.8827 163.87C82.996 163.56 83.1577 163.292 83.3677 163.065C83.581 162.835 83.8394 162.653 84.1427 162.52C84.4494 162.387 84.7944 162.32 85.1777 162.32C85.501 162.32 85.7994 162.372 86.0727 162.475C86.346 162.578 86.581 162.73 86.7777 162.93C86.9744 163.127 87.1277 163.37 87.2377 163.66C87.351 163.947 87.4077 164.275 87.4077 164.645C87.4077 164.832 87.3877 164.958 87.3477 165.025C87.3077 165.088 87.231 165.12 87.1177 165.12H83.9427ZM88.3345 167.53V162.4H89.0895C89.2495 162.4 89.3545 162.475 89.4045 162.625L89.4845 163.005C89.5745 162.905 89.6678 162.813 89.7645 162.73C89.8645 162.647 89.9695 162.575 90.0795 162.515C90.1928 162.455 90.3128 162.408 90.4395 162.375C90.5695 162.338 90.7112 162.32 90.8645 162.32C91.1878 162.32 91.4528 162.408 91.6595 162.585C91.8695 162.758 92.0262 162.99 92.1295 163.28C92.2095 163.11 92.3095 162.965 92.4295 162.845C92.5495 162.722 92.6812 162.622 92.8245 162.545C92.9678 162.468 93.1195 162.412 93.2795 162.375C93.4428 162.338 93.6062 162.32 93.7695 162.32C94.0528 162.32 94.3045 162.363 94.5245 162.45C94.7445 162.537 94.9295 162.663 95.0795 162.83C95.2295 162.997 95.3428 163.2 95.4195 163.44C95.4995 163.68 95.5395 163.955 95.5395 164.265V167.53H94.3045V164.265C94.3045 163.938 94.2328 163.693 94.0895 163.53C93.9462 163.363 93.7362 163.28 93.4595 163.28C93.3328 163.28 93.2145 163.302 93.1045 163.345C92.9978 163.388 92.9028 163.452 92.8195 163.535C92.7395 163.615 92.6762 163.717 92.6295 163.84C92.5828 163.963 92.5595 164.105 92.5595 164.265V167.53H91.3195V164.265C91.3195 163.922 91.2495 163.672 91.1095 163.515C90.9728 163.358 90.7712 163.28 90.5045 163.28C90.3245 163.28 90.1562 163.325 89.9995 163.415C89.8462 163.502 89.7028 163.622 89.5695 163.775V167.53H88.3345ZM97.9484 166.2C98.0884 166.37 98.2401 166.49 98.4034 166.56C98.5701 166.63 98.7501 166.665 98.9434 166.665C99.1301 166.665 99.2984 166.63 99.4484 166.56C99.5984 166.49 99.7251 166.383 99.8284 166.24C99.9351 166.097 100.017 165.917 100.073 165.7C100.13 165.48 100.158 165.222 100.158 164.925C100.158 164.625 100.133 164.372 100.083 164.165C100.037 163.955 99.9684 163.785 99.8784 163.655C99.7884 163.525 99.6784 163.43 99.5484 163.37C99.4217 163.31 99.2767 163.28 99.1134 163.28C98.8567 163.28 98.6384 163.335 98.4584 163.445C98.2784 163.552 98.1084 163.703 97.9484 163.9V166.2ZM97.8834 163.1C98.0934 162.863 98.3317 162.672 98.5984 162.525C98.8651 162.378 99.1784 162.305 99.5384 162.305C99.8184 162.305 100.073 162.363 100.303 162.48C100.537 162.597 100.737 162.767 100.903 162.99C101.073 163.21 101.203 163.483 101.293 163.81C101.387 164.133 101.433 164.505 101.433 164.925C101.433 165.308 101.382 165.663 101.278 165.99C101.175 166.317 101.027 166.6 100.833 166.84C100.643 167.08 100.412 167.268 100.138 167.405C99.8684 167.538 99.5651 167.605 99.2284 167.605C98.9417 167.605 98.6967 167.562 98.4934 167.475C98.2901 167.385 98.1084 167.262 97.9484 167.105V169.205H96.7134V162.4H97.4684C97.6284 162.4 97.7334 162.475 97.7834 162.625L97.8834 163.1ZM103.647 160.1V167.53H102.412V160.1H103.647ZM107.587 165.34C107.231 165.357 106.931 165.388 106.687 165.435C106.444 165.478 106.249 165.535 106.102 165.605C105.956 165.675 105.851 165.757 105.787 165.85C105.724 165.943 105.692 166.045 105.692 166.155C105.692 166.372 105.756 166.527 105.882 166.62C106.012 166.713 106.181 166.76 106.387 166.76C106.641 166.76 106.859 166.715 107.042 166.625C107.229 166.532 107.411 166.392 107.587 166.205V165.34ZM104.757 163.115C105.347 162.575 106.057 162.305 106.887 162.305C107.187 162.305 107.456 162.355 107.692 162.455C107.929 162.552 108.129 162.688 108.292 162.865C108.456 163.038 108.579 163.247 108.662 163.49C108.749 163.733 108.792 164 108.792 164.29V167.53H108.232C108.116 167.53 108.026 167.513 107.962 167.48C107.899 167.443 107.849 167.372 107.812 167.265L107.702 166.895C107.572 167.012 107.446 167.115 107.322 167.205C107.199 167.292 107.071 167.365 106.937 167.425C106.804 167.485 106.661 167.53 106.507 167.56C106.357 167.593 106.191 167.61 106.007 167.61C105.791 167.61 105.591 167.582 105.407 167.525C105.224 167.465 105.066 167.377 104.932 167.26C104.799 167.143 104.696 166.998 104.622 166.825C104.549 166.652 104.512 166.45 104.512 166.22C104.512 166.09 104.534 165.962 104.577 165.835C104.621 165.705 104.691 165.582 104.787 165.465C104.887 165.348 105.016 165.238 105.172 165.135C105.329 165.032 105.521 164.942 105.747 164.865C105.977 164.788 106.244 164.727 106.547 164.68C106.851 164.63 107.197 164.6 107.587 164.59V164.29C107.587 163.947 107.514 163.693 107.367 163.53C107.221 163.363 107.009 163.28 106.732 163.28C106.532 163.28 106.366 163.303 106.232 163.35C106.102 163.397 105.987 163.45 105.887 163.51C105.787 163.567 105.696 163.618 105.612 163.665C105.532 163.712 105.442 163.735 105.342 163.735C105.256 163.735 105.182 163.713 105.122 163.67C105.062 163.623 105.014 163.57 104.977 163.51L104.757 163.115ZM111.597 167.61C111.151 167.61 110.807 167.485 110.567 167.235C110.331 166.982 110.212 166.633 110.212 166.19V163.325H109.687C109.621 163.325 109.564 163.303 109.517 163.26C109.471 163.217 109.447 163.152 109.447 163.065V162.575L110.272 162.44L110.532 161.04C110.549 160.973 110.581 160.922 110.627 160.885C110.674 160.848 110.734 160.83 110.807 160.83H111.447V162.445H112.817V163.325H111.447V166.105C111.447 166.265 111.486 166.39 111.562 166.48C111.642 166.57 111.751 166.615 111.887 166.615C111.964 166.615 112.027 166.607 112.077 166.59C112.131 166.57 112.176 166.55 112.212 166.53C112.252 166.51 112.287 166.492 112.317 166.475C112.347 166.455 112.377 166.445 112.407 166.445C112.444 166.445 112.474 166.455 112.497 166.475C112.521 166.492 112.546 166.518 112.572 166.555L112.942 167.155C112.762 167.305 112.556 167.418 112.322 167.495C112.089 167.572 111.847 167.61 111.597 167.61ZM116.874 164.375C116.874 164.215 116.851 164.065 116.804 163.925C116.761 163.782 116.694 163.657 116.604 163.55C116.514 163.443 116.399 163.36 116.259 163.3C116.122 163.237 115.962 163.205 115.779 163.205C115.422 163.205 115.141 163.307 114.934 163.51C114.731 163.713 114.601 164.002 114.544 164.375H116.874ZM114.519 165.12C114.539 165.383 114.586 165.612 114.659 165.805C114.732 165.995 114.829 166.153 114.949 166.28C115.069 166.403 115.211 166.497 115.374 166.56C115.541 166.62 115.724 166.65 115.924 166.65C116.124 166.65 116.296 166.627 116.439 166.58C116.586 166.533 116.712 166.482 116.819 166.425C116.929 166.368 117.024 166.317 117.104 166.27C117.187 166.223 117.267 166.2 117.344 166.2C117.447 166.2 117.524 166.238 117.574 166.315L117.929 166.765C117.792 166.925 117.639 167.06 117.469 167.17C117.299 167.277 117.121 167.363 116.934 167.43C116.751 167.493 116.562 167.538 116.369 167.565C116.179 167.592 115.994 167.605 115.814 167.605C115.457 167.605 115.126 167.547 114.819 167.43C114.512 167.31 114.246 167.135 114.019 166.905C113.792 166.672 113.614 166.385 113.484 166.045C113.354 165.702 113.289 165.305 113.289 164.855C113.289 164.505 113.346 164.177 113.459 163.87C113.572 163.56 113.734 163.292 113.944 163.065C114.157 162.835 114.416 162.653 114.719 162.52C115.026 162.387 115.371 162.32 115.754 162.32C116.077 162.32 116.376 162.372 116.649 162.475C116.922 162.578 117.157 162.73 117.354 162.93C117.551 163.127 117.704 163.37 117.814 163.66C117.927 163.947 117.984 164.275 117.984 164.645C117.984 164.832 117.964 164.958 117.924 165.025C117.884 165.088 117.807 165.12 117.694 165.12H114.519ZM122.041 163.4C122.007 163.453 121.972 163.492 121.936 163.515C121.899 163.535 121.852 163.545 121.796 163.545C121.736 163.545 121.671 163.528 121.601 163.495C121.534 163.462 121.456 163.425 121.366 163.385C121.276 163.342 121.172 163.303 121.056 163.27C120.942 163.237 120.807 163.22 120.651 163.22C120.407 163.22 120.216 163.272 120.076 163.375C119.939 163.478 119.871 163.613 119.871 163.78C119.871 163.89 119.906 163.983 119.976 164.06C120.049 164.133 120.144 164.198 120.261 164.255C120.381 164.312 120.516 164.363 120.666 164.41C120.816 164.453 120.967 164.502 121.121 164.555C121.277 164.608 121.431 164.67 121.581 164.74C121.731 164.807 121.864 164.893 121.981 165C122.101 165.103 122.196 165.228 122.266 165.375C122.339 165.522 122.376 165.698 122.376 165.905C122.376 166.152 122.331 166.38 122.241 166.59C122.154 166.797 122.024 166.977 121.851 167.13C121.677 167.28 121.462 167.398 121.206 167.485C120.952 167.568 120.659 167.61 120.326 167.61C120.149 167.61 119.976 167.593 119.806 167.56C119.639 167.53 119.477 167.487 119.321 167.43C119.167 167.373 119.024 167.307 118.891 167.23C118.761 167.153 118.646 167.07 118.546 166.98L118.831 166.51C118.867 166.453 118.911 166.41 118.961 166.38C119.011 166.35 119.074 166.335 119.151 166.335C119.227 166.335 119.299 166.357 119.366 166.4C119.436 166.443 119.516 166.49 119.606 166.54C119.696 166.59 119.801 166.637 119.921 166.68C120.044 166.723 120.199 166.745 120.386 166.745C120.532 166.745 120.657 166.728 120.761 166.695C120.867 166.658 120.954 166.612 121.021 166.555C121.091 166.498 121.141 166.433 121.171 166.36C121.204 166.283 121.221 166.205 121.221 166.125C121.221 166.005 121.184 165.907 121.111 165.83C121.041 165.753 120.946 165.687 120.826 165.63C120.709 165.573 120.574 165.523 120.421 165.48C120.271 165.433 120.116 165.383 119.956 165.33C119.799 165.277 119.644 165.215 119.491 165.145C119.341 165.072 119.206 164.98 119.086 164.87C118.969 164.76 118.874 164.625 118.801 164.465C118.731 164.305 118.696 164.112 118.696 163.885C118.696 163.675 118.737 163.475 118.821 163.285C118.904 163.095 119.026 162.93 119.186 162.79C119.349 162.647 119.551 162.533 119.791 162.45C120.034 162.363 120.314 162.32 120.631 162.32C120.984 162.32 121.306 162.378 121.596 162.495C121.886 162.612 122.127 162.765 122.321 162.955L122.041 163.4Z" fill="#5F6772"/>
<path d="M31.5881 176.166V175.619H35.4062V176.166H33.8054V180.71H33.1889V176.166H31.5881ZM36.8648 178.413V180.71H36.2781V175.619H36.8648V177.488H36.9145C37.004 177.291 37.1382 177.135 37.3172 177.019C37.4978 176.901 37.7381 176.842 38.0381 176.842C38.2983 176.842 38.5261 176.894 38.7217 176.999C38.9172 177.101 39.0689 177.26 39.1766 177.473C39.286 177.686 39.3406 177.956 39.3406 178.284V180.71H38.754V178.324C38.754 178.02 38.6753 177.786 38.5178 177.62C38.3621 177.453 38.1458 177.369 37.8691 177.369C37.6768 177.369 37.5045 177.41 37.352 177.491C37.2012 177.572 37.0819 177.691 36.9941 177.846C36.9079 178.002 36.8648 178.191 36.8648 178.413ZM42.0147 180.79C41.6468 180.79 41.3295 180.708 41.0627 180.546C40.7975 180.382 40.5929 180.153 40.4487 179.86C40.3062 179.565 40.2349 179.222 40.2349 178.831C40.2349 178.44 40.3062 178.095 40.4487 177.797C40.5929 177.497 40.7934 177.263 41.0502 177.096C41.3088 176.927 41.6104 176.842 41.9551 176.842C42.1539 176.842 42.3503 176.875 42.5442 176.941C42.7381 177.008 42.9146 177.116 43.0737 177.265C43.2328 177.412 43.3596 177.608 43.454 177.851C43.5485 178.095 43.5957 178.395 43.5957 178.751V179H40.6525V178.493H42.9991C42.9991 178.277 42.956 178.085 42.8699 177.916C42.7853 177.747 42.6644 177.613 42.5069 177.516C42.3511 177.418 42.1672 177.369 41.9551 177.369C41.7214 177.369 41.5192 177.427 41.3485 177.543C41.1795 177.657 41.0494 177.807 40.9583 177.991C40.8671 178.174 40.8216 178.372 40.8216 178.582V178.92C40.8216 179.209 40.8713 179.453 40.9707 179.653C41.0718 179.852 41.2118 180.004 41.3908 180.108C41.5698 180.211 41.7778 180.263 42.0147 180.263C42.1689 180.263 42.3081 180.241 42.4324 180.198C42.5583 180.153 42.6668 180.087 42.758 179.999C42.8491 179.91 42.9196 179.799 42.9693 179.666L43.536 179.825C43.4764 180.017 43.3761 180.186 43.2353 180.332C43.0944 180.476 42.9204 180.589 42.7132 180.67C42.5061 180.75 42.2733 180.79 42.0147 180.79ZM44.4881 180.71V176.892H45.0549V177.468H45.0946C45.1642 177.28 45.2902 177.126 45.4725 177.009C45.6548 176.891 45.8603 176.832 46.089 176.832C46.132 176.832 46.1859 176.833 46.2505 176.835C46.3152 176.836 46.3641 176.839 46.3972 176.842V177.439C46.3773 177.434 46.3317 177.426 46.2605 177.416C46.1909 177.405 46.1171 177.399 46.0392 177.399C45.8536 177.399 45.6879 177.438 45.5421 177.516C45.3979 177.592 45.2836 177.698 45.199 177.834C45.1162 177.968 45.0748 178.121 45.0748 178.294V180.71H44.4881ZM48.5772 180.79C48.2093 180.79 47.892 180.708 47.6252 180.546C47.36 180.382 47.1554 180.153 47.0112 179.86C46.8687 179.565 46.7974 179.222 46.7974 178.831C46.7974 178.44 46.8687 178.095 47.0112 177.797C47.1554 177.497 47.3559 177.263 47.6127 177.096C47.8713 176.927 48.1729 176.842 48.5176 176.842C48.7164 176.842 48.9128 176.875 49.1067 176.941C49.3006 177.008 49.4771 177.116 49.6362 177.265C49.7953 177.412 49.9221 177.608 50.0165 177.851C50.111 178.095 50.1582 178.395 50.1582 178.751V179H47.215V178.493H49.5616C49.5616 178.277 49.5185 178.085 49.4324 177.916C49.3478 177.747 49.2269 177.613 49.0694 177.516C48.9136 177.418 48.7297 177.369 48.5176 177.369C48.2839 177.369 48.0817 177.427 47.911 177.543C47.742 177.657 47.6119 177.807 47.5208 177.991C47.4296 178.174 47.3841 178.372 47.3841 178.582V178.92C47.3841 179.209 47.4338 179.453 47.5332 179.653C47.6343 179.852 47.7743 180.004 47.9533 180.108C48.1323 180.211 48.3403 180.263 48.5772 180.263C48.7314 180.263 48.8706 180.241 48.9949 180.198C49.1208 180.153 49.2293 180.087 49.3205 179.999C49.4116 179.91 49.4821 179.799 49.5318 179.666L50.0985 179.825C50.0389 180.017 49.9386 180.186 49.7978 180.332C49.6569 180.476 49.4829 180.589 49.2757 180.67C49.0686 180.75 48.8358 180.79 48.5772 180.79ZM54.1429 180.799C53.901 180.799 53.6814 180.754 53.4842 180.663C53.287 180.57 53.1304 180.437 53.0144 180.263C52.8984 180.087 52.8404 179.875 52.8404 179.626C52.8404 179.407 52.8835 179.23 52.9696 179.094C53.0558 178.957 53.171 178.849 53.3152 178.771C53.4593 178.693 53.6184 178.635 53.7924 178.597C53.9681 178.557 54.1446 178.526 54.3219 178.503C54.5539 178.473 54.742 178.45 54.8862 178.435C55.032 178.419 55.1381 178.392 55.2044 178.353C55.2723 178.315 55.3063 178.249 55.3063 178.155V178.135C55.3063 177.889 55.2392 177.699 55.1049 177.563C54.9724 177.427 54.771 177.359 54.5009 177.359C54.2208 177.359 54.0012 177.42 53.8422 177.543C53.6831 177.666 53.5712 177.797 53.5066 177.936L52.9498 177.737C53.0492 177.505 53.1818 177.324 53.3475 177.195C53.5149 177.064 53.6971 176.973 53.8944 176.922C54.0932 176.869 54.2888 176.842 54.481 176.842C54.6036 176.842 54.7445 176.857 54.9036 176.887C55.0643 176.915 55.2193 176.974 55.3684 177.063C55.5192 177.153 55.6444 177.288 55.7438 177.468C55.8432 177.649 55.8929 177.891 55.8929 178.194V180.71H55.3063V180.193H55.2765C55.2367 180.276 55.1704 180.364 55.0776 180.459C54.9848 180.553 54.8613 180.634 54.7072 180.7C54.5531 180.766 54.365 180.799 54.1429 180.799ZM54.2324 180.272C54.4644 180.272 54.66 180.227 54.8191 180.136C54.9798 180.045 55.1008 179.927 55.182 179.783C55.2649 179.639 55.3063 179.487 55.3063 179.328V178.791C55.2814 178.821 55.2267 178.848 55.1422 178.873C55.0594 178.896 54.9632 178.917 54.8539 178.935C54.7462 178.952 54.6409 178.967 54.5382 178.98C54.4371 178.991 54.3551 179.001 54.2921 179.01C54.1396 179.03 53.9971 179.062 53.8645 179.107C53.7336 179.15 53.6275 179.215 53.5463 179.303C53.4668 179.389 53.427 179.507 53.427 179.656C53.427 179.86 53.5024 180.014 53.6532 180.118C53.8057 180.221 53.9988 180.272 54.2324 180.272ZM56.9637 180.71V176.892H57.5305V177.468H57.5702C57.6398 177.28 57.7658 177.126 57.9481 177.009C58.1304 176.891 58.3358 176.832 58.5645 176.832C58.6076 176.832 58.6615 176.833 58.7261 176.835C58.7907 176.836 58.8396 176.839 58.8728 176.842V177.439C58.8529 177.434 58.8073 177.426 58.7361 177.416C58.6665 177.405 58.5927 177.399 58.5148 177.399C58.3292 177.399 58.1635 177.438 58.0177 177.516C57.8735 177.592 57.7591 177.698 57.6746 177.834C57.5918 177.968 57.5503 178.121 57.5503 178.294V180.71H56.9637ZM61.0528 180.79C60.6849 180.79 60.3676 180.708 60.1008 180.546C59.8356 180.382 59.6309 180.153 59.4868 179.86C59.3443 179.565 59.273 179.222 59.273 178.831C59.273 178.44 59.3443 178.095 59.4868 177.797C59.6309 177.497 59.8315 177.263 60.0883 177.096C60.3469 176.927 60.6485 176.842 60.9932 176.842C61.192 176.842 61.3884 176.875 61.5823 176.941C61.7762 177.008 61.9527 177.116 62.1118 177.265C62.2709 177.412 62.3976 177.608 62.4921 177.851C62.5866 178.095 62.6338 178.395 62.6338 178.751V179H59.6906V178.493H62.0372C62.0372 178.277 61.9941 178.085 61.9079 177.916C61.8234 177.747 61.7024 177.613 61.545 177.516C61.3892 177.418 61.2053 177.369 60.9932 177.369C60.7595 177.369 60.5573 177.427 60.3866 177.543C60.2176 177.657 60.0875 177.807 59.9964 177.991C59.9052 178.174 59.8596 178.372 59.8596 178.582V178.92C59.8596 179.209 59.9094 179.453 60.0088 179.653C60.1099 179.852 60.2499 180.004 60.4289 180.108C60.6079 180.211 60.8158 180.263 61.0528 180.263C61.2069 180.263 61.3461 180.241 61.4704 180.198C61.5964 180.153 61.7049 180.087 61.7961 179.999C61.8872 179.91 61.9577 179.799 62.0074 179.666L62.5741 179.825C62.5145 180.017 62.4142 180.186 62.2733 180.332C62.1325 180.476 61.9585 180.589 61.7513 180.67C61.5442 180.75 61.3113 180.79 61.0528 180.79ZM66.0816 178.413V180.71H65.4949V176.892H66.0617V177.488H66.1114C66.2009 177.294 66.3368 177.139 66.5191 177.021C66.7014 176.902 66.9367 176.842 67.2251 176.842C67.4836 176.842 67.7098 176.895 67.9037 177.001C68.0976 177.106 68.2484 177.265 68.3561 177.478C68.4638 177.691 68.5177 177.959 68.5177 178.284V180.71H67.931V178.324C67.931 178.024 67.8531 177.79 67.6974 177.623C67.5416 177.454 67.3278 177.369 67.056 177.369C66.8688 177.369 66.7014 177.41 66.5539 177.491C66.4081 177.572 66.2929 177.691 66.2084 177.846C66.1238 178.002 66.0816 178.191 66.0816 178.413ZM71.1408 180.79C70.7961 180.79 70.4937 180.707 70.2335 180.543C69.975 180.379 69.7728 180.15 69.627 179.855C69.4828 179.56 69.4107 179.215 69.4107 178.821C69.4107 178.423 69.4828 178.076 69.627 177.779C69.7728 177.483 69.975 177.252 70.2335 177.088C70.4937 176.924 70.7961 176.842 71.1408 176.842C71.4855 176.842 71.7871 176.924 72.0456 177.088C72.3058 177.252 72.508 177.483 72.6522 177.779C72.798 178.076 72.8709 178.423 72.8709 178.821C72.8709 179.215 72.798 179.56 72.6522 179.855C72.508 180.15 72.3058 180.379 72.0456 180.543C71.7871 180.707 71.4855 180.79 71.1408 180.79ZM71.1408 180.263C71.4026 180.263 71.6181 180.195 71.7871 180.061C71.9561 179.927 72.0813 179.75 72.1625 179.532C72.2437 179.313 72.2843 179.076 72.2843 178.821C72.2843 178.566 72.2437 178.328 72.1625 178.107C72.0813 177.887 71.9561 177.709 71.7871 177.573C71.6181 177.437 71.4026 177.369 71.1408 177.369C70.879 177.369 70.6635 177.437 70.4945 177.573C70.3255 177.709 70.2003 177.887 70.1191 178.107C70.0379 178.328 69.9973 178.566 69.9973 178.821C69.9973 179.076 70.0379 179.313 70.1191 179.532C70.2003 179.75 70.3255 179.927 70.4945 180.061C70.6635 180.195 70.879 180.263 71.1408 180.263ZM77.3957 176.892V177.389H75.417V176.892H77.3957ZM75.9937 175.977H76.5803V179.616C76.5803 179.782 76.6044 179.906 76.6524 179.989C76.7021 180.07 76.7651 180.125 76.8414 180.153C76.9192 180.18 77.0013 180.193 77.0874 180.193C77.1521 180.193 77.2051 180.19 77.2465 180.183C77.288 180.175 77.3211 180.168 77.346 180.163L77.4653 180.69C77.4255 180.705 77.37 180.72 77.2987 180.735C77.2275 180.751 77.1372 180.76 77.0278 180.76C76.8621 180.76 76.6997 180.724 76.5406 180.653C76.3831 180.582 76.2522 180.473 76.1478 180.327C76.0451 180.181 75.9937 179.997 75.9937 179.775V175.977ZM79.838 180.79C79.4701 180.79 79.1527 180.708 78.8859 180.546C78.6208 180.382 78.4161 180.153 78.2719 179.86C78.1294 179.565 78.0581 179.222 78.0581 178.831C78.0581 178.44 78.1294 178.095 78.2719 177.797C78.4161 177.497 78.6166 177.263 78.8735 177.096C79.132 176.927 79.4336 176.842 79.7783 176.842C79.9772 176.842 80.1736 176.875 80.3675 176.941C80.5613 177.008 80.7378 177.116 80.8969 177.265C81.056 177.412 81.1828 177.608 81.2773 177.851C81.3717 178.095 81.4189 178.395 81.4189 178.751V179H78.4758V178.493H80.8224C80.8224 178.277 80.7793 178.085 80.6931 177.916C80.6086 177.747 80.4876 177.613 80.3302 177.516C80.1744 177.418 79.9904 177.369 79.7783 177.369C79.5447 177.369 79.3425 177.427 79.1718 177.543C79.0028 177.657 78.8727 177.807 78.7815 177.991C78.6904 178.174 78.6448 178.372 78.6448 178.582V178.92C78.6448 179.209 78.6945 179.453 78.7939 179.653C78.895 179.852 79.0351 180.004 79.214 180.108C79.393 180.211 79.601 180.263 79.838 180.263C79.9921 180.263 80.1313 180.241 80.2556 180.198C80.3815 180.153 80.4901 180.087 80.5812 179.999C80.6724 179.91 80.7428 179.799 80.7925 179.666L81.3593 179.825C81.2996 180.017 81.1994 180.186 81.0585 180.332C80.9176 180.476 80.7436 180.589 80.5365 180.67C80.3293 180.75 80.0965 180.79 79.838 180.79ZM82.3113 180.71V176.892H82.8781V177.488H82.9278C83.0074 177.285 83.1358 177.126 83.3131 177.014C83.4904 176.899 83.7034 176.842 83.952 176.842C84.2039 176.842 84.4135 176.899 84.5809 177.014C84.7499 177.126 84.8817 177.285 84.9761 177.488H85.0159C85.1137 177.291 85.2603 177.135 85.4559 177.019C85.6514 176.901 85.8859 176.842 86.1594 176.842C86.5007 176.842 86.78 176.949 86.9971 177.163C87.2142 177.375 87.3227 177.705 87.3227 178.155V180.71H86.7361V178.155C86.7361 177.873 86.659 177.671 86.5049 177.551C86.3508 177.43 86.1693 177.369 85.9605 177.369C85.692 177.369 85.484 177.45 85.3366 177.613C85.1891 177.773 85.1153 177.977 85.1153 178.224V180.71H84.5187V178.095C84.5187 177.878 84.4483 177.703 84.3074 177.57C84.1666 177.436 83.9851 177.369 83.7631 177.369C83.6106 177.369 83.4681 177.41 83.3355 177.491C83.2046 177.572 83.0985 177.685 83.0173 177.829C82.9378 177.971 82.898 178.136 82.898 178.324V180.71H82.3113ZM88.3953 182.142V176.892H88.9621V177.498H89.0317C89.0748 177.432 89.1344 177.348 89.2107 177.245C89.2886 177.14 89.3996 177.048 89.5438 176.966C89.6896 176.883 89.8868 176.842 90.1354 176.842C90.4569 176.842 90.7403 176.922 90.9855 177.083C91.2308 177.244 91.4222 177.472 91.5597 177.767C91.6973 178.062 91.7661 178.41 91.7661 178.811C91.7661 179.215 91.6973 179.566 91.5597 179.862C91.4222 180.157 91.2316 180.386 90.988 180.548C90.7444 180.709 90.4635 180.79 90.1453 180.79C89.9001 180.79 89.7037 180.749 89.5562 180.668C89.4087 180.585 89.2952 180.491 89.2156 180.387C89.1361 180.281 89.0748 180.193 89.0317 180.123H88.982V182.142H88.3953ZM88.972 178.801C88.972 179.089 89.0143 179.344 89.0988 179.564C89.1833 179.783 89.3068 179.954 89.4692 180.079C89.6316 180.201 89.8305 180.263 90.0658 180.263C90.3111 180.263 90.5157 180.198 90.6798 180.069C90.8455 179.938 90.9698 179.762 91.0526 179.542C91.1372 179.32 91.1794 179.073 91.1794 178.801C91.1794 178.532 91.138 178.29 91.0551 178.075C90.9739 177.858 90.8505 177.686 90.6847 177.56C90.5207 177.433 90.3144 177.369 90.0658 177.369C89.8271 177.369 89.6266 177.43 89.4642 177.551C89.3018 177.67 89.1792 177.837 89.0963 178.053C89.0135 178.266 88.972 178.516 88.972 178.801ZM93.2476 175.619V180.71H92.661V175.619H93.2476ZM95.4457 180.799C95.2037 180.799 94.9841 180.754 94.7869 180.663C94.5897 180.57 94.4331 180.437 94.3171 180.263C94.2011 180.087 94.1431 179.875 94.1431 179.626C94.1431 179.407 94.1862 179.23 94.2724 179.094C94.3585 178.957 94.4737 178.849 94.6179 178.771C94.7621 178.693 94.9212 178.635 95.0952 178.597C95.2708 178.557 95.4473 178.526 95.6246 178.503C95.8567 178.473 96.0447 178.45 96.1889 178.435C96.3348 178.419 96.4408 178.392 96.5071 178.353C96.575 178.315 96.609 178.249 96.609 178.155V178.135C96.609 177.889 96.5419 177.699 96.4077 177.563C96.2751 177.427 96.0737 177.359 95.8036 177.359C95.5236 177.359 95.304 177.42 95.1449 177.543C94.9858 177.666 94.8739 177.797 94.8093 177.936L94.2525 177.737C94.3519 177.505 94.4845 177.324 94.6502 177.195C94.8176 177.064 94.9999 176.973 95.1971 176.922C95.396 176.869 95.5915 176.842 95.7837 176.842C95.9064 176.842 96.0472 176.857 96.2063 176.887C96.3671 176.915 96.522 176.974 96.6712 177.063C96.822 177.153 96.9471 177.288 97.0465 177.468C97.146 177.649 97.1957 177.891 97.1957 178.194V180.71H96.609V180.193H96.5792C96.5394 180.276 96.4731 180.364 96.3803 180.459C96.2875 180.553 96.1641 180.634 96.0099 180.7C95.8558 180.766 95.6677 180.799 95.4457 180.799ZM95.5352 180.272C95.7672 180.272 95.9627 180.227 96.1218 180.136C96.2826 180.045 96.4035 179.927 96.4847 179.783C96.5676 179.639 96.609 179.487 96.609 179.328V178.791C96.5842 178.821 96.5295 178.848 96.445 178.873C96.3621 178.896 96.266 178.917 96.1566 178.935C96.0489 178.952 95.9437 178.967 95.8409 178.98C95.7398 178.991 95.6578 179.001 95.5948 179.01C95.4424 179.03 95.2998 179.062 95.1673 179.107C95.0363 179.15 94.9303 179.215 94.8491 179.303C94.7695 179.389 94.7298 179.507 94.7298 179.656C94.7298 179.86 94.8052 180.014 94.956 180.118C95.1084 180.221 95.3015 180.272 95.5352 180.272ZM99.9269 176.892V177.389H97.9482V176.892H99.9269ZM98.5249 175.977H99.1116V179.616C99.1116 179.782 99.1356 179.906 99.1837 179.989C99.2334 180.07 99.2964 180.125 99.3726 180.153C99.4505 180.18 99.5325 180.193 99.6187 180.193C99.6833 180.193 99.7364 180.19 99.7778 180.183C99.8192 180.175 99.8524 180.168 99.8772 180.163L99.9965 180.69C99.9568 180.705 99.9012 180.72 99.83 180.735C99.7587 180.751 99.6684 180.76 99.559 180.76C99.3933 180.76 99.2309 180.724 99.0718 180.653C98.9144 180.582 98.7835 180.473 98.6791 180.327C98.5763 180.181 98.5249 179.997 98.5249 179.775V175.977ZM102.369 180.79C102.001 180.79 101.684 180.708 101.417 180.546C101.152 180.382 100.947 180.153 100.803 179.86C100.661 179.565 100.589 179.222 100.589 178.831C100.589 178.44 100.661 178.095 100.803 177.797C100.947 177.497 101.148 177.263 101.405 177.096C101.663 176.927 101.965 176.842 102.31 176.842C102.508 176.842 102.705 176.875 102.899 176.941C103.093 177.008 103.269 177.116 103.428 177.265C103.587 177.412 103.714 177.608 103.809 177.851C103.903 178.095 103.95 178.395 103.95 178.751V179H101.007V178.493H103.354C103.354 178.277 103.311 178.085 103.224 177.916C103.14 177.747 103.019 177.613 102.861 177.516C102.706 177.418 102.522 177.369 102.31 177.369C102.076 177.369 101.874 177.427 101.703 177.543C101.534 177.657 101.404 177.807 101.313 177.991C101.222 178.174 101.176 178.372 101.176 178.582V178.92C101.176 179.209 101.226 179.453 101.325 179.653C101.426 179.852 101.566 180.004 101.745 180.108C101.924 180.211 102.132 180.263 102.369 180.263C102.523 180.263 102.663 180.241 102.787 180.198C102.913 180.153 103.021 180.087 103.112 179.999C103.204 179.91 103.274 179.799 103.324 179.666L103.891 179.825C103.831 180.017 103.731 180.186 103.59 180.332C103.449 180.476 103.275 180.589 103.068 180.67C102.861 180.75 102.628 180.79 102.369 180.79ZM107.935 180.799C107.693 180.799 107.473 180.754 107.276 180.663C107.079 180.57 106.922 180.437 106.806 180.263C106.69 180.087 106.632 179.875 106.632 179.626C106.632 179.407 106.675 179.23 106.762 179.094C106.848 178.957 106.963 178.849 107.107 178.771C107.251 178.693 107.41 178.635 107.584 178.597C107.76 178.557 107.937 178.526 108.114 178.503C108.346 178.473 108.534 178.45 108.678 178.435C108.824 178.419 108.93 178.392 108.996 178.353C109.064 178.315 109.098 178.249 109.098 178.155V178.135C109.098 177.889 109.031 177.699 108.897 177.563C108.764 177.427 108.563 177.359 108.293 177.359C108.013 177.359 107.793 177.42 107.634 177.543C107.475 177.666 107.363 177.797 107.299 177.936L106.742 177.737C106.841 177.505 106.974 177.324 107.139 177.195C107.307 177.064 107.489 176.973 107.686 176.922C107.885 176.869 108.081 176.842 108.273 176.842C108.396 176.842 108.536 176.857 108.696 176.887C108.856 176.915 109.011 176.974 109.16 177.063C109.311 177.153 109.436 177.288 109.536 177.468C109.635 177.649 109.685 177.891 109.685 178.194V180.71H109.098V180.193H109.068C109.029 180.276 108.962 180.364 108.87 180.459C108.777 180.553 108.653 180.634 108.499 180.7C108.345 180.766 108.157 180.799 107.935 180.799ZM108.024 180.272C108.256 180.272 108.452 180.227 108.611 180.136C108.772 180.045 108.893 179.927 108.974 179.783C109.057 179.639 109.098 179.487 109.098 179.328V178.791C109.073 178.821 109.019 178.848 108.934 178.873C108.851 178.896 108.755 178.917 108.646 178.935C108.538 178.952 108.433 178.967 108.33 178.98C108.229 178.991 108.147 179.001 108.084 179.01C107.932 179.03 107.789 179.062 107.657 179.107C107.526 179.15 107.42 179.215 107.338 179.303C107.259 179.389 107.219 179.507 107.219 179.656C107.219 179.86 107.294 180.014 107.445 180.118C107.598 180.221 107.791 180.272 108.024 180.272ZM112.197 180.79C111.879 180.79 111.598 180.709 111.355 180.548C111.111 180.386 110.921 180.157 110.783 179.862C110.645 179.566 110.577 179.215 110.577 178.811C110.577 178.41 110.645 178.062 110.783 177.767C110.921 177.472 111.112 177.244 111.357 177.083C111.603 176.922 111.886 176.842 112.207 176.842C112.456 176.842 112.652 176.883 112.797 176.966C112.942 177.048 113.053 177.14 113.13 177.245C113.208 177.348 113.268 177.432 113.311 177.498H113.361V175.619H113.947V180.71H113.381V180.123H113.311C113.268 180.193 113.207 180.281 113.127 180.387C113.048 180.491 112.934 180.585 112.787 180.668C112.639 180.749 112.443 180.79 112.197 180.79ZM112.277 180.263C112.512 180.263 112.711 180.201 112.874 180.079C113.036 179.954 113.159 179.783 113.244 179.564C113.328 179.344 113.371 179.089 113.371 178.801C113.371 178.516 113.329 178.266 113.246 178.053C113.164 177.837 113.041 177.67 112.879 177.551C112.716 177.43 112.516 177.369 112.277 177.369C112.028 177.369 111.821 177.433 111.656 177.56C111.491 177.686 111.368 177.858 111.285 178.075C111.204 178.29 111.163 178.532 111.163 178.801C111.163 179.073 111.205 179.32 111.288 179.542C111.372 179.762 111.496 179.938 111.661 180.069C111.826 180.198 112.032 180.263 112.277 180.263ZM116.545 180.79C116.227 180.79 115.946 180.709 115.702 180.548C115.459 180.386 115.268 180.157 115.131 179.862C114.993 179.566 114.924 179.215 114.924 178.811C114.924 178.41 114.993 178.062 115.131 177.767C115.268 177.472 115.46 177.244 115.705 177.083C115.95 176.922 116.234 176.842 116.555 176.842C116.804 176.842 117 176.883 117.144 176.966C117.29 177.048 117.401 177.14 117.477 177.245C117.555 177.348 117.616 177.432 117.659 177.498H117.708V175.619H118.295V180.71H117.728V180.123H117.659C117.616 180.193 117.554 180.281 117.475 180.387C117.395 180.491 117.282 180.585 117.134 180.668C116.987 180.749 116.79 180.79 116.545 180.79ZM116.625 180.263C116.86 180.263 117.059 180.201 117.221 180.079C117.384 179.954 117.507 179.783 117.592 179.564C117.676 179.344 117.718 179.089 117.718 178.801C117.718 178.516 117.677 178.266 117.594 178.053C117.511 177.837 117.389 177.67 117.226 177.551C117.064 177.43 116.863 177.369 116.625 177.369C116.376 177.369 116.169 177.433 116.003 177.56C115.839 177.686 115.716 177.858 115.633 178.075C115.552 178.29 115.511 178.532 115.511 178.801C115.511 179.073 115.552 179.32 115.635 179.542C115.72 179.762 115.844 179.938 116.008 180.069C116.174 180.198 116.379 180.263 116.625 180.263ZM121.052 180.79C120.684 180.79 120.367 180.708 120.1 180.546C119.835 180.382 119.63 180.153 119.486 179.86C119.343 179.565 119.272 179.222 119.272 178.831C119.272 178.44 119.343 178.095 119.486 177.797C119.63 177.497 119.83 177.263 120.087 177.096C120.346 176.927 120.647 176.842 120.992 176.842C121.191 176.842 121.387 176.875 121.581 176.941C121.775 177.008 121.952 177.116 122.111 177.265C122.27 177.412 122.397 177.608 122.491 177.851C122.586 178.095 122.633 178.395 122.633 178.751V179H119.69V178.493H122.036C122.036 178.277 121.993 178.085 121.907 177.916C121.822 177.747 121.701 177.613 121.544 177.516C121.388 177.418 121.204 177.369 120.992 177.369C120.759 177.369 120.556 177.427 120.386 177.543C120.217 177.657 120.087 177.807 119.995 177.991C119.904 178.174 119.859 178.372 119.859 178.582V178.92C119.859 179.209 119.908 179.453 120.008 179.653C120.109 179.852 120.249 180.004 120.428 180.108C120.607 180.211 120.815 180.263 121.052 180.263C121.206 180.263 121.345 180.241 121.469 180.198C121.595 180.153 121.704 180.087 121.795 179.999C121.886 179.91 121.957 179.799 122.006 179.666L122.573 179.825C122.513 180.017 122.413 180.186 122.272 180.332C122.132 180.476 121.958 180.589 121.75 180.67C121.543 180.75 121.31 180.79 121.052 180.79ZM124.967 180.79C124.649 180.79 124.368 180.709 124.124 180.548C123.881 180.386 123.69 180.157 123.553 179.862C123.415 179.566 123.346 179.215 123.346 178.811C123.346 178.41 123.415 178.062 123.553 177.767C123.69 177.472 123.882 177.244 124.127 177.083C124.372 176.922 124.655 176.842 124.977 176.842C125.225 176.842 125.422 176.883 125.566 176.966C125.712 177.048 125.823 177.14 125.899 177.245C125.977 177.348 126.038 177.432 126.081 177.498H126.13V175.619H126.717V180.71H126.15V180.123H126.081C126.038 180.193 125.976 180.281 125.897 180.387C125.817 180.491 125.704 180.585 125.556 180.668C125.409 180.749 125.212 180.79 124.967 180.79ZM125.047 180.263C125.282 180.263 125.481 180.201 125.643 180.079C125.806 179.954 125.929 179.783 126.013 179.564C126.098 179.344 126.14 179.089 126.14 178.801C126.14 178.516 126.099 178.266 126.016 178.053C125.933 177.837 125.81 177.67 125.648 177.551C125.486 177.43 125.285 177.369 125.047 177.369C124.798 177.369 124.591 177.433 124.425 177.56C124.261 177.686 124.138 177.858 124.055 178.075C123.973 178.29 123.933 178.532 123.933 178.801C123.933 179.073 123.974 179.32 124.057 179.542C124.142 179.762 124.266 179.938 124.43 180.069C124.596 180.198 124.801 180.263 125.047 180.263ZM130.219 182.142C130.12 182.142 130.031 182.133 129.953 182.117C129.876 182.102 129.822 182.087 129.792 182.072L129.941 181.555C130.084 181.592 130.21 181.605 130.319 181.595C130.428 181.585 130.525 181.536 130.61 181.448C130.696 181.362 130.775 181.222 130.846 181.028L130.955 180.73L129.543 176.892H130.18L131.234 179.934H131.273L132.327 176.892H132.964L131.343 181.267C131.27 181.464 131.18 181.627 131.072 181.756C130.964 181.887 130.839 181.984 130.697 182.047C130.556 182.11 130.397 182.142 130.219 182.142ZM135.202 180.79C134.834 180.79 134.517 180.708 134.25 180.546C133.985 180.382 133.78 180.153 133.636 179.86C133.494 179.565 133.422 179.222 133.422 178.831C133.422 178.44 133.494 178.095 133.636 177.797C133.78 177.497 133.981 177.263 134.238 177.096C134.496 176.927 134.798 176.842 135.143 176.842C135.341 176.842 135.538 176.875 135.732 176.941C135.926 177.008 136.102 177.116 136.261 177.265C136.42 177.412 136.547 177.608 136.642 177.851C136.736 178.095 136.783 178.395 136.783 178.751V179H133.84V178.493H136.187C136.187 178.277 136.144 178.085 136.057 177.916C135.973 177.747 135.852 177.613 135.694 177.516C135.539 177.418 135.355 177.369 135.143 177.369C134.909 177.369 134.707 177.427 134.536 177.543C134.367 177.657 134.237 177.807 134.146 177.991C134.055 178.174 134.009 178.372 134.009 178.582V178.92C134.009 179.209 134.059 179.453 134.158 179.653C134.259 179.852 134.399 180.004 134.578 180.108C134.757 180.211 134.965 180.263 135.202 180.263C135.356 180.263 135.496 180.241 135.62 180.198C135.746 180.153 135.854 180.087 135.945 179.999C136.037 179.91 136.107 179.799 136.157 179.666L136.724 179.825C136.664 180.017 136.564 180.186 136.423 180.332C136.282 180.476 136.108 180.589 135.901 180.67C135.694 180.75 135.461 180.79 135.202 180.79ZM139.336 176.892V177.389H137.357V176.892H139.336ZM137.934 175.977H138.521V179.616C138.521 179.782 138.545 179.906 138.593 179.989C138.643 180.07 138.706 180.125 138.782 180.153C138.86 180.18 138.942 180.193 139.028 180.193C139.093 180.193 139.146 180.19 139.187 180.183C139.228 180.175 139.262 180.168 139.286 180.163L139.406 180.69C139.366 180.705 139.31 180.72 139.239 180.735C139.168 180.751 139.078 180.76 138.968 180.76C138.802 180.76 138.64 180.724 138.481 180.653C138.324 180.582 138.193 180.473 138.088 180.327C137.985 180.181 137.934 179.997 137.934 179.775V175.977Z" fill="#5F6772"/>
</svg>
