<svg width="288" height="160" viewBox="0 0 288 160" fill="none" xmlns="http://www.w3.org/2000/svg">
<g clip-path="url(#clip0_314_16)">
<rect width="288" height="160" fill="url(#paint0_linear_314_16)"/>
<path opacity="0.22" d="M-51 8.90225L291 8.90225" stroke="white" stroke-width="1.13464" stroke-linecap="round" stroke-linejoin="round" stroke-dasharray="0.36 14.49"/>
<path opacity="0.22" d="M-51 24.1182L291 24.1182" stroke="white" stroke-width="1.13464" stroke-linecap="round" stroke-linejoin="round" stroke-dasharray="0.36 14.49"/>
<path opacity="0.22" d="M-51 37.8852L291 37.8852" stroke="white" stroke-width="1.13464" stroke-linecap="round" stroke-linejoin="round" stroke-dasharray="0.36 14.49"/>
<path opacity="0.22" d="M-51 53.1013L291 53.1013" stroke="white" stroke-width="1.13464" stroke-linecap="round" stroke-linejoin="round" stroke-dasharray="0.36 14.49"/>
<path opacity="0.22" d="M-51 66.8681L291 66.8681" stroke="white" stroke-width="1.13464" stroke-linecap="round" stroke-linejoin="round" stroke-dasharray="0.36 14.49"/>
<path opacity="0.22" d="M-51 82.0843L291 82.0843" stroke="white" stroke-width="1.13464" stroke-linecap="round" stroke-linejoin="round" stroke-dasharray="0.36 14.49"/>
<path opacity="0.22" d="M-51 95.8512L291 95.8512" stroke="white" stroke-width="1.13464" stroke-linecap="round" stroke-linejoin="round" stroke-dasharray="0.36 14.49"/>
<path opacity="0.22" d="M-51 109.618L291 109.618" stroke="white" stroke-width="1.13464" stroke-linecap="round" stroke-linejoin="round" stroke-dasharray="0.36 14.49"/>
<path opacity="0.22" d="M-51 124.834L291 124.834" stroke="white" stroke-width="1.13464" stroke-linecap="round" stroke-linejoin="round" stroke-dasharray="0.36 14.49"/>
<path opacity="0.22" d="M-51 138.601L291 138.601" stroke="white" stroke-width="1.13464" stroke-linecap="round" stroke-linejoin="round" stroke-dasharray="0.36 14.49"/>
<path opacity="0.22" d="M-51 153.817L291 153.817" stroke="white" stroke-width="1.13464" stroke-linecap="round" stroke-linejoin="round" stroke-dasharray="0.36 14.49"/>
<path d="M290.641 31V30.3595H290H69C59.8097 30.3595 52.3595 37.8097 52.3595 47V191.135V191.776H53H290H290.641V191.135V31Z" fill="#232323" stroke="#353535" stroke-width="1.28108"/>
<path d="M120.392 50.5405C120.392 44.4654 125.317 39.5405 131.392 39.5405H288V191.135H120.392V50.5405Z" fill="#151515"/>
<rect x="62.7432" y="65.1622" width="32.027" height="7.47297" rx="3.73649" fill="#535253"/>
<rect x="62.7432" y="79.0405" width="42.7027" height="7.47297" rx="3.73649" fill="#535253"/>
<rect x="62.7432" y="92.9189" width="16.0135" height="7.47297" rx="3.73649" fill="#535253"/>
<rect x="147.081" y="79.0405" width="55.5135" height="7.47297" rx="3.73649" fill="#323232"/>
<rect x="277" y="100" width="25.6216" height="42.7027" rx="7.47297" fill="#323232"/>
<rect x="212" y="100" width="56.5811" height="42.7027" rx="7.47297" fill="#323232"/>
<rect x="147" y="100" width="56.5811" height="42.7027" rx="7.47297" fill="#323232"/>
<rect x="86" y="135" width="22.4189" height="7.47297" rx="3.73649" fill="#535253"/>
<rect x="147.081" y="65.1622" width="30.9595" height="7.47297" rx="3.73649" fill="#535253"/>
<rect x="63" y="131" width="16.0135" height="16.0135" rx="8.00676" fill="#535253"/>
<rect x="86.2295" y="39.5405" width="6.93919" height="6.93919" rx="3.46959" fill="#535253"/>
<rect x="62.7432" y="39.5405" width="6.93919" height="6.93919" rx="3.46959" fill="#535253"/>
<rect x="74.4863" y="39.5405" width="6.93919" height="6.93919" rx="3.46959" fill="#535253"/>
</g>
<defs>
<linearGradient id="paint0_linear_314_16" x1="23" y1="6.99999" x2="197.5" y2="129" gradientUnits="userSpaceOnUse">
<stop stop-color="#8488EE"/>
<stop offset="1" stop-color="#BB66E5"/>
</linearGradient>
<clipPath id="clip0_314_16">
<rect width="288" height="160" fill="white"/>
</clipPath>
</defs>
</svg>
