<svg width="288" height="190" viewBox="0 0 288 190" fill="none" xmlns="http://www.w3.org/2000/svg">
<g clip-path="url(#clip0_285_404)">
<rect width="288" height="190" fill="#191919"/>
<path opacity="0.22" d="M-51 7.76712L291 7.76712" stroke="white" stroke-width="1.13464" stroke-linecap="round" stroke-linejoin="round" stroke-dasharray="0.36 14.49"/>
<path opacity="0.22" d="M-51 22.983L291 22.983" stroke="white" stroke-width="1.13464" stroke-linecap="round" stroke-linejoin="round" stroke-dasharray="0.36 14.49"/>
<path opacity="0.22" d="M-51 36.75L291 36.75" stroke="white" stroke-width="1.13464" stroke-linecap="round" stroke-linejoin="round" stroke-dasharray="0.36 14.49"/>
<path opacity="0.22" d="M-51 51.9662L291 51.9662" stroke="white" stroke-width="1.13464" stroke-linecap="round" stroke-linejoin="round" stroke-dasharray="0.36 14.49"/>
<path opacity="0.22" d="M-51 65.733L291 65.733" stroke="white" stroke-width="1.13464" stroke-linecap="round" stroke-linejoin="round" stroke-dasharray="0.36 14.49"/>
<path opacity="0.22" d="M-51 80.9492L291 80.9492" stroke="white" stroke-width="1.13464" stroke-linecap="round" stroke-linejoin="round" stroke-dasharray="0.36 14.49"/>
<path opacity="0.22" d="M-51 94.7161L291 94.7161" stroke="white" stroke-width="1.13464" stroke-linecap="round" stroke-linejoin="round" stroke-dasharray="0.36 14.49"/>
<path opacity="0.22" d="M-51 108.483L291 108.483" stroke="white" stroke-width="1.13464" stroke-linecap="round" stroke-linejoin="round" stroke-dasharray="0.36 14.49"/>
<path opacity="0.22" d="M-51 123.699L291 123.699" stroke="white" stroke-width="1.13464" stroke-linecap="round" stroke-linejoin="round" stroke-dasharray="0.36 14.49"/>
<path opacity="0.22" d="M-51 137.466L291 137.466" stroke="white" stroke-width="1.13464" stroke-linecap="round" stroke-linejoin="round" stroke-dasharray="0.36 14.49"/>
<path opacity="0.22" d="M-51 152.682L291 152.682" stroke="white" stroke-width="1.13464" stroke-linecap="round" stroke-linejoin="round" stroke-dasharray="0.36 14.49"/>
<path opacity="0.22" d="M-6.5 166L246.5 166" stroke="white" stroke-width="1.13464" stroke-linecap="round" stroke-linejoin="round" stroke-dasharray="0.36 14.49"/>
<path opacity="0.22" d="M-51 181.665L291 181.665" stroke="white" stroke-width="1.13464" stroke-linecap="round" stroke-linejoin="round" stroke-dasharray="0.36 14.49"/>
<path d="M288.641 29.8649V29.2243H288H72.3514C60.2056 29.2243 50.3595 39.0704 50.3595 51.2162V190V190.641H51H288H288.641V190V29.8649Z" fill="#232323" stroke="#353535" stroke-width="1.28108"/>
<path d="M120.392 53.3513C120.392 45.0969 127.084 38.4054 135.338 38.4054H288V190H120.392V53.3513Z" fill="#151515"/>
<rect x="62.7432" y="64.027" width="32.027" height="7.47297" rx="3.73649" fill="#535253"/>
<rect x="62.7432" y="77.9054" width="42.7027" height="7.47297" rx="3.73649" fill="#535253"/>
<rect x="62.7432" y="91.7838" width="16.0135" height="7.47297" rx="3.73649" fill="#535253"/>
<rect x="147.081" y="77.9054" width="55.5135" height="7.47297" rx="3.73649" fill="#323232"/>
<rect x="277.324" y="102.459" width="25.6216" height="42.7027" rx="7.47297" fill="#323232"/>
<rect x="212.203" y="102.459" width="56.5811" height="42.7027" rx="7.47297" fill="#323232"/>
<rect x="147.081" y="102.459" width="56.5811" height="42.7027" rx="7.47297" fill="#323232"/>
<rect x="147.081" y="165.446" width="42.7027" height="7.47297" rx="3.73649" fill="#323232"/>
<rect x="147.081" y="64.027" width="30.9595" height="7.47297" rx="3.73649" fill="#535253"/>
<rect x="62.7432" y="162.243" width="16.0135" height="16.0135" rx="8.00676" fill="#535253"/>
<rect x="85.1621" y="166.514" width="22.4189" height="7.47297" rx="3.73649" fill="#535253"/>
<rect x="86.2295" y="38.4054" width="6.93919" height="6.93919" rx="3.46959" fill="#535253"/>
<rect x="62.7432" y="38.4054" width="6.93919" height="6.93919" rx="3.46959" fill="#535253"/>
<rect x="74.4863" y="38.4054" width="6.93919" height="6.93919" rx="3.46959" fill="#535253"/>
</g>
<defs>
<clipPath id="clip0_285_404">
<rect width="288" height="190" fill="white"/>
</clipPath>
</defs>
</svg>
