<svg width="1357" height="641" viewBox="0 0 1357 641" fill="none" xmlns="http://www.w3.org/2000/svg">
<g opacity="0.4" filter="url(#filter0_f_1174_896)">
<rect x="793" y="190" width="371" height="200" rx="100" fill="url(#paint0_linear_1174_896)" fill-opacity="0.25"/>
</g>
<g opacity="0.4" filter="url(#filter1_f_1174_896)">
<rect x="190" y="190" width="374" height="200" rx="100" fill="url(#paint1_linear_1174_896)" fill-opacity="0.25"/>
</g>
<g clipPath="url(#clip0_1174_896)">
<g clipPath="url(#clip1_1174_896)">
<path d="M223 246H178V289H223V246Z" fill="url(#paint2_linear_1174_896)" fill-opacity="0.02"/>
<path d="M179 465H136V509H179V465Z" fill="url(#paint3_linear_1174_896)" fill-opacity="0.02"/>
<path d="M526 246H482V289H526V246Z" fill="url(#paint4_linear_1174_896)" fill-opacity="0.02"/>
<path d="M92.3529 114H49V157.833M92.3529 114V157.833M92.3529 114H135.706M49 157.833H92.3529M49 157.833V201.667M92.3529 157.833H135.706M92.3529 157.833V201.667M135.706 114V157.833M135.706 114H179.058M135.706 157.833H179.058M135.706 157.833V201.667M92.3529 201.667H49M92.3529 201.667H135.706M92.3529 201.667V245.5M49 201.667V245.5M179.058 114V157.833M179.058 114H222.411M179.058 157.833H222.411M179.058 157.833V201.667M135.706 201.667H179.058M135.706 201.667V245.5M222.411 114V157.833M222.411 114H265.765M222.411 157.833H265.765M222.411 157.833V201.667M179.058 201.667H222.411M179.058 201.667V245.5M265.765 114V157.833M265.765 114H309.118M265.765 157.833H309.118M265.765 157.833V201.667M222.411 201.667H265.765M222.411 201.667V245.5M309.118 114V157.833M309.118 114H352.471M309.118 157.833H352.471M309.118 157.833V201.667M265.765 201.667H309.118M265.765 201.667V245.5M352.471 114V157.833M352.471 114H395.824M352.471 157.833H395.824M352.471 157.833V201.667M309.118 201.667H352.471M309.118 201.667V245.5M395.824 114V157.833M395.824 114H439.176M395.824 157.833H439.176M395.824 157.833V201.667M352.471 201.667H395.824M352.471 201.667V245.5M439.176 114V157.833M439.176 114H482.529M439.176 157.833H482.529M439.176 157.833V201.667M395.824 201.667H439.176M395.824 201.667V245.5M482.529 114V157.833M482.529 114H525.882M482.529 157.833H525.882M482.529 157.833V201.667M439.176 201.667H482.529M439.176 201.667V245.5M525.882 114V157.833M525.882 114H569.235M525.882 157.833H569.235M525.882 157.833V201.667M482.529 201.667H525.882M482.529 201.667V245.5M569.235 114V157.833M569.235 114H612.589M569.235 157.833H612.589M569.235 157.833V201.667M525.882 201.667H569.235M525.882 201.667V245.5M612.589 114V157.833M612.589 114H655.942M612.589 157.833H655.942M612.589 157.833V201.667M569.235 201.667H612.589M569.235 201.667V245.5M655.942 114V157.833M655.942 114H699.294M655.942 157.833H699.294M655.942 157.833V201.667M612.589 201.667H655.942M612.589 201.667V245.5M699.294 114V157.833M699.294 114H742.647M699.294 157.833H742.647M699.294 157.833V201.667M655.942 201.667H699.294M655.942 201.667V245.5M742.647 114V157.833M742.647 114H786V157.833M742.647 157.833H786M742.647 157.833V201.667M699.294 201.667H742.647M699.294 201.667V245.5M786 157.833V201.667M742.647 201.667H786M742.647 201.667V245.5M786 201.667V245.5M92.3529 245.5H49M92.3529 245.5H135.706M92.3529 245.5V289.333M49 245.5V289.333M135.706 245.5H179.058M135.706 245.5V289.333M179.058 245.5H222.411M179.058 245.5V289.333M222.411 245.5H265.765M222.411 245.5V289.333M265.765 245.5H309.118M265.765 245.5V289.333M309.118 245.5H352.471M309.118 245.5V289.333M352.471 245.5H395.824M352.471 245.5V289.333M395.824 245.5H439.176M395.824 245.5V289.333M439.176 245.5H482.529M439.176 245.5V289.333M482.529 245.5H525.882M482.529 245.5V289.333M525.882 245.5H569.235M525.882 245.5V289.333M569.235 245.5H612.589M569.235 245.5V289.333M612.589 245.5H655.942M612.589 245.5V289.333M655.942 245.5H699.294M655.942 245.5V289.333M699.294 245.5H742.647M699.294 245.5V289.333M742.647 245.5H786M742.647 245.5V289.333M786 245.5V289.333M92.3529 289.333H49M92.3529 289.333H135.706M92.3529 289.333V333.167M49 289.333V333.167M135.706 289.333H179.058M135.706 289.333V333.167M179.058 289.333H222.411M179.058 289.333V333.167M222.411 289.333H265.765M222.411 289.333V333.167M265.765 289.333H309.118M265.765 289.333V333.167M309.118 289.333H352.471M309.118 289.333V333.167M352.471 289.333H395.824M352.471 289.333V333.167M395.824 289.333H439.176M395.824 289.333V333.167M439.176 289.333H482.529M439.176 289.333V333.167M482.529 289.333H525.882M482.529 289.333V333.167M525.882 289.333H569.235M525.882 289.333V333.167M569.235 289.333H612.589M569.235 289.333V333.167M612.589 289.333H655.942M612.589 289.333V333.167M655.942 289.333H699.294M655.942 289.333V333.167M699.294 289.333H742.647M699.294 289.333V333.167M742.647 289.333H786M742.647 289.333V333.167M786 289.333V333.167M92.3529 333.167H49M92.3529 333.167H135.706M92.3529 333.167V377M49 333.167V377M135.706 333.167H179.058M135.706 333.167V377M179.058 333.167H222.411M179.058 333.167V377M222.411 333.167H265.765M222.411 333.167V377M265.765 333.167H309.118M265.765 333.167V377M309.118 333.167H352.471M309.118 333.167V377M352.471 333.167H395.824M352.471 333.167V377M395.824 333.167H439.176M395.824 333.167V377M439.176 333.167H482.529M439.176 333.167V377M482.529 333.167H525.882M482.529 333.167V377M525.882 333.167H569.235M525.882 333.167V377M569.235 333.167H612.589M569.235 333.167V377M612.589 333.167H655.942M612.589 333.167V377M655.942 333.167H699.294M655.942 333.167V377M699.294 333.167H742.647M699.294 333.167V377M742.647 333.167H786M742.647 333.167V377M786 333.167V377M92.3529 377H49M92.3529 377H135.706M92.3529 377V420.833M49 377V420.833M135.706 377H179.058M135.706 377V420.833M179.058 377H222.411M179.058 377V420.833M222.411 377H265.765M222.411 377V420.833M265.765 377H309.118M265.765 377V420.833M309.118 377H352.471M309.118 377V420.833M352.471 377H395.824M352.471 377V420.833M395.824 377H439.176M395.824 377V420.833M439.176 377H482.529M439.176 377V420.833M482.529 377H525.882M482.529 377V420.833M525.882 377H569.235M525.882 377V420.833M569.235 377H612.589M569.235 377V420.833M612.589 377H655.942M612.589 377V420.833M655.942 377H699.294M655.942 377V420.833M699.294 377H742.647M699.294 377V420.833M742.647 377H786M742.647 377V420.833M786 377V420.833M92.3529 420.833H49M92.3529 420.833H135.706M92.3529 420.833V464.666M49 420.833V464.666M135.706 420.833H179.058M135.706 420.833V464.666M179.058 420.833H222.411M179.058 420.833V464.666M222.411 420.833H265.765M222.411 420.833V464.666M265.765 420.833H309.118M265.765 420.833V464.666M309.118 420.833H352.471M309.118 420.833V464.666M352.471 420.833H395.824M352.471 420.833V464.666M395.824 420.833H439.176M395.824 420.833V464.666M439.176 420.833H482.529M439.176 420.833V464.666M482.529 420.833H525.882M482.529 420.833V464.666M525.882 420.833H569.235M525.882 420.833V464.666M569.235 420.833H612.589M569.235 420.833V464.666M612.589 420.833H655.942M612.589 420.833V464.666M655.942 420.833H699.294M655.942 420.833V464.666M699.294 420.833H742.647M699.294 420.833V464.666M742.647 420.833H786M742.647 420.833V464.666M786 420.833V464.666M92.3529 464.666H49M92.3529 464.666H135.706M92.3529 464.666V508.499M49 464.666V508.499M135.706 464.666H179.058M135.706 464.666V508.499M179.058 464.666H222.411M179.058 464.666V508.499M222.411 464.666H265.765M222.411 464.666V508.499M265.765 464.666H309.118M265.765 464.666V508.499M309.118 464.666H352.471M309.118 464.666V508.499M352.471 464.666H395.824M352.471 464.666V508.499M395.824 464.666H439.176M395.824 464.666V508.499M439.176 464.666H482.529M439.176 464.666V508.499M482.529 464.666H525.882M482.529 464.666V508.499M525.882 464.666H569.235M525.882 464.666V508.499M569.235 464.666H612.589M569.235 464.666V508.499M612.589 464.666H655.942M612.589 464.666V508.499M655.942 464.666H699.294M655.942 464.666V508.499M699.294 464.666H742.647M699.294 464.666V508.499M742.647 464.666H786M742.647 464.666V508.499M786 464.666V508.499M92.3529 508.499H49M92.3529 508.499H135.706M92.3529 508.499V552.332M49 508.499V552.332M135.706 508.499H179.058M135.706 508.499V552.332M179.058 508.499H222.411M179.058 508.499V552.332M222.411 508.499H265.765M222.411 508.499V552.332M265.765 508.499H309.118M265.765 508.499V552.332M309.118 508.499H352.471M309.118 508.499V552.332M352.471 508.499H395.824M352.471 508.499V552.332M395.824 508.499H439.176M395.824 508.499V552.332M439.176 508.499H482.529M439.176 508.499V552.332M482.529 508.499H525.882M482.529 508.499V552.332M525.882 508.499H569.235M525.882 508.499V552.332M569.235 508.499H612.589M569.235 508.499V552.332M612.589 508.499H655.942M612.589 508.499V552.332M655.942 508.499H699.294M655.942 508.499V552.332M699.294 508.499H742.647M699.294 508.499V552.332M742.647 508.499H786M742.647 508.499V552.332M786 508.499V552.332M92.3529 552.332H49M92.3529 552.332H135.706M92.3529 552.332V596.167M49 552.332V596.167M135.706 552.332H179.058M135.706 552.332V596.167M179.058 552.332H222.411M179.058 552.332V596.167M222.411 552.332H265.765M222.411 552.332V596.167M265.765 552.332H309.118M265.765 552.332V596.167M309.118 552.332H352.471M309.118 552.332V596.167M352.471 552.332H395.824M352.471 552.332V596.167M395.824 552.332H439.176M395.824 552.332V596.167M439.176 552.332H482.529M439.176 552.332V596.167M482.529 552.332H525.882M482.529 552.332V596.167M525.882 552.332H569.235M525.882 552.332V596.167M569.235 552.332H612.589M569.235 552.332V596.167M612.589 552.332H655.942M612.589 552.332V596.167M655.942 552.332H699.294M655.942 552.332V596.167M699.294 552.332H742.647M699.294 552.332V596.167M742.647 552.332H786M742.647 552.332V596.167M786 552.332V596.167M92.3529 596.167H49M92.3529 596.167H135.706M92.3529 596.167V640M49 596.167V640H92.3529M135.706 596.167H179.058M135.706 596.167V640M179.058 596.167H222.411M179.058 596.167V640M222.411 596.167H265.765M222.411 596.167V640M265.765 596.167H309.118M265.765 596.167V640M309.118 596.167H352.471M309.118 596.167V640M352.471 596.167H395.824M352.471 596.167V640M395.824 596.167H439.176M395.824 596.167V640M439.176 596.167H482.529M439.176 596.167V640M482.529 596.167H525.882M482.529 596.167V640M525.882 596.167H569.235M525.882 596.167V640M569.235 596.167H612.589M569.235 596.167V640M612.589 596.167H655.942M612.589 596.167V640M655.942 596.167H699.294M655.942 596.167V640M699.294 596.167H742.647M699.294 596.167V640M742.647 596.167H786M742.647 596.167V640M786 596.167V640H742.647M92.3529 640H135.706M135.706 640H179.058M179.058 640H222.411M222.411 640H265.765M265.765 640H309.118M309.118 640H352.471M352.471 640H395.824M395.824 640H439.176M439.176 640H482.529M482.529 640H525.882M525.882 640H569.235M569.235 640H612.589M612.589 640H655.942M655.942 640H699.294M699.294 640H742.647" stroke="url(#paint5_radial_1174_896)" stroke-opacity="0.08" stroke-width="1.00215"/>
<path d="M873 246H830V290H873V246Z" fill="url(#paint6_linear_1174_896)" fill-opacity="0.02"/>
<path d="M962 421H918V465H962V421Z" fill="url(#paint7_linear_1174_896)" fill-opacity="0.02"/>
<path d="M1224 290H1181V333H1224V290Z" fill="url(#paint8_linear_1174_896)" fill-opacity="0.02"/>
<path d="M654.823 114H611V157.833M654.823 114V157.833M654.823 114H698.647M611 157.833H654.823M611 157.833V201.667M654.823 157.833H698.647M654.823 157.833V201.667M698.647 114V157.833M698.647 114H742.47M698.647 157.833H742.47M698.647 157.833V201.667M654.823 201.667H611M654.823 201.667H698.647M654.823 201.667V245.5M611 201.667V245.5M742.47 114V157.833M742.47 114H786.294M742.47 157.833H786.294M742.47 157.833V201.667M698.647 201.667H742.47M698.647 201.667V245.5M786.294 114V157.833M786.294 114H830.118M786.294 157.833H830.118M786.294 157.833V201.667M742.47 201.667H786.294M742.47 201.667V245.5M830.118 114V157.833M830.118 114H873.942M830.118 157.833H873.942M830.118 157.833V201.667M786.294 201.667H830.118M786.294 201.667V245.5M873.942 114V157.833M873.942 114H917.765M873.942 157.833H917.765M873.942 157.833V201.667M830.118 201.667H873.942M830.118 201.667V245.5M917.765 114V157.833M917.765 114H961.588M917.765 157.833H961.588M917.765 157.833V201.667M873.942 201.667H917.765M873.942 201.667V245.5M961.588 114V157.833M961.588 114H1005.41M961.588 157.833H1005.41M961.588 157.833V201.667M917.765 201.667H961.588M917.765 201.667V245.5M1005.41 114V157.833M1005.41 114H1049.24M1005.41 157.833H1049.24M1005.41 157.833V201.667M961.588 201.667H1005.41M961.588 201.667V245.5M1049.24 114V157.833M1049.24 114H1093.06M1049.24 157.833H1093.06M1049.24 157.833V201.667M1005.41 201.667H1049.24M1005.41 201.667V245.5M1093.06 114V157.833M1093.06 114H1136.88M1093.06 157.833H1136.88M1093.06 157.833V201.667M1049.24 201.667H1093.06M1049.24 201.667V245.5M1136.88 114V157.833M1136.88 114H1180.7M1136.88 157.833H1180.7M1136.88 157.833V201.667M1093.06 201.667H1136.88M1093.06 201.667V245.5M1180.7 114V157.833M1180.7 114H1224.53M1180.7 157.833H1224.53M1180.7 157.833V201.667M1136.88 201.667H1180.7M1136.88 201.667V245.5M1224.53 114V157.833M1224.53 114H1268.35M1224.53 157.833H1268.35M1224.53 157.833V201.667M1180.7 201.667H1224.53M1180.7 201.667V245.5M1268.35 114V157.833M1268.35 114H1312.18M1268.35 157.833H1312.18M1268.35 157.833V201.667M1224.53 201.667H1268.35M1224.53 201.667V245.5M1312.18 114V157.833M1312.18 114H1356V157.833M1312.18 157.833H1356M1312.18 157.833V201.667M1268.35 201.667H1312.18M1268.35 201.667V245.5M1356 157.833V201.667M1312.18 201.667H1356M1312.18 201.667V245.5M1356 201.667V245.5M654.823 245.5H611M654.823 245.5H698.647M654.823 245.5V289.333M611 245.5V289.333M698.647 245.5H742.47M698.647 245.5V289.333M742.47 245.5H786.294M742.47 245.5V289.333M786.294 245.5H830.118M786.294 245.5V289.333M830.118 245.5H873.942M830.118 245.5V289.333M873.942 245.5H917.765M873.942 245.5V289.333M917.765 245.5H961.588M917.765 245.5V289.333M961.588 245.5H1005.41M961.588 245.5V289.333M1005.41 245.5H1049.24M1005.41 245.5V289.333M1049.24 245.5H1093.06M1049.24 245.5V289.333M1093.06 245.5H1136.88M1093.06 245.5V289.333M1136.88 245.5H1180.7M1136.88 245.5V289.333M1180.7 245.5H1224.53M1180.7 245.5V289.333M1224.53 245.5H1268.35M1224.53 245.5V289.333M1268.35 245.5H1312.18M1268.35 245.5V289.333M1312.18 245.5H1356M1312.18 245.5V289.333M1356 245.5V289.333M654.823 289.333H611M654.823 289.333H698.647M654.823 289.333V333.167M611 289.333V333.167M698.647 289.333H742.47M698.647 289.333V333.167M742.47 289.333H786.294M742.47 289.333V333.167M786.294 289.333H830.118M786.294 289.333V333.167M830.118 289.333H873.942M830.118 289.333V333.167M873.942 289.333H917.765M873.942 289.333V333.167M917.765 289.333H961.588M917.765 289.333V333.167M961.588 289.333H1005.41M961.588 289.333V333.167M1005.41 289.333H1049.24M1005.41 289.333V333.167M1049.24 289.333H1093.06M1049.24 289.333V333.167M1093.06 289.333H1136.88M1093.06 289.333V333.167M1136.88 289.333H1180.7M1136.88 289.333V333.167M1180.7 289.333H1224.53M1180.7 289.333V333.167M1224.53 289.333H1268.35M1224.53 289.333V333.167M1268.35 289.333H1312.18M1268.35 289.333V333.167M1312.18 289.333H1356M1312.18 289.333V333.167M1356 289.333V333.167M654.823 333.167H611M654.823 333.167H698.647M654.823 333.167V377M611 333.167V377M698.647 333.167H742.47M698.647 333.167V377M742.47 333.167H786.294M742.47 333.167V377M786.294 333.167H830.118M786.294 333.167V377M830.118 333.167H873.942M830.118 333.167V377M873.942 333.167H917.765M873.942 333.167V377M917.765 333.167H961.588M917.765 333.167V377M961.588 333.167H1005.41M961.588 333.167V377M1005.41 333.167H1049.24M1005.41 333.167V377M1049.24 333.167H1093.06M1049.24 333.167V377M1093.06 333.167H1136.88M1093.06 333.167V377M1136.88 333.167H1180.7M1136.88 333.167V377M1180.7 333.167H1224.53M1180.7 333.167V377M1224.53 333.167H1268.35M1224.53 333.167V377M1268.35 333.167H1312.18M1268.35 333.167V377M1312.18 333.167H1356M1312.18 333.167V377M1356 333.167V377M654.823 377H611M654.823 377H698.647M654.823 377V420.833M611 377V420.833M698.647 377H742.47M698.647 377V420.833M742.47 377H786.294M742.47 377V420.833M786.294 377H830.118M786.294 377V420.833M830.118 377H873.942M830.118 377V420.833M873.942 377H917.765M873.942 377V420.833M917.765 377H961.588M917.765 377V420.833M961.588 377H1005.41M961.588 377V420.833M1005.41 377H1049.24M1005.41 377V420.833M1049.24 377H1093.06M1049.24 377V420.833M1093.06 377H1136.88M1093.06 377V420.833M1136.88 377H1180.7M1136.88 377V420.833M1180.7 377H1224.53M1180.7 377V420.833M1224.53 377H1268.35M1224.53 377V420.833M1268.35 377H1312.18M1268.35 377V420.833M1312.18 377H1356M1312.18 377V420.833M1356 377V420.833M654.823 420.833H611M654.823 420.833H698.647M654.823 420.833V464.666M611 420.833V464.666M698.647 420.833H742.47M698.647 420.833V464.666M742.47 420.833H786.294M742.47 420.833V464.666M786.294 420.833H830.118M786.294 420.833V464.666M830.118 420.833H873.942M830.118 420.833V464.666M873.942 420.833H917.765M873.942 420.833V464.666M917.765 420.833H961.588M917.765 420.833V464.666M961.588 420.833H1005.41M961.588 420.833V464.666M1005.41 420.833H1049.24M1005.41 420.833V464.666M1049.24 420.833H1093.06M1049.24 420.833V464.666M1093.06 420.833H1136.88M1093.06 420.833V464.666M1136.88 420.833H1180.7M1136.88 420.833V464.666M1180.7 420.833H1224.53M1180.7 420.833V464.666M1224.53 420.833H1268.35M1224.53 420.833V464.666M1268.35 420.833H1312.18M1268.35 420.833V464.666M1312.18 420.833H1356M1312.18 420.833V464.666M1356 420.833V464.666M654.823 464.666H611M654.823 464.666H698.647M654.823 464.666V508.499M611 464.666V508.499M698.647 464.666H742.47M698.647 464.666V508.499M742.47 464.666H786.294M742.47 464.666V508.499M786.294 464.666H830.118M786.294 464.666V508.499M830.118 464.666H873.942M830.118 464.666V508.499M873.942 464.666H917.765M873.942 464.666V508.499M917.765 464.666H961.588M917.765 464.666V508.499M961.588 464.666H1005.41M961.588 464.666V508.499M1005.41 464.666H1049.24M1005.41 464.666V508.499M1049.24 464.666H1093.06M1049.24 464.666V508.499M1093.06 464.666H1136.88M1093.06 464.666V508.499M1136.88 464.666H1180.7M1136.88 464.666V508.499M1180.7 464.666H1224.53M1180.7 464.666V508.499M1224.53 464.666H1268.35M1224.53 464.666V508.499M1268.35 464.666H1312.18M1268.35 464.666V508.499M1312.18 464.666H1356M1312.18 464.666V508.499M1356 464.666V508.499M654.823 508.499H611M654.823 508.499H698.647M654.823 508.499V552.332M611 508.499V552.332M698.647 508.499H742.47M698.647 508.499V552.332M742.47 508.499H786.294M742.47 508.499V552.332M786.294 508.499H830.118M786.294 508.499V552.332M830.118 508.499H873.942M830.118 508.499V552.332M873.942 508.499H917.765M873.942 508.499V552.332M917.765 508.499H961.588M917.765 508.499V552.332M961.588 508.499H1005.41M961.588 508.499V552.332M1005.41 508.499H1049.24M1005.41 508.499V552.332M1049.24 508.499H1093.06M1049.24 508.499V552.332M1093.06 508.499H1136.88M1093.06 508.499V552.332M1136.88 508.499H1180.7M1136.88 508.499V552.332M1180.7 508.499H1224.53M1180.7 508.499V552.332M1224.53 508.499H1268.35M1224.53 508.499V552.332M1268.35 508.499H1312.18M1268.35 508.499V552.332M1312.18 508.499H1356M1312.18 508.499V552.332M1356 508.499V552.332M654.823 552.332H611M654.823 552.332H698.647M654.823 552.332V596.167M611 552.332V596.167M698.647 552.332H742.47M698.647 552.332V596.167M742.47 552.332H786.294M742.47 552.332V596.167M786.294 552.332H830.118M786.294 552.332V596.167M830.118 552.332H873.942M830.118 552.332V596.167M873.942 552.332H917.765M873.942 552.332V596.167M917.765 552.332H961.588M917.765 552.332V596.167M961.588 552.332H1005.41M961.588 552.332V596.167M1005.41 552.332H1049.24M1005.41 552.332V596.167M1049.24 552.332H1093.06M1049.24 552.332V596.167M1093.06 552.332H1136.88M1093.06 552.332V596.167M1136.88 552.332H1180.7M1136.88 552.332V596.167M1180.7 552.332H1224.53M1180.7 552.332V596.167M1224.53 552.332H1268.35M1224.53 552.332V596.167M1268.35 552.332H1312.18M1268.35 552.332V596.167M1312.18 552.332H1356M1312.18 552.332V596.167M1356 552.332V596.167M654.823 596.167H611M654.823 596.167H698.647M654.823 596.167V640M611 596.167V640H654.823M698.647 596.167H742.47M698.647 596.167V640M742.47 596.167H786.294M742.47 596.167V640M786.294 596.167H830.118M786.294 596.167V640M830.118 596.167H873.942M830.118 596.167V640M873.942 596.167H917.765M873.942 596.167V640M917.765 596.167H961.588M917.765 596.167V640M961.588 596.167H1005.41M961.588 596.167V640M1005.41 596.167H1049.24M1005.41 596.167V640M1049.24 596.167H1093.06M1049.24 596.167V640M1093.06 596.167H1136.88M1093.06 596.167V640M1136.88 596.167H1180.7M1136.88 596.167V640M1180.7 596.167H1224.53M1180.7 596.167V640M1224.53 596.167H1268.35M1224.53 596.167V640M1268.35 596.167H1312.18M1268.35 596.167V640M1312.18 596.167H1356M1312.18 596.167V640M1356 596.167V640H1312.18M654.823 640H698.647M698.647 640H742.47M742.47 640H786.294M786.294 640H830.118M830.118 640H873.942M873.942 640H917.765M917.765 640H961.588M961.588 640H1005.41M1005.41 640H1049.24M1049.24 640H1093.06M1093.06 640H1136.88M1136.88 640H1180.7M1180.7 640H1224.53M1224.53 640H1268.35M1268.35 640H1312.18" stroke="url(#paint9_radial_1174_896)" stroke-opacity="0.08" stroke-width="1.00215"/>
</g>
</g>
<defs>
<filter id="filter0_f_1174_896" x="603" y="0" width="751" height="580" filterUnits="userSpaceOnUse" color-interpolation-filters="sRGB">
<feFlood flood-opacity="0" result="BackgroundImageFix"/>
<feBlend mode="normal" in="SourceGraphic" in2="BackgroundImageFix" result="shape"/>
<feGaussianBlur stdDeviation="95" result="effect1_foregroundBlur_1174_896"/>
</filter>
<filter id="filter1_f_1174_896" x="0" y="0" width="754" height="580" filterUnits="userSpaceOnUse" color-interpolation-filters="sRGB">
<feFlood flood-opacity="0" result="BackgroundImageFix"/>
<feBlend mode="normal" in="SourceGraphic" in2="BackgroundImageFix" result="shape"/>
<feGaussianBlur stdDeviation="95" result="effect1_foregroundBlur_1174_896"/>
</filter>
<linearGradient id="paint0_linear_1174_896" x1="978.5" y1="190" x2="978.5" y2="390" gradientUnits="userSpaceOnUse">
<stop stop-color="#81BBFF"/>
<stop offset="1" stop-color="#5194E3"/>
</linearGradient>
<linearGradient id="paint1_linear_1174_896" x1="377" y1="190" x2="377" y2="390" gradientUnits="userSpaceOnUse">
<stop stop-color="#81BBFF"/>
<stop offset="1" stop-color="#5194E3"/>
</linearGradient>
<linearGradient id="paint2_linear_1174_896" x1="200.499" y1="246" x2="200.499" y2="289" gradientUnits="userSpaceOnUse">
<stop stop-color="white" stop-opacity="0"/>
<stop offset="1" stop-color="white"/>
</linearGradient>
<linearGradient id="paint3_linear_1174_896" x1="157.499" y1="465" x2="157.499" y2="509" gradientUnits="userSpaceOnUse">
<stop stop-color="white" stop-opacity="0"/>
<stop offset="1" stop-color="white"/>
</linearGradient>
<linearGradient id="paint4_linear_1174_896" x1="503.999" y1="246" x2="503.999" y2="289" gradientUnits="userSpaceOnUse">
<stop stop-color="white" stop-opacity="0"/>
<stop offset="1" stop-color="white"/>
</linearGradient>
<radialGradient id="paint5_radial_1174_896" cx="0" cy="0" r="1" gradientUnits="userSpaceOnUse" gradientTransform="translate(417.5 391.049) rotate(90) scale(248.389 369.056)">
<stop stop-color="white"/>
<stop offset="1" stop-color="white" stop-opacity="0"/>
</radialGradient>
<linearGradient id="paint6_linear_1174_896" x1="851.499" y1="246" x2="851.499" y2="290" gradientUnits="userSpaceOnUse">
<stop stop-color="white" stop-opacity="0"/>
<stop offset="1" stop-color="white"/>
</linearGradient>
<linearGradient id="paint7_linear_1174_896" x1="939.999" y1="421" x2="939.999" y2="465" gradientUnits="userSpaceOnUse">
<stop stop-color="white" stop-opacity="0"/>
<stop offset="1" stop-color="white"/>
</linearGradient>
<linearGradient id="paint8_linear_1174_896" x1="1202.5" y1="290" x2="1202.5" y2="333" gradientUnits="userSpaceOnUse">
<stop stop-color="white" stop-opacity="0"/>
<stop offset="1" stop-color="white"/>
</linearGradient>
<radialGradient id="paint9_radial_1174_896" cx="0" cy="0" r="1" gradientUnits="userSpaceOnUse" gradientTransform="translate(983.5 391.049) rotate(90) scale(248.389 373.062)">
<stop stop-color="white"/>
<stop offset="1" stop-color="white" stop-opacity="0"/>
</radialGradient>
<clipPath id="clip0_1174_896">
<rect width="1323.65" height="468" fill="white" transform="translate(33 173)"/>
</clipPath>
<clipPath id="clip1_1174_896">
<rect width="1323.61" height="468" fill="white" transform="translate(33.0195 173)"/>
</clipPath>
</defs>
</svg>
