<svg width="137" height="24" viewBox="0 0 137 24" fill="none" xmlns="http://www.w3.org/2000/svg">
<path d="M18.0638 23.1419C17.7862 23.1419 17.51 23.0537 17.2722 22.8779L11.6821 18.7272L6.09195 22.8779C5.86034 23.0505 5.582 23.1428 5.29669 23.1418C5.01137 23.1407 4.73366 23.0464 4.50321 22.8722C4.27254 22.6991 4.1005 22.455 4.01154 22.1748C3.92259 21.8945 3.92127 21.5924 4.00776 21.3113L6.09263 14.3446L0.552668 10.3027C0.323071 10.1273 0.15256 9.88152 0.0652515 9.60025C-0.0220567 9.31898 -0.021742 9.0164 0.0661512 8.73532C0.154738 8.45493 0.326194 8.21044 0.556289 8.03643C0.786383 7.86242 1.06348 7.76767 1.34841 7.76559L8.2098 7.75492L10.3943 0.961083C10.4845 0.681208 10.6574 0.437791 10.8886 0.265304C11.1197 0.092816 11.3975 0 11.6824 0C11.9674 0 12.2451 0.092816 12.4763 0.265304C12.7075 0.437791 12.8804 0.681208 12.9705 0.961083L15.1179 7.75492L22.0144 7.76559C22.2996 7.76725 22.5771 7.86195 22.8075 8.03623C23.0378 8.2105 23.2092 8.45549 23.2974 8.73639C23.3856 9.01729 23.386 9.31982 23.2987 9.60099C23.2113 9.88217 23.0406 10.1277 22.8108 10.3027L17.2708 14.3446L19.3557 21.3113C19.4424 21.5923 19.4412 21.8944 19.3524 22.1747C19.2635 22.455 19.0916 22.6991 18.8609 22.8722C18.6298 23.0478 18.3505 23.1423 18.0638 23.1419V23.1419Z" fill="#FFAC33"/>
<path d="M101.342 23.1425C101.065 23.1425 100.788 23.0543 100.551 22.8785L94.9604 18.7278L89.3703 22.8785C89.1387 23.0511 88.8603 23.1434 88.575 23.1424C88.2897 23.1414 88.012 23.047 87.7815 22.8729C87.5509 22.6997 87.3788 22.4556 87.2899 22.1754C87.2009 21.8951 87.1996 21.593 87.2861 21.3119L89.371 14.3452L83.831 10.3033C83.6014 10.1279 83.4309 9.88213 83.3436 9.60086C83.2563 9.31959 83.2566 9.01701 83.3445 8.73593C83.4331 8.45554 83.6045 8.21105 83.8346 8.03704C84.0647 7.86303 84.3418 7.76828 84.6267 7.7662L91.4881 7.75553L93.6726 0.961693C93.7628 0.681819 93.9357 0.438402 94.1669 0.265914C94.3981 0.0934264 94.6758 0.000610352 94.9607 0.000610352C95.2457 0.000610352 95.5234 0.0934264 95.7546 0.265914C95.9858 0.438402 96.1587 0.681819 96.2488 0.961693L98.3962 7.75553L105.293 7.7662C105.578 7.76787 105.855 7.86256 106.086 8.03684C106.316 8.21111 106.488 8.4561 106.576 8.737C106.664 9.0179 106.664 9.32043 106.577 9.6016C106.49 9.88278 106.319 10.1283 106.089 10.3033L100.549 14.3452L102.634 21.3119C102.721 21.5929 102.72 21.895 102.631 22.1753C102.542 22.4556 102.37 22.6997 102.139 22.8729C101.908 23.0484 101.629 23.1429 101.342 23.1425V23.1425Z" fill="#FFAC33"/>
<path d="M73.5072 23.1425C73.2296 23.1425 72.9533 23.0543 72.7156 22.8785L67.1254 18.7278L61.5353 22.8785C61.3037 23.0511 61.0254 23.1434 60.74 23.1424C60.4547 23.1414 60.177 23.047 59.9466 22.8729C59.7159 22.6997 59.5439 22.4556 59.4549 22.1754C59.366 21.8951 59.3646 21.593 59.4511 21.3119L61.536 14.3452L55.996 10.3033C55.7664 10.1279 55.5959 9.88213 55.5086 9.60086C55.4213 9.31959 55.4216 9.01701 55.5095 8.73593C55.5981 8.45554 55.7696 8.21105 55.9996 8.03704C56.2297 7.86303 56.5068 7.76828 56.7918 7.7662L63.6532 7.75553L65.8377 0.961693C65.9278 0.681819 66.1007 0.438402 66.3319 0.265914C66.5631 0.0934264 66.8408 0.000610352 67.1258 0.000610352C67.4107 0.000610352 67.6885 0.0934264 67.9196 0.265914C68.1508 0.438402 68.3237 0.681819 68.4139 0.961693L70.5613 7.75553L77.4577 7.7662C77.743 7.76787 78.0205 7.86256 78.2508 8.03684C78.4812 8.21111 78.6526 8.4561 78.7408 8.737C78.8289 9.0179 78.8294 9.32043 78.742 9.6016C78.6547 9.88278 78.484 10.1283 78.2542 10.3033L72.7142 14.3452L74.7991 21.3119C74.8857 21.5929 74.8846 21.895 74.7957 22.1753C74.7069 22.4556 74.5349 22.6997 74.3043 22.8729C74.0731 23.0484 73.7939 23.1429 73.5072 23.1425V23.1425Z" fill="#FFAC33"/>
<path d="M45.7787 23.1425C45.5011 23.1425 45.2248 23.0543 44.987 22.8785L39.3969 18.7278L33.8068 22.8785C33.5752 23.0511 33.2968 23.1434 33.0115 23.1424C32.7262 23.1414 32.4485 23.047 32.2181 22.8729C31.9874 22.6997 31.8153 22.4556 31.7264 22.1754C31.6374 21.8951 31.6361 21.593 31.7226 21.3119L33.8075 14.3452L28.2675 10.3033C28.0379 10.1279 27.8674 9.88213 27.7801 9.60086C27.6928 9.31959 27.6931 9.01701 27.781 8.73593C27.8696 8.45554 28.041 8.21105 28.2711 8.03704C28.5012 7.86303 28.7783 7.76828 29.0633 7.7662L35.9246 7.75553L38.1092 0.961693C38.1993 0.681819 38.3722 0.438402 38.6034 0.265914C38.8346 0.0934264 39.1123 0.000610352 39.3973 0.000610352C39.6822 0.000610352 39.9599 0.0934264 40.1911 0.265914C40.4223 0.438402 40.5952 0.681819 40.6854 0.961693L42.8328 7.75553L49.7292 7.7662C50.0145 7.76787 50.292 7.86256 50.5223 8.03684C50.7526 8.21111 50.9241 8.4561 51.0122 8.737C51.1004 9.0179 51.1009 9.32043 51.0135 9.6016C50.9262 9.88278 50.7555 10.1283 50.5256 10.3033L44.9857 14.3452L47.0705 21.3119C47.1572 21.5929 47.1561 21.895 47.0672 22.1753C46.9784 22.4556 46.8064 22.6997 46.5758 22.8729C46.3446 23.0484 46.0653 23.1429 45.7787 23.1425V23.1425Z" fill="#FFAC33"/>
<path d="M130.508 23.1419C130.213 23.1419 129.92 23.0537 129.667 22.8779L123.735 18.7272L117.803 22.8779C117.558 23.0505 117.262 23.1428 116.96 23.1418C116.657 23.1408 116.362 23.0464 116.118 22.8722C115.873 22.6991 115.69 22.455 115.596 22.1748C115.501 21.8945 115.5 21.5924 115.592 21.3113L117.804 14.3446L111.925 10.3027C111.682 10.1273 111.501 9.88152 111.408 9.60025C111.315 9.31898 111.316 9.0164 111.409 8.73532C111.503 8.45493 111.685 8.21044 111.929 8.03643C112.173 7.86242 112.467 7.76767 112.77 7.76559L120.051 7.75492L122.369 0.961083C122.465 0.681208 122.648 0.437791 122.893 0.265304C123.139 0.092816 123.433 0 123.736 0C124.038 0 124.333 0.092816 124.578 0.265304C124.824 0.437791 125.007 0.681208 125.103 0.961083L127.381 7.75492L134.7 7.76559C135.002 7.76726 135.297 7.86195 135.541 8.03623C135.786 8.2105 135.968 8.45549 136.061 8.73639C136.155 9.01729 136.155 9.31982 136.063 9.60099C135.97 9.88217 135.789 10.1277 135.545 10.3027L129.666 14.3446L131.878 21.3113C131.97 21.5923 131.969 21.8944 131.875 22.1747C131.781 22.455 131.598 22.6991 131.353 22.8722C131.108 23.0478 130.812 23.1423 130.508 23.1419Z" fill="white"/>
</svg>
