<svg width="430" height="948" viewBox="0 0 430 948" fill="none" xmlns="http://www.w3.org/2000/svg">
<g clipPath="url(#clip0_186_4263)">
<mask id="mask0_186_4263" style="mask-type:luminance" maskUnits="userSpaceOnUse" x="128" y="0" width="391" height="296">
<path d="M128 0H519V296H128V0Z" fill="white"/>
</mask>
<g mask="url(#mask0_186_4263)">
<g opacity="0.2" filter="url(#filter0_f_186_4263)">
<path d="M656.05 -190.284L668.115 -178.19L456.438 33.9792L308.763 174.881L444.372 21.8856L656.05 -190.284Z" fill="url(#paint0_linear_186_4263)"/>
</g>
<g opacity="0.32" filter="url(#filter1_f_186_4263)">
<path d="M555.466 -185.183L567.531 -173.089L355.854 39.08L208.178 179.981L343.788 26.9864L555.466 -185.183Z" fill="url(#paint1_linear_186_4263)"/>
</g>
<g opacity="0.32" filter="url(#filter2_f_186_4263)">
<path d="M516.848 -237.092L528.914 -224.998L317.236 -12.829L169.562 128.072L305.171 -24.9227L516.848 -237.092Z" fill="url(#paint2_linear_186_4263)"/>
</g>
</g>
</g>
<g clipPath="url(#clip1_186_4263)">
<mask id="mask1_186_4263" style="mask-type:luminance" maskUnits="userSpaceOnUse" x="-55" y="-14" width="391" height="296">
<path d="M336 -14H-55V282H336V-14Z" fill="white"/>
</mask>
<g mask="url(#mask1_186_4263)">
<g opacity="0.2" filter="url(#filter3_f_186_4263)">
<path d="M-192.05 -204.284L-204.115 -192.19L7.56246 19.9792L155.237 160.881L19.6281 7.88556L-192.05 -204.284Z" fill="url(#paint3_linear_186_4263)"/>
</g>
<g opacity="0.32" filter="url(#filter4_f_186_4263)">
<path d="M-91.4656 -199.183L-103.531 -187.089L108.146 25.08L255.822 165.981L120.212 12.9864L-91.4656 -199.183Z" fill="url(#paint4_linear_186_4263)"/>
</g>
<g opacity="0.32" filter="url(#filter5_f_186_4263)">
<path d="M-52.8484 -251.092L-64.9141 -238.998L146.764 -26.829L294.438 114.072L158.829 -38.9227L-52.8484 -251.092Z" fill="url(#paint5_linear_186_4263)"/>
</g>
</g>
</g>
<mask id="mask2_186_4263" style="mask-type:alpha" maskUnits="userSpaceOnUse" x="-568" y="-544" width="1604" height="1604">
<circle cx="234" cy="258" r="802" fill="url(#paint6_radial_186_4263)"/>
</mask>
<g mask="url(#mask2_186_4263)">
<line x1="-36" y1="47.7" x2="1404" y2="47.7001" stroke="#161A31" stroke-width="0.6"/>
<line x1="-36" y1="160.2" x2="1404" y2="160.2" stroke="#161A31" stroke-width="0.6"/>
<line x1="-36" y1="272.7" x2="1404" y2="272.7" stroke="#161A31" stroke-width="0.6"/>
<line x1="-36" y1="385.2" x2="1404" y2="385.2" stroke="#161A31" stroke-width="0.6"/>
<line x1="-36" y1="497.7" x2="1404" y2="497.7" stroke="#161A31" stroke-width="0.6"/>
<line x1="-36" y1="610.2" x2="1404" y2="610.2" stroke="#161A31" stroke-width="0.6"/>
<line x1="-36" y1="722.7" x2="1404" y2="722.7" stroke="#161A31" stroke-width="0.6"/>
<line x1="-36" y1="835.2" x2="1404" y2="835.2" stroke="#161A31" stroke-width="0.6"/>
<line x1="-36" y1="947.7" x2="1404" y2="947.7" stroke="#161A31" stroke-width="0.6"/>
<line x1="74.4695" y1="948" x2="74.4696" y2="-492" stroke="#161A31" stroke-width="0.6"/>
<line x1="185.239" y1="948" x2="185.239" y2="-492" stroke="#161A31" stroke-width="0.6"/>
<line x1="296.009" y1="948" x2="296.009" y2="-492" stroke="#161A31" stroke-width="0.6"/>
<line x1="406.776" y1="948" x2="406.776" y2="-492" stroke="#161A31" stroke-width="0.6"/>
<path d="M74.5 148.5L74.5 172.5" stroke="url(#paint7_linear_186_4263)"/>
<path d="M86.5 160.5L62.5 160.5" stroke="url(#paint8_linear_186_4263)"/>
<g opacity="0.47">
<rect x="296.5" y="161.5" width="109" height="110" fill="#0C0F24"/>
<rect x="296.5" y="161.5" width="109" height="110" fill="#0C0F24"/>
<rect x="296.5" y="161.5" width="109" height="110" fill="#0C0F24"/>
<rect x="296.5" y="161.5" width="109" height="110" fill="#0C0F24"/>
<rect x="296.5" y="161.5" width="109" height="110" stroke="#0C0F24"/>
</g>
</g>
<defs>
<filter id="filter0_f_186_4263" x="228.764" y="-270.284" width="519.352" height="525.164" filterUnits="userSpaceOnUse" color-interpolation-filters="sRGB">
<feFlood flood-opacity="0" result="BackgroundImageFix"/>
<feBlend mode="normal" in="SourceGraphic" in2="BackgroundImageFix" result="shape"/>
<feGaussianBlur stdDeviation="40" result="effect1_foregroundBlur_186_4263"/>
</filter>
<filter id="filter1_f_186_4263" x="128.178" y="-265.183" width="519.354" height="525.164" filterUnits="userSpaceOnUse" color-interpolation-filters="sRGB">
<feFlood flood-opacity="0" result="BackgroundImageFix"/>
<feBlend mode="normal" in="SourceGraphic" in2="BackgroundImageFix" result="shape"/>
<feGaussianBlur stdDeviation="40" result="effect1_foregroundBlur_186_4263"/>
</filter>
<filter id="filter2_f_186_4263" x="89.5625" y="-317.092" width="519.352" height="525.164" filterUnits="userSpaceOnUse" color-interpolation-filters="sRGB">
<feFlood flood-opacity="0" result="BackgroundImageFix"/>
<feBlend mode="normal" in="SourceGraphic" in2="BackgroundImageFix" result="shape"/>
<feGaussianBlur stdDeviation="40" result="effect1_foregroundBlur_186_4263"/>
</filter>
<filter id="filter3_f_186_4263" x="-284.115" y="-284.284" width="519.352" height="525.164" filterUnits="userSpaceOnUse" color-interpolation-filters="sRGB">
<feFlood flood-opacity="0" result="BackgroundImageFix"/>
<feBlend mode="normal" in="SourceGraphic" in2="BackgroundImageFix" result="shape"/>
<feGaussianBlur stdDeviation="40" result="effect1_foregroundBlur_186_4263"/>
</filter>
<filter id="filter4_f_186_4263" x="-183.531" y="-279.183" width="519.354" height="525.164" filterUnits="userSpaceOnUse" color-interpolation-filters="sRGB">
<feFlood flood-opacity="0" result="BackgroundImageFix"/>
<feBlend mode="normal" in="SourceGraphic" in2="BackgroundImageFix" result="shape"/>
<feGaussianBlur stdDeviation="40" result="effect1_foregroundBlur_186_4263"/>
</filter>
<filter id="filter5_f_186_4263" x="-144.914" y="-331.092" width="519.352" height="525.164" filterUnits="userSpaceOnUse" color-interpolation-filters="sRGB">
<feFlood flood-opacity="0" result="BackgroundImageFix"/>
<feBlend mode="normal" in="SourceGraphic" in2="BackgroundImageFix" result="shape"/>
<feGaussianBlur stdDeviation="40" result="effect1_foregroundBlur_186_4263"/>
</filter>
<linearGradient id="paint0_linear_186_4263" x1="662.083" y1="-184.237" x2="449.914" y2="27.4403" gradientUnits="userSpaceOnUse">
<stop stop-color="white"/>
<stop offset="1" stop-color="#D3D8DF"/>
</linearGradient>
<linearGradient id="paint1_linear_186_4263" x1="561.498" y1="-179.136" x2="349.33" y2="32.5411" gradientUnits="userSpaceOnUse">
<stop stop-color="white"/>
<stop offset="1" stop-color="#D3D8DF"/>
</linearGradient>
<linearGradient id="paint2_linear_186_4263" x1="522.881" y1="-231.045" x2="310.712" y2="-19.3679" gradientUnits="userSpaceOnUse">
<stop stop-color="white"/>
<stop offset="1" stop-color="#D3D8DF"/>
</linearGradient>
<linearGradient id="paint3_linear_186_4263" x1="-198.083" y1="-198.237" x2="14.0865" y2="13.4403" gradientUnits="userSpaceOnUse">
<stop stop-color="white"/>
<stop offset="1" stop-color="#D3D8DF"/>
</linearGradient>
<linearGradient id="paint4_linear_186_4263" x1="-97.4984" y1="-193.136" x2="114.67" y2="18.5411" gradientUnits="userSpaceOnUse">
<stop stop-color="white"/>
<stop offset="1" stop-color="#D3D8DF"/>
</linearGradient>
<linearGradient id="paint5_linear_186_4263" x1="-58.8812" y1="-245.045" x2="153.288" y2="-33.3679" gradientUnits="userSpaceOnUse">
<stop stop-color="white"/>
<stop offset="1" stop-color="#D3D8DF"/>
</linearGradient>
<radialGradient id="paint6_radial_186_4263" cx="0" cy="0" r="1" gradientUnits="userSpaceOnUse" gradientTransform="translate(234 102.5) rotate(90) scale(957.5)">
<stop stop-color="#D9D9D9"/>
<stop offset="1" stop-color="#D9D9D9" stop-opacity="0"/>
</radialGradient>
<linearGradient id="paint7_linear_186_4263" x1="74.5" y1="172.5" x2="74.5" y2="148.5" gradientUnits="userSpaceOnUse">
<stop stop-color="#C34124" stop-opacity="0"/>
<stop offset="0.50284" stop-color="#F99A85"/>
<stop offset="1" stop-color="#C34124" stop-opacity="0"/>
</linearGradient>
<linearGradient id="paint8_linear_186_4263" x1="62.5" y1="160.5" x2="86.5" y2="160.5" gradientUnits="userSpaceOnUse">
<stop stop-color="#C34124" stop-opacity="0"/>
<stop offset="0.50284" stop-color="#F99A85"/>
<stop offset="1" stop-color="#C34124" stop-opacity="0"/>
</linearGradient>
<clipPath id="clip0_186_4263">
<rect width="391" height="296" fill="white" transform="matrix(-1 0 0 1 519 0)"/>
</clipPath>
<clipPath id="clip1_186_4263">
<rect width="391" height="296" fill="white" transform="translate(-55 -14)"/>
</clipPath>
</defs>
</svg>
