<svg width="1440" height="900" viewBox="0 0 1440 900" fill="none" xmlns="http://www.w3.org/2000/svg">
<mask id="mask0_165_99" style="mask-type:alpha" maskUnits="userSpaceOnUse" x="-82" y="-352" width="1604" height="1604">
<circle cx="720" cy="450" r="802" fill="url(#paint0_radial_165_99)"/>
</mask>
<g mask="url(#mask0_165_99)">
<line x1="2.62268e-08" y1="-0.3" x2="1440" y2="-0.299874" stroke="#161A31" stroke-width="0.6"/>
<line x1="2.62268e-08" y1="112.2" x2="1440" y2="112.2" stroke="#161A31" stroke-width="0.6"/>
<line x1="2.62268e-08" y1="224.7" x2="1440" y2="224.7" stroke="#161A31" stroke-width="0.6"/>
<line x1="2.62268e-08" y1="337.2" x2="1440" y2="337.2" stroke="#161A31" stroke-width="0.6"/>
<line x1="2.62268e-08" y1="449.7" x2="1440" y2="449.7" stroke="#161A31" stroke-width="0.6"/>
<line x1="2.62268e-08" y1="562.2" x2="1440" y2="562.2" stroke="#161A31" stroke-width="0.6"/>
<line x1="2.62268e-08" y1="674.7" x2="1440" y2="674.7" stroke="#161A31" stroke-width="0.6"/>
<line x1="2.62268e-08" y1="787.2" x2="1440" y2="787.2" stroke="#161A31" stroke-width="0.6"/>
<line x1="2.62268e-08" y1="899.7" x2="1440" y2="899.7" stroke="#161A31" stroke-width="0.6"/>
<line x1="110.47" y1="900" x2="110.47" y2="-540" stroke="#161A31" stroke-width="0.6"/>
<line x1="221.239" y1="900" x2="221.239" y2="-540" stroke="#161A31" stroke-width="0.6"/>
<line x1="332.009" y1="900" x2="332.009" y2="-540" stroke="#161A31" stroke-width="0.6"/>
<line x1="442.776" y1="900" x2="442.776" y2="-540" stroke="#161A31" stroke-width="0.6"/>
<line x1="553.546" y1="900" x2="553.546" y2="-540" stroke="#161A31" stroke-width="0.6"/>
<line x1="664.315" y1="900" x2="664.315" y2="-540" stroke="#161A31" stroke-width="0.6"/>
<line x1="775.085" y1="900" x2="775.085" y2="-540" stroke="#161A31" stroke-width="0.6"/>
<line x1="885.854" y1="900" x2="885.854" y2="-540" stroke="#161A31" stroke-width="0.6"/>
<line x1="996.624" y1="900" x2="996.624" y2="-540" stroke="#161A31" stroke-width="0.6"/>
<line x1="1107.39" y1="900" x2="1107.39" y2="-540" stroke="#161A31" stroke-width="0.6"/>
<line x1="1218.16" y1="900" x2="1218.16" y2="-540" stroke="#161A31" stroke-width="0.6"/>
<line x1="1328.93" y1="900" x2="1328.93" y2="-540" stroke="#161A31" stroke-width="0.6"/>
<line x1="1439.7" y1="900" x2="1439.7" y2="-540" stroke="#161A31" stroke-width="0.6"/>
<path d="M110.5 100.5L110.5 124.5" stroke="url(#paint1_linear_165_99)"/>
<path d="M122.5 112.5L98.5 112.5" stroke="url(#paint2_linear_165_99)"/>
<g opacity="0.47">
<rect x="332.5" y="113.5" width="109" height="110" fill="#0C0F24"/>
<rect x="332.5" y="113.5" width="109" height="110" fill="#0C0F24"/>
<rect x="332.5" y="113.5" width="109" height="110" fill="#0C0F24"/>
<rect x="332.5" y="113.5" width="109" height="110" fill="#0C0F24"/>
<rect x="332.5" y="113.5" width="109" height="110" stroke="#0C0F24"/>
</g>
<g opacity="0.47">
<rect x="886.5" y="1.5" width="110" height="110" fill="#0C0F24"/>
<rect x="886.5" y="1.5" width="110" height="110" fill="#0C0F24"/>
<rect x="886.5" y="1.5" width="110" height="110" fill="#0C0F24"/>
<rect x="886.5" y="1.5" width="110" height="110" fill="#0C0F24"/>
<rect x="886.5" y="1.5" width="110" height="110" stroke="#0C0F24"/>
</g>
<g opacity="0.47">
<rect x="1218.5" y="225.5" width="110" height="111" fill="#0C0F24"/>
<rect x="1218.5" y="225.5" width="110" height="111" fill="#0C0F24"/>
<rect x="1218.5" y="225.5" width="110" height="111" fill="#0C0F24"/>
<rect x="1218.5" y="225.5" width="110" height="111" fill="#0C0F24"/>
<rect x="1218.5" y="225.5" width="110" height="111" stroke="#0C0F24"/>
</g>
<path d="M1329 212L1329 236" stroke="url(#paint3_linear_165_99)"/>
<path d="M1341 224L1317 224" stroke="url(#paint4_linear_165_99)"/>
</g>
<defs>
<radialGradient id="paint0_radial_165_99" cx="0" cy="0" r="1" gradientUnits="userSpaceOnUse" gradientTransform="translate(720 294.5) rotate(90) scale(957.5)">
<stop stop-color="#D9D9D9"/>
<stop offset="1" stop-color="#D9D9D9" stop-opacity="0"/>
</radialGradient>
<linearGradient id="paint1_linear_165_99" x1="110.5" y1="124.5" x2="110.5" y2="100.5" gradientUnits="userSpaceOnUse">
<stop stop-color="#C34124" stop-opacity="0"/>
<stop offset="0.50284" stop-color="#F99A85"/>
<stop offset="1" stop-color="#C34124" stop-opacity="0"/>
</linearGradient>
<linearGradient id="paint2_linear_165_99" x1="98.5" y1="112.5" x2="122.5" y2="112.5" gradientUnits="userSpaceOnUse">
<stop stop-color="#C34124" stop-opacity="0"/>
<stop offset="0.50284" stop-color="#F99A85"/>
<stop offset="1" stop-color="#C34124" stop-opacity="0"/>
</linearGradient>
<linearGradient id="paint3_linear_165_99" x1="1329" y1="236" x2="1329" y2="212" gradientUnits="userSpaceOnUse">
<stop stop-color="white" stop-opacity="0"/>
<stop offset="0.50284" stop-color="white"/>
<stop offset="1" stop-color="white" stop-opacity="0"/>
</linearGradient>
<linearGradient id="paint4_linear_165_99" x1="1317" y1="224" x2="1341" y2="224" gradientUnits="userSpaceOnUse">
<stop stop-color="white" stop-opacity="0"/>
<stop offset="0.50284" stop-color="white"/>
<stop offset="1" stop-color="white" stop-opacity="0"/>
</linearGradient>
</defs>
</svg>
