<svg width="145" height="40" viewBox="0 0 145 48" fill="none" xmlns="http://www.w3.org/2000/svg">
<path fillRule="evenodd" clipRule="evenodd" d="M46.3997 40.1334C48.3162 39.043 49.927 37.7124 51.2897 36.3268C52.2655 38.1534 54.2235 39.4001 56.2998 39.4001C57.8998 39.4001 59.4998 38.6668 60.5998 37.2918C60.9998 38.5751 61.9998 39.4001 63.6998 39.4001C64.9755 39.4001 67.7567 38.2067 70.2784 36.4382L69.9997 37.7501C69.8997 38.1168 69.8997 38.3918 69.8997 38.5751C69.9997 39.1251 70.3997 39.4001 70.9997 39.4001C72.1997 39.4001 73.8997 38.3918 74.2997 36.7418L74.8997 34.4501C75.5997 31.5168 80.2997 27.1168 81.5997 27.1168C81.6997 27.1168 81.8997 27.2084 81.8997 27.3918C81.9393 27.6828 81.7112 28.2338 81.3779 29.039C80.8714 30.2625 80.1218 32.0729 79.6997 34.4501C79.4997 35.1834 79.4997 35.9168 79.5997 36.4668C79.7997 38.2084 80.8997 39.4001 82.9997 39.4001C84.7968 39.4001 88.6931 37.9939 91.424 35.1815C91.6298 36.7081 91.9821 38.0066 92.4997 38.8501C92.6997 39.2168 93.1997 39.3085 93.6997 39.3085C94.2997 39.3085 95.0997 39.1251 95.9997 38.6668C98.0997 37.6585 100.8 35.2751 103.4 31.7918C103.8 31.8835 104.1 31.8835 104.4 31.8835C105.437 31.8835 106.597 31.5478 107.674 30.9538C107.226 32.1925 107.052 33.4576 107.2 34.6334C107.6 37.3834 110.1 39.4918 112.8 39.4918C114.3 39.4918 115.9 38.6668 117 37.3834C117.4 39.1251 118.6 40.9584 121.6 42.0584C121.8 42.1501 122 42.1501 122.2 42.1501C122.8 42.1501 123.2 41.7834 123.1 41.3251C123.1 41.1418 123 40.8668 122.7 40.6834C122 40.1334 121.2 39.1251 121 37.5668C120.9 36.8334 120.9 35.9168 121.4 35.0001C122 32.5251 122.1 31.7918 122.1 31.5168C122 30.8751 121.5 30.6001 120.9 30.6001C119.7 30.6001 118 31.7001 117.6 33.2584C116.9 35.6418 115.1 37.2001 113.9 37.2001C112.4 37.2001 111.6 35.7334 111.4 34.1751C110.9 30.3251 113.5 25.6501 117.4 25.6501C118.5 25.6501 119.8 26.0168 119.9 27.1168C120.023 28.1306 119.353 28.3831 118.841 28.5759C118.52 28.6969 118.261 28.7944 118.3 29.0418C118.4 29.7751 119.7 29.9584 120.6 29.9584C121.4 29.9584 124 29.4084 123.6 26.7501C123.3 24.6418 120.8 23.6334 118 23.6334C114.657 23.6334 111.812 25.1848 109.875 27.3316C109.607 27.4765 109.325 27.7356 109 28.0335C108.4 28.6751 107.2 29.3168 105.7 29.3168C105.5 29.3168 105.1 29.2251 105.1 29.2251C106.1 27.4835 106.8 25.6501 106.8 24.0918C106.8 21.5251 105.1 20.2418 103.2 20.2418C100.8 20.2418 98.2997 22.1668 98.2997 26.0168C98.2997 28.3085 99.2997 30.1418 101 31.1501C98.9997 34.0835 96.2997 36.5585 95.8997 36.5585C95.7616 36.5585 95.7189 36.4274 95.6727 36.2859C95.652 36.2224 95.6307 36.1569 95.5997 36.1001C95.2997 35.0918 94.9997 33.0751 94.9997 31.8835C94.9997 29.6835 95.3997 27.4835 96.2997 25.1918C96.3997 24.9168 96.4997 24.6418 96.4997 24.4585C96.4997 23.8168 95.9997 23.5418 95.3997 23.5418C94.1997 23.5418 92.2997 24.8251 91.7997 26.2001C91.3997 27.4835 91.1997 29.3168 91.1997 31.5168C91.1997 31.9203 91.2068 32.3205 91.2213 32.7146C88.8348 35.6635 85.8899 36.6501 84.9997 36.6501C83.8997 36.6501 83.6997 35.7334 83.8997 35.3668C84.5997 32.7084 85.4997 29.6834 86.2997 27.5751C86.6997 26.5668 86.8997 25.6501 86.7997 25.1001C86.5997 24.0918 85.8997 23.6334 84.8997 23.6334C82.4997 23.6334 78.6997 25.8334 76.1997 28.8584L76.9997 25.5584C77.0997 25.1918 77.0997 24.9168 77.0997 24.7334C76.9997 24.0918 76.5997 23.8168 75.9997 23.8168C73.1997 23.8168 72.6997 25.1001 72.3997 26.3834C72.3417 26.702 71.5459 30.4642 70.8863 33.5743C68.7524 35.3695 66.3614 36.5585 65.6998 36.5585C64.8998 36.5585 64.5998 36.0085 64.5998 35.5501C64.5998 35.2336 64.7985 34.3704 64.9863 33.5549C65.1248 32.9536 65.2573 32.378 65.2998 32.0668C65.3998 31.7001 65.3998 31.4251 65.3998 31.2418C65.2998 30.6918 64.7998 30.4168 64.1998 30.4168C62.9998 30.4168 61.2998 31.5168 60.8998 33.0751C60.2998 35.4585 58.4998 37.0168 57.2998 37.0168C55.7998 37.0168 54.9998 35.5501 54.7998 34.0835C54.2998 30.7835 56.5998 25.4668 60.7998 25.4668C61.9998 25.4668 63.1998 25.8335 63.2998 26.9335C63.4209 27.988 62.8087 28.236 62.3291 28.4304C62.0166 28.557 61.7603 28.6608 61.7998 28.9501C61.8998 29.6835 63.1998 29.8668 63.9998 29.8668C64.8998 29.8668 67.3998 29.3168 66.9998 26.6585C66.6998 24.5501 64.2998 23.4501 61.3998 23.4501C54.6739 23.4501 50.1982 29.5483 50.682 34.3824C48.9739 36.2146 47.2674 37.3164 44.1997 38.7584C42.4997 39.5834 40.4997 40.0418 38.6997 40.0418C33.0997 40.0418 30.3997 35.3668 29.8997 31.3334C28.4997 21.0668 38.4997 6.85843 45.3997 6.85843C46.9997 6.85843 48.3997 8.14177 48.6997 10.1584C49.0997 13.2751 48.9997 15.4751 45.4997 18.1334C45.0997 18.4084 44.9997 18.8668 45.1997 19.1418C45.4997 19.5084 46.4997 19.6001 48.3997 18.6834C52.1997 16.9418 53.4997 14.2834 53.0997 11.1668C52.6997 7.68343 49.3997 4.84177 44.9997 4.84177C42.7997 4.84177 40.4997 5.39177 38.3997 6.58343C29.2997 11.7168 23.3997 23.2668 24.4997 32.0668C24.8997 34.9084 26.1997 37.9334 28.5997 40.0418C30.1997 41.4168 33.0997 43.0668 36.5997 43.0668C40.3997 43.0668 43.5997 41.7834 46.3997 40.1334ZM102.6 28.0335C101.6 27.0251 100.8 25.4668 100.8 24.0001C100.8 23.1751 101.1 22.2585 101.8 22.2585C102.4 22.2585 103.2 23.0835 103.2 25.0085C103.2 26.0168 103 27.0251 102.6 28.0335Z" fill="#9EA3BF"/>
</svg>
