<svg width="113" height="29" viewBox="0 0 113 38" fill="none" xmlns="http://www.w3.org/2000/svg">
<g clip-path="url(#clip0_204_23)">
<path d="M38.4157 28V9.29387H51.1849V12.9657H42.937V16.8019H50.372V20.4828H42.937V28H38.4157ZM53.4615 28V13.9704H57.9279V28H53.4615ZM55.6993 12.3354C55.0721 12.3354 54.5332 12.1284 54.0826 11.7143C53.632 11.2942 53.4067 10.7888 53.4067 10.1981C53.4067 9.61355 53.632 9.11424 54.0826 8.70017C54.5332 8.28001 55.0721 8.06993 55.6993 8.06993C56.3326 8.06993 56.8715 8.28001 57.316 8.70017C57.7666 9.11424 57.9919 9.61355 57.9919 10.1981C57.9919 10.7888 57.7666 11.2942 57.316 11.7143C56.8715 12.1284 56.3326 12.3354 55.6993 12.3354ZM67.3107 33.5534C65.9771 33.5534 64.8354 33.3677 63.8855 32.9962C62.9356 32.6248 62.1896 32.1163 61.6477 31.4709C61.1058 30.8254 60.78 30.0947 60.6704 29.2787L64.8994 29.0413C64.9785 29.3275 65.1247 29.5771 65.3378 29.7902C65.557 30.0034 65.8401 30.1678 66.1872 30.2835C66.5404 30.3992 66.9545 30.457 67.4294 30.457C68.1784 30.457 68.7965 30.2743 69.2836 29.909C69.7768 29.5497 70.0234 28.9195 70.0234 28.0183V25.5521H69.8682C69.6916 25.9845 69.4237 26.3711 69.0644 26.7121C68.7051 27.0531 68.2576 27.3211 67.7217 27.5159C67.192 27.7108 66.583 27.8082 65.8949 27.8082C64.872 27.8082 63.9342 27.5707 63.0817 27.0957C62.2353 26.6147 61.5564 25.8718 61.0449 24.8671C60.5395 23.8563 60.2868 22.5562 60.2868 20.9669C60.2868 19.3289 60.5486 17.9802 61.0723 16.9206C61.5959 15.855 62.281 15.0665 63.1274 14.555C63.9799 14.0435 64.8963 13.7877 65.8767 13.7877C66.6135 13.7877 67.2437 13.9156 67.7674 14.1713C68.2971 14.421 68.7325 14.7437 69.0735 15.1395C69.4145 15.5353 69.6733 15.9464 69.8499 16.3726H69.9778V13.9704H74.426V28.0548C74.426 29.2422 74.1276 30.2439 73.5308 31.0598C72.9341 31.8758 72.0999 32.4939 71.0282 32.914C69.9565 33.3403 68.7173 33.5534 67.3107 33.5534ZM67.4477 24.5565C67.9896 24.5565 68.4524 24.4134 68.836 24.1272C69.2197 23.8411 69.515 23.43 69.722 22.8942C69.9291 22.3583 70.0326 21.7159 70.0326 20.9669C70.0326 20.2058 69.9291 19.5512 69.722 19.0032C69.5211 18.449 69.2258 18.0228 68.836 17.7244C68.4524 17.426 67.9896 17.2769 67.4477 17.2769C66.8936 17.2769 66.4247 17.4291 66.0411 17.7335C65.6575 18.038 65.3652 18.4673 65.1642 19.0214C64.9694 19.5695 64.872 20.218 64.872 20.9669C64.872 21.7159 64.9724 22.3583 65.1734 22.8942C65.3743 23.43 65.6636 23.8411 66.0411 24.1272C66.4247 24.4134 66.8936 24.5565 67.4477 24.5565ZM77.2734 28V13.9704H81.5207V16.5461H81.676C81.9682 15.6937 82.4615 15.0208 83.1556 14.5276C83.8498 14.0343 84.678 13.7877 85.64 13.7877C86.6143 13.7877 87.4486 14.0374 88.1427 14.5367C88.8369 15.036 89.2784 15.7058 89.4671 16.5461H89.6133C89.8751 15.7119 90.3866 15.0452 91.1478 14.5458C91.9089 14.0404 92.8071 13.7877 93.8422 13.7877C95.1697 13.7877 96.2475 14.214 97.0756 15.0665C97.9038 15.9129 98.3178 17.0759 98.3178 18.5556V28H93.8514V19.5786C93.8514 18.8783 93.6718 18.3455 93.3125 17.9802C92.9532 17.6087 92.4874 17.423 91.915 17.423C91.3 17.423 90.8159 17.6239 90.4627 18.0258C90.1156 18.4216 89.9421 18.9544 89.9421 19.6243V28H85.6492V19.5329C85.6492 18.8814 85.4726 18.3668 85.1194 17.9893C84.7662 17.6118 84.3004 17.423 83.7219 17.423C83.3322 17.423 82.9882 17.5174 82.6898 17.7061C82.3914 17.8888 82.157 18.1507 81.9865 18.4917C81.8221 18.8327 81.7399 19.2345 81.7399 19.6973V28H77.2734ZM105.04 28.2375C104.145 28.2375 103.351 28.0883 102.656 27.7899C101.968 27.4855 101.423 27.0288 101.021 26.4198C100.626 25.8048 100.428 25.0345 100.428 24.109C100.428 23.3296 100.565 22.6719 100.839 22.1361C101.113 21.6002 101.49 21.1648 101.971 20.8299C102.452 20.495 103.007 20.2423 103.634 20.0718C104.261 19.8952 104.931 19.7765 105.643 19.7156C106.441 19.6425 107.083 19.5664 107.57 19.4872C108.058 19.402 108.411 19.2833 108.63 19.131C108.855 18.9727 108.968 18.7505 108.968 18.4643V18.4186C108.968 17.9497 108.807 17.5874 108.484 17.3317C108.161 17.0759 107.726 16.948 107.178 16.948C106.587 16.948 106.112 17.0759 105.753 17.3317C105.394 17.5874 105.165 17.9406 105.068 18.3912L100.948 18.245C101.07 17.3926 101.384 16.6314 101.889 15.9616C102.401 15.2857 103.101 14.7559 103.99 14.3723C104.885 13.9826 105.96 13.7877 107.214 13.7877C108.109 13.7877 108.934 13.8943 109.689 14.1074C110.445 14.3144 111.102 14.6189 111.662 15.0208C112.223 15.4166 112.655 15.9037 112.959 16.4822C113.27 17.0607 113.425 17.7214 113.425 18.4643V28H109.224V26.0454H109.114C108.864 26.5203 108.545 26.9222 108.155 27.251C107.771 27.5798 107.318 27.8265 106.794 27.9909C106.276 28.1553 105.692 28.2375 105.04 28.2375ZM106.42 25.3146C106.901 25.3146 107.333 25.2172 107.717 25.0224C108.106 24.8275 108.417 24.5596 108.648 24.2186C108.88 23.8715 108.995 23.4696 108.995 23.0129V21.6794C108.867 21.7464 108.712 21.8072 108.529 21.8621C108.353 21.9169 108.158 21.9686 107.945 22.0173C107.732 22.066 107.513 22.1087 107.287 22.1452C107.062 22.1817 106.846 22.2152 106.639 22.2457C106.219 22.3127 105.859 22.4162 105.561 22.5562C105.269 22.6963 105.043 22.879 104.885 23.1043C104.733 23.3235 104.657 23.5853 104.657 23.8898C104.657 24.3525 104.821 24.7057 105.15 24.9493C105.485 25.1929 105.908 25.3146 106.42 25.3146Z" fill="#9EA3BF"/>
<path d="M11.7305 35.2578C14.7984 35.2578 17.2734 32.7828 17.2734 29.7148V24.1719H11.7305C8.6625 24.1719 6.1875 26.6469 6.1875 29.7148C6.1875 32.7828 8.6625 35.2578 11.7305 35.2578Z" fill="#9EA3BF"/>
<path d="M6.1875 18.6289C6.1875 15.5609 8.6625 13.0859 11.7305 13.0859H17.2734V24.1719H11.7305C8.6625 24.1719 6.1875 21.6969 6.1875 18.6289Z" fill="#9EA3BF"/>
<path d="M6.1875 7.54297C6.1875 4.475 8.6625 2 11.7305 2H17.2734V13.0859H11.7305C8.6625 13.0859 6.1875 10.6109 6.1875 7.54297Z" fill="#9EA3BF"/>
<path d="M17.2734 2H22.8164C25.8844 2 28.3594 4.475 28.3594 7.54297C28.3594 10.6109 25.8844 13.0859 22.8164 13.0859H17.2734V2Z" fill="#9EA3BF"/>
<path d="M28.3594 18.6289C28.3594 21.6969 25.8844 24.1719 22.8164 24.1719C19.7484 24.1719 17.2734 21.6969 17.2734 18.6289C17.2734 15.5609 19.7484 13.0859 22.8164 13.0859C25.8844 13.0859 28.3594 15.5609 28.3594 18.6289Z" fill="#9EA3BF"/>
</g>
<defs>
<clipPath id="clip0_204_23">
<rect width="113" height="38" fill="white"/>
</clipPath>
</defs>
</svg>
