<svg width="37" height="27" viewBox="0 0 37 27" fill="none" xmlns="http://www.w3.org/2000/svg">
<rect x="3.50293" y="9.44971" width="19.1272" height="5.69262" rx="2.84631" transform="rotate(45 3.50293 9.44971)" fill="url(#paint0_linear_132_688)"/>
<rect x="33.8389" y="17.5503" width="19.1272" height="5.69262" rx="2.84631" transform="rotate(-135 33.8389 17.5503)" fill="url(#paint1_linear_132_688)"/>
<rect x="-0.522461" y="13.525" width="19.1272" height="5.69262" rx="2.84631" transform="rotate(-45 -0.522461 13.525)" fill="url(#paint2_linear_132_688)"/>
<rect x="37.8633" y="13.475" width="19.1272" height="5.69262" rx="2.84631" transform="rotate(135 37.8633 13.475)" fill="url(#paint3_linear_132_688)"/>
<circle cx="3.4635" cy="13.5483" r="2.84631" fill="url(#paint4_linear_132_688)"/>
<circle cx="33.8621" cy="13.4345" r="2.84631" transform="rotate(80 33.8621 13.4345)" fill="url(#paint5_linear_132_688)"/>
<defs>
<linearGradient id="paint0_linear_132_688" x1="9.99528" y1="11.7325" x2="22.6301" y2="12.296" gradientUnits="userSpaceOnUse">
<stop stop-color="#7F0AEE"/>
<stop offset="0.365" stop-color="#BB1ECE"/>
<stop offset="0.655" stop-color="#BD20D5"/>
<stop offset="1" stop-color="#E133B9"/>
</linearGradient>
<linearGradient id="paint1_linear_132_688" x1="40.3312" y1="19.8331" x2="52.9661" y2="20.3966" gradientUnits="userSpaceOnUse">
<stop stop-color="#C419BB"/>
<stop offset="0.365" stop-color="#AE19D9"/>
<stop offset="0.655" stop-color="#8C0DE9"/>
<stop offset="1" stop-color="#6D04F4"/>
</linearGradient>
<linearGradient id="paint2_linear_132_688" x1="-0.522461" y1="16.3713" x2="18.6047" y2="16.3713" gradientUnits="userSpaceOnUse">
<stop stop-color="#F57B94"/>
<stop offset="0.365" stop-color="#FA69A4"/>
<stop offset="0.655" stop-color="#F860A4"/>
<stop offset="1" stop-color="#F73CAC"/>
</linearGradient>
<linearGradient id="paint3_linear_132_688" x1="37.8633" y1="16.3213" x2="56.9905" y2="16.3213" gradientUnits="userSpaceOnUse">
<stop stop-color="#F57B94"/>
<stop offset="0.365" stop-color="#FA69A4"/>
<stop offset="0.655" stop-color="#F860A4"/>
<stop offset="1" stop-color="#F73CAC"/>
</linearGradient>
<linearGradient id="paint4_linear_132_688" x1="5.39899" y1="11.7267" x2="1.58493" y2="15.1992" gradientUnits="userSpaceOnUse">
<stop stop-color="#F85896"/>
<stop offset="1" stop-color="#FB6E89"/>
</linearGradient>
<linearGradient id="paint5_linear_132_688" x1="35.7976" y1="11.6129" x2="31.9835" y2="15.0854" gradientUnits="userSpaceOnUse">
<stop stop-color="#F85896"/>
<stop offset="1" stop-color="#FB6E89"/>
</linearGradient>
</defs>
</svg>
