<svg width="30" height="26" viewBox="0 0 30 26" fill="none" xmlns="http://www.w3.org/2000/svg">
<path d="M14.7814 15.6775C16.201 15.6775 17.3518 14.5261 17.3518 13.1059C17.3518 11.6856 16.201 10.5343 14.7814 10.5343C13.3618 10.5343 12.2109 11.6856 12.2109 13.1059C12.2109 14.5261 13.3618 15.6775 14.7814 15.6775Z" fill="#00D8FF"/>
<path d="M14.7824 18.9943C11.1736 18.9943 8.02042 18.5693 5.66063 17.7601C4.13009 17.2378 2.8299 16.5413 1.90338 15.7475C0.920561 14.9077 0.398438 13.991 0.398438 13.105C0.398438 11.4048 2.2617 9.74047 5.38933 8.65479C7.94876 7.76372 11.2863 7.26697 14.7773 7.26697C18.207 7.26697 21.4984 7.74835 24.0425 8.62919C25.532 9.1413 26.7862 9.80704 27.6768 10.5445C28.6443 11.3536 29.1562 12.2396 29.1562 13.105C29.1562 14.8718 27.0728 16.6591 23.7148 17.7704C21.3397 18.559 18.166 18.9943 14.7824 18.9943ZM14.7824 8.49604C11.4705 8.49604 8.19446 8.97742 5.79884 9.81216C2.92204 10.8159 1.63208 12.1884 1.63208 13.105C1.63208 14.0576 3.01929 15.5581 6.0599 16.5976C8.29172 17.3607 11.3118 17.7653 14.7824 17.7653C18.038 17.7653 21.0735 17.3556 23.3309 16.6028C26.4893 15.5529 27.9328 14.0525 27.9328 13.105C27.9328 12.6185 27.5642 12.045 26.8937 11.4868C26.1207 10.8415 24.9946 10.2526 23.6483 9.78656C21.2271 8.95694 18.079 8.49604 14.7824 8.49604Z" fill="#00D8FF"/>
<path d="M8.95244 25.9181C8.43032 25.9181 7.96962 25.8054 7.58058 25.5801C6.11147 24.73 5.59958 22.2821 6.21897 19.0302C6.72573 16.3621 7.9645 13.228 9.71003 10.2014C11.4248 7.23113 13.4826 4.61936 15.5148 2.85257C16.7024 1.81811 17.9053 1.06018 18.9905 0.660733C20.173 0.225437 21.1968 0.225437 21.9441 0.655612C23.4747 1.53644 23.9814 4.2404 23.2648 7.70228C22.758 10.1604 21.55 13.1255 19.8607 16.0599C18.0589 19.1838 16.1137 21.7034 14.2351 23.3473C13.0168 24.4125 11.7627 25.1909 10.6161 25.5955C10.0172 25.8106 9.45409 25.9181 8.95244 25.9181ZM10.2373 10.5087L10.7696 10.8159C9.11624 13.6837 7.89283 16.7615 7.4219 19.2607C6.8537 22.2565 7.40142 24.0591 8.18973 24.5149C8.38424 24.6276 8.64019 24.689 8.95244 24.689C9.97109 24.689 11.5733 24.0438 13.4263 22.4255C15.2026 20.8738 17.0607 18.4566 18.796 15.4505C20.4238 12.6288 21.5807 9.79169 22.0619 7.46158C22.7324 4.19943 22.154 2.20219 21.3299 1.72593C20.9101 1.48523 20.2293 1.51596 19.4103 1.81811C18.4633 2.16634 17.3934 2.84745 16.3185 3.78462C14.3887 5.46435 12.4179 7.96345 10.7696 10.821L10.2373 10.5087Z" fill="#00D8FF"/>
<path d="M20.6127 25.9338C19.2203 25.9338 17.4543 25.094 15.6115 23.5064C13.5538 21.7345 11.4602 19.0972 9.70951 16.0706C7.98957 13.1003 6.76104 10.0123 6.24404 7.36466C5.94203 5.81808 5.88572 4.39953 6.08023 3.25752C6.29523 2.01309 6.80199 1.12713 7.55447 0.691838C9.07989 -0.194116 11.6751 0.717444 14.3165 3.06804C16.19 4.7324 18.1556 7.26224 19.85 10.1915C21.6569 13.3154 22.8701 16.2601 23.3513 18.7079C23.6635 20.2955 23.7147 21.7704 23.4946 22.9687C23.2591 24.2439 22.7268 25.1503 21.9589 25.5959C21.575 25.8212 21.1194 25.9338 20.6127 25.9338ZM10.7742 15.456C12.4327 18.3239 14.4905 20.9203 16.4152 22.5744C18.7238 24.5614 20.5564 24.9916 21.3498 24.5307C22.1739 24.0544 22.778 22.1033 22.1535 18.9486C21.6928 16.6339 20.5308 13.8173 18.7904 10.8112C17.1574 7.98944 15.2788 5.56715 13.5026 3.98984C11.0148 1.77752 8.99798 1.28077 8.17385 1.75703C7.7541 1.99772 7.44185 2.60714 7.2934 3.46749C7.12448 4.46098 7.17567 5.73102 7.45209 7.12909C7.9435 9.64356 9.12084 12.5984 10.7742 15.456Z" fill="#00D8FF"/>
</svg>
